  0
SECTION
  2
HEADER
  9
$ANGBASE
  50
0.0
  9
$ANGDIR
  70
1
  9
$MEASUREMENT
  70
0
  0
ENDSEC
  0
SECTION
  2
TABLES
  0
TABLE
  2
LTYPE
  70
4
  0
LTYPE
  5
40F
  2
CONTINUOUS
  70
0
  3
Solid line
  72
65
  73
0
  40
0.0
  0
LTYPE
  5
410
  2
DASHDOT
 70
0
  3
Dash Dot ____ _ ____ _
 72
65
 73
4
 40
2.0
 49
1.25
 49
-0.25
 49
0.25
 49
-0.25
  0
LTYPE
  5
411
  2
DASHED
 70
0
  3
Dashed __ __ __ __ __
 72
65
 73
2
 40
0.75
 49
0.5
 49
-0.25
  0
LTYPE
  5
43B
  2
DOTTED
 70
0
  3
Dotted .  .  .  .
 72
65
 73
2
 40
0.2
 49
0.0
 49
-0.2
  0
ENDTAB
  0
TABLE
  2
STYLE
  70
4
  0
STYLE
  2
KICAD
  70
0
  40
0
  41
1
  42
1
  50
0
  71
0
  3
isocp.shx
  0
STYLE
  2
KICADB
  70
0
  40
0
  41
1
  42
1
  50
0
  71
0
  3
isocp.shx
  0
STYLE
  2
KICADI
  70
0
  40
0
  41
1
  42
1
  50
15
  71
0
  3
isocp.shx
  0
STYLE
  2
KICADBI
  70
0
  40
0
  41
1
  42
1
  50
15
  71
0
  3
isocp.shx
  0
ENDTAB
  0
TABLE
  2
LAYER
  70
1
  0
LAYER
  2
BLACK
  70
0
  62
7
  6
CONTINUOUS
  0
ENDTAB
  0
ENDSEC
  0
SECTION
  2
ENTITIES
0
LINE
8
BLACK
6
CONTINUOUS
10
0.2205096456692913
20
0.3163158661417323
11
0.2338744094488189
21
0.3131483858267716
0
LINE
8
BLACK
6
CONTINUOUS
10
0.2338744094488189
20
0.3131483858267716
11
0.246781062992126
21
0.3084507086614173
0
LINE
8
BLACK
6
CONTINUOUS
10
0.246781062992126
20
0.3084507086614173
11
0.2590551181102362
21
0.3022864566929134
0
LINE
8
BLACK
6
CONTINUOUS
10
0.2590551181102362
20
0.3022864566929134
11
0.2705305511811024
21
0.2947389763779528
0
LINE
8
BLACK
6
CONTINUOUS
10
0.2705305511811024
20
0.2947389763779528
11
0.2810521653543307
21
0.2859102755905512
0
LINE
8
BLACK
6
CONTINUOUS
10
0.2810521653543307
20
0.2859102755905512
11
0.2904776771653543
21
0.2759198031496063
0
LINE
8
BLACK
6
CONTINUOUS
10
0.2904776771653543
20
0.2759198031496063
11
0.2986796456692913
21
0.2649026377952756
0
LINE
8
BLACK
6
CONTINUOUS
10
0.2986796456692913
20
0.2649026377952756
11
0.3055471653543307
21
0.2530077952755905
0
LINE
8
BLACK
6
CONTINUOUS
10
0.3055471653543307
20
0.2530077952755905
11
0.3109873228346456
21
0.240396062992126
0
LINE
8
BLACK
6
CONTINUOUS
10
0.3109873228346456
20
0.240396062992126
11
0.3149265748031496
21
0.2272381102362205
0
LINE
8
BLACK
6
CONTINUOUS
10
0.3149265748031496
20
0.2272381102362205
11
0.3173116141732283
21
0.2137117716535433
0
LINE
8
BLACK
6
CONTINUOUS
10
0.3173116141732283
20
0.2137117716535433
11
0.3181102362204724
21
0.2
0
LINE
8
BLACK
6
CONTINUOUS
10
0.3181102362204724
20
0.2
11
0.3173116141732283
21
0.1862882283464567
0
LINE
8
BLACK
6
CONTINUOUS
10
0.3173116141732283
20
0.1862882283464567
11
0.3149265748031496
21
0.1727618897637795
0
LINE
8
BLACK
6
CONTINUOUS
10
0.3149265748031496
20
0.1727618897637795
11
0.3109873228346456
21
0.159603937007874
0
LINE
8
BLACK
6
CONTINUOUS
10
0.3109873228346456
20
0.159603937007874
11
0.3055471653543307
21
0.1469922047244094
0
LINE
8
BLACK
6
CONTINUOUS
10
0.3055471653543307
20
0.1469922047244094
11
0.2986796456692913
21
0.1350973622047244
0
LINE
8
BLACK
6
CONTINUOUS
10
0.2986796456692913
20
0.1350973622047244
11
0.2904776771653543
21
0.1240801968503937
0
LINE
8
BLACK
6
CONTINUOUS
10
0.2904776771653543
20
0.1240801968503937
11
0.2810521653543307
21
0.1140897244094488
0
LINE
8
BLACK
6
CONTINUOUS
10
0.2810521653543307
20
0.1140897244094488
11
0.2705305511811024
21
0.1052610236220472
0
LINE
8
BLACK
6
CONTINUOUS
10
0.2705305511811024
20
0.1052610236220472
11
0.2590551181102362
21
0.0977135433070866
0
LINE
8
BLACK
6
CONTINUOUS
10
0.2590551181102362
20
0.0977135433070866
11
0.246781062992126
21
0.0915492913385827
0
LINE
8
BLACK
6
CONTINUOUS
10
0.246781062992126
20
0.0915492913385827
11
0.2338744094488189
21
0.0868516141732283
0
LINE
8
BLACK
6
CONTINUOUS
10
0.2338744094488189
20
0.0868516141732283
11
0.2205096456692913
21
0.0836841338582677
0
LINE
8
BLACK
6
CONTINUOUS
10
0.2205096456692913
20
0.0836841338582677
11
0.2068674803149606
21
0.0820896062992126
0
LINE
8
BLACK
6
CONTINUOUS
10
0.2068674803149606
20
0.0820896062992126
11
0.1931325196850394
21
0.0820896062992126
0
LINE
8
BLACK
6
CONTINUOUS
10
0.1931325196850394
20
0.0820896062992126
11
0.1794903543307086
21
0.0836841338582677
0
LINE
8
BLACK
6
CONTINUOUS
10
0.1794903543307086
20
0.0836841338582677
11
0.1661255905511811
21
0.0868516141732283
0
LINE
8
BLACK
6
CONTINUOUS
10
0.1661255905511811
20
0.0868516141732283
11
0.153218937007874
21
0.0915492913385827
0
LINE
8
BLACK
6
CONTINUOUS
10
0.153218937007874
20
0.0915492913385827
11
0.1409448818897638
21
0.0977135433070866
0
LINE
8
BLACK
6
CONTINUOUS
10
0.1409448818897638
20
0.0977135433070866
11
0.1294694488188976
21
0.1052610236220472
0
LINE
8
BLACK
6
CONTINUOUS
10
0.1294694488188976
20
0.1052610236220472
11
0.1189478346456693
21
0.1140897244094488
0
LINE
8
BLACK
6
CONTINUOUS
10
0.1189478346456693
20
0.1140897244094488
11
0.1095223228346457
21
0.1240801968503937
0
LINE
8
BLACK
6
CONTINUOUS
10
0.1095223228346457
20
0.1240801968503937
11
0.1013203543307087
21
0.1350973622047244
0
LINE
8
BLACK
6
CONTINUOUS
10
0.1013203543307087
20
0.1350973622047244
11
0.0944528346456693
21
0.1469922047244094
0
LINE
8
BLACK
6
CONTINUOUS
10
0.0944528346456693
20
0.1469922047244094
11
0.0890126771653543
21
0.159603937007874
0
LINE
8
BLACK
6
CONTINUOUS
10
0.0890126771653543
20
0.159603937007874
11
0.0850734251968504
21
0.1727618897637795
0
LINE
8
BLACK
6
CONTINUOUS
10
0.0850734251968504
20
0.1727618897637795
11
0.0826883858267717
21
0.1862882283464567
0
LINE
8
BLACK
6
CONTINUOUS
10
0.0826883858267717
20
0.1862882283464567
11
0.0818897637795276
21
0.2
0
LINE
8
BLACK
6
CONTINUOUS
10
0.0818897637795276
20
0.2
11
0.0826883858267717
21
0.2137117716535433
0
LINE
8
BLACK
6
CONTINUOUS
10
0.0826883858267717
20
0.2137117716535433
11
0.0850734251968504
21
0.2272381102362205
0
LINE
8
BLACK
6
CONTINUOUS
10
0.0850734251968504
20
0.2272381102362205
11
0.0890126771653543
21
0.240396062992126
0
LINE
8
BLACK
6
CONTINUOUS
10
0.0890126771653543
20
0.240396062992126
11
0.0944528346456693
21
0.2530077952755905
0
LINE
8
BLACK
6
CONTINUOUS
10
0.0944528346456693
20
0.2530077952755905
11
0.1013203543307087
21
0.2649026377952756
0
LINE
8
BLACK
6
CONTINUOUS
10
0.1013203543307087
20
0.2649026377952756
11
0.1095223228346457
21
0.2759198031496063
0
LINE
8
BLACK
6
CONTINUOUS
10
0.1095223228346457
20
0.2759198031496063
11
0.1189478346456693
21
0.2859102755905512
0
LINE
8
BLACK
6
CONTINUOUS
10
0.1189478346456693
20
0.2859102755905512
11
0.1294694488188976
21
0.2947389763779528
0
LINE
8
BLACK
6
CONTINUOUS
10
0.1294694488188976
20
0.2947389763779528
11
0.1409448818897638
21
0.3022864566929134
0
LINE
8
BLACK
6
CONTINUOUS
10
0.1409448818897638
20
0.3022864566929134
11
0.153218937007874
21
0.3084507086614173
0
LINE
8
BLACK
6
CONTINUOUS
10
0.153218937007874
20
0.3084507086614173
11
0.1661255905511811
21
0.3131483858267716
0
LINE
8
BLACK
6
CONTINUOUS
10
0.1661255905511811
20
0.3131483858267716
11
0.1794903543307086
21
0.3163158661417323
0
LINE
8
BLACK
6
CONTINUOUS
10
0.1794903543307086
20
0.3163158661417323
11
0.1931325196850394
21
0.3179103937007874
0
LINE
8
BLACK
6
CONTINUOUS
10
0.1931325196850394
20
0.3179103937007874
11
0.2068674803149606
21
0.3179103937007874
0
LINE
8
BLACK
6
CONTINUOUS
10
0.2068674803149606
20
0.3179103937007874
11
0.2205096456692913
21
0.3163158661417323
0
LINE
8
BLACK
6
CONTINUOUS
10
1.8205096456692913
20
0.3163158661417323
11
1.8338744094488189
21
0.3131483858267716
0
LINE
8
BLACK
6
CONTINUOUS
10
1.8338744094488189
20
0.3131483858267716
11
1.846781062992126
21
0.3084507086614173
0
LINE
8
BLACK
6
CONTINUOUS
10
1.846781062992126
20
0.3084507086614173
11
1.8590551181102362
21
0.3022864566929134
0
LINE
8
BLACK
6
CONTINUOUS
10
1.8590551181102362
20
0.3022864566929134
11
1.8705305511811023
21
0.2947389763779528
0
LINE
8
BLACK
6
CONTINUOUS
10
1.8705305511811023
20
0.2947389763779528
11
1.8810521653543306
21
0.2859102755905512
0
LINE
8
BLACK
6
CONTINUOUS
10
1.8810521653543306
20
0.2859102755905512
11
1.8904776771653542
21
0.2759198031496063
0
LINE
8
BLACK
6
CONTINUOUS
10
1.8904776771653542
20
0.2759198031496063
11
1.8986796456692914
21
0.2649026377952756
0
LINE
8
BLACK
6
CONTINUOUS
10
1.8986796456692914
20
0.2649026377952756
11
1.9055471653543308
21
0.2530077952755905
0
LINE
8
BLACK
6
CONTINUOUS
10
1.9055471653543308
20
0.2530077952755905
11
1.9109873228346457
21
0.240396062992126
0
LINE
8
BLACK
6
CONTINUOUS
10
1.9109873228346457
20
0.240396062992126
11
1.9149265748031497
21
0.2272381102362205
0
LINE
8
BLACK
6
CONTINUOUS
10
1.9149265748031497
20
0.2272381102362205
11
1.9173116141732283
21
0.2137117716535433
0
LINE
8
BLACK
6
CONTINUOUS
10
1.9173116141732283
20
0.2137117716535433
11
1.9181102362204725
21
0.2
0
LINE
8
BLACK
6
CONTINUOUS
10
1.9181102362204725
20
0.2
11
1.9173116141732283
21
0.1862882283464567
0
LINE
8
BLACK
6
CONTINUOUS
10
1.9173116141732283
20
0.1862882283464567
11
1.9149265748031497
21
0.1727618897637795
0
LINE
8
BLACK
6
CONTINUOUS
10
1.9149265748031497
20
0.1727618897637795
11
1.9109873228346457
21
0.159603937007874
0
LINE
8
BLACK
6
CONTINUOUS
10
1.9109873228346457
20
0.159603937007874
11
1.9055471653543308
21
0.1469922047244094
0
LINE
8
BLACK
6
CONTINUOUS
10
1.9055471653543308
20
0.1469922047244094
11
1.8986796456692914
21
0.1350973622047244
0
LINE
8
BLACK
6
CONTINUOUS
10
1.8986796456692914
20
0.1350973622047244
11
1.8904776771653542
21
0.1240801968503937
0
LINE
8
BLACK
6
CONTINUOUS
10
1.8904776771653542
20
0.1240801968503937
11
1.8810521653543306
21
0.1140897244094488
0
LINE
8
BLACK
6
CONTINUOUS
10
1.8810521653543306
20
0.1140897244094488
11
1.8705305511811023
21
0.1052610236220472
0
LINE
8
BLACK
6
CONTINUOUS
10
1.8705305511811023
20
0.1052610236220472
11
1.8590551181102362
21
0.0977135433070866
0
LINE
8
BLACK
6
CONTINUOUS
10
1.8590551181102362
20
0.0977135433070866
11
1.846781062992126
21
0.0915492913385827
0
LINE
8
BLACK
6
CONTINUOUS
10
1.846781062992126
20
0.0915492913385827
11
1.8338744094488189
21
0.0868516141732283
0
LINE
8
BLACK
6
CONTINUOUS
10
1.8338744094488189
20
0.0868516141732283
11
1.8205096456692913
21
0.0836841338582677
0
LINE
8
BLACK
6
CONTINUOUS
10
1.8205096456692913
20
0.0836841338582677
11
1.8068674803149607
21
0.0820896062992126
0
LINE
8
BLACK
6
CONTINUOUS
10
1.8068674803149607
20
0.0820896062992126
11
1.7931325196850394
21
0.0820896062992126
0
LINE
8
BLACK
6
CONTINUOUS
10
1.7931325196850394
20
0.0820896062992126
11
1.7794903543307086
21
0.0836841338582677
0
LINE
8
BLACK
6
CONTINUOUS
10
1.7794903543307086
20
0.0836841338582677
11
1.766125590551181
21
0.0868516141732283
0
LINE
8
BLACK
6
CONTINUOUS
10
1.766125590551181
20
0.0868516141732283
11
1.7532189370078739
21
0.0915492913385827
0
LINE
8
BLACK
6
CONTINUOUS
10
1.7532189370078739
20
0.0915492913385827
11
1.7409448818897637
21
0.0977135433070866
0
LINE
8
BLACK
6
CONTINUOUS
10
1.7409448818897637
20
0.0977135433070866
11
1.7294694488188975
21
0.1052610236220472
0
LINE
8
BLACK
6
CONTINUOUS
10
1.7294694488188975
20
0.1052610236220472
11
1.7189478346456692
21
0.1140897244094488
0
LINE
8
BLACK
6
CONTINUOUS
10
1.7189478346456692
20
0.1140897244094488
11
1.7095223228346457
21
0.1240801968503937
0
LINE
8
BLACK
6
CONTINUOUS
10
1.7095223228346457
20
0.1240801968503937
11
1.7013203543307087
21
0.1350973622047244
0
LINE
8
BLACK
6
CONTINUOUS
10
1.7013203543307087
20
0.1350973622047244
11
1.6944528346456693
21
0.1469922047244094
0
LINE
8
BLACK
6
CONTINUOUS
10
1.6944528346456693
20
0.1469922047244094
11
1.6890126771653542
21
0.159603937007874
0
LINE
8
BLACK
6
CONTINUOUS
10
1.6890126771653542
20
0.159603937007874
11
1.6850734251968504
21
0.1727618897637795
0
LINE
8
BLACK
6
CONTINUOUS
10
1.6850734251968504
20
0.1727618897637795
11
1.6826883858267716
21
0.1862882283464567
0
LINE
8
BLACK
6
CONTINUOUS
10
1.6826883858267716
20
0.1862882283464567
11
1.6818897637795276
21
0.2
0
LINE
8
BLACK
6
CONTINUOUS
10
1.6818897637795276
20
0.2
11
1.6826883858267716
21
0.2137117716535433
0
LINE
8
BLACK
6
CONTINUOUS
10
1.6826883858267716
20
0.2137117716535433
11
1.6850734251968504
21
0.2272381102362205
0
LINE
8
BLACK
6
CONTINUOUS
10
1.6850734251968504
20
0.2272381102362205
11
1.6890126771653542
21
0.240396062992126
0
LINE
8
BLACK
6
CONTINUOUS
10
1.6890126771653542
20
0.240396062992126
11
1.6944528346456693
21
0.2530077952755905
0
LINE
8
BLACK
6
CONTINUOUS
10
1.6944528346456693
20
0.2530077952755905
11
1.7013203543307087
21
0.2649026377952756
0
LINE
8
BLACK
6
CONTINUOUS
10
1.7013203543307087
20
0.2649026377952756
11
1.7095223228346457
21
0.2759198031496063
0
LINE
8
BLACK
6
CONTINUOUS
10
1.7095223228346457
20
0.2759198031496063
11
1.7189478346456692
21
0.2859102755905512
0
LINE
8
BLACK
6
CONTINUOUS
10
1.7189478346456692
20
0.2859102755905512
11
1.7294694488188975
21
0.2947389763779528
0
LINE
8
BLACK
6
CONTINUOUS
10
1.7294694488188975
20
0.2947389763779528
11
1.7409448818897637
21
0.3022864566929134
0
LINE
8
BLACK
6
CONTINUOUS
10
1.7409448818897637
20
0.3022864566929134
11
1.7532189370078739
21
0.3084507086614173
0
LINE
8
BLACK
6
CONTINUOUS
10
1.7532189370078739
20
0.3084507086614173
11
1.766125590551181
21
0.3131483858267716
0
LINE
8
BLACK
6
CONTINUOUS
10
1.766125590551181
20
0.3131483858267716
11
1.7794903543307086
21
0.3163158661417323
0
LINE
8
BLACK
6
CONTINUOUS
10
1.7794903543307086
20
0.3163158661417323
11
1.7931325196850394
21
0.3179103937007874
0
LINE
8
BLACK
6
CONTINUOUS
10
1.7931325196850394
20
0.3179103937007874
11
1.8068674803149607
21
0.3179103937007874
0
LINE
8
BLACK
6
CONTINUOUS
10
1.8068674803149607
20
0.3179103937007874
11
1.8205096456692913
21
0.3163158661417323
0
LINE
8
BLACK
6
CONTINUOUS
10
0.2990866141732283
20
0.5593593700787401
11
0.3045564173228346
21
0.556488622047244
0
LINE
8
BLACK
6
CONTINUOUS
10
0.3045564173228346
20
0.556488622047244
11
0.3091802755905512
21
0.5523922440944882
0
LINE
8
BLACK
6
CONTINUOUS
10
0.3091802755905512
20
0.5523922440944882
11
0.3126894094488189
21
0.5473083464566929
0
LINE
8
BLACK
6
CONTINUOUS
10
0.3126894094488189
20
0.5473083464566929
11
0.3148799606299212
21
0.5415323622047244
0
LINE
8
BLACK
6
CONTINUOUS
10
0.3148799606299212
20
0.5415323622047244
11
0.3156245669291339
21
0.5354
0
LINE
8
BLACK
6
CONTINUOUS
10
0.3156245669291339
20
0.5354
11
0.3148799606299212
21
0.5292676377952755
0
LINE
8
BLACK
6
CONTINUOUS
10
0.3148799606299212
20
0.5292676377952755
11
0.3126894094488189
21
0.5234916535433071
0
LINE
8
BLACK
6
CONTINUOUS
10
0.3126894094488189
20
0.5234916535433071
11
0.3091802755905512
21
0.5184077559055118
0
LINE
8
BLACK
6
CONTINUOUS
10
0.3091802755905512
20
0.5184077559055118
11
0.3045564173228346
21
0.5143113779527559
0
LINE
8
BLACK
6
CONTINUOUS
10
0.3045564173228346
20
0.5143113779527559
11
0.2990866141732283
21
0.5114406299212598
0
LINE
8
BLACK
6
CONTINUOUS
10
0.2990866141732283
20
0.5114406299212598
11
0.2930887007874016
21
0.509962283464567
0
LINE
8
BLACK
6
CONTINUOUS
10
0.2930887007874016
20
0.509962283464567
11
0.2869112992125984
21
0.509962283464567
0
LINE
8
BLACK
6
CONTINUOUS
10
0.2869112992125984
20
0.509962283464567
11
0.2809133858267717
21
0.5114406299212598
0
LINE
8
BLACK
6
CONTINUOUS
10
0.2809133858267717
20
0.5114406299212598
11
0.2754435826771653
21
0.5143113779527559
0
LINE
8
BLACK
6
CONTINUOUS
10
0.2754435826771653
20
0.5143113779527559
11
0.2708197244094488
21
0.5184077559055118
0
LINE
8
BLACK
6
CONTINUOUS
10
0.2708197244094488
20
0.5184077559055118
11
0.2673105905511811
21
0.5234916535433071
0
LINE
8
BLACK
6
CONTINUOUS
10
0.2673105905511811
20
0.5234916535433071
11
0.2651200393700787
21
0.5292676377952755
0
LINE
8
BLACK
6
CONTINUOUS
10
0.2651200393700787
20
0.5292676377952755
11
0.2643754330708661
21
0.5354
0
LINE
8
BLACK
6
CONTINUOUS
10
0.2643754330708661
20
0.5354
11
0.2651200393700787
21
0.5415323622047244
0
LINE
8
BLACK
6
CONTINUOUS
10
0.2651200393700787
20
0.5415323622047244
11
0.2673105905511811
21
0.5473083464566929
0
LINE
8
BLACK
6
CONTINUOUS
10
0.2673105905511811
20
0.5473083464566929
11
0.2708197244094488
21
0.5523922440944882
0
LINE
8
BLACK
6
CONTINUOUS
10
0.2708197244094488
20
0.5523922440944882
11
0.2754435826771653
21
0.556488622047244
0
LINE
8
BLACK
6
CONTINUOUS
10
0.2754435826771653
20
0.556488622047244
11
0.2809133858267717
21
0.5593593700787401
0
LINE
8
BLACK
6
CONTINUOUS
10
0.2809133858267717
20
0.5593593700787401
11
0.2869112992125984
21
0.560837716535433
0
LINE
8
BLACK
6
CONTINUOUS
10
0.2869112992125984
20
0.560837716535433
11
0.2930887007874016
21
0.560837716535433
0
LINE
8
BLACK
6
CONTINUOUS
10
0.2930887007874016
20
0.560837716535433
11
0.2990866141732283
21
0.5593593700787401
0
LINE
8
BLACK
6
CONTINUOUS
10
0.2889972047244094
20
0.5343972047244094
11
0.29
21
0.5339818110236221
0
LINE
8
BLACK
6
CONTINUOUS
10
0.29
20
0.5339818110236221
11
0.2910027952755905
21
0.5343972047244094
0
LINE
8
BLACK
6
CONTINUOUS
10
0.2910027952755905
20
0.5343972047244094
11
0.2914181889763779
21
0.5354
0
LINE
8
BLACK
6
CONTINUOUS
10
0.2914181889763779
20
0.5354
11
0.2910027952755905
21
0.5364027952755905
0
LINE
8
BLACK
6
CONTINUOUS
10
0.2910027952755905
20
0.5364027952755905
11
0.29
21
0.5368181889763779
0
LINE
8
BLACK
6
CONTINUOUS
10
0.29
20
0.5368181889763779
11
0.2889972047244094
21
0.5364027952755905
0
LINE
8
BLACK
6
CONTINUOUS
10
0.2889972047244094
20
0.5364027952755905
11
0.288581811023622
21
0.5354
0
LINE
8
BLACK
6
CONTINUOUS
10
0.288581811023622
20
0.5354
11
0.2889972047244094
21
0.5343972047244094
0
LINE
8
BLACK
6
CONTINUOUS
10
1.7440866141732283
20
0.5843593700787402
11
1.7495564173228346
21
0.5814886220472441
0
LINE
8
BLACK
6
CONTINUOUS
10
1.7495564173228346
20
0.5814886220472441
11
1.7541802755905511
21
0.5773922440944882
0
LINE
8
BLACK
6
CONTINUOUS
10
1.7541802755905511
20
0.5773922440944882
11
1.7576894094488189
21
0.5723083464566929
0
LINE
8
BLACK
6
CONTINUOUS
10
1.7576894094488189
20
0.5723083464566929
11
1.7598799606299211
21
0.5665323622047244
0
LINE
8
BLACK
6
CONTINUOUS
10
1.7598799606299211
20
0.5665323622047244
11
1.7606245669291338
21
0.5604
0
LINE
8
BLACK
6
CONTINUOUS
10
1.7606245669291338
20
0.5604
11
1.7598799606299211
21
0.5542676377952755
0
LINE
8
BLACK
6
CONTINUOUS
10
1.7598799606299211
20
0.5542676377952755
11
1.7576894094488189
21
0.5484916535433071
0
LINE
8
BLACK
6
CONTINUOUS
10
1.7576894094488189
20
0.5484916535433071
11
1.7541802755905511
21
0.5434077559055118
0
LINE
8
BLACK
6
CONTINUOUS
10
1.7541802755905511
20
0.5434077559055118
11
1.7495564173228346
21
0.5393113779527559
0
LINE
8
BLACK
6
CONTINUOUS
10
1.7495564173228346
20
0.5393113779527559
11
1.7440866141732283
21
0.5364406299212598
0
LINE
8
BLACK
6
CONTINUOUS
10
1.7440866141732283
20
0.5364406299212598
11
1.7380887007874015
21
0.5349622834645669
0
LINE
8
BLACK
6
CONTINUOUS
10
1.7380887007874015
20
0.5349622834645669
11
1.7319112992125985
21
0.5349622834645669
0
LINE
8
BLACK
6
CONTINUOUS
10
1.7319112992125985
20
0.5349622834645669
11
1.7259133858267717
21
0.5364406299212598
0
LINE
8
BLACK
6
CONTINUOUS
10
1.7259133858267717
20
0.5364406299212598
11
1.7204435826771654
21
0.5393113779527559
0
LINE
8
BLACK
6
CONTINUOUS
10
1.7204435826771654
20
0.5393113779527559
11
1.7158197244094489
21
0.5434077559055118
0
LINE
8
BLACK
6
CONTINUOUS
10
1.7158197244094489
20
0.5434077559055118
11
1.7123105905511811
21
0.5484916535433071
0
LINE
8
BLACK
6
CONTINUOUS
10
1.7123105905511811
20
0.5484916535433071
11
1.7101200393700786
21
0.5542676377952755
0
LINE
8
BLACK
6
CONTINUOUS
10
1.7101200393700786
20
0.5542676377952755
11
1.7093754330708661
21
0.5604
0
LINE
8
BLACK
6
CONTINUOUS
10
1.7093754330708661
20
0.5604
11
1.7101200393700786
21
0.5665323622047244
0
LINE
8
BLACK
6
CONTINUOUS
10
1.7101200393700786
20
0.5665323622047244
11
1.7123105905511811
21
0.5723083464566929
0
LINE
8
BLACK
6
CONTINUOUS
10
1.7123105905511811
20
0.5723083464566929
11
1.7158197244094489
21
0.5773922440944882
0
LINE
8
BLACK
6
CONTINUOUS
10
1.7158197244094489
20
0.5773922440944882
11
1.7204435826771654
21
0.5814886220472441
0
LINE
8
BLACK
6
CONTINUOUS
10
1.7204435826771654
20
0.5814886220472441
11
1.7259133858267717
21
0.5843593700787402
0
LINE
8
BLACK
6
CONTINUOUS
10
1.7259133858267717
20
0.5843593700787402
11
1.7319112992125985
21
0.585837716535433
0
LINE
8
BLACK
6
CONTINUOUS
10
1.7319112992125985
20
0.585837716535433
11
1.7380887007874015
21
0.585837716535433
0
LINE
8
BLACK
6
CONTINUOUS
10
1.7380887007874015
20
0.585837716535433
11
1.7440866141732283
21
0.5843593700787402
0
LINE
8
BLACK
6
CONTINUOUS
10
1.7339972047244094
20
0.5593972047244095
11
1.7349999999999999
21
0.558981811023622
0
LINE
8
BLACK
6
CONTINUOUS
10
1.7349999999999999
20
0.558981811023622
11
1.7360027952755905
21
0.5593972047244095
0
LINE
8
BLACK
6
CONTINUOUS
10
1.7360027952755905
20
0.5593972047244095
11
1.7364181889763779
21
0.5604
0
LINE
8
BLACK
6
CONTINUOUS
10
1.7364181889763779
20
0.5604
11
1.7360027952755905
21
0.5614027952755906
0
LINE
8
BLACK
6
CONTINUOUS
10
1.7360027952755905
20
0.5614027952755906
11
1.7349999999999999
21
0.5618181889763779
0
LINE
8
BLACK
6
CONTINUOUS
10
1.7349999999999999
20
0.5618181889763779
11
1.7339972047244094
21
0.5614027952755906
0
LINE
8
BLACK
6
CONTINUOUS
10
1.7339972047244094
20
0.5614027952755906
11
1.7335818110236221
21
0.5604
0
LINE
8
BLACK
6
CONTINUOUS
10
1.7335818110236221
20
0.5604
11
1.7339972047244094
21
0.5593972047244095
0
LINE
8
BLACK
6
CONTINUOUS
10
1.1140866141732284
20
0.6789593700787402
11
1.1195564173228347
21
0.6760886220472441
0
LINE
8
BLACK
6
CONTINUOUS
10
1.1195564173228347
20
0.6760886220472441
11
1.1241802755905512
21
0.6719922440944882
0
LINE
8
BLACK
6
CONTINUOUS
10
1.1241802755905512
20
0.6719922440944882
11
1.1276894094488188
21
0.6669083464566929
0
LINE
8
BLACK
6
CONTINUOUS
10
1.1276894094488188
20
0.6669083464566929
11
1.1298799606299212
21
0.6611323622047244
0
LINE
8
BLACK
6
CONTINUOUS
10
1.1298799606299212
20
0.6611323622047244
11
1.1306245669291339
21
0.655
0
LINE
8
BLACK
6
CONTINUOUS
10
1.1306245669291339
20
0.655
11
1.1298799606299212
21
0.6488676377952756
0
LINE
8
BLACK
6
CONTINUOUS
10
1.1298799606299212
20
0.6488676377952756
11
1.1276894094488188
21
0.6430916535433071
0
LINE
8
BLACK
6
CONTINUOUS
10
1.1276894094488188
20
0.6430916535433071
11
1.1241802755905512
21
0.6380077559055118
0
LINE
8
BLACK
6
CONTINUOUS
10
1.1241802755905512
20
0.6380077559055118
11
1.1195564173228347
21
0.6339113779527559
0
LINE
8
BLACK
6
CONTINUOUS
10
1.1195564173228347
20
0.6339113779527559
11
1.1140866141732284
21
0.6310406299212599
0
LINE
8
BLACK
6
CONTINUOUS
10
1.1140866141732284
20
0.6310406299212599
11
1.1080887007874016
21
0.6295622834645669
0
LINE
8
BLACK
6
CONTINUOUS
10
1.1080887007874016
20
0.6295622834645669
11
1.1019112992125983
21
0.6295622834645669
0
LINE
8
BLACK
6
CONTINUOUS
10
1.1019112992125983
20
0.6295622834645669
11
1.0959133858267716
21
0.6310406299212599
0
LINE
8
BLACK
6
CONTINUOUS
10
1.0959133858267716
20
0.6310406299212599
11
1.0904435826771652
21
0.6339113779527559
0
LINE
8
BLACK
6
CONTINUOUS
10
1.0904435826771652
20
0.6339113779527559
11
1.0858197244094487
21
0.6380077559055118
0
LINE
8
BLACK
6
CONTINUOUS
10
1.0858197244094487
20
0.6380077559055118
11
1.0823105905511812
21
0.6430916535433071
0
LINE
8
BLACK
6
CONTINUOUS
10
1.0823105905511812
20
0.6430916535433071
11
1.0801200393700787
21
0.6488676377952756
0
LINE
8
BLACK
6
CONTINUOUS
10
1.0801200393700787
20
0.6488676377952756
11
1.079375433070866
21
0.655
0
LINE
8
BLACK
6
CONTINUOUS
10
1.079375433070866
20
0.655
11
1.0801200393700787
21
0.6611323622047244
0
LINE
8
BLACK
6
CONTINUOUS
10
1.0801200393700787
20
0.6611323622047244
11
1.0823105905511812
21
0.6669083464566929
0
LINE
8
BLACK
6
CONTINUOUS
10
1.0823105905511812
20
0.6669083464566929
11
1.0858197244094487
21
0.6719922440944882
0
LINE
8
BLACK
6
CONTINUOUS
10
1.0858197244094487
20
0.6719922440944882
11
1.0904435826771652
21
0.6760886220472441
0
LINE
8
BLACK
6
CONTINUOUS
10
1.0904435826771652
20
0.6760886220472441
11
1.0959133858267716
21
0.6789593700787402
0
LINE
8
BLACK
6
CONTINUOUS
10
1.0959133858267716
20
0.6789593700787402
11
1.1019112992125983
21
0.6804377165354331
0
LINE
8
BLACK
6
CONTINUOUS
10
1.1019112992125983
20
0.6804377165354331
11
1.1080887007874016
21
0.6804377165354331
0
LINE
8
BLACK
6
CONTINUOUS
10
1.1080887007874016
20
0.6804377165354331
11
1.1140866141732284
21
0.6789593700787402
0
LINE
8
BLACK
6
CONTINUOUS
10
1.1039972047244093
20
0.6539972047244095
11
1.105
21
0.653581811023622
0
LINE
8
BLACK
6
CONTINUOUS
10
1.105
20
0.653581811023622
11
1.1060027952755904
21
0.6539972047244095
0
LINE
8
BLACK
6
CONTINUOUS
10
1.1060027952755904
20
0.6539972047244095
11
1.106418188976378
21
0.655
0
LINE
8
BLACK
6
CONTINUOUS
10
1.106418188976378
20
0.655
11
1.1060027952755904
21
0.6560027952755906
0
LINE
8
BLACK
6
CONTINUOUS
10
1.1060027952755904
20
0.6560027952755906
11
1.105
21
0.6564181889763779
0
LINE
8
BLACK
6
CONTINUOUS
10
1.105
20
0.6564181889763779
11
1.1039972047244093
21
0.6560027952755906
0
LINE
8
BLACK
6
CONTINUOUS
10
1.1039972047244093
20
0.6560027952755906
11
1.103581811023622
21
0.655
0
LINE
8
BLACK
6
CONTINUOUS
10
1.103581811023622
20
0.655
11
1.1039972047244093
21
0.6539972047244095
0
LINE
8
BLACK
6
CONTINUOUS
10
0.2205096456692913
20
1.5163158661417322
11
0.2338744094488189
21
1.5131483858267716
0
LINE
8
BLACK
6
CONTINUOUS
10
0.2338744094488189
20
1.5131483858267716
11
0.246781062992126
21
1.5084507086614174
0
LINE
8
BLACK
6
CONTINUOUS
10
0.246781062992126
20
1.5084507086614174
11
0.2590551181102362
21
1.5022864566929133
0
LINE
8
BLACK
6
CONTINUOUS
10
0.2590551181102362
20
1.5022864566929133
11
0.2705305511811024
21
1.4947389763779528
0
LINE
8
BLACK
6
CONTINUOUS
10
0.2705305511811024
20
1.4947389763779528
11
0.2810521653543307
21
1.4859102755905511
0
LINE
8
BLACK
6
CONTINUOUS
10
0.2810521653543307
20
1.4859102755905511
11
0.2904776771653543
21
1.4759198031496064
0
LINE
8
BLACK
6
CONTINUOUS
10
0.2904776771653543
20
1.4759198031496064
11
0.2986796456692913
21
1.4649026377952756
0
LINE
8
BLACK
6
CONTINUOUS
10
0.2986796456692913
20
1.4649026377952756
11
0.3055471653543307
21
1.4530077952755904
0
LINE
8
BLACK
6
CONTINUOUS
10
0.3055471653543307
20
1.4530077952755904
11
0.3109873228346456
21
1.440396062992126
0
LINE
8
BLACK
6
CONTINUOUS
10
0.3109873228346456
20
1.440396062992126
11
0.3149265748031496
21
1.4272381102362204
0
LINE
8
BLACK
6
CONTINUOUS
10
0.3149265748031496
20
1.4272381102362204
11
0.3173116141732283
21
1.4137117716535432
0
LINE
8
BLACK
6
CONTINUOUS
10
0.3173116141732283
20
1.4137117716535432
11
0.3181102362204724
21
1.3999999999999999
0
LINE
8
BLACK
6
CONTINUOUS
10
0.3181102362204724
20
1.3999999999999999
11
0.3173116141732283
21
1.3862882283464566
0
LINE
8
BLACK
6
CONTINUOUS
10
0.3173116141732283
20
1.3862882283464566
11
0.3149265748031496
21
1.3727618897637794
0
LINE
8
BLACK
6
CONTINUOUS
10
0.3149265748031496
20
1.3727618897637794
11
0.3109873228346456
21
1.3596039370078741
0
LINE
8
BLACK
6
CONTINUOUS
10
0.3109873228346456
20
1.3596039370078741
11
0.3055471653543307
21
1.3469922047244094
0
LINE
8
BLACK
6
CONTINUOUS
10
0.3055471653543307
20
1.3469922047244094
11
0.2986796456692913
21
1.3350973622047244
0
LINE
8
BLACK
6
CONTINUOUS
10
0.2986796456692913
20
1.3350973622047244
11
0.2904776771653543
21
1.3240801968503937
0
LINE
8
BLACK
6
CONTINUOUS
10
0.2904776771653543
20
1.3240801968503937
11
0.2810521653543307
21
1.3140897244094487
0
LINE
8
BLACK
6
CONTINUOUS
10
0.2810521653543307
20
1.3140897244094487
11
0.2705305511811024
21
1.3052610236220472
0
LINE
8
BLACK
6
CONTINUOUS
10
0.2705305511811024
20
1.3052610236220472
11
0.2590551181102362
21
1.2977135433070865
0
LINE
8
BLACK
6
CONTINUOUS
10
0.2590551181102362
20
1.2977135433070865
11
0.246781062992126
21
1.2915492913385827
0
LINE
8
BLACK
6
CONTINUOUS
10
0.246781062992126
20
1.2915492913385827
11
0.2338744094488189
21
1.2868516141732282
0
LINE
8
BLACK
6
CONTINUOUS
10
0.2338744094488189
20
1.2868516141732282
11
0.2205096456692913
21
1.2836841338582676
0
LINE
8
BLACK
6
CONTINUOUS
10
0.2205096456692913
20
1.2836841338582676
11
0.2068674803149606
21
1.2820896062992126
0
LINE
8
BLACK
6
CONTINUOUS
10
0.2068674803149606
20
1.2820896062992126
11
0.1931325196850394
21
1.2820896062992126
0
LINE
8
BLACK
6
CONTINUOUS
10
0.1931325196850394
20
1.2820896062992126
11
0.1794903543307086
21
1.2836841338582676
0
LINE
8
BLACK
6
CONTINUOUS
10
0.1794903543307086
20
1.2836841338582676
11
0.1661255905511811
21
1.2868516141732282
0
LINE
8
BLACK
6
CONTINUOUS
10
0.1661255905511811
20
1.2868516141732282
11
0.153218937007874
21
1.2915492913385827
0
LINE
8
BLACK
6
CONTINUOUS
10
0.153218937007874
20
1.2915492913385827
11
0.1409448818897638
21
1.2977135433070865
0
LINE
8
BLACK
6
CONTINUOUS
10
0.1409448818897638
20
1.2977135433070865
11
0.1294694488188976
21
1.3052610236220472
0
LINE
8
BLACK
6
CONTINUOUS
10
0.1294694488188976
20
1.3052610236220472
11
0.1189478346456693
21
1.3140897244094487
0
LINE
8
BLACK
6
CONTINUOUS
10
0.1189478346456693
20
1.3140897244094487
11
0.1095223228346457
21
1.3240801968503937
0
LINE
8
BLACK
6
CONTINUOUS
10
0.1095223228346457
20
1.3240801968503937
11
0.1013203543307087
21
1.3350973622047244
0
LINE
8
BLACK
6
CONTINUOUS
10
0.1013203543307087
20
1.3350973622047244
11
0.0944528346456693
21
1.3469922047244094
0
LINE
8
BLACK
6
CONTINUOUS
10
0.0944528346456693
20
1.3469922047244094
11
0.0890126771653543
21
1.3596039370078741
0
LINE
8
BLACK
6
CONTINUOUS
10
0.0890126771653543
20
1.3596039370078741
11
0.0850734251968504
21
1.3727618897637794
0
LINE
8
BLACK
6
CONTINUOUS
10
0.0850734251968504
20
1.3727618897637794
11
0.0826883858267717
21
1.3862882283464566
0
LINE
8
BLACK
6
CONTINUOUS
10
0.0826883858267717
20
1.3862882283464566
11
0.0818897637795276
21
1.3999999999999999
0
LINE
8
BLACK
6
CONTINUOUS
10
0.0818897637795276
20
1.3999999999999999
11
0.0826883858267717
21
1.4137117716535432
0
LINE
8
BLACK
6
CONTINUOUS
10
0.0826883858267717
20
1.4137117716535432
11
0.0850734251968504
21
1.4272381102362204
0
LINE
8
BLACK
6
CONTINUOUS
10
0.0850734251968504
20
1.4272381102362204
11
0.0890126771653543
21
1.440396062992126
0
LINE
8
BLACK
6
CONTINUOUS
10
0.0890126771653543
20
1.440396062992126
11
0.0944528346456693
21
1.4530077952755904
0
LINE
8
BLACK
6
CONTINUOUS
10
0.0944528346456693
20
1.4530077952755904
11
0.1013203543307087
21
1.4649026377952756
0
LINE
8
BLACK
6
CONTINUOUS
10
0.1013203543307087
20
1.4649026377952756
11
0.1095223228346457
21
1.4759198031496064
0
LINE
8
BLACK
6
CONTINUOUS
10
0.1095223228346457
20
1.4759198031496064
11
0.1189478346456693
21
1.4859102755905511
0
LINE
8
BLACK
6
CONTINUOUS
10
0.1189478346456693
20
1.4859102755905511
11
0.1294694488188976
21
1.4947389763779528
0
LINE
8
BLACK
6
CONTINUOUS
10
0.1294694488188976
20
1.4947389763779528
11
0.1409448818897638
21
1.5022864566929133
0
LINE
8
BLACK
6
CONTINUOUS
10
0.1409448818897638
20
1.5022864566929133
11
0.153218937007874
21
1.5084507086614174
0
LINE
8
BLACK
6
CONTINUOUS
10
0.153218937007874
20
1.5084507086614174
11
0.1661255905511811
21
1.5131483858267716
0
LINE
8
BLACK
6
CONTINUOUS
10
0.1661255905511811
20
1.5131483858267716
11
0.1794903543307086
21
1.5163158661417322
0
LINE
8
BLACK
6
CONTINUOUS
10
0.1794903543307086
20
1.5163158661417322
11
0.1931325196850394
21
1.5179103937007874
0
LINE
8
BLACK
6
CONTINUOUS
10
0.1931325196850394
20
1.5179103937007874
11
0.2068674803149606
21
1.5179103937007874
0
LINE
8
BLACK
6
CONTINUOUS
10
0.2068674803149606
20
1.5179103937007874
11
0.2205096456692913
21
1.5163158661417322
0
LINE
8
BLACK
6
CONTINUOUS
10
1.8205096456692913
20
1.5163158661417322
11
1.8338744094488189
21
1.5131483858267716
0
LINE
8
BLACK
6
CONTINUOUS
10
1.8338744094488189
20
1.5131483858267716
11
1.846781062992126
21
1.5084507086614174
0
LINE
8
BLACK
6
CONTINUOUS
10
1.846781062992126
20
1.5084507086614174
11
1.8590551181102362
21
1.5022864566929133
0
LINE
8
BLACK
6
CONTINUOUS
10
1.8590551181102362
20
1.5022864566929133
11
1.8705305511811023
21
1.4947389763779528
0
LINE
8
BLACK
6
CONTINUOUS
10
1.8705305511811023
20
1.4947389763779528
11
1.8810521653543306
21
1.4859102755905511
0
LINE
8
BLACK
6
CONTINUOUS
10
1.8810521653543306
20
1.4859102755905511
11
1.8904776771653542
21
1.4759198031496064
0
LINE
8
BLACK
6
CONTINUOUS
10
1.8904776771653542
20
1.4759198031496064
11
1.8986796456692914
21
1.4649026377952756
0
LINE
8
BLACK
6
CONTINUOUS
10
1.8986796456692914
20
1.4649026377952756
11
1.9055471653543308
21
1.4530077952755904
0
LINE
8
BLACK
6
CONTINUOUS
10
1.9055471653543308
20
1.4530077952755904
11
1.9109873228346457
21
1.440396062992126
0
LINE
8
BLACK
6
CONTINUOUS
10
1.9109873228346457
20
1.440396062992126
11
1.9149265748031497
21
1.4272381102362204
0
LINE
8
BLACK
6
CONTINUOUS
10
1.9149265748031497
20
1.4272381102362204
11
1.9173116141732283
21
1.4137117716535432
0
LINE
8
BLACK
6
CONTINUOUS
10
1.9173116141732283
20
1.4137117716535432
11
1.9181102362204725
21
1.3999999999999999
0
LINE
8
BLACK
6
CONTINUOUS
10
1.9181102362204725
20
1.3999999999999999
11
1.9173116141732283
21
1.3862882283464566
0
LINE
8
BLACK
6
CONTINUOUS
10
1.9173116141732283
20
1.3862882283464566
11
1.9149265748031497
21
1.3727618897637794
0
LINE
8
BLACK
6
CONTINUOUS
10
1.9149265748031497
20
1.3727618897637794
11
1.9109873228346457
21
1.3596039370078741
0
LINE
8
BLACK
6
CONTINUOUS
10
1.9109873228346457
20
1.3596039370078741
11
1.9055471653543308
21
1.3469922047244094
0
LINE
8
BLACK
6
CONTINUOUS
10
1.9055471653543308
20
1.3469922047244094
11
1.8986796456692914
21
1.3350973622047244
0
LINE
8
BLACK
6
CONTINUOUS
10
1.8986796456692914
20
1.3350973622047244
11
1.8904776771653542
21
1.3240801968503937
0
LINE
8
BLACK
6
CONTINUOUS
10
1.8904776771653542
20
1.3240801968503937
11
1.8810521653543306
21
1.3140897244094487
0
LINE
8
BLACK
6
CONTINUOUS
10
1.8810521653543306
20
1.3140897244094487
11
1.8705305511811023
21
1.3052610236220472
0
LINE
8
BLACK
6
CONTINUOUS
10
1.8705305511811023
20
1.3052610236220472
11
1.8590551181102362
21
1.2977135433070865
0
LINE
8
BLACK
6
CONTINUOUS
10
1.8590551181102362
20
1.2977135433070865
11
1.846781062992126
21
1.2915492913385827
0
LINE
8
BLACK
6
CONTINUOUS
10
1.846781062992126
20
1.2915492913385827
11
1.8338744094488189
21
1.2868516141732282
0
LINE
8
BLACK
6
CONTINUOUS
10
1.8338744094488189
20
1.2868516141732282
11
1.8205096456692913
21
1.2836841338582676
0
LINE
8
BLACK
6
CONTINUOUS
10
1.8205096456692913
20
1.2836841338582676
11
1.8068674803149607
21
1.2820896062992126
0
LINE
8
BLACK
6
CONTINUOUS
10
1.8068674803149607
20
1.2820896062992126
11
1.7931325196850394
21
1.2820896062992126
0
LINE
8
BLACK
6
CONTINUOUS
10
1.7931325196850394
20
1.2820896062992126
11
1.7794903543307086
21
1.2836841338582676
0
LINE
8
BLACK
6
CONTINUOUS
10
1.7794903543307086
20
1.2836841338582676
11
1.766125590551181
21
1.2868516141732282
0
LINE
8
BLACK
6
CONTINUOUS
10
1.766125590551181
20
1.2868516141732282
11
1.7532189370078739
21
1.2915492913385827
0
LINE
8
BLACK
6
CONTINUOUS
10
1.7532189370078739
20
1.2915492913385827
11
1.7409448818897637
21
1.2977135433070865
0
LINE
8
BLACK
6
CONTINUOUS
10
1.7409448818897637
20
1.2977135433070865
11
1.7294694488188975
21
1.3052610236220472
0
LINE
8
BLACK
6
CONTINUOUS
10
1.7294694488188975
20
1.3052610236220472
11
1.7189478346456692
21
1.3140897244094487
0
LINE
8
BLACK
6
CONTINUOUS
10
1.7189478346456692
20
1.3140897244094487
11
1.7095223228346457
21
1.3240801968503937
0
LINE
8
BLACK
6
CONTINUOUS
10
1.7095223228346457
20
1.3240801968503937
11
1.7013203543307087
21
1.3350973622047244
0
LINE
8
BLACK
6
CONTINUOUS
10
1.7013203543307087
20
1.3350973622047244
11
1.6944528346456693
21
1.3469922047244094
0
LINE
8
BLACK
6
CONTINUOUS
10
1.6944528346456693
20
1.3469922047244094
11
1.6890126771653542
21
1.3596039370078741
0
LINE
8
BLACK
6
CONTINUOUS
10
1.6890126771653542
20
1.3596039370078741
11
1.6850734251968504
21
1.3727618897637794
0
LINE
8
BLACK
6
CONTINUOUS
10
1.6850734251968504
20
1.3727618897637794
11
1.6826883858267716
21
1.3862882283464566
0
LINE
8
BLACK
6
CONTINUOUS
10
1.6826883858267716
20
1.3862882283464566
11
1.6818897637795276
21
1.3999999999999999
0
LINE
8
BLACK
6
CONTINUOUS
10
1.6818897637795276
20
1.3999999999999999
11
1.6826883858267716
21
1.4137117716535432
0
LINE
8
BLACK
6
CONTINUOUS
10
1.6826883858267716
20
1.4137117716535432
11
1.6850734251968504
21
1.4272381102362204
0
LINE
8
BLACK
6
CONTINUOUS
10
1.6850734251968504
20
1.4272381102362204
11
1.6890126771653542
21
1.440396062992126
0
LINE
8
BLACK
6
CONTINUOUS
10
1.6890126771653542
20
1.440396062992126
11
1.6944528346456693
21
1.4530077952755904
0
LINE
8
BLACK
6
CONTINUOUS
10
1.6944528346456693
20
1.4530077952755904
11
1.7013203543307087
21
1.4649026377952756
0
LINE
8
BLACK
6
CONTINUOUS
10
1.7013203543307087
20
1.4649026377952756
11
1.7095223228346457
21
1.4759198031496064
0
LINE
8
BLACK
6
CONTINUOUS
10
1.7095223228346457
20
1.4759198031496064
11
1.7189478346456692
21
1.4859102755905511
0
LINE
8
BLACK
6
CONTINUOUS
10
1.7189478346456692
20
1.4859102755905511
11
1.7294694488188975
21
1.4947389763779528
0
LINE
8
BLACK
6
CONTINUOUS
10
1.7294694488188975
20
1.4947389763779528
11
1.7409448818897637
21
1.5022864566929133
0
LINE
8
BLACK
6
CONTINUOUS
10
1.7409448818897637
20
1.5022864566929133
11
1.7532189370078739
21
1.5084507086614174
0
LINE
8
BLACK
6
CONTINUOUS
10
1.7532189370078739
20
1.5084507086614174
11
1.766125590551181
21
1.5131483858267716
0
LINE
8
BLACK
6
CONTINUOUS
10
1.766125590551181
20
1.5131483858267716
11
1.7794903543307086
21
1.5163158661417322
0
LINE
8
BLACK
6
CONTINUOUS
10
1.7794903543307086
20
1.5163158661417322
11
1.7931325196850394
21
1.5179103937007874
0
LINE
8
BLACK
6
CONTINUOUS
10
1.7931325196850394
20
1.5179103937007874
11
1.8068674803149607
21
1.5179103937007874
0
LINE
8
BLACK
6
CONTINUOUS
10
1.8068674803149607
20
1.5179103937007874
11
1.8205096456692913
21
1.5163158661417322
0
LINE
8
BLACK
6
CONTINUOUS
10
1.5690866141732283
20
1.3343593700787402
11
1.5745564173228346
21
1.3314886220472442
0
LINE
8
BLACK
6
CONTINUOUS
10
1.5745564173228346
20
1.3314886220472442
11
1.5791802755905511
21
1.3273922440944881
0
LINE
8
BLACK
6
CONTINUOUS
10
1.5791802755905511
20
1.3273922440944881
11
1.5826894094488189
21
1.3223083464566929
0
LINE
8
BLACK
6
CONTINUOUS
10
1.5826894094488189
20
1.3223083464566929
11
1.5848799606299213
21
1.3165323622047245
0
LINE
8
BLACK
6
CONTINUOUS
10
1.5848799606299213
20
1.3165323622047245
11
1.5856245669291338
21
1.3104
0
LINE
8
BLACK
6
CONTINUOUS
10
1.5856245669291338
20
1.3104
11
1.5848799606299213
21
1.3042676377952755
0
LINE
8
BLACK
6
CONTINUOUS
10
1.5848799606299213
20
1.3042676377952755
11
1.5826894094488189
21
1.2984916535433071
0
LINE
8
BLACK
6
CONTINUOUS
10
1.5826894094488189
20
1.2984916535433071
11
1.5791802755905511
21
1.2934077559055117
0
LINE
8
BLACK
6
CONTINUOUS
10
1.5791802755905511
20
1.2934077559055117
11
1.5745564173228346
21
1.2893113779527559
0
LINE
8
BLACK
6
CONTINUOUS
10
1.5745564173228346
20
1.2893113779527559
11
1.5690866141732283
21
1.2864406299212598
0
LINE
8
BLACK
6
CONTINUOUS
10
1.5690866141732283
20
1.2864406299212598
11
1.5630887007874015
21
1.2849622834645669
0
LINE
8
BLACK
6
CONTINUOUS
10
1.5630887007874015
20
1.2849622834645669
11
1.5569112992125984
21
1.2849622834645669
0
LINE
8
BLACK
6
CONTINUOUS
10
1.5569112992125984
20
1.2849622834645669
11
1.5509133858267716
21
1.2864406299212598
0
LINE
8
BLACK
6
CONTINUOUS
10
1.5509133858267716
20
1.2864406299212598
11
1.5454435826771653
21
1.2893113779527559
0
LINE
8
BLACK
6
CONTINUOUS
10
1.5454435826771653
20
1.2893113779527559
11
1.5408197244094488
21
1.2934077559055117
0
LINE
8
BLACK
6
CONTINUOUS
10
1.5408197244094488
20
1.2934077559055117
11
1.537310590551181
21
1.2984916535433071
0
LINE
8
BLACK
6
CONTINUOUS
10
1.537310590551181
20
1.2984916535433071
11
1.5351200393700788
21
1.3042676377952755
0
LINE
8
BLACK
6
CONTINUOUS
10
1.5351200393700788
20
1.3042676377952755
11
1.5343754330708661
21
1.3104
0
LINE
8
BLACK
6
CONTINUOUS
10
1.5343754330708661
20
1.3104
11
1.5351200393700788
21
1.3165323622047245
0
LINE
8
BLACK
6
CONTINUOUS
10
1.5351200393700788
20
1.3165323622047245
11
1.537310590551181
21
1.3223083464566929
0
LINE
8
BLACK
6
CONTINUOUS
10
1.537310590551181
20
1.3223083464566929
11
1.5408197244094488
21
1.3273922440944881
0
LINE
8
BLACK
6
CONTINUOUS
10
1.5408197244094488
20
1.3273922440944881
11
1.5454435826771653
21
1.3314886220472442
0
LINE
8
BLACK
6
CONTINUOUS
10
1.5454435826771653
20
1.3314886220472442
11
1.5509133858267716
21
1.3343593700787402
0
LINE
8
BLACK
6
CONTINUOUS
10
1.5509133858267716
20
1.3343593700787402
11
1.5569112992125984
21
1.3358377165354332
0
LINE
8
BLACK
6
CONTINUOUS
10
1.5569112992125984
20
1.3358377165354332
11
1.5630887007874015
21
1.3358377165354332
0
LINE
8
BLACK
6
CONTINUOUS
10
1.5630887007874015
20
1.3358377165354332
11
1.5690866141732283
21
1.3343593700787402
0
LINE
8
BLACK
6
CONTINUOUS
10
1.5589972047244094
20
1.3093972047244093
11
1.5600000000000001
21
1.308981811023622
0
LINE
8
BLACK
6
CONTINUOUS
10
1.5600000000000001
20
1.308981811023622
11
1.5610027952755905
21
1.3093972047244093
0
LINE
8
BLACK
6
CONTINUOUS
10
1.5610027952755905
20
1.3093972047244093
11
1.5614181889763779
21
1.3104
0
LINE
8
BLACK
6
CONTINUOUS
10
1.5614181889763779
20
1.3104
11
1.5610027952755905
21
1.3114027952755904
0
LINE
8
BLACK
6
CONTINUOUS
10
1.5610027952755905
20
1.3114027952755904
11
1.5600000000000001
21
1.311818188976378
0
LINE
8
BLACK
6
CONTINUOUS
10
1.5600000000000001
20
1.311818188976378
11
1.5589972047244094
21
1.3114027952755904
0
LINE
8
BLACK
6
CONTINUOUS
10
1.5589972047244094
20
1.3114027952755904
11
1.558581811023622
21
1.3104
0
LINE
8
BLACK
6
CONTINUOUS
10
1.558581811023622
20
1.3104
11
1.5589972047244094
21
1.3093972047244093
0
LINE
8
BLACK
6
CONTINUOUS
10
0.4640866141732283
20
1.3585593700787402
11
0.4695564173228347
21
1.3556886220472442
0
LINE
8
BLACK
6
CONTINUOUS
10
0.4695564173228347
20
1.3556886220472442
11
0.4741802755905511
21
1.3515922440944881
0
LINE
8
BLACK
6
CONTINUOUS
10
0.4741802755905511
20
1.3515922440944881
11
0.4776894094488189
21
1.3465083464566929
0
LINE
8
BLACK
6
CONTINUOUS
10
0.4776894094488189
20
1.3465083464566929
11
0.4798799606299213
21
1.3407323622047245
0
LINE
8
BLACK
6
CONTINUOUS
10
0.4798799606299213
20
1.3407323622047245
11
0.4806245669291339
21
1.3346
0
LINE
8
BLACK
6
CONTINUOUS
10
0.4806245669291339
20
1.3346
11
0.4798799606299213
21
1.3284676377952755
0
LINE
8
BLACK
6
CONTINUOUS
10
0.4798799606299213
20
1.3284676377952755
11
0.4776894094488189
21
1.3226916535433071
0
LINE
8
BLACK
6
CONTINUOUS
10
0.4776894094488189
20
1.3226916535433071
11
0.4741802755905511
21
1.3176077559055117
0
LINE
8
BLACK
6
CONTINUOUS
10
0.4741802755905511
20
1.3176077559055117
11
0.4695564173228347
21
1.3135113779527559
0
LINE
8
BLACK
6
CONTINUOUS
10
0.4695564173228347
20
1.3135113779527559
11
0.4640866141732283
21
1.3106406299212598
0
LINE
8
BLACK
6
CONTINUOUS
10
0.4640866141732283
20
1.3106406299212598
11
0.4580887007874015
21
1.3091622834645669
0
LINE
8
BLACK
6
CONTINUOUS
10
0.4580887007874015
20
1.3091622834645669
11
0.4519112992125984
21
1.3091622834645669
0
LINE
8
BLACK
6
CONTINUOUS
10
0.4519112992125984
20
1.3091622834645669
11
0.4459133858267716
21
1.3106406299212598
0
LINE
8
BLACK
6
CONTINUOUS
10
0.4459133858267716
20
1.3106406299212598
11
0.4404435826771653
21
1.3135113779527559
0
LINE
8
BLACK
6
CONTINUOUS
10
0.4404435826771653
20
1.3135113779527559
11
0.4358197244094488
21
1.3176077559055117
0
LINE
8
BLACK
6
CONTINUOUS
10
0.4358197244094488
20
1.3176077559055117
11
0.4323105905511811
21
1.3226916535433071
0
LINE
8
BLACK
6
CONTINUOUS
10
0.4323105905511811
20
1.3226916535433071
11
0.4301200393700788
21
1.3284676377952755
0
LINE
8
BLACK
6
CONTINUOUS
10
0.4301200393700788
20
1.3284676377952755
11
0.4293754330708661
21
1.3346
0
LINE
8
BLACK
6
CONTINUOUS
10
0.4293754330708661
20
1.3346
11
0.4301200393700788
21
1.3407323622047245
0
LINE
8
BLACK
6
CONTINUOUS
10
0.4301200393700788
20
1.3407323622047245
11
0.4323105905511811
21
1.3465083464566929
0
LINE
8
BLACK
6
CONTINUOUS
10
0.4323105905511811
20
1.3465083464566929
11
0.4358197244094488
21
1.3515922440944881
0
LINE
8
BLACK
6
CONTINUOUS
10
0.4358197244094488
20
1.3515922440944881
11
0.4404435826771653
21
1.3556886220472442
0
LINE
8
BLACK
6
CONTINUOUS
10
0.4404435826771653
20
1.3556886220472442
11
0.4459133858267716
21
1.3585593700787402
0
LINE
8
BLACK
6
CONTINUOUS
10
0.4459133858267716
20
1.3585593700787402
11
0.4519112992125984
21
1.3600377165354331
0
LINE
8
BLACK
6
CONTINUOUS
10
0.4519112992125984
20
1.3600377165354331
11
0.4580887007874015
21
1.3600377165354331
0
LINE
8
BLACK
6
CONTINUOUS
10
0.4580887007874015
20
1.3600377165354331
11
0.4640866141732283
21
1.3585593700787402
0
LINE
8
BLACK
6
CONTINUOUS
10
0.4539972047244095
20
1.3335972047244093
11
0.455
21
1.333181811023622
0
LINE
8
BLACK
6
CONTINUOUS
10
0.455
20
1.333181811023622
11
0.4560027952755906
21
1.3335972047244093
0
LINE
8
BLACK
6
CONTINUOUS
10
0.4560027952755906
20
1.3335972047244093
11
0.4564181889763779
21
1.3346
0
LINE
8
BLACK
6
CONTINUOUS
10
0.4564181889763779
20
1.3346
11
0.4560027952755906
21
1.3356027952755904
0
LINE
8
BLACK
6
CONTINUOUS
10
0.4560027952755906
20
1.3356027952755904
11
0.455
21
1.336018188976378
0
LINE
8
BLACK
6
CONTINUOUS
10
0.455
20
1.336018188976378
11
0.4539972047244095
21
1.3356027952755904
0
LINE
8
BLACK
6
CONTINUOUS
10
0.4539972047244095
20
1.3356027952755904
11
0.4535818110236221
21
1.3346
0
LINE
8
BLACK
6
CONTINUOUS
10
0.4535818110236221
20
1.3346
11
0.4539972047244095
21
1.3335972047244093
  0
ENDSEC
  0
EOF
