  0
SECTION
  2
HEADER
  9
$ANGBASE
  50
0.0
  9
$ANGDIR
  70
1
  9
$MEASUREMENT
  70
0
  0
ENDSEC
  0
SECTION
  2
TABLES
  0
TABLE
  2
LTYPE
  70
4
  0
LTYPE
  5
40F
  2
CONTINUOUS
  70
0
  3
Solid line
  72
65
  73
0
  40
0.0
  0
LTYPE
  5
410
  2
DASHDOT
 70
0
  3
Dash Dot ____ _ ____ _
 72
65
 73
4
 40
2.0
 49
1.25
 49
-0.25
 49
0.25
 49
-0.25
  0
LTYPE
  5
411
  2
DASHED
 70
0
  3
Dashed __ __ __ __ __
 72
65
 73
2
 40
0.75
 49
0.5
 49
-0.25
  0
LTYPE
  5
43B
  2
DOTTED
 70
0
  3
Dotted .  .  .  .
 72
65
 73
2
 40
0.2
 49
0.0
 49
-0.2
  0
ENDTAB
  0
TABLE
  2
STYLE
  70
4
  0
STYLE
  2
KICAD
  70
0
  40
0
  41
1
  42
1
  50
0
  71
0
  3
isocp.shx
  0
STYLE
  2
KICADB
  70
0
  40
0
  41
1
  42
1
  50
0
  71
0
  3
isocp.shx
  0
STYLE
  2
KICADI
  70
0
  40
0
  41
1
  42
1
  50
15
  71
0
  3
isocp.shx
  0
STYLE
  2
KICADBI
  70
0
  40
0
  41
1
  42
1
  50
15
  71
0
  3
isocp.shx
  0
ENDTAB
  0
TABLE
  2
LAYER
  70
1
  0
LAYER
  2
BLACK
  70
0
  62
7
  6
CONTINUOUS
  0
ENDTAB
  0
ENDSEC
  0
SECTION
  2
ENTITIES
0
LINE
8
BLACK
6
CONTINUOUS
10
1.0448532283464567
20
0.8112905118110236
11
1.0455440551181101
21
0.8093925196850393
0
LINE
8
BLACK
6
CONTINUOUS
10
1.0455440551181101
20
0.8093925196850393
11
1.0455440551181101
21
0.8056429921259842
0
LINE
8
BLACK
6
CONTINUOUS
10
1.0455440551181101
20
0.8056429921259842
11
1.0453907480314961
21
0.8047735826771654
0
LINE
8
BLACK
6
CONTINUOUS
10
1.0453907480314961
20
0.8047735826771654
11
1.0453925196850393
21
0.8047092125984252
0
LINE
8
BLACK
6
CONTINUOUS
10
1.0453925196850393
20
0.8047092125984252
11
1.0435177559055118
21
0.7990849606299213
0
LINE
8
BLACK
6
CONTINUOUS
10
1.0435177559055118
20
0.7990849606299213
11
1.0430294488188976
21
0.798183188976378
0
LINE
8
BLACK
6
CONTINUOUS
10
1.0430294488188976
20
0.798183188976378
11
1.0428790551181102
21
0.7980907874015748
0
LINE
8
BLACK
6
CONTINUOUS
10
1.0428790551181102
20
0.7980907874015748
11
1.0428044488188977
21
0.7979307874015747
0
LINE
8
BLACK
6
CONTINUOUS
10
1.0428044488188977
20
0.7979307874015747
11
1.0390548818897638
21
0.7941812598425196
0
LINE
8
BLACK
6
CONTINUOUS
10
1.0390548818897638
20
0.7941812598425196
11
1.0382148425196851
21
0.793593031496063
0
LINE
8
BLACK
6
CONTINUOUS
10
1.0382148425196851
20
0.793593031496063
11
1.0380388976377952
21
0.7935776377952756
0
LINE
8
BLACK
6
CONTINUOUS
10
1.0380388976377952
20
0.7935776377952756
11
1.0379007086614174
21
0.7934679527559055
0
LINE
8
BLACK
6
CONTINUOUS
10
1.0379007086614174
20
0.7934679527559055
11
1.0322764173228347
21
0.791593188976378
0
LINE
8
BLACK
6
CONTINUOUS
10
1.0322764173228347
20
0.791593188976378
11
1.0314032283464567
21
0.7914637007874016
0
LINE
8
BLACK
6
CONTINUOUS
10
1.0314032283464567
20
0.7914637007874016
11
1.0313426771653542
21
0.7914416535433071
0
LINE
8
BLACK
6
CONTINUOUS
10
1.0313426771653542
20
0.7914416535433071
11
1.0032212204724409
21
0.7914416535433071
0
LINE
8
BLACK
6
CONTINUOUS
10
1.0032212204724409
20
0.7914416535433071
11
1.0022112992125984
21
0.7916197244094488
0
LINE
8
BLACK
6
CONTINUOUS
10
1.0022112992125984
20
0.7916197244094488
11
1.0006640551181103
21
0.792918031496063
0
LINE
8
BLACK
6
CONTINUOUS
10
1.0006640551181103
20
0.792918031496063
11
1.0003133070866141
21
0.7949071653543307
0
LINE
8
BLACK
6
CONTINUOUS
10
1.0003133070866141
20
0.7949071653543307
11
1.0013232283464566
21
0.7966563385826771
0
LINE
8
BLACK
6
CONTINUOUS
10
1.0013232283464566
20
0.7966563385826771
11
1.0032212204724409
21
0.7973471653543307
0
LINE
8
BLACK
6
CONTINUOUS
10
1.0032212204724409
20
0.7973471653543307
11
1.0308635433070865
21
0.7973471653543307
0
LINE
8
BLACK
6
CONTINUOUS
10
1.0308635433070865
20
0.7973471653543307
11
1.0353719291338583
21
0.7988499606299212
0
LINE
8
BLACK
6
CONTINUOUS
10
1.0353719291338583
20
0.7988499606299212
11
1.0381357480314961
21
0.8016137401574803
0
LINE
8
BLACK
6
CONTINUOUS
10
1.0381357480314961
20
0.8016137401574803
11
1.0396385433070865
21
0.8061221259842519
0
LINE
8
BLACK
6
CONTINUOUS
10
1.0396385433070865
20
0.8061221259842519
11
1.0396385433070865
21
0.8093925196850393
0
LINE
8
BLACK
6
CONTINUOUS
10
1.0396385433070865
20
0.8093925196850393
11
1.0398166141732283
21
0.8104024409448819
0
LINE
8
BLACK
6
CONTINUOUS
10
1.0398166141732283
20
0.8104024409448819
11
1.0411149212598425
21
0.81194968503937
0
LINE
8
BLACK
6
CONTINUOUS
10
1.0411149212598425
20
0.81194968503937
11
1.0431040551181101
21
0.8123004330708661
0
LINE
8
BLACK
6
CONTINUOUS
10
1.0431040551181101
20
0.8123004330708661
11
1.0448532283464567
21
0.8112905118110236
0
LINE
8
BLACK
6
CONTINUOUS
10
1.0445503543307086
20
0.8472223228346456
11
1.0455121259842519
21
0.8454461811023621
0
LINE
8
BLACK
6
CONTINUOUS
10
1.0455121259842519
20
0.8454461811023621
11
1.0451071653543307
21
0.8434674015748032
0
LINE
8
BLACK
6
CONTINUOUS
10
1.0451071653543307
20
0.8434674015748032
11
1.0435250393700788
21
0.8422118503937007
0
LINE
8
BLACK
6
CONTINUOUS
10
1.0435250393700788
20
0.8422118503937007
11
1.034295433070866
21
0.8391353149606299
0
LINE
8
BLACK
6
CONTINUOUS
10
1.034295433070866
20
0.8391353149606299
11
1.034295433070866
21
0.824644094488189
0
LINE
8
BLACK
6
CONTINUOUS
10
1.034295433070866
20
0.824644094488189
11
1.0435250393700788
21
0.8215675984251968
0
LINE
8
BLACK
6
CONTINUOUS
10
1.0435250393700788
20
0.8215675984251968
11
1.0444268110236221
21
0.8210793307086613
0
LINE
8
BLACK
6
CONTINUOUS
10
1.0444268110236221
20
0.8210793307086613
11
1.0454840944881889
21
0.8193583464566929
0
LINE
8
BLACK
6
CONTINUOUS
10
1.0454840944881889
20
0.8193583464566929
11
1.0451878346456693
21
0.8173603937007874
0
LINE
8
BLACK
6
CONTINUOUS
10
1.0451878346456693
20
0.8173603937007874
11
1.0436765748031496
21
0.8160203149606299
0
LINE
8
BLACK
6
CONTINUOUS
10
1.0436765748031496
20
0.8160203149606299
11
1.041657559055118
21
0.815965157480315
0
LINE
8
BLACK
6
CONTINUOUS
10
1.041657559055118
20
0.815965157480315
11
1.0022874803149606
21
0.8290885039370078
0
LINE
8
BLACK
6
CONTINUOUS
10
1.0022874803149606
20
0.8290885039370078
11
1.0013857086614173
21
0.829576811023622
0
LINE
8
BLACK
6
CONTINUOUS
10
1.0013857086614173
20
0.829576811023622
11
1.0013411811023623
21
0.8296492125984252
0
LINE
8
BLACK
6
CONTINUOUS
10
1.0013411811023623
20
0.8296492125984252
11
1.0012621653543308
21
0.8296804724409449
0
LINE
8
BLACK
6
CONTINUOUS
10
1.0012621653543308
20
0.8296804724409449
11
1.0008173228346458
21
0.8305019291338582
0
LINE
8
BLACK
6
CONTINUOUS
10
1.0008173228346458
20
0.8305019291338582
11
1.0003284251968503
21
0.8312977559055118
0
LINE
8
BLACK
6
CONTINUOUS
10
1.0003284251968503
20
0.8312977559055118
11
1.0003408661417323
21
0.8313818110236221
0
LINE
8
BLACK
6
CONTINUOUS
10
1.0003408661417323
20
0.8313818110236221
11
1.0003003937007873
21
0.8314566141732284
0
LINE
8
BLACK
6
CONTINUOUS
10
1.0003003937007873
20
0.8314566141732284
11
1.0004876377952756
21
0.8323716929133859
0
LINE
8
BLACK
6
CONTINUOUS
10
1.0004876377952756
20
0.8323716929133859
11
1.0006246850393701
21
0.8332957480314961
0
LINE
8
BLACK
6
CONTINUOUS
10
1.0006246850393701
20
0.8332957480314961
11
1.0006883070866142
21
0.8333521653543307
0
LINE
8
BLACK
6
CONTINUOUS
10
1.0006883070866142
20
0.8333521653543307
11
1.0007053543307087
21
0.8334353937007873
0
LINE
8
BLACK
6
CONTINUOUS
10
1.0007053543307087
20
0.8334353937007873
11
1.0014366141732283
21
0.8340157086614173
0
LINE
8
BLACK
6
CONTINUOUS
10
1.0014366141732283
20
0.8340157086614173
11
1.0021359055118111
21
0.8346357874015747
0
LINE
8
BLACK
6
CONTINUOUS
10
1.0021359055118111
20
0.8346357874015747
11
1.0022208661417322
21
0.8346380708661417
0
LINE
8
BLACK
6
CONTINUOUS
10
1.0022208661417322
20
0.8346380708661417
11
1.0022874803149606
21
0.8346909448818898
0
LINE
8
BLACK
6
CONTINUOUS
10
1.0022874803149606
20
0.8346909448818898
11
1.041657559055118
21
0.8478142913385827
0
LINE
8
BLACK
6
CONTINUOUS
10
1.041657559055118
20
0.8478142913385827
11
1.0426719291338582
21
0.8479647244094488
0
LINE
8
BLACK
6
CONTINUOUS
10
1.0426719291338582
20
0.8479647244094488
11
1.0445503543307086
21
0.8472223228346456
0
LINE
8
BLACK
6
CONTINUOUS
10
1.012558622047244
20
0.8318897244094487
11
1.0283899212598424
21
0.8266125984251969
0
LINE
8
BLACK
6
CONTINUOUS
10
1.0283899212598424
20
0.8266125984251969
11
1.0283899212598424
21
0.837166811023622
0
LINE
8
BLACK
6
CONTINUOUS
10
1.0283899212598424
20
0.837166811023622
11
1.012558622047244
21
0.8318897244094487
0
LINE
8
BLACK
6
CONTINUOUS
10
1.0281735039370079
20
0.8816092519685039
11
1.0283092913385827
21
0.8816234645669291
0
LINE
8
BLACK
6
CONTINUOUS
10
1.0283092913385827
20
0.8816234645669291
11
1.035808346456693
21
0.8797487007874015
0
LINE
8
BLACK
6
CONTINUOUS
10
1.035808346456693
20
0.8797487007874015
11
1.0362737795275589
21
0.8795411023622047
0
LINE
8
BLACK
6
CONTINUOUS
10
1.0362737795275589
20
0.8795411023622047
11
1.0364127165354331
21
0.8795251181102361
0
LINE
8
BLACK
6
CONTINUOUS
10
1.0364127165354331
20
0.8795251181102361
11
1.0401622440944882
21
0.8776503543307086
0
LINE
8
BLACK
6
CONTINUOUS
10
1.0401622440944882
20
0.8776503543307086
11
1.0408712204724409
21
0.8771244881889764
0
LINE
8
BLACK
6
CONTINUOUS
10
1.0408712204724409
20
0.8771244881889764
11
1.0409296062992126
21
0.8770972834645669
0
LINE
8
BLACK
6
CONTINUOUS
10
1.0409296062992126
20
0.8770972834645669
11
1.0428044094488189
21
0.8752225196850394
0
LINE
8
BLACK
6
CONTINUOUS
10
1.0428044094488189
20
0.8752225196850394
11
1.0433107874015748
21
0.8744993307086614
0
LINE
8
BLACK
6
CONTINUOUS
10
1.0433107874015748
20
0.8744993307086614
11
1.0433575590551181
21
0.8744550787401575
0
LINE
8
BLACK
6
CONTINUOUS
10
1.0433575590551181
20
0.8744550787401575
11
1.0452323228346456
21
0.8707055511811024
0
LINE
8
BLACK
6
CONTINUOUS
10
1.0452323228346456
20
0.8707055511811024
11
1.04552468503937
21
0.8697226377952756
0
LINE
8
BLACK
6
CONTINUOUS
10
1.04552468503937
20
0.8697226377952756
11
1.0454836614173229
21
0.869550905511811
0
LINE
8
BLACK
6
CONTINUOUS
10
1.0454836614173229
20
0.869550905511811
11
1.0455440551181101
21
0.8693850393700787
0
LINE
8
BLACK
6
CONTINUOUS
10
1.0455440551181101
20
0.8693850393700787
11
1.0455440551181101
21
0.8656355118110236
0
LINE
8
BLACK
6
CONTINUOUS
10
1.0455440551181101
20
0.8656355118110236
11
1.0453659842519685
21
0.864625590551181
0
LINE
8
BLACK
6
CONTINUOUS
10
1.0453659842519685
20
0.864625590551181
11
1.0452524803149605
21
0.8644903149606299
0
LINE
8
BLACK
6
CONTINUOUS
10
1.0452524803149605
20
0.8644903149606299
11
1.0452323228346456
21
0.8643149999999999
0
LINE
8
BLACK
6
CONTINUOUS
10
1.0452323228346456
20
0.8643149999999999
11
1.0433575590551181
21
0.8605654724409448
0
LINE
8
BLACK
6
CONTINUOUS
10
1.0433575590551181
20
0.8605654724409448
11
1.0428315748031496
21
0.8598563385826772
0
LINE
8
BLACK
6
CONTINUOUS
10
1.0428315748031496
20
0.8598563385826772
11
1.0428044094488189
21
0.8597980314960629
0
LINE
8
BLACK
6
CONTINUOUS
10
1.0428044094488189
20
0.8597980314960629
11
1.0409296062992126
21
0.8579232677165354
0
LINE
8
BLACK
6
CONTINUOUS
10
1.0409296062992126
20
0.8579232677165354
11
1.0402065354330707
21
0.857416968503937
0
LINE
8
BLACK
6
CONTINUOUS
10
1.0402065354330707
20
0.857416968503937
11
1.0401622440944882
21
0.8573701968503937
0
LINE
8
BLACK
6
CONTINUOUS
10
1.0401622440944882
20
0.8573701968503937
11
1.0364127165354331
21
0.8554954330708662
0
LINE
8
BLACK
6
CONTINUOUS
10
1.0364127165354331
20
0.8554954330708662
11
1.0359242519685039
21
0.8553501181102362
0
LINE
8
BLACK
6
CONTINUOUS
10
1.0359242519685039
20
0.8553501181102362
11
1.035808346456693
21
0.8552718503937008
0
LINE
8
BLACK
6
CONTINUOUS
10
1.035808346456693
20
0.8552718503937008
11
1.0283092913385827
21
0.8533970866141732
0
LINE
8
BLACK
6
CONTINUOUS
10
1.0283092913385827
20
0.8533970866141732
11
1.0277213779527559
21
0.853355590551181
0
LINE
8
BLACK
6
CONTINUOUS
10
1.0277213779527559
20
0.853355590551181
11
1.0275931496062991
21
0.853308937007874
0
LINE
8
BLACK
6
CONTINUOUS
10
1.0275931496062991
20
0.853308937007874
11
1.0182193307086613
21
0.853308937007874
0
LINE
8
BLACK
6
CONTINUOUS
10
1.0182193307086613
20
0.853308937007874
11
1.017638937007874
21
0.8534112598425196
0
LINE
8
BLACK
6
CONTINUOUS
10
1.017638937007874
20
0.8534112598425196
11
1.0175031889763779
21
0.8533970866141732
0
LINE
8
BLACK
6
CONTINUOUS
10
1.0175031889763779
20
0.8533970866141732
11
1.0100041338582677
21
0.8552718503937008
0
LINE
8
BLACK
6
CONTINUOUS
10
1.0100041338582677
20
0.8552718503937008
11
1.0095386614173227
21
0.8554794094488188
0
LINE
8
BLACK
6
CONTINUOUS
10
1.0095386614173227
20
0.8554794094488188
11
1.0093997637795276
21
0.8554954330708662
0
LINE
8
BLACK
6
CONTINUOUS
10
1.0093997637795276
20
0.8554954330708662
11
1.0056502362204724
21
0.8573701968503937
0
LINE
8
BLACK
6
CONTINUOUS
10
1.0056502362204724
20
0.8573701968503937
11
1.0049411417322835
21
0.857896062992126
0
LINE
8
BLACK
6
CONTINUOUS
10
1.0049411417322835
20
0.857896062992126
11
1.0048828346456693
21
0.8579233070866141
0
LINE
8
BLACK
6
CONTINUOUS
10
1.0048828346456693
20
0.8579233070866141
11
1.0030080708661417
21
0.8597980708661417
0
LINE
8
BLACK
6
CONTINUOUS
10
1.0030080708661417
20
0.8597980708661417
11
1.0025017716535434
21
0.8605211417322834
0
LINE
8
BLACK
6
CONTINUOUS
10
1.0025017716535434
20
0.8605211417322834
11
1.0024549606299213
21
0.8605654724409448
0
LINE
8
BLACK
6
CONTINUOUS
10
1.0024549606299213
20
0.8605654724409448
11
1.0005801968503938
21
0.8643149999999999
0
LINE
8
BLACK
6
CONTINUOUS
10
1.0005801968503938
20
0.8643149999999999
11
1.0002878346456692
21
0.8652979527559055
0
LINE
8
BLACK
6
CONTINUOUS
10
1.0002878346456692
20
0.8652979527559055
11
1.0003288188976378
21
0.8654696062992125
0
LINE
8
BLACK
6
CONTINUOUS
10
1.0003288188976378
20
0.8654696062992125
11
1.0002684645669291
21
0.8656355118110236
0
LINE
8
BLACK
6
CONTINUOUS
10
1.0002684645669291
20
0.8656355118110236
11
1.0002684645669291
21
0.8693850393700787
0
LINE
8
BLACK
6
CONTINUOUS
10
1.0002684645669291
20
0.8693850393700787
11
1.0004465354330709
21
0.8703949606299213
0
LINE
8
BLACK
6
CONTINUOUS
10
1.0004465354330709
20
0.8703949606299213
11
1.0005599999999999
21
0.8705301968503937
0
LINE
8
BLACK
6
CONTINUOUS
10
1.0005599999999999
20
0.8705301968503937
11
1.0005801968503938
21
0.8707055511811024
0
LINE
8
BLACK
6
CONTINUOUS
10
1.0005801968503938
20
0.8707055511811024
11
1.0024549606299213
21
0.8744550787401575
0
LINE
8
BLACK
6
CONTINUOUS
10
1.0024549606299213
20
0.8744550787401575
11
1.0029808661417323
21
0.8751641338582677
0
LINE
8
BLACK
6
CONTINUOUS
10
1.0029808661417323
20
0.8751641338582677
11
1.0030080708661417
21
0.8752224803149606
0
LINE
8
BLACK
6
CONTINUOUS
10
1.0030080708661417
20
0.8752224803149606
11
1.0048828346456693
21
0.8770972440944882
0
LINE
8
BLACK
6
CONTINUOUS
10
1.0048828346456693
20
0.8770972440944882
11
1.0056059055118109
21
0.8776035039370078
0
LINE
8
BLACK
6
CONTINUOUS
10
1.0056059055118109
20
0.8776035039370078
11
1.0056502362204724
21
0.8776503543307086
0
LINE
8
BLACK
6
CONTINUOUS
10
1.0056502362204724
20
0.8776503543307086
11
1.0093997637795276
21
0.8795251181102361
0
LINE
8
BLACK
6
CONTINUOUS
10
1.0093997637795276
20
0.8795251181102361
11
1.009888188976378
21
0.8796703937007874
0
LINE
8
BLACK
6
CONTINUOUS
10
1.009888188976378
20
0.8796703937007874
11
1.0100041338582677
21
0.8797487007874015
0
LINE
8
BLACK
6
CONTINUOUS
10
1.0100041338582677
20
0.8797487007874015
11
1.0175031889763779
21
0.8816234645669291
0
LINE
8
BLACK
6
CONTINUOUS
10
1.0175031889763779
20
0.8816234645669291
11
1.018091062992126
21
0.8816649212598425
0
LINE
8
BLACK
6
CONTINUOUS
10
1.018091062992126
20
0.8816649212598425
11
1.0182193307086613
21
0.8817116141732283
0
LINE
8
BLACK
6
CONTINUOUS
10
1.0182193307086613
20
0.8817116141732283
11
1.0275931496062991
21
0.8817116141732283
0
LINE
8
BLACK
6
CONTINUOUS
10
1.0275931496062991
20
0.8817116141732283
11
1.0281735039370079
21
0.8816092519685039
0
LINE
8
BLACK
6
CONTINUOUS
10
1.0117508267716535
20
0.8740980708661417
11
1.0087198425196851
21
0.8725825984251968
0
LINE
8
BLACK
6
CONTINUOUS
10
1.0087198425196851
20
0.8725825984251968
11
1.007522716535433
21
0.8713854724409449
0
LINE
8
BLACK
6
CONTINUOUS
10
1.007522716535433
20
0.8713854724409449
11
1.0061739763779527
21
0.8686879921259842
0
LINE
8
BLACK
6
CONTINUOUS
10
1.0061739763779527
20
0.8686879921259842
11
1.0061739763779527
21
0.8663325590551181
0
LINE
8
BLACK
6
CONTINUOUS
10
1.0061739763779527
20
0.8663325590551181
11
1.007522716535433
21
0.8636350787401574
0
LINE
8
BLACK
6
CONTINUOUS
10
1.007522716535433
20
0.8636350787401574
11
1.0087198425196851
21
0.8624379527559055
0
LINE
8
BLACK
6
CONTINUOUS
10
1.0087198425196851
20
0.8624379527559055
11
1.0117508267716535
21
0.8609224409448819
0
LINE
8
BLACK
6
CONTINUOUS
10
1.0117508267716535
20
0.8609224409448819
11
1.0185828740157481
21
0.8592144488188976
0
LINE
8
BLACK
6
CONTINUOUS
10
1.0185828740157481
20
0.8592144488188976
11
1.0272296062992126
21
0.8592144488188976
0
LINE
8
BLACK
6
CONTINUOUS
10
1.0272296062992126
20
0.8592144488188976
11
1.0340616535433071
21
0.8609224409448819
0
LINE
8
BLACK
6
CONTINUOUS
10
1.0340616535433071
20
0.8609224409448819
11
1.0370926377952756
21
0.8624379527559055
0
LINE
8
BLACK
6
CONTINUOUS
10
1.0370926377952756
20
0.8624379527559055
11
1.0382898031496062
21
0.8636350787401574
0
LINE
8
BLACK
6
CONTINUOUS
10
1.0382898031496062
20
0.8636350787401574
11
1.0396385433070865
21
0.8663325590551181
0
LINE
8
BLACK
6
CONTINUOUS
10
1.0396385433070865
20
0.8663325590551181
11
1.0396385433070865
21
0.8686879921259842
0
LINE
8
BLACK
6
CONTINUOUS
10
1.0396385433070865
20
0.8686879921259842
11
1.0382898031496062
21
0.8713854330708661
0
LINE
8
BLACK
6
CONTINUOUS
10
1.0382898031496062
20
0.8713854330708661
11
1.0370926377952756
21
0.8725825590551181
0
LINE
8
BLACK
6
CONTINUOUS
10
1.0370926377952756
20
0.8725825590551181
11
1.0340616535433071
21
0.8740980708661417
0
LINE
8
BLACK
6
CONTINUOUS
10
1.0340616535433071
20
0.8740980708661417
11
1.0272296062992126
21
0.8758061023622047
0
LINE
8
BLACK
6
CONTINUOUS
10
1.0272296062992126
20
0.8758061023622047
11
1.0185828740157481
21
0.8758061023622047
0
LINE
8
BLACK
6
CONTINUOUS
10
1.0185828740157481
20
0.8758061023622047
11
1.0117508267716535
21
0.8740980708661417
0
LINE
8
BLACK
6
CONTINUOUS
10
1.0409296062992126
20
0.9183421259842519
11
1.0428044094488189
21
0.9164673622047244
0
LINE
8
BLACK
6
CONTINUOUS
10
1.0428044094488189
20
0.9164673622047244
11
1.0433107874015748
21
0.9157441732283464
0
LINE
8
BLACK
6
CONTINUOUS
10
1.0433107874015748
20
0.9157441732283464
11
1.0433575590551181
21
0.9156999212598425
0
LINE
8
BLACK
6
CONTINUOUS
10
1.0433575590551181
20
0.9156999212598425
11
1.0452323228346456
21
0.9119503937007873
0
LINE
8
BLACK
6
CONTINUOUS
10
1.0452323228346456
20
0.9119503937007873
11
1.04552468503937
21
0.9109674803149606
0
LINE
8
BLACK
6
CONTINUOUS
10
1.04552468503937
20
0.9109674803149606
11
1.0454836614173229
21
0.910795748031496
0
LINE
8
BLACK
6
CONTINUOUS
10
1.0454836614173229
20
0.910795748031496
11
1.0455440551181101
21
0.9106298818897638
0
LINE
8
BLACK
6
CONTINUOUS
10
1.0455440551181101
20
0.9106298818897638
11
1.0455440551181101
21
0.901256062992126
0
LINE
8
BLACK
6
CONTINUOUS
10
1.0455440551181101
20
0.901256062992126
11
1.0453659842519685
21
0.9002461417322835
0
LINE
8
BLACK
6
CONTINUOUS
10
1.0453659842519685
20
0.9002461417322835
11
1.0452524803149605
21
0.9001108661417323
0
LINE
8
BLACK
6
CONTINUOUS
10
1.0452524803149605
20
0.9001108661417323
11
1.0452323228346456
21
0.8999355511811024
0
LINE
8
BLACK
6
CONTINUOUS
10
1.0452323228346456
20
0.8999355511811024
11
1.0433575590551181
21
0.8961860236220472
0
LINE
8
BLACK
6
CONTINUOUS
10
1.0433575590551181
20
0.8961860236220472
11
1.0428315748031496
21
0.8954768897637795
0
LINE
8
BLACK
6
CONTINUOUS
10
1.0428315748031496
20
0.8954768897637795
11
1.0428044094488189
21
0.8954185826771653
0
LINE
8
BLACK
6
CONTINUOUS
10
1.0428044094488189
20
0.8954185826771653
11
1.0409296062992126
21
0.8935438188976378
0
LINE
8
BLACK
6
CONTINUOUS
10
1.0409296062992126
20
0.8935438188976378
11
1.0402065354330707
21
0.8930375196850393
0
LINE
8
BLACK
6
CONTINUOUS
10
1.0402065354330707
20
0.8930375196850393
11
1.0401622440944882
21
0.892990748031496
0
LINE
8
BLACK
6
CONTINUOUS
10
1.0401622440944882
20
0.892990748031496
11
1.0364127165354331
21
0.8911159842519685
0
LINE
8
BLACK
6
CONTINUOUS
10
1.0364127165354331
20
0.8911159842519685
11
1.0354297637795276
21
0.8908236220472441
0
LINE
8
BLACK
6
CONTINUOUS
10
1.0354297637795276
20
0.8908236220472441
11
1.0352580708661416
21
0.8908646062992126
0
LINE
8
BLACK
6
CONTINUOUS
10
1.0352580708661416
20
0.8908646062992126
11
1.0350922047244093
21
0.8908042519685039
0
LINE
8
BLACK
6
CONTINUOUS
10
1.0350922047244093
20
0.8908042519685039
11
1.0257183858267716
21
0.8908042519685039
0
LINE
8
BLACK
6
CONTINUOUS
10
1.0257183858267716
20
0.8908042519685039
11
1.0247084645669291
21
0.8909823228346456
0
LINE
8
BLACK
6
CONTINUOUS
10
1.0247084645669291
20
0.8909823228346456
11
1.0245731889763778
21
0.8910957874015748
0
LINE
8
BLACK
6
CONTINUOUS
10
1.0245731889763778
20
0.8910957874015748
11
1.024397874015748
21
0.8911159842519685
0
LINE
8
BLACK
6
CONTINUOUS
10
1.024397874015748
20
0.8911159842519685
11
1.0206483464566929
21
0.892990748031496
0
LINE
8
BLACK
6
CONTINUOUS
10
1.0206483464566929
20
0.892990748031496
11
1.019939251968504
21
0.8935166141732284
0
LINE
8
BLACK
6
CONTINUOUS
10
1.019939251968504
20
0.8935166141732284
11
1.0198809448818897
21
0.8935438582677165
0
LINE
8
BLACK
6
CONTINUOUS
10
1.0198809448818897
20
0.8935438582677165
11
1.0180061811023622
21
0.8954186220472441
0
LINE
8
BLACK
6
CONTINUOUS
10
1.0180061811023622
20
0.8954186220472441
11
1.0174998818897638
21
0.8961416929133859
0
LINE
8
BLACK
6
CONTINUOUS
10
1.0174998818897638
20
0.8961416929133859
11
1.0174530708661418
21
0.8961860236220472
0
LINE
8
BLACK
6
CONTINUOUS
10
1.0174530708661418
20
0.8961860236220472
11
1.0155783070866142
21
0.8999355511811024
0
LINE
8
BLACK
6
CONTINUOUS
10
1.0155783070866142
20
0.8999355511811024
11
1.0152859448818898
21
0.9009185039370079
0
LINE
8
BLACK
6
CONTINUOUS
10
1.0152859448818898
20
0.9009185039370079
11
1.0153269291338582
21
0.901090157480315
0
LINE
8
BLACK
6
CONTINUOUS
10
1.0153269291338582
20
0.901090157480315
11
1.0152665748031495
21
0.901256062992126
0
LINE
8
BLACK
6
CONTINUOUS
10
1.0152665748031495
20
0.901256062992126
11
1.0152665748031495
21
0.9106298818897638
0
LINE
8
BLACK
6
CONTINUOUS
10
1.0152665748031495
20
0.9106298818897638
11
1.0154446456692914
21
0.9116398031496062
0
LINE
8
BLACK
6
CONTINUOUS
10
1.0154446456692914
20
0.9116398031496062
11
1.0155581102362206
21
0.9117750393700788
0
LINE
8
BLACK
6
CONTINUOUS
10
1.0155581102362206
20
0.9117750393700788
11
1.0155783070866142
21
0.9119503937007873
0
LINE
8
BLACK
6
CONTINUOUS
10
1.0155783070866142
20
0.9119503937007873
11
1.0159452362204724
21
0.9126842913385826
0
LINE
8
BLACK
6
CONTINUOUS
10
1.0159452362204724
20
0.9126842913385826
11
1.0061739763779527
21
0.9117071653543307
0
LINE
8
BLACK
6
CONTINUOUS
10
1.0061739763779527
20
0.9117071653543307
11
1.0061739763779527
21
0.8956317716535432
0
LINE
8
BLACK
6
CONTINUOUS
10
1.0061739763779527
20
0.8956317716535432
11
1.0059959055118111
21
0.8946218503937008
0
LINE
8
BLACK
6
CONTINUOUS
10
1.0059959055118111
20
0.8946218503937008
11
1.0046975984251969
21
0.8930746062992125
0
LINE
8
BLACK
6
CONTINUOUS
10
1.0046975984251969
20
0.8930746062992125
11
1.0027084645669291
21
0.8927238582677165
0
LINE
8
BLACK
6
CONTINUOUS
10
1.0027084645669291
20
0.8927238582677165
11
1.0009592913385827
21
0.8937337795275591
0
LINE
8
BLACK
6
CONTINUOUS
10
1.0009592913385827
20
0.8937337795275591
11
1.0002684645669291
21
0.8956317716535432
0
LINE
8
BLACK
6
CONTINUOUS
10
1.0002684645669291
20
0.8956317716535432
11
1.0002684645669291
21
0.9143794094488189
0
LINE
8
BLACK
6
CONTINUOUS
10
1.0002684645669291
20
0.9143794094488189
11
1.0002955511811022
21
0.9145332283464567
0
LINE
8
BLACK
6
CONTINUOUS
10
1.0002955511811022
20
0.9145332283464567
11
1.0002767322834645
21
0.9146002755905511
0
LINE
8
BLACK
6
CONTINUOUS
10
1.0002767322834645
20
0.9146002755905511
11
1.0003270472440944
21
0.914711811023622
0
LINE
8
BLACK
6
CONTINUOUS
10
1.0003270472440944
20
0.914711811023622
11
1.0004465354330709
21
0.9153893307086614
0
LINE
8
BLACK
6
CONTINUOUS
10
1.0004465354330709
20
0.9153893307086614
11
1.0008496062992125
21
0.9158696850393701
0
LINE
8
BLACK
6
CONTINUOUS
10
1.0008496062992125
20
0.9158696850393701
11
1.0011075590551182
21
0.9164412598425197
0
LINE
8
BLACK
6
CONTINUOUS
10
1.0011075590551182
20
0.9164412598425197
11
1.0014794881889764
21
0.9166203149606299
0
LINE
8
BLACK
6
CONTINUOUS
10
1.0014794881889764
20
0.9166203149606299
11
1.0017448425196851
21
0.9169365748031496
0
LINE
8
BLACK
6
CONTINUOUS
10
1.0017448425196851
20
0.9169365748031496
11
1.0023623622047244
21
0.9170454330708662
0
LINE
8
BLACK
6
CONTINUOUS
10
1.0023623622047244
20
0.9170454330708662
11
1.0029274015748031
21
0.9173175196850394
0
LINE
8
BLACK
6
CONTINUOUS
10
1.0029274015748031
20
0.9173175196850394
11
1.0216750393700786
21
0.9191922834645669
0
LINE
8
BLACK
6
CONTINUOUS
10
1.0216750393700786
20
0.9191922834645669
11
1.0226976771653542
21
0.9191155905511811
0
LINE
8
BLACK
6
CONTINUOUS
10
1.0226976771653542
20
0.9191155905511811
11
1.0227137401574804
21
0.9191046062992125
0
LINE
8
BLACK
6
CONTINUOUS
10
1.0227137401574804
20
0.9191046062992125
11
1.0227330708661417
21
0.9191062992125985
0
LINE
8
BLACK
6
CONTINUOUS
10
1.0227330708661417
20
0.9191062992125985
11
1.0235448031496064
21
0.9185379133858268
0
LINE
8
BLACK
6
CONTINUOUS
10
1.0235448031496064
20
0.9185379133858268
11
1.0243664173228346
21
0.9179776771653543
0
LINE
8
BLACK
6
CONTINUOUS
10
1.0243664173228346
20
0.9179776771653543
11
1.0243716535433072
21
0.917958937007874
0
LINE
8
BLACK
6
CONTINUOUS
10
1.0243716535433072
20
0.917958937007874
11
1.0243876377952756
21
0.9179477952755906
0
LINE
8
BLACK
6
CONTINUOUS
10
1.0243876377952756
20
0.9179477952755906
11
1.024644527559055
21
0.9169888582677165
0
LINE
8
BLACK
6
CONTINUOUS
10
1.024644527559055
20
0.9169888582677165
11
1.0249133464566929
21
0.9160333070866141
0
LINE
8
BLACK
6
CONTINUOUS
10
1.0249133464566929
20
0.9160333070866141
11
1.02490531496063
21
0.9160155511811023
0
LINE
8
BLACK
6
CONTINUOUS
10
1.02490531496063
20
0.9160155511811023
11
1.0249103543307085
21
0.9159968110236221
0
LINE
8
BLACK
6
CONTINUOUS
10
1.0249103543307085
20
0.9159968110236221
11
1.0244914173228346
21
0.9150984251968504
0
LINE
8
BLACK
6
CONTINUOUS
10
1.0244914173228346
20
0.9150984251968504
11
1.0240825196850394
21
0.9141923228346457
0
LINE
8
BLACK
6
CONTINUOUS
10
1.0240825196850394
20
0.9141923228346457
11
1.0240649606299213
21
0.9141838582677165
0
LINE
8
BLACK
6
CONTINUOUS
10
1.0240649606299213
20
0.9141838582677165
11
1.0240567716535434
21
0.9141662598425196
0
LINE
8
BLACK
6
CONTINUOUS
10
1.0240567716535434
20
0.9141662598425196
11
1.0225208267716535
21
0.9126303149606299
0
LINE
8
BLACK
6
CONTINUOUS
10
1.0225208267716535
20
0.9126303149606299
11
1.0211720866141731
21
0.9099328346456693
0
LINE
8
BLACK
6
CONTINUOUS
10
1.0211720866141731
20
0.9099328346456693
11
1.0211720866141731
21
0.9019531102362205
0
LINE
8
BLACK
6
CONTINUOUS
10
1.0211720866141731
20
0.9019531102362205
11
1.0225208267716535
21
0.8992556299212598
0
LINE
8
BLACK
6
CONTINUOUS
10
1.0225208267716535
20
0.8992556299212598
11
1.0237179527559055
21
0.8980585039370078
0
LINE
8
BLACK
6
CONTINUOUS
10
1.0237179527559055
20
0.8980585039370078
11
1.0264154330708661
21
0.8967097637795275
0
LINE
8
BLACK
6
CONTINUOUS
10
1.0264154330708661
20
0.8967097637795275
11
1.034395157480315
21
0.8967097637795275
0
LINE
8
BLACK
6
CONTINUOUS
10
1.034395157480315
20
0.8967097637795275
11
1.0370926377952756
21
0.8980585039370078
0
LINE
8
BLACK
6
CONTINUOUS
10
1.0370926377952756
20
0.8980585039370078
11
1.0382898031496062
21
0.8992556299212598
0
LINE
8
BLACK
6
CONTINUOUS
10
1.0382898031496062
20
0.8992556299212598
11
1.0396385433070865
21
0.9019531102362205
0
LINE
8
BLACK
6
CONTINUOUS
10
1.0396385433070865
20
0.9019531102362205
11
1.0396385433070865
21
0.9099328346456693
0
LINE
8
BLACK
6
CONTINUOUS
10
1.0396385433070865
20
0.9099328346456693
11
1.0382898031496062
21
0.9126302755905512
0
LINE
8
BLACK
6
CONTINUOUS
10
1.0382898031496062
20
0.9126302755905512
11
1.0367538582677165
21
0.9141662204724409
0
LINE
8
BLACK
6
CONTINUOUS
10
1.0367538582677165
20
0.9141662204724409
11
1.0361656299212598
21
0.9150062598425197
0
LINE
8
BLACK
6
CONTINUOUS
10
1.0361656299212598
20
0.9150062598425197
11
1.0359895669291339
21
0.9170183858267716
0
LINE
8
BLACK
6
CONTINUOUS
10
1.0359895669291339
20
0.9170183858267716
11
1.0371480708661418
21
0.9186729527559054
0
LINE
8
BLACK
6
CONTINUOUS
10
1.0371480708661418
20
0.9186729527559054
11
1.0390990551181103
21
0.9191956692913386
0
LINE
8
BLACK
6
CONTINUOUS
10
1.0390990551181103
20
0.9191956692913386
11
1.0409296062992126
21
0.9183421259842519
0
LINE
8
BLACK
6
CONTINUOUS
10
1.0281735039370079
20
0.9565998818897637
11
1.0283092913385827
21
0.9566140944881889
0
LINE
8
BLACK
6
CONTINUOUS
10
1.0283092913385827
20
0.9566140944881889
11
1.035808346456693
21
0.9547393307086613
0
LINE
8
BLACK
6
CONTINUOUS
10
1.035808346456693
20
0.9547393307086613
11
1.0362737795275589
21
0.9545317322834646
0
LINE
8
BLACK
6
CONTINUOUS
10
1.0362737795275589
20
0.9545317322834646
11
1.0364127165354331
21
0.9545157480314961
0
LINE
8
BLACK
6
CONTINUOUS
10
1.0364127165354331
20
0.9545157480314961
11
1.0401622440944882
21
0.9526409842519685
0
LINE
8
BLACK
6
CONTINUOUS
10
1.0401622440944882
20
0.9526409842519685
11
1.0408712204724409
21
0.9521151181102362
0
LINE
8
BLACK
6
CONTINUOUS
10
1.0408712204724409
20
0.9521151181102362
11
1.0409296062992126
21
0.9520879133858268
0
LINE
8
BLACK
6
CONTINUOUS
10
1.0409296062992126
20
0.9520879133858268
11
1.0428044094488189
21
0.9502131496062992
0
LINE
8
BLACK
6
CONTINUOUS
10
1.0428044094488189
20
0.9502131496062992
11
1.0433107874015748
21
0.9494899606299212
0
LINE
8
BLACK
6
CONTINUOUS
10
1.0433107874015748
20
0.9494899606299212
11
1.0433575590551181
21
0.9494457086614173
0
LINE
8
BLACK
6
CONTINUOUS
10
1.0433575590551181
20
0.9494457086614173
11
1.0452323228346456
21
0.9456961811023622
0
LINE
8
BLACK
6
CONTINUOUS
10
1.0452323228346456
20
0.9456961811023622
11
1.04552468503937
21
0.9447132677165354
0
LINE
8
BLACK
6
CONTINUOUS
10
1.04552468503937
20
0.9447132677165354
11
1.0454836614173229
21
0.9445415354330708
0
LINE
8
BLACK
6
CONTINUOUS
10
1.0454836614173229
20
0.9445415354330708
11
1.0455440551181101
21
0.9443756692913385
0
LINE
8
BLACK
6
CONTINUOUS
10
1.0455440551181101
20
0.9443756692913385
11
1.0455440551181101
21
0.9406261417322834
0
LINE
8
BLACK
6
CONTINUOUS
10
1.0455440551181101
20
0.9406261417322834
11
1.0453659842519685
21
0.939616220472441
0
LINE
8
BLACK
6
CONTINUOUS
10
1.0453659842519685
20
0.939616220472441
11
1.0452524803149605
21
0.9394809448818897
0
LINE
8
BLACK
6
CONTINUOUS
10
1.0452524803149605
20
0.9394809448818897
11
1.0452323228346456
21
0.9393056299212598
0
LINE
8
BLACK
6
CONTINUOUS
10
1.0452323228346456
20
0.9393056299212598
11
1.0433575590551181
21
0.9355561023622047
0
LINE
8
BLACK
6
CONTINUOUS
10
1.0433575590551181
20
0.9355561023622047
11
1.0428315748031496
21
0.934846968503937
0
LINE
8
BLACK
6
CONTINUOUS
10
1.0428315748031496
20
0.934846968503937
11
1.0428044094488189
21
0.9347886614173229
0
LINE
8
BLACK
6
CONTINUOUS
10
1.0428044094488189
20
0.9347886614173229
11
1.0409296062992126
21
0.9329138976377953
0
LINE
8
BLACK
6
CONTINUOUS
10
1.0409296062992126
20
0.9329138976377953
11
1.0402065354330707
21
0.9324075984251968
0
LINE
8
BLACK
6
CONTINUOUS
10
1.0402065354330707
20
0.9324075984251968
11
1.0401622440944882
21
0.9323608267716536
0
LINE
8
BLACK
6
CONTINUOUS
10
1.0401622440944882
20
0.9323608267716536
11
1.0364127165354331
21
0.930486062992126
0
LINE
8
BLACK
6
CONTINUOUS
10
1.0364127165354331
20
0.930486062992126
11
1.0359242519685039
21
0.930340748031496
0
LINE
8
BLACK
6
CONTINUOUS
10
1.0359242519685039
20
0.930340748031496
11
1.035808346456693
21
0.9302624803149606
0
LINE
8
BLACK
6
CONTINUOUS
10
1.035808346456693
20
0.9302624803149606
11
1.0283092913385827
21
0.9283877165354331
0
LINE
8
BLACK
6
CONTINUOUS
10
1.0283092913385827
20
0.9283877165354331
11
1.0277213779527559
21
0.928346220472441
0
LINE
8
BLACK
6
CONTINUOUS
10
1.0277213779527559
20
0.928346220472441
11
1.0275931496062991
21
0.9282995669291338
0
LINE
8
BLACK
6
CONTINUOUS
10
1.0275931496062991
20
0.9282995669291338
11
1.0182193307086613
21
0.9282995669291338
0
LINE
8
BLACK
6
CONTINUOUS
10
1.0182193307086613
20
0.9282995669291338
11
1.017638937007874
21
0.9284018897637795
0
LINE
8
BLACK
6
CONTINUOUS
10
1.017638937007874
20
0.9284018897637795
11
1.0175031889763779
21
0.9283877165354331
0
LINE
8
BLACK
6
CONTINUOUS
10
1.0175031889763779
20
0.9283877165354331
11
1.0100041338582677
21
0.9302624803149606
0
LINE
8
BLACK
6
CONTINUOUS
10
1.0100041338582677
20
0.9302624803149606
11
1.0095386614173227
21
0.9304700393700788
0
LINE
8
BLACK
6
CONTINUOUS
10
1.0095386614173227
20
0.9304700393700788
11
1.0093997637795276
21
0.930486062992126
0
LINE
8
BLACK
6
CONTINUOUS
10
1.0093997637795276
20
0.930486062992126
11
1.0056502362204724
21
0.9323608267716536
0
LINE
8
BLACK
6
CONTINUOUS
10
1.0056502362204724
20
0.9323608267716536
11
1.0049411417322835
21
0.9328866929133858
0
LINE
8
BLACK
6
CONTINUOUS
10
1.0049411417322835
20
0.9328866929133858
11
1.0048828346456693
21
0.932913937007874
0
LINE
8
BLACK
6
CONTINUOUS
10
1.0048828346456693
20
0.932913937007874
11
1.0030080708661417
21
0.9347887007874015
0
LINE
8
BLACK
6
CONTINUOUS
10
1.0030080708661417
20
0.9347887007874015
11
1.0025017716535434
21
0.9355117716535433
0
LINE
8
BLACK
6
CONTINUOUS
10
1.0025017716535434
20
0.9355117716535433
11
1.0024549606299213
21
0.9355561023622047
0
LINE
8
BLACK
6
CONTINUOUS
10
1.0024549606299213
20
0.9355561023622047
11
1.0005801968503938
21
0.9393056299212598
0
LINE
8
BLACK
6
CONTINUOUS
10
1.0005801968503938
20
0.9393056299212598
11
1.0002878346456692
21
0.9402885826771653
0
LINE
8
BLACK
6
CONTINUOUS
10
1.0002878346456692
20
0.9402885826771653
11
1.0003288188976378
21
0.9404602362204724
0
LINE
8
BLACK
6
CONTINUOUS
10
1.0003288188976378
20
0.9404602362204724
11
1.0002684645669291
21
0.9406261417322834
0
LINE
8
BLACK
6
CONTINUOUS
10
1.0002684645669291
20
0.9406261417322834
11
1.0002684645669291
21
0.9443756692913385
0
LINE
8
BLACK
6
CONTINUOUS
10
1.0002684645669291
20
0.9443756692913385
11
1.0004465354330709
21
0.9453855905511811
0
LINE
8
BLACK
6
CONTINUOUS
10
1.0004465354330709
20
0.9453855905511811
11
1.0005599999999999
21
0.9455208267716535
0
LINE
8
BLACK
6
CONTINUOUS
10
1.0005599999999999
20
0.9455208267716535
11
1.0005801968503938
21
0.9456961811023622
0
LINE
8
BLACK
6
CONTINUOUS
10
1.0005801968503938
20
0.9456961811023622
11
1.0024549606299213
21
0.9494457086614173
0
LINE
8
BLACK
6
CONTINUOUS
10
1.0024549606299213
20
0.9494457086614173
11
1.0029808661417323
21
0.9501547637795276
0
LINE
8
BLACK
6
CONTINUOUS
10
1.0029808661417323
20
0.9501547637795276
11
1.0030080708661417
21
0.9502131102362205
0
LINE
8
BLACK
6
CONTINUOUS
10
1.0030080708661417
20
0.9502131102362205
11
1.0048828346456693
21
0.952087874015748
0
LINE
8
BLACK
6
CONTINUOUS
10
1.0048828346456693
20
0.952087874015748
11
1.0056059055118109
21
0.9525941338582677
0
LINE
8
BLACK
6
CONTINUOUS
10
1.0056059055118109
20
0.9525941338582677
11
1.0056502362204724
21
0.9526409842519685
0
LINE
8
BLACK
6
CONTINUOUS
10
1.0056502362204724
20
0.9526409842519685
11
1.0093997637795276
21
0.9545157480314961
0
LINE
8
BLACK
6
CONTINUOUS
10
1.0093997637795276
20
0.9545157480314961
11
1.009888188976378
21
0.9546610236220472
0
LINE
8
BLACK
6
CONTINUOUS
10
1.009888188976378
20
0.9546610236220472
11
1.0100041338582677
21
0.9547393307086613
0
LINE
8
BLACK
6
CONTINUOUS
10
1.0100041338582677
20
0.9547393307086613
11
1.0175031889763779
21
0.9566140944881889
0
LINE
8
BLACK
6
CONTINUOUS
10
1.0175031889763779
20
0.9566140944881889
11
1.018091062992126
21
0.9566555511811023
0
LINE
8
BLACK
6
CONTINUOUS
10
1.018091062992126
20
0.9566555511811023
11
1.0182193307086613
21
0.9567022440944881
0
LINE
8
BLACK
6
CONTINUOUS
10
1.0182193307086613
20
0.9567022440944881
11
1.0275931496062991
21
0.9567022440944881
0
LINE
8
BLACK
6
CONTINUOUS
10
1.0275931496062991
20
0.9567022440944881
11
1.0281735039370079
21
0.9565998818897637
0
LINE
8
BLACK
6
CONTINUOUS
10
1.0117508267716535
20
0.9490887007874016
11
1.0087198425196851
21
0.9475732283464566
0
LINE
8
BLACK
6
CONTINUOUS
10
1.0087198425196851
20
0.9475732283464566
11
1.007522716535433
21
0.9463761023622047
0
LINE
8
BLACK
6
CONTINUOUS
10
1.007522716535433
20
0.9463761023622047
11
1.0061739763779527
21
0.9436786220472441
0
LINE
8
BLACK
6
CONTINUOUS
10
1.0061739763779527
20
0.9436786220472441
11
1.0061739763779527
21
0.9413231889763779
0
LINE
8
BLACK
6
CONTINUOUS
10
1.0061739763779527
20
0.9413231889763779
11
1.007522716535433
21
0.9386257086614173
0
LINE
8
BLACK
6
CONTINUOUS
10
1.007522716535433
20
0.9386257086614173
11
1.0087198425196851
21
0.9374285826771653
0
LINE
8
BLACK
6
CONTINUOUS
10
1.0087198425196851
20
0.9374285826771653
11
1.0117508267716535
21
0.9359130708661417
0
LINE
8
BLACK
6
CONTINUOUS
10
1.0117508267716535
20
0.9359130708661417
11
1.0185828740157481
21
0.9342050787401575
0
LINE
8
BLACK
6
CONTINUOUS
10
1.0185828740157481
20
0.9342050787401575
11
1.0272296062992126
21
0.9342050787401575
0
LINE
8
BLACK
6
CONTINUOUS
10
1.0272296062992126
20
0.9342050787401575
11
1.0340616535433071
21
0.9359130708661417
0
LINE
8
BLACK
6
CONTINUOUS
10
1.0340616535433071
20
0.9359130708661417
11
1.0370926377952756
21
0.9374285826771653
0
LINE
8
BLACK
6
CONTINUOUS
10
1.0370926377952756
20
0.9374285826771653
11
1.0382898031496062
21
0.9386257086614173
0
LINE
8
BLACK
6
CONTINUOUS
10
1.0382898031496062
20
0.9386257086614173
11
1.0396385433070865
21
0.9413231889763779
0
LINE
8
BLACK
6
CONTINUOUS
10
1.0396385433070865
20
0.9413231889763779
11
1.0396385433070865
21
0.9436786220472441
0
LINE
8
BLACK
6
CONTINUOUS
10
1.0396385433070865
20
0.9436786220472441
11
1.0382898031496062
21
0.946376062992126
0
LINE
8
BLACK
6
CONTINUOUS
10
1.0382898031496062
20
0.946376062992126
11
1.0370926377952756
21
0.9475731889763779
0
LINE
8
BLACK
6
CONTINUOUS
10
1.0370926377952756
20
0.9475731889763779
11
1.0340616535433071
21
0.9490887007874016
0
LINE
8
BLACK
6
CONTINUOUS
10
1.0340616535433071
20
0.9490887007874016
11
1.0272296062992126
21
0.9507967322834645
0
LINE
8
BLACK
6
CONTINUOUS
10
1.0272296062992126
20
0.9507967322834645
11
1.0185828740157481
21
0.9507967322834645
0
LINE
8
BLACK
6
CONTINUOUS
10
1.0185828740157481
20
0.9507967322834645
11
1.0117508267716535
21
0.9490887007874016
0
LINE
8
BLACK
6
CONTINUOUS
10
1.0054831496062993
20
0.9950175590551181
11
1.0061739763779527
21
0.9931195669291338
0
LINE
8
BLACK
6
CONTINUOUS
10
1.0061739763779527
20
0.9931195669291338
11
1.0061739763779527
21
0.9713508267716535
0
LINE
8
BLACK
6
CONTINUOUS
10
1.0061739763779527
20
0.9713508267716535
11
1.0414281496062991
21
0.9864597637795275
0
LINE
8
BLACK
6
CONTINUOUS
10
1.0414281496062991
20
0.9864597637795275
11
1.0424265354330708
21
0.9866938976377952
0
LINE
8
BLACK
6
CONTINUOUS
10
1.0424265354330708
20
0.9866938976377952
11
1.0443601181102362
21
0.9861100787401574
0
LINE
8
BLACK
6
CONTINUOUS
10
1.0443601181102362
20
0.9861100787401574
11
1.045466062992126
21
0.9844199212598425
0
LINE
8
BLACK
6
CONTINUOUS
10
1.045466062992126
20
0.9844199212598425
11
1.0452268503937008
21
0.9824143700787401
0
LINE
8
BLACK
6
CONTINUOUS
10
1.0452268503937008
20
0.9824143700787401
11
1.0437544488188977
21
0.9810317322834645
0
LINE
8
BLACK
6
CONTINUOUS
10
1.0437544488188977
20
0.9810317322834645
11
1.00438437007874
21
0.9641588582677165
0
LINE
8
BLACK
6
CONTINUOUS
10
1.00438437007874
20
0.9641588582677165
11
1.0033859448818898
21
0.9639247244094488
0
LINE
8
BLACK
6
CONTINUOUS
10
1.0033859448818898
20
0.9639247244094488
11
1.0030520078740157
21
0.9640255118110236
0
LINE
8
BLACK
6
CONTINUOUS
10
1.0030520078740157
20
0.9640255118110236
11
1.0027084645669291
21
0.9639649606299212
0
LINE
8
BLACK
6
CONTINUOUS
10
1.0027084645669291
20
0.9639649606299212
11
1.0021118503937008
21
0.9643094094488188
0
LINE
8
BLACK
6
CONTINUOUS
10
1.0021118503937008
20
0.9643094094488188
11
1.0014524015748032
21
0.9645085433070866
0
LINE
8
BLACK
6
CONTINUOUS
10
1.0014524015748032
20
0.9645085433070866
11
1.0012613779527559
21
0.9648004330708662
0
LINE
8
BLACK
6
CONTINUOUS
10
1.0012613779527559
20
0.9648004330708662
11
1.0009592913385827
21
0.9649748818897638
0
LINE
8
BLACK
6
CONTINUOUS
10
1.0009592913385827
20
0.9649748818897638
11
1.0007236614173227
21
0.9656222047244094
0
LINE
8
BLACK
6
CONTINUOUS
10
1.0007236614173227
20
0.9656222047244094
11
1.0003464566929134
21
0.9661987007874016
0
LINE
8
BLACK
6
CONTINUOUS
10
1.0003464566929134
20
0.9661987007874016
11
1.0003877559055119
21
0.9665450787401575
0
LINE
8
BLACK
6
CONTINUOUS
10
1.0003877559055119
20
0.9665450787401575
11
1.0002684645669291
21
0.9668728740157481
0
LINE
8
BLACK
6
CONTINUOUS
10
1.0002684645669291
20
0.9668728740157481
11
1.0002684645669291
21
0.9931195669291338
0
LINE
8
BLACK
6
CONTINUOUS
10
1.0002684645669291
20
0.9931195669291338
11
1.0004465354330709
21
0.9941294881889764
0
LINE
8
BLACK
6
CONTINUOUS
10
1.0004465354330709
20
0.9941294881889764
11
1.0017448425196851
21
0.9956767322834645
0
LINE
8
BLACK
6
CONTINUOUS
10
1.0017448425196851
20
0.9956767322834645
11
1.0037339763779527
21
0.9960274803149606
0
LINE
8
BLACK
6
CONTINUOUS
10
1.0037339763779527
20
0.9960274803149606
11
1.0054831496062993
21
0.9950175590551181
0
LINE
8
BLACK
6
CONTINUOUS
10
1.0300482677165355
20
1.0353400393700787
11
1.0301840551181103
21
1.0353542519685039
0
LINE
8
BLACK
6
CONTINUOUS
10
1.0301840551181103
20
1.0353542519685039
11
1.0376831102362205
21
1.0334794881889764
0
LINE
8
BLACK
6
CONTINUOUS
10
1.0376831102362205
20
1.0334794881889764
11
1.0386196850393701
21
1.0330617716535433
0
LINE
8
BLACK
6
CONTINUOUS
10
1.0386196850393701
20
1.0330617716535433
11
1.0387907874015747
21
1.032825905511811
0
LINE
8
BLACK
6
CONTINUOUS
10
1.0387907874015747
20
1.032825905511811
11
1.0390548818897638
21
1.0327027952755905
0
LINE
8
BLACK
6
CONTINUOUS
10
1.0390548818897638
20
1.0327027952755905
11
1.0428044488188977
21
1.0289532677165354
0
LINE
8
BLACK
6
CONTINUOUS
10
1.0428044488188977
20
1.0289532677165354
11
1.0433108267716535
21
1.0282300787401575
0
LINE
8
BLACK
6
CONTINUOUS
10
1.0433108267716535
20
1.0282300787401575
11
1.0433575590551181
21
1.0281858661417322
0
LINE
8
BLACK
6
CONTINUOUS
10
1.0433575590551181
20
1.0281858661417322
11
1.0452323228346456
21
1.0244363385826771
0
LINE
8
BLACK
6
CONTINUOUS
10
1.0452323228346456
20
1.0244363385826771
11
1.04552468503937
21
1.0234534251968503
0
LINE
8
BLACK
6
CONTINUOUS
10
1.04552468503937
20
1.0234534251968503
11
1.0454836614173229
21
1.0232816929133859
0
LINE
8
BLACK
6
CONTINUOUS
10
1.0454836614173229
20
1.0232816929133859
11
1.0455440551181101
21
1.0231158267716536
0
LINE
8
BLACK
6
CONTINUOUS
10
1.0455440551181101
20
1.0231158267716536
11
1.0455440551181101
21
1.0156167716535434
0
LINE
8
BLACK
6
CONTINUOUS
10
1.0455440551181101
20
1.0156167716535434
11
1.0453659842519685
21
1.0146068503937007
0
LINE
8
BLACK
6
CONTINUOUS
10
1.0453659842519685
20
1.0146068503937007
11
1.0452524803149605
21
1.0144715748031496
0
LINE
8
BLACK
6
CONTINUOUS
10
1.0452524803149605
20
1.0144715748031496
11
1.0452323228346456
21
1.0142962598425196
0
LINE
8
BLACK
6
CONTINUOUS
10
1.0452323228346456
20
1.0142962598425196
11
1.0443093307086615
21
1.0124502755905511
0
LINE
8
BLACK
6
CONTINUOUS
10
1.0443093307086615
20
1.0124502755905511
11
1.0465539763779528
21
1.0102056299212598
0
LINE
8
BLACK
6
CONTINUOUS
10
1.0465539763779528
20
1.0102056299212598
11
1.0470603543307087
21
1.0094824409448819
0
LINE
8
BLACK
6
CONTINUOUS
10
1.0470603543307087
20
1.0094824409448819
11
1.0471070866141732
21
1.0094382283464567
0
LINE
8
BLACK
6
CONTINUOUS
10
1.0471070866141732
20
1.0094382283464567
11
1.0489818503937007
21
1.0056887007874016
0
LINE
8
BLACK
6
CONTINUOUS
10
1.0489818503937007
20
1.0056887007874016
11
1.0492742125984251
21
1.0047057874015748
0
LINE
8
BLACK
6
CONTINUOUS
10
1.0492742125984251
20
1.0047057874015748
11
1.0488049212598425
21
1.0027412598425196
0
LINE
8
BLACK
6
CONTINUOUS
10
1.0488049212598425
20
1.0027412598425196
11
1.0471826377952755
21
1.0015379527559054
0
LINE
8
BLACK
6
CONTINUOUS
10
1.0471826377952755
20
1.0015379527559054
11
1.0451664960629921
21
1.0016590157480314
0
LINE
8
BLACK
6
CONTINUOUS
10
1.0451664960629921
20
1.0016590157480314
11
1.0436998031496063
21
1.0030476771653543
0
LINE
8
BLACK
6
CONTINUOUS
10
1.0436998031496063
20
1.0030476771653543
11
1.0420393307086615
21
1.0063686220472441
0
LINE
8
BLACK
6
CONTINUOUS
10
1.0420393307086615
20
1.0063686220472441
11
1.040716496062992
21
1.0076914173228346
0
LINE
8
BLACK
6
CONTINUOUS
10
1.040716496062992
20
1.0076914173228346
11
1.0390548818897638
21
1.0060298031496062
0
LINE
8
BLACK
6
CONTINUOUS
10
1.0390548818897638
20
1.0060298031496062
11
1.0382148425196851
21
1.0054415748031496
0
LINE
8
BLACK
6
CONTINUOUS
10
1.0382148425196851
20
1.0054415748031496
11
1.0379245275590552
21
1.0054161811023621
0
LINE
8
BLACK
6
CONTINUOUS
10
1.0379245275590552
20
1.0054161811023621
11
1.0376831102362205
21
1.0052531102362205
0
LINE
8
BLACK
6
CONTINUOUS
10
1.0376831102362205
20
1.0052531102362205
11
1.0301840551181103
21
1.003378346456693
0
LINE
8
BLACK
6
CONTINUOUS
10
1.0301840551181103
20
1.003378346456693
11
1.0295961417322834
21
1.0033368503937008
0
LINE
8
BLACK
6
CONTINUOUS
10
1.0295961417322834
20
1.0033368503937008
11
1.0294679133858267
21
1.0032901968503938
0
LINE
8
BLACK
6
CONTINUOUS
10
1.0294679133858267
20
1.0032901968503938
11
1.0163445669291338
21
1.0032901968503938
0
LINE
8
BLACK
6
CONTINUOUS
10
1.0163445669291338
20
1.0032901968503938
11
1.0157641732283464
21
1.0033925196850393
0
LINE
8
BLACK
6
CONTINUOUS
10
1.0157641732283464
20
1.0033925196850393
11
1.0156284251968504
21
1.003378346456693
0
LINE
8
BLACK
6
CONTINUOUS
10
1.0156284251968504
20
1.003378346456693
11
1.0081293700787402
21
1.0052531102362205
0
LINE
8
BLACK
6
CONTINUOUS
10
1.0081293700787402
20
1.0052531102362205
11
1.0071927952755906
21
1.0056708267716534
0
LINE
8
BLACK
6
CONTINUOUS
10
1.0071927952755906
20
1.0056708267716534
11
1.007021653543307
21
1.005906653543307
0
LINE
8
BLACK
6
CONTINUOUS
10
1.007021653543307
20
1.005906653543307
11
1.0067575984251969
21
1.0060298031496062
0
LINE
8
BLACK
6
CONTINUOUS
10
1.0067575984251969
20
1.0060298031496062
11
1.0030080708661417
21
1.0097793307086613
0
LINE
8
BLACK
6
CONTINUOUS
10
1.0030080708661417
20
1.0097793307086613
11
1.0025017716535434
21
1.0105024015748032
0
LINE
8
BLACK
6
CONTINUOUS
10
1.0025017716535434
20
1.0105024015748032
11
1.0024549606299213
21
1.0105467322834645
0
LINE
8
BLACK
6
CONTINUOUS
10
1.0024549606299213
20
1.0105467322834645
11
1.0005801968503938
21
1.0142962598425196
0
LINE
8
BLACK
6
CONTINUOUS
10
1.0005801968503938
20
1.0142962598425196
11
1.0002878346456692
21
1.0152792125984251
0
LINE
8
BLACK
6
CONTINUOUS
10
1.0002878346456692
20
1.0152792125984251
11
1.0003288188976378
21
1.0154508661417323
0
LINE
8
BLACK
6
CONTINUOUS
10
1.0003288188976378
20
1.0154508661417323
11
1.0002684645669291
21
1.0156167716535434
0
LINE
8
BLACK
6
CONTINUOUS
10
1.0002684645669291
20
1.0156167716535434
11
1.0002684645669291
21
1.0231158267716536
0
LINE
8
BLACK
6
CONTINUOUS
10
1.0002684645669291
20
1.0231158267716536
11
1.0004465354330709
21
1.024125748031496
0
LINE
8
BLACK
6
CONTINUOUS
10
1.0004465354330709
20
1.024125748031496
11
1.0005599999999999
21
1.0242609842519685
0
LINE
8
BLACK
6
CONTINUOUS
10
1.0005599999999999
20
1.0242609842519685
11
1.0005801968503938
21
1.0244363385826771
0
LINE
8
BLACK
6
CONTINUOUS
10
1.0005801968503938
20
1.0244363385826771
11
1.0024549606299213
21
1.0281858661417322
0
LINE
8
BLACK
6
CONTINUOUS
10
1.0024549606299213
20
1.0281858661417322
11
1.0029808661417323
21
1.0288949212598424
0
LINE
8
BLACK
6
CONTINUOUS
10
1.0029808661417323
20
1.0288949212598424
11
1.0030080708661417
21
1.0289532677165354
0
LINE
8
BLACK
6
CONTINUOUS
10
1.0030080708661417
20
1.0289532677165354
11
1.0067575984251969
21
1.0327027952755905
0
LINE
8
BLACK
6
CONTINUOUS
10
1.0067575984251969
20
1.0327027952755905
11
1.0075976377952756
21
1.0332910236220472
0
LINE
8
BLACK
6
CONTINUOUS
10
1.0075976377952756
20
1.0332910236220472
11
1.0078879133858267
21
1.0333164173228346
0
LINE
8
BLACK
6
CONTINUOUS
10
1.0078879133858267
20
1.0333164173228346
11
1.0081293700787402
21
1.0334794881889764
0
LINE
8
BLACK
6
CONTINUOUS
10
1.0081293700787402
20
1.0334794881889764
11
1.0156284251968504
21
1.0353542519685039
0
LINE
8
BLACK
6
CONTINUOUS
10
1.0156284251968504
20
1.0353542519685039
11
1.0162162992125985
21
1.0353957086614174
0
LINE
8
BLACK
6
CONTINUOUS
10
1.0162162992125985
20
1.0353957086614174
11
1.0163445669291338
21
1.0354424015748032
0
LINE
8
BLACK
6
CONTINUOUS
10
1.0163445669291338
20
1.0354424015748032
11
1.0294679133858267
21
1.0354424015748032
0
LINE
8
BLACK
6
CONTINUOUS
10
1.0294679133858267
20
1.0354424015748032
11
1.0300482677165355
21
1.0353400393700787
0
LINE
8
BLACK
6
CONTINUOUS
10
1.0103550787401574
20
1.027948622047244
11
1.007522716535433
21
1.0251162598425196
0
LINE
8
BLACK
6
CONTINUOUS
10
1.007522716535433
20
1.0251162598425196
11
1.0061739763779527
21
1.022418779527559
0
LINE
8
BLACK
6
CONTINUOUS
10
1.0061739763779527
20
1.022418779527559
11
1.0061739763779527
21
1.0163138188976377
0
LINE
8
BLACK
6
CONTINUOUS
10
1.0061739763779527
20
1.0163138188976377
11
1.007522716535433
21
1.0136163385826771
0
LINE
8
BLACK
6
CONTINUOUS
10
1.007522716535433
20
1.0136163385826771
11
1.0103550787401574
21
1.0107839370078739
0
LINE
8
BLACK
6
CONTINUOUS
10
1.0103550787401574
20
1.0107839370078739
11
1.0167081102362205
21
1.0091957086614174
0
LINE
8
BLACK
6
CONTINUOUS
10
1.0167081102362205
20
1.0091957086614174
11
1.0291043700787401
21
1.0091957086614174
0
LINE
8
BLACK
6
CONTINUOUS
10
1.0291043700787401
20
1.0091957086614174
11
1.0354573622047243
21
1.0107839370078739
0
LINE
8
BLACK
6
CONTINUOUS
10
1.0354573622047243
20
1.0107839370078739
11
1.0365406692913386
21
1.0118672440944882
0
LINE
8
BLACK
6
CONTINUOUS
10
1.0365406692913386
20
1.0118672440944882
11
1.0330042913385826
21
1.015403622047244
0
LINE
8
BLACK
6
CONTINUOUS
10
1.0330042913385826
20
1.015403622047244
11
1.0324979921259843
21
1.0161266929133859
0
LINE
8
BLACK
6
CONTINUOUS
10
1.0324979921259843
20
1.0161266929133859
11
1.0324511811023622
21
1.0161710236220471
0
LINE
8
BLACK
6
CONTINUOUS
10
1.0324511811023622
20
1.0161710236220471
11
1.0305764173228347
21
1.0199205511811023
0
LINE
8
BLACK
6
CONTINUOUS
10
1.0305764173228347
20
1.0199205511811023
11
1.0302840551181103
21
1.0209035039370078
0
LINE
8
BLACK
6
CONTINUOUS
10
1.0302840551181103
20
1.0209035039370078
11
1.0303250393700787
21
1.021075157480315
0
LINE
8
BLACK
6
CONTINUOUS
10
1.0303250393700787
20
1.021075157480315
11
1.03026468503937
21
1.021241062992126
0
LINE
8
BLACK
6
CONTINUOUS
10
1.03026468503937
20
1.021241062992126
11
1.03026468503937
21
1.0249905905511811
0
LINE
8
BLACK
6
CONTINUOUS
10
1.03026468503937
20
1.0249905905511811
11
1.0304427559055118
21
1.0260005118110236
0
LINE
8
BLACK
6
CONTINUOUS
10
1.0304427559055118
20
1.0260005118110236
11
1.031741062992126
21
1.0275477559055117
0
LINE
8
BLACK
6
CONTINUOUS
10
1.031741062992126
20
1.0275477559055117
11
1.0337301968503936
21
1.0278985039370079
0
LINE
8
BLACK
6
CONTINUOUS
10
1.0337301968503936
20
1.0278985039370079
11
1.0354793700787401
21
1.0268885826771654
0
LINE
8
BLACK
6
CONTINUOUS
10
1.0354793700787401
20
1.0268885826771654
11
1.0361701968503936
21
1.0249905905511811
0
LINE
8
BLACK
6
CONTINUOUS
10
1.0361701968503936
20
1.0249905905511811
11
1.0361701968503936
21
1.0219381102362204
0
LINE
8
BLACK
6
CONTINUOUS
10
1.0361701968503936
20
1.0219381102362204
11
1.0375188976377951
21
1.0192406299212597
0
LINE
8
BLACK
6
CONTINUOUS
10
1.0375188976377951
20
1.0192406299212597
11
1.0396385433070865
21
1.0171210236220471
0
LINE
8
BLACK
6
CONTINUOUS
10
1.0396385433070865
20
1.0171210236220471
11
1.0396385433070865
21
1.022418779527559
0
LINE
8
BLACK
6
CONTINUOUS
10
1.0396385433070865
20
1.022418779527559
11
1.0382898031496062
21
1.0251162204724409
0
LINE
8
BLACK
6
CONTINUOUS
10
1.0382898031496062
20
1.0251162204724409
11
1.0354573622047243
21
1.027948622047244
0
LINE
8
BLACK
6
CONTINUOUS
10
1.0354573622047243
20
1.027948622047244
11
1.0291043700787401
21
1.0295368897637796
0
LINE
8
BLACK
6
CONTINUOUS
10
1.0291043700787401
20
1.0295368897637796
11
1.0167081102362205
21
1.0295368897637796
0
LINE
8
BLACK
6
CONTINUOUS
10
1.0167081102362205
20
1.0295368897637796
11
1.0103550787401574
21
1.027948622047244
0
LINE
8
BLACK
6
CONTINUOUS
10
1.043601220472441
20
1.0746344094488189
11
1.0451484645669291
21
1.0733361023622048
0
LINE
8
BLACK
6
CONTINUOUS
10
1.0451484645669291
20
1.0733361023622048
11
1.0454992125984253
21
1.071346968503937
0
LINE
8
BLACK
6
CONTINUOUS
10
1.0454992125984253
20
1.071346968503937
11
1.0444892913385826
21
1.0695977952755906
0
LINE
8
BLACK
6
CONTINUOUS
10
1.0444892913385826
20
1.0695977952755906
11
1.0425912992125983
21
1.068906968503937
0
LINE
8
BLACK
6
CONTINUOUS
10
1.0425912992125983
20
1.068906968503937
11
1.01434
21
1.068906968503937
0
LINE
8
BLACK
6
CONTINUOUS
10
1.01434
20
1.068906968503937
11
1.0440562992125983
21
1.0519262598425196
0
LINE
8
BLACK
6
CONTINUOUS
10
1.0440562992125983
20
1.0519262598425196
11
1.0448448031496063
21
1.051270590551181
0
LINE
8
BLACK
6
CONTINUOUS
10
1.0448448031496063
20
1.051270590551181
11
1.0449392913385827
21
1.051014409448819
0
LINE
8
BLACK
6
CONTINUOUS
10
1.0449392913385827
20
1.051014409448819
11
1.0451484645669291
21
1.0508389370078739
0
LINE
8
BLACK
6
CONTINUOUS
10
1.0451484645669291
20
1.0508389370078739
11
1.0452805905511811
21
1.0500895275590552
0
LINE
8
BLACK
6
CONTINUOUS
10
1.0452805905511811
20
1.0500895275590552
11
1.0455440157480316
21
1.0493757086614173
0
LINE
8
BLACK
6
CONTINUOUS
10
1.0455440157480316
20
1.0493757086614173
11
1.0454517716535432
21
1.0491187401574802
0
LINE
8
BLACK
6
CONTINUOUS
10
1.0454517716535432
20
1.0491187401574802
11
1.0454992125984253
21
1.0488498031496063
0
LINE
8
BLACK
6
CONTINUOUS
10
1.0454992125984253
20
1.0488498031496063
11
1.0451187401574802
21
1.0481908267716535
0
LINE
8
BLACK
6
CONTINUOUS
10
1.0451187401574802
20
1.0481908267716535
11
1.0448616929133858
21
1.0474746456692914
0
LINE
8
BLACK
6
CONTINUOUS
10
1.0448616929133858
20
1.0474746456692914
11
1.0446257874015747
21
1.0473370078740156
0
LINE
8
BLACK
6
CONTINUOUS
10
1.0446257874015747
20
1.0473370078740156
11
1.0444892913385826
21
1.0471006299212597
0
LINE
8
BLACK
6
CONTINUOUS
10
1.0444892913385826
20
1.0471006299212597
11
1.0437743700787401
21
1.0468403937007873
0
LINE
8
BLACK
6
CONTINUOUS
10
1.0437743700787401
20
1.0468403937007873
11
1.0431170078740157
21
1.0464569685039369
0
LINE
8
BLACK
6
CONTINUOUS
10
1.0431170078740157
20
1.0464569685039369
11
1.0428478740157481
21
1.0465031889763778
0
LINE
8
BLACK
6
CONTINUOUS
10
1.0428478740157481
20
1.0465031889763778
11
1.0425912992125983
21
1.0464098031496063
0
LINE
8
BLACK
6
CONTINUOUS
10
1.0425912992125983
20
1.0464098031496063
11
1.0032212204724409
21
1.0464098031496063
0
LINE
8
BLACK
6
CONTINUOUS
10
1.0032212204724409
20
1.0464098031496063
11
1.0022112992125984
21
1.0465878740157479
0
LINE
8
BLACK
6
CONTINUOUS
10
1.0022112992125984
20
1.0465878740157479
11
1.0006640551181103
21
1.0478861811023621
0
LINE
8
BLACK
6
CONTINUOUS
10
1.0006640551181103
20
1.0478861811023621
11
1.0003133070866141
21
1.0498753149606299
0
LINE
8
BLACK
6
CONTINUOUS
10
1.0003133070866141
20
1.0498753149606299
11
1.0013232283464566
21
1.0516244881889762
0
LINE
8
BLACK
6
CONTINUOUS
10
1.0013232283464566
20
1.0516244881889762
11
1.0032212204724409
21
1.0523153149606299
0
LINE
8
BLACK
6
CONTINUOUS
10
1.0032212204724409
20
1.0523153149606299
11
1.0314725196850394
21
1.0523153149606299
0
LINE
8
BLACK
6
CONTINUOUS
10
1.0314725196850394
20
1.0523153149606299
11
1.0017562598425196
21
1.0692960236220472
0
LINE
8
BLACK
6
CONTINUOUS
10
1.0017562598425196
20
1.0692960236220472
11
1.0009677165354331
21
1.0699516929133859
0
LINE
8
BLACK
6
CONTINUOUS
10
1.0009677165354331
20
1.0699516929133859
11
1.000873188976378
21
1.0702078346456694
0
LINE
8
BLACK
6
CONTINUOUS
10
1.000873188976378
20
1.0702078346456694
11
1.0006640551181103
21
1.070383346456693
0
LINE
8
BLACK
6
CONTINUOUS
10
1.0006640551181103
20
1.070383346456693
11
1.0005318897637796
21
1.071132716535433
0
LINE
8
BLACK
6
CONTINUOUS
10
1.0005318897637796
20
1.071132716535433
11
1.0002685039370078
21
1.0718465748031496
0
LINE
8
BLACK
6
CONTINUOUS
10
1.0002685039370078
20
1.0718465748031496
11
1.0003607086614172
21
1.0721035039370079
0
LINE
8
BLACK
6
CONTINUOUS
10
1.0003607086614172
20
1.0721035039370079
11
1.0003133070866141
21
1.0723724803149606
0
LINE
8
BLACK
6
CONTINUOUS
10
1.0003133070866141
20
1.0723724803149606
11
1.0006937401574802
21
1.0730314173228346
0
LINE
8
BLACK
6
CONTINUOUS
10
1.0006937401574802
20
1.0730314173228346
11
1.0009508267716536
21
1.0737476377952755
0
LINE
8
BLACK
6
CONTINUOUS
10
1.0009508267716536
20
1.0737476377952755
11
1.0011866929133859
21
1.0738851968503937
0
LINE
8
BLACK
6
CONTINUOUS
10
1.0011866929133859
20
1.0738851968503937
11
1.0013232283464566
21
1.0741216535433071
0
LINE
8
BLACK
6
CONTINUOUS
10
1.0013232283464566
20
1.0741216535433071
11
1.0020381496062991
21
1.0743818503937008
0
LINE
8
BLACK
6
CONTINUOUS
10
1.0020381496062991
20
1.0743818503937008
11
1.0026955511811024
21
1.07476531496063
0
LINE
8
BLACK
6
CONTINUOUS
10
1.0026955511811024
20
1.07476531496063
11
1.0029646456692913
21
1.074719094488189
0
LINE
8
BLACK
6
CONTINUOUS
10
1.0029646456692913
20
1.074719094488189
11
1.0032212204724409
21
1.0748124803149606
0
LINE
8
BLACK
6
CONTINUOUS
10
1.0032212204724409
20
1.0748124803149606
11
1.0425912992125983
21
1.0748124803149606
0
LINE
8
BLACK
6
CONTINUOUS
10
1.0425912992125983
20
1.0748124803149606
11
1.043601220472441
21
1.0746344094488189
0
LINE
8
BLACK
6
CONTINUOUS
10
1.0435250393700788
20
1.1009076771653543
11
1.0444268110236221
21
1.1004194094488189
0
LINE
8
BLACK
6
CONTINUOUS
10
1.0444268110236221
20
1.1004194094488189
11
1.0444712992125984
21
1.1003469291338583
0
LINE
8
BLACK
6
CONTINUOUS
10
1.0444712992125984
20
1.1003469291338583
11
1.0445503543307086
21
1.1003157086614173
0
LINE
8
BLACK
6
CONTINUOUS
10
1.0445503543307086
20
1.1003157086614173
11
1.0449950787401574
21
1.0994943700787401
0
LINE
8
BLACK
6
CONTINUOUS
10
1.0449950787401574
20
1.0994943700787401
11
1.0454840944881889
21
1.0986984251968503
0
LINE
8
BLACK
6
CONTINUOUS
10
1.0454840944881889
20
1.0986984251968503
11
1.0454716141732283
21
1.0986143307086613
0
LINE
8
BLACK
6
CONTINUOUS
10
1.0454716141732283
20
1.0986143307086613
11
1.0455121259842519
21
1.0985395669291338
0
LINE
8
BLACK
6
CONTINUOUS
10
1.0455121259842519
20
1.0985395669291338
11
1.0453248031496063
21
1.0976244094488188
0
LINE
8
BLACK
6
CONTINUOUS
10
1.0453248031496063
20
1.0976244094488188
11
1.0451878346456693
21
1.0967004724409448
0
LINE
8
BLACK
6
CONTINUOUS
10
1.0451878346456693
20
1.0967004724409448
11
1.0451241732283465
21
1.0966440157480315
0
LINE
8
BLACK
6
CONTINUOUS
10
1.0451241732283465
20
1.0966440157480315
11
1.0451071653543307
21
1.0965607874015748
0
LINE
8
BLACK
6
CONTINUOUS
10
1.0451071653543307
20
1.0965607874015748
11
1.0443754724409449
21
1.0959801181102362
0
LINE
8
BLACK
6
CONTINUOUS
10
1.0443754724409449
20
1.0959801181102362
11
1.0436765748031496
21
1.0953603937007874
0
LINE
8
BLACK
6
CONTINUOUS
10
1.0436765748031496
20
1.0953603937007874
11
1.0435916141732284
21
1.0953580708661417
0
LINE
8
BLACK
6
CONTINUOUS
10
1.0435916141732284
20
1.0953580708661417
11
1.0435250393700788
21
1.0953052362204725
0
LINE
8
BLACK
6
CONTINUOUS
10
1.0435250393700788
20
1.0953052362204725
11
1.0041549606299212
21
1.0821818897637796
0
LINE
8
BLACK
6
CONTINUOUS
10
1.0041549606299212
20
1.0821818897637796
11
1.0031405511811022
21
1.0820314566929135
0
LINE
8
BLACK
6
CONTINUOUS
10
1.0031405511811022
20
1.0820314566929135
11
1.0012621653543308
21
1.0827738582677164
0
LINE
8
BLACK
6
CONTINUOUS
10
1.0012621653543308
20
1.0827738582677164
11
1.0003003937007873
21
1.0845499999999999
0
LINE
8
BLACK
6
CONTINUOUS
10
1.0003003937007873
20
1.0845499999999999
11
1.0007053543307087
21
1.0865287795275591
0
LINE
8
BLACK
6
CONTINUOUS
10
1.0007053543307087
20
1.0865287795275591
11
1.0022874803149606
21
1.0877843307086614
0
LINE
8
BLACK
6
CONTINUOUS
10
1.0022874803149606
20
1.0877843307086614
11
1.0332538582677164
21
1.0981064566929133
0
LINE
8
BLACK
6
CONTINUOUS
10
1.0332538582677164
20
1.0981064566929133
11
1.0022874803149606
21
1.1084285826771654
0
LINE
8
BLACK
6
CONTINUOUS
10
1.0022874803149606
20
1.1084285826771654
11
1.0013857086614173
21
1.1089168897637796
0
LINE
8
BLACK
6
CONTINUOUS
10
1.0013857086614173
20
1.1089168897637796
11
1.0003284251968503
21
1.1106378346456693
0
LINE
8
BLACK
6
CONTINUOUS
10
1.0003284251968503
20
1.1106378346456693
11
1.0006246850393701
21
1.1126358267716536
0
LINE
8
BLACK
6
CONTINUOUS
10
1.0006246850393701
20
1.1126358267716536
11
1.0021359055118111
21
1.1139758661417323
0
LINE
8
BLACK
6
CONTINUOUS
10
1.0021359055118111
20
1.1139758661417323
11
1.0041549606299212
21
1.1140310236220472
0
LINE
8
BLACK
6
CONTINUOUS
10
1.0041549606299212
20
1.1140310236220472
11
1.0435250393700788
21
1.1009076771653543
  0
ENDSEC
  0
EOF
