  0
SECTION
  2
HEADER
  9
$ANGBASE
  50
0.0
  9
$ANGDIR
  70
1
  9
$MEASUREMENT
  70
0
  0
ENDSEC
  0
SECTION
  2
TABLES
  0
TABLE
  2
LTYPE
  70
4
  0
LTYPE
  5
40F
  2
CONTINUOUS
  70
0
  3
Solid line
  72
65
  73
0
  40
0.0
  0
LTYPE
  5
410
  2
DASHDOT
 70
0
  3
Dash Dot ____ _ ____ _
 72
65
 73
4
 40
2.0
 49
1.25
 49
-0.25
 49
0.25
 49
-0.25
  0
LTYPE
  5
411
  2
DASHED
 70
0
  3
Dashed __ __ __ __ __
 72
65
 73
2
 40
0.75
 49
0.5
 49
-0.25
  0
LTYPE
  5
43B
  2
DOTTED
 70
0
  3
Dotted .  .  .  .
 72
65
 73
2
 40
0.2
 49
0.0
 49
-0.2
  0
ENDTAB
  0
TABLE
  2
STYLE
  70
4
  0
STYLE
  2
KICAD
  70
0
  40
0
  41
1
  42
1
  50
0
  71
0
  3
isocp.shx
  0
STYLE
  2
KICADB
  70
0
  40
0
  41
1
  42
1
  50
0
  71
0
  3
isocp.shx
  0
STYLE
  2
KICADI
  70
0
  40
0
  41
1
  42
1
  50
15
  71
0
  3
isocp.shx
  0
STYLE
  2
KICADBI
  70
0
  40
0
  41
1
  42
1
  50
15
  71
0
  3
isocp.shx
  0
ENDTAB
  0
TABLE
  2
LAYER
  70
1
  0
LAYER
  2
BLACK
  70
0
  62
7
  6
CONTINUOUS
  0
ENDTAB
  0
ENDSEC
  0
SECTION
  2
ENTITIES
0
LINE
8
BLACK
6
CONTINUOUS
10
0.3353
20
0.4016
11
0.2447
21
0.4016
0
LINE
8
BLACK
6
CONTINUOUS
10
0.2447
20
0.4016
11
0.2447
21
0.5
0
LINE
8
BLACK
6
CONTINUOUS
10
0.2447
20
0.5
11
0.3353
21
0.5
0
LINE
8
BLACK
6
CONTINUOUS
10
0.3353
20
0.5
11
0.3353
21
0.4016
0
LINE
8
BLACK
6
CONTINUOUS
10
1.7803
20
0.4266
11
1.6897
21
0.4266
0
LINE
8
BLACK
6
CONTINUOUS
10
1.6897
20
0.4266
11
1.6897
21
0.525
0
LINE
8
BLACK
6
CONTINUOUS
10
1.6897
20
0.525
11
1.7803
21
0.525
0
LINE
8
BLACK
6
CONTINUOUS
10
1.7803
20
0.525
11
1.7803
21
0.4266
0
LINE
8
BLACK
6
CONTINUOUS
10
0.3353
20
0.5708
11
0.2447
21
0.5708
0
LINE
8
BLACK
6
CONTINUOUS
10
0.2447
20
0.5708
11
0.2447
21
0.6692
0
LINE
8
BLACK
6
CONTINUOUS
10
0.2447
20
0.6692
11
0.3353
21
0.6692
0
LINE
8
BLACK
6
CONTINUOUS
10
0.3353
20
0.6692
11
0.3353
21
0.5708
0
LINE
8
BLACK
6
CONTINUOUS
10
1.7803
20
0.5958
11
1.6897
21
0.5958
0
LINE
8
BLACK
6
CONTINUOUS
10
1.6897
20
0.5958
11
1.6897
21
0.6942
0
LINE
8
BLACK
6
CONTINUOUS
10
1.6897
20
0.6942
11
1.7803
21
0.6942
0
LINE
8
BLACK
6
CONTINUOUS
10
1.7803
20
0.6942
11
1.7803
21
0.5958
0
LINE
8
BLACK
6
CONTINUOUS
10
1.3425
20
0.605
11
1.2874999999999999
21
0.605
0
LINE
8
BLACK
6
CONTINUOUS
10
1.2874999999999999
20
0.605
11
1.2874999999999999
21
0.64
0
LINE
8
BLACK
6
CONTINUOUS
10
1.2874999999999999
20
0.64
11
1.3425
21
0.64
0
LINE
8
BLACK
6
CONTINUOUS
10
1.3425
20
0.64
11
1.3425
21
0.605
0
LINE
8
BLACK
6
CONTINUOUS
10
1.0695999999999999
20
0.6097
11
0.9712
21
0.6097
0
LINE
8
BLACK
6
CONTINUOUS
10
0.9712
20
0.6097
11
0.9712
21
0.7003
0
LINE
8
BLACK
6
CONTINUOUS
10
0.9712
20
0.7003
11
1.0695999999999999
21
0.7003
0
LINE
8
BLACK
6
CONTINUOUS
10
1.0695999999999999
20
0.7003
11
1.0695999999999999
21
0.6097
0
LINE
8
BLACK
6
CONTINUOUS
10
1.2387999999999999
20
0.6097
11
1.1404000000000001
21
0.6097
0
LINE
8
BLACK
6
CONTINUOUS
10
1.1404000000000001
20
0.6097
11
1.1404000000000001
21
0.7003
0
LINE
8
BLACK
6
CONTINUOUS
10
1.1404000000000001
20
0.7003
11
1.2387999999999999
21
0.7003
0
LINE
8
BLACK
6
CONTINUOUS
10
1.2387999999999999
20
0.7003
11
1.2387999999999999
21
0.6097
0
LINE
8
BLACK
6
CONTINUOUS
10
0.7208
20
0.6208
11
0.6204
21
0.6208
0
LINE
8
BLACK
6
CONTINUOUS
10
0.6204
20
0.6208
11
0.6204
21
0.7192
0
LINE
8
BLACK
6
CONTINUOUS
10
0.6204
20
0.7192
11
0.7208
21
0.7192
0
LINE
8
BLACK
6
CONTINUOUS
10
0.7208
20
0.7192
11
0.7208
21
0.6208
0
LINE
8
BLACK
6
CONTINUOUS
10
0.9196
20
0.6208
11
0.8191999999999999
21
0.6208
0
LINE
8
BLACK
6
CONTINUOUS
10
0.8191999999999999
20
0.6208
11
0.8191999999999999
21
0.7192
0
LINE
8
BLACK
6
CONTINUOUS
10
0.8191999999999999
20
0.7192
11
0.9196
21
0.7192
0
LINE
8
BLACK
6
CONTINUOUS
10
0.9196
20
0.7192
11
0.9196
21
0.6208
0
LINE
8
BLACK
6
CONTINUOUS
10
0.1325
20
0.6475
11
0.0975
21
0.6475
0
LINE
8
BLACK
6
CONTINUOUS
10
0.0975
20
0.6475
11
0.0975
21
0.7025
0
LINE
8
BLACK
6
CONTINUOUS
10
0.0975
20
0.7025
11
0.1325
21
0.7025
0
LINE
8
BLACK
6
CONTINUOUS
10
0.1325
20
0.7025
11
0.1325
21
0.6475
0
LINE
8
BLACK
6
CONTINUOUS
10
0.2075
20
0.6475
11
0.1725
21
0.6475
0
LINE
8
BLACK
6
CONTINUOUS
10
0.1725
20
0.6475
11
0.1725
21
0.7025
0
LINE
8
BLACK
6
CONTINUOUS
10
0.1725
20
0.7025
11
0.2075
21
0.7025
0
LINE
8
BLACK
6
CONTINUOUS
10
0.2075
20
0.7025
11
0.2075
21
0.6475
0
LINE
8
BLACK
6
CONTINUOUS
10
0.4125
20
0.6475
11
0.3775
21
0.6475
0
LINE
8
BLACK
6
CONTINUOUS
10
0.3775
20
0.6475
11
0.3775
21
0.7025
0
LINE
8
BLACK
6
CONTINUOUS
10
0.3775
20
0.7025
11
0.4125
21
0.7025
0
LINE
8
BLACK
6
CONTINUOUS
10
0.4125
20
0.7025
11
0.4125
21
0.6475
0
LINE
8
BLACK
6
CONTINUOUS
10
0.4875
20
0.6475
11
0.4525
21
0.6475
0
LINE
8
BLACK
6
CONTINUOUS
10
0.4525
20
0.6475
11
0.4525
21
0.7025
0
LINE
8
BLACK
6
CONTINUOUS
10
0.4525
20
0.7025
11
0.4875
21
0.7025
0
LINE
8
BLACK
6
CONTINUOUS
10
0.4875
20
0.7025
11
0.4875
21
0.6475
0
LINE
8
BLACK
6
CONTINUOUS
10
1.8525
20
0.6475
11
1.8174999999999999
21
0.6475
0
LINE
8
BLACK
6
CONTINUOUS
10
1.8174999999999999
20
0.6475
11
1.8174999999999999
21
0.7025
0
LINE
8
BLACK
6
CONTINUOUS
10
1.8174999999999999
20
0.7025
11
1.8525
21
0.7025
0
LINE
8
BLACK
6
CONTINUOUS
10
1.8525
20
0.7025
11
1.8525
21
0.6475
0
LINE
8
BLACK
6
CONTINUOUS
10
1.9275
20
0.6475
11
1.8924999999999998
21
0.6475
0
LINE
8
BLACK
6
CONTINUOUS
10
1.8924999999999998
20
0.6475
11
1.8924999999999998
21
0.7025
0
LINE
8
BLACK
6
CONTINUOUS
10
1.8924999999999998
20
0.7025
11
1.9275
21
0.7025
0
LINE
8
BLACK
6
CONTINUOUS
10
1.9275
20
0.7025
11
1.9275
21
0.6475
0
LINE
8
BLACK
6
CONTINUOUS
10
1.5549999999999999
20
0.65
11
1.52
21
0.65
0
LINE
8
BLACK
6
CONTINUOUS
10
1.52
20
0.65
11
1.52
21
0.705
0
LINE
8
BLACK
6
CONTINUOUS
10
1.52
20
0.705
11
1.5549999999999999
21
0.705
0
LINE
8
BLACK
6
CONTINUOUS
10
1.5549999999999999
20
0.705
11
1.5549999999999999
21
0.65
0
LINE
8
BLACK
6
CONTINUOUS
10
1.6299999999999999
20
0.65
11
1.595
21
0.65
0
LINE
8
BLACK
6
CONTINUOUS
10
1.595
20
0.65
11
1.595
21
0.705
0
LINE
8
BLACK
6
CONTINUOUS
10
1.595
20
0.705
11
1.6299999999999999
21
0.705
0
LINE
8
BLACK
6
CONTINUOUS
10
1.6299999999999999
20
0.705
11
1.6299999999999999
21
0.65
0
LINE
8
BLACK
6
CONTINUOUS
10
1.3425
20
0.6799999999999999
11
1.2874999999999999
21
0.6799999999999999
0
LINE
8
BLACK
6
CONTINUOUS
10
1.2874999999999999
20
0.6799999999999999
11
1.2874999999999999
21
0.715
0
LINE
8
BLACK
6
CONTINUOUS
10
1.2874999999999999
20
0.715
11
1.3425
21
0.715
0
LINE
8
BLACK
6
CONTINUOUS
10
1.3425
20
0.715
11
1.3425
21
0.6799999999999999
0
LINE
8
BLACK
6
CONTINUOUS
10
1.0349999999999999
20
0.7675
11
1.
21
0.7675
0
LINE
8
BLACK
6
CONTINUOUS
10
1.
20
0.7675
11
1.
21
0.8225
0
LINE
8
BLACK
6
CONTINUOUS
10
1.
20
0.8225
11
1.0349999999999999
21
0.8225
0
LINE
8
BLACK
6
CONTINUOUS
10
1.0349999999999999
20
0.8225
11
1.0349999999999999
21
0.7675
0
LINE
8
BLACK
6
CONTINUOUS
10
1.1099999999999999
20
0.7675
11
1.075
21
0.7675
0
LINE
8
BLACK
6
CONTINUOUS
10
1.075
20
0.7675
11
1.075
21
0.8225
0
LINE
8
BLACK
6
CONTINUOUS
10
1.075
20
0.8225
11
1.1099999999999999
21
0.8225
0
LINE
8
BLACK
6
CONTINUOUS
10
1.1099999999999999
20
0.8225
11
1.1099999999999999
21
0.7675
0
LINE
8
BLACK
6
CONTINUOUS
10
0.9183858267716535
20
0.8751968503937008
11
0.8711417322834646
21
0.8751968503937008
0
LINE
8
BLACK
6
CONTINUOUS
10
0.8711417322834646
20
0.8751968503937008
11
0.8711417322834646
21
0.887007874015748
0
LINE
8
BLACK
6
CONTINUOUS
10
0.8711417322834646
20
0.887007874015748
11
0.9183858267716535
21
0.887007874015748
0
LINE
8
BLACK
6
CONTINUOUS
10
0.9183858267716535
20
0.887007874015748
11
0.9183858267716535
21
0.8751968503937008
0
LINE
8
BLACK
6
CONTINUOUS
10
1.0483070866141733
20
0.8751968503937008
11
0.9616929133858267
21
0.8751968503937008
0
LINE
8
BLACK
6
CONTINUOUS
10
0.9616929133858267
20
0.8751968503937008
11
0.9616929133858267
21
1.0248031496062993
0
LINE
8
BLACK
6
CONTINUOUS
10
0.9616929133858267
20
1.0248031496062993
11
1.0483070866141733
21
1.0248031496062993
0
LINE
8
BLACK
6
CONTINUOUS
10
1.0483070866141733
20
1.0248031496062993
11
1.0483070866141733
21
0.8751968503937008
0
LINE
8
BLACK
6
CONTINUOUS
10
1.1388582677165353
20
0.8751968503937008
11
1.0916141732283464
21
0.8751968503937008
0
LINE
8
BLACK
6
CONTINUOUS
10
1.0916141732283464
20
0.8751968503937008
11
1.0916141732283464
21
0.887007874015748
0
LINE
8
BLACK
6
CONTINUOUS
10
1.0916141732283464
20
0.887007874015748
11
1.1388582677165353
21
0.887007874015748
0
LINE
8
BLACK
6
CONTINUOUS
10
1.1388582677165353
20
0.887007874015748
11
1.1388582677165353
21
0.8751968503937008
0
LINE
8
BLACK
6
CONTINUOUS
10
0.9183858267716535
20
0.8948818897637795
11
0.8711417322834646
21
0.8948818897637795
0
LINE
8
BLACK
6
CONTINUOUS
10
0.8711417322834646
20
0.8948818897637795
11
0.8711417322834646
21
0.9066929133858268
0
LINE
8
BLACK
6
CONTINUOUS
10
0.8711417322834646
20
0.9066929133858268
11
0.9183858267716535
21
0.9066929133858268
0
LINE
8
BLACK
6
CONTINUOUS
10
0.9183858267716535
20
0.9066929133858268
11
0.9183858267716535
21
0.8948818897637795
0
LINE
8
BLACK
6
CONTINUOUS
10
1.1388582677165353
20
0.8948818897637795
11
1.0916141732283464
21
0.8948818897637795
0
LINE
8
BLACK
6
CONTINUOUS
10
1.0916141732283464
20
0.8948818897637795
11
1.0916141732283464
21
0.9066929133858268
0
LINE
8
BLACK
6
CONTINUOUS
10
1.0916141732283464
20
0.9066929133858268
11
1.1388582677165353
21
0.9066929133858268
0
LINE
8
BLACK
6
CONTINUOUS
10
1.1388582677165353
20
0.9066929133858268
11
1.1388582677165353
21
0.8948818897637795
0
LINE
8
BLACK
6
CONTINUOUS
10
0.9183858267716535
20
0.9145669291338583
11
0.8711417322834646
21
0.9145669291338583
0
LINE
8
BLACK
6
CONTINUOUS
10
0.8711417322834646
20
0.9145669291338583
11
0.8711417322834646
21
0.9263779527559055
0
LINE
8
BLACK
6
CONTINUOUS
10
0.8711417322834646
20
0.9263779527559055
11
0.9183858267716535
21
0.9263779527559055
0
LINE
8
BLACK
6
CONTINUOUS
10
0.9183858267716535
20
0.9263779527559055
11
0.9183858267716535
21
0.9145669291338583
0
LINE
8
BLACK
6
CONTINUOUS
10
1.1388582677165353
20
0.9145669291338583
11
1.0916141732283464
21
0.9145669291338583
0
LINE
8
BLACK
6
CONTINUOUS
10
1.0916141732283464
20
0.9145669291338583
11
1.0916141732283464
21
0.9263779527559055
0
LINE
8
BLACK
6
CONTINUOUS
10
1.0916141732283464
20
0.9263779527559055
11
1.1388582677165353
21
0.9263779527559055
0
LINE
8
BLACK
6
CONTINUOUS
10
1.1388582677165353
20
0.9263779527559055
11
1.1388582677165353
21
0.9145669291338583
0
LINE
8
BLACK
6
CONTINUOUS
10
0.9183858267716535
20
0.934251968503937
11
0.8711417322834646
21
0.934251968503937
0
LINE
8
BLACK
6
CONTINUOUS
10
0.8711417322834646
20
0.934251968503937
11
0.8711417322834646
21
0.9460629921259842
0
LINE
8
BLACK
6
CONTINUOUS
10
0.8711417322834646
20
0.9460629921259842
11
0.9183858267716535
21
0.9460629921259842
0
LINE
8
BLACK
6
CONTINUOUS
10
0.9183858267716535
20
0.9460629921259842
11
0.9183858267716535
21
0.934251968503937
0
LINE
8
BLACK
6
CONTINUOUS
10
1.1388582677165353
20
0.934251968503937
11
1.0916141732283464
21
0.934251968503937
0
LINE
8
BLACK
6
CONTINUOUS
10
1.0916141732283464
20
0.934251968503937
11
1.0916141732283464
21
0.9460629921259842
0
LINE
8
BLACK
6
CONTINUOUS
10
1.0916141732283464
20
0.9460629921259842
11
1.1388582677165353
21
0.9460629921259842
0
LINE
8
BLACK
6
CONTINUOUS
10
1.1388582677165353
20
0.9460629921259842
11
1.1388582677165353
21
0.934251968503937
0
LINE
8
BLACK
6
CONTINUOUS
10
0.9183858267716535
20
0.9539370078740157
11
0.8711417322834646
21
0.9539370078740157
0
LINE
8
BLACK
6
CONTINUOUS
10
0.8711417322834646
20
0.9539370078740157
11
0.8711417322834646
21
0.9657480314960629
0
LINE
8
BLACK
6
CONTINUOUS
10
0.8711417322834646
20
0.9657480314960629
11
0.9183858267716535
21
0.9657480314960629
0
LINE
8
BLACK
6
CONTINUOUS
10
0.9183858267716535
20
0.9657480314960629
11
0.9183858267716535
21
0.9539370078740157
0
LINE
8
BLACK
6
CONTINUOUS
10
1.1388582677165353
20
0.9539370078740157
11
1.0916141732283464
21
0.9539370078740157
0
LINE
8
BLACK
6
CONTINUOUS
10
1.0916141732283464
20
0.9539370078740157
11
1.0916141732283464
21
0.9657480314960629
0
LINE
8
BLACK
6
CONTINUOUS
10
1.0916141732283464
20
0.9657480314960629
11
1.1388582677165353
21
0.9657480314960629
0
LINE
8
BLACK
6
CONTINUOUS
10
1.1388582677165353
20
0.9657480314960629
11
1.1388582677165353
21
0.9539370078740157
0
LINE
8
BLACK
6
CONTINUOUS
10
0.9183858267716535
20
0.9736220472440945
11
0.8711417322834646
21
0.9736220472440945
0
LINE
8
BLACK
6
CONTINUOUS
10
0.8711417322834646
20
0.9736220472440945
11
0.8711417322834646
21
0.9854330708661417
0
LINE
8
BLACK
6
CONTINUOUS
10
0.8711417322834646
20
0.9854330708661417
11
0.9183858267716535
21
0.9854330708661417
0
LINE
8
BLACK
6
CONTINUOUS
10
0.9183858267716535
20
0.9854330708661417
11
0.9183858267716535
21
0.9736220472440945
0
LINE
8
BLACK
6
CONTINUOUS
10
1.1388582677165353
20
0.9736220472440945
11
1.0916141732283464
21
0.9736220472440945
0
LINE
8
BLACK
6
CONTINUOUS
10
1.0916141732283464
20
0.9736220472440945
11
1.0916141732283464
21
0.9854330708661417
0
LINE
8
BLACK
6
CONTINUOUS
10
1.0916141732283464
20
0.9854330708661417
11
1.1388582677165353
21
0.9854330708661417
0
LINE
8
BLACK
6
CONTINUOUS
10
1.1388582677165353
20
0.9854330708661417
11
1.1388582677165353
21
0.9736220472440945
0
LINE
8
BLACK
6
CONTINUOUS
10
0.9183858267716535
20
0.9933070866141732
11
0.8711417322834646
21
0.9933070866141732
0
LINE
8
BLACK
6
CONTINUOUS
10
0.8711417322834646
20
0.9933070866141732
11
0.8711417322834646
21
1.0051181102362206
0
LINE
8
BLACK
6
CONTINUOUS
10
0.8711417322834646
20
1.0051181102362206
11
0.9183858267716535
21
1.0051181102362206
0
LINE
8
BLACK
6
CONTINUOUS
10
0.9183858267716535
20
1.0051181102362206
11
0.9183858267716535
21
0.9933070866141732
0
LINE
8
BLACK
6
CONTINUOUS
10
1.1388582677165353
20
0.9933070866141732
11
1.0916141732283464
21
0.9933070866141732
0
LINE
8
BLACK
6
CONTINUOUS
10
1.0916141732283464
20
0.9933070866141732
11
1.0916141732283464
21
1.0051181102362206
0
LINE
8
BLACK
6
CONTINUOUS
10
1.0916141732283464
20
1.0051181102362206
11
1.1388582677165353
21
1.0051181102362206
0
LINE
8
BLACK
6
CONTINUOUS
10
1.1388582677165353
20
1.0051181102362206
11
1.1388582677165353
21
0.9933070866141732
0
LINE
8
BLACK
6
CONTINUOUS
10
0.9183858267716535
20
1.012992125984252
11
0.8711417322834646
21
1.012992125984252
0
LINE
8
BLACK
6
CONTINUOUS
10
0.8711417322834646
20
1.012992125984252
11
0.8711417322834646
21
1.0248031496062993
0
LINE
8
BLACK
6
CONTINUOUS
10
0.8711417322834646
20
1.0248031496062993
11
0.9183858267716535
21
1.0248031496062993
0
LINE
8
BLACK
6
CONTINUOUS
10
0.9183858267716535
20
1.0248031496062993
11
0.9183858267716535
21
1.012992125984252
0
LINE
8
BLACK
6
CONTINUOUS
10
1.1388582677165353
20
1.012992125984252
11
1.0916141732283464
21
1.012992125984252
0
LINE
8
BLACK
6
CONTINUOUS
10
1.0916141732283464
20
1.012992125984252
11
1.0916141732283464
21
1.0248031496062993
0
LINE
8
BLACK
6
CONTINUOUS
10
1.0916141732283464
20
1.0248031496062993
11
1.1388582677165353
21
1.0248031496062993
0
LINE
8
BLACK
6
CONTINUOUS
10
1.1388582677165353
20
1.0248031496062993
11
1.1388582677165353
21
1.012992125984252
0
LINE
8
BLACK
6
CONTINUOUS
10
0.1125
20
1.1624999999999999
11
0.0775
21
1.1624999999999999
0
LINE
8
BLACK
6
CONTINUOUS
10
0.0775
20
1.1624999999999999
11
0.0775
21
1.2175
0
LINE
8
BLACK
6
CONTINUOUS
10
0.0775
20
1.2175
11
0.1125
21
1.2175
0
LINE
8
BLACK
6
CONTINUOUS
10
0.1125
20
1.2175
11
0.1125
21
1.1624999999999999
0
LINE
8
BLACK
6
CONTINUOUS
10
0.1875
20
1.1624999999999999
11
0.1525
21
1.1624999999999999
0
LINE
8
BLACK
6
CONTINUOUS
10
0.1525
20
1.1624999999999999
11
0.1525
21
1.2175
0
LINE
8
BLACK
6
CONTINUOUS
10
0.1525
20
1.2175
11
0.1875
21
1.2175
0
LINE
8
BLACK
6
CONTINUOUS
10
0.1875
20
1.2175
11
0.1875
21
1.1624999999999999
0
LINE
8
BLACK
6
CONTINUOUS
10
0.2525
20
1.1624999999999999
11
0.2175
21
1.1624999999999999
0
LINE
8
BLACK
6
CONTINUOUS
10
0.2175
20
1.1624999999999999
11
0.2175
21
1.2175
0
LINE
8
BLACK
6
CONTINUOUS
10
0.2175
20
1.2175
11
0.2525
21
1.2175
0
LINE
8
BLACK
6
CONTINUOUS
10
0.2525
20
1.2175
11
0.2525
21
1.1624999999999999
0
LINE
8
BLACK
6
CONTINUOUS
10
0.3275
20
1.1624999999999999
11
0.2925
21
1.1624999999999999
0
LINE
8
BLACK
6
CONTINUOUS
10
0.2925
20
1.1624999999999999
11
0.2925
21
1.2175
0
LINE
8
BLACK
6
CONTINUOUS
10
0.2925
20
1.2175
11
0.3275
21
1.2175
0
LINE
8
BLACK
6
CONTINUOUS
10
0.3275
20
1.2175
11
0.3275
21
1.1624999999999999
0
LINE
8
BLACK
6
CONTINUOUS
10
1.6924999999999999
20
1.1675
11
1.6575
21
1.1675
0
LINE
8
BLACK
6
CONTINUOUS
10
1.6575
20
1.1675
11
1.6575
21
1.2224999999999999
0
LINE
8
BLACK
6
CONTINUOUS
10
1.6575
20
1.2224999999999999
11
1.6924999999999999
21
1.2224999999999999
0
LINE
8
BLACK
6
CONTINUOUS
10
1.6924999999999999
20
1.2224999999999999
11
1.6924999999999999
21
1.1675
0
LINE
8
BLACK
6
CONTINUOUS
10
1.7674999999999998
20
1.1675
11
1.7324999999999999
21
1.1675
0
LINE
8
BLACK
6
CONTINUOUS
10
1.7324999999999999
20
1.1675
11
1.7324999999999999
21
1.2224999999999999
0
LINE
8
BLACK
6
CONTINUOUS
10
1.7324999999999999
20
1.2224999999999999
11
1.7674999999999998
21
1.2224999999999999
0
LINE
8
BLACK
6
CONTINUOUS
10
1.7674999999999998
20
1.2224999999999999
11
1.7674999999999998
21
1.1675
0
LINE
8
BLACK
6
CONTINUOUS
10
1.8299999999999998
20
1.1699999999999999
11
1.7949999999999999
21
1.1699999999999999
0
LINE
8
BLACK
6
CONTINUOUS
10
1.7949999999999999
20
1.1699999999999999
11
1.7949999999999999
21
1.2249999999999999
0
LINE
8
BLACK
6
CONTINUOUS
10
1.7949999999999999
20
1.2249999999999999
11
1.8299999999999998
21
1.2249999999999999
0
LINE
8
BLACK
6
CONTINUOUS
10
1.8299999999999998
20
1.2249999999999999
11
1.8299999999999998
21
1.1699999999999999
0
LINE
8
BLACK
6
CONTINUOUS
10
1.905
20
1.1699999999999999
11
1.8699999999999999
21
1.1699999999999999
0
LINE
8
BLACK
6
CONTINUOUS
10
1.8699999999999999
20
1.1699999999999999
11
1.8699999999999999
21
1.2249999999999999
0
LINE
8
BLACK
6
CONTINUOUS
10
1.8699999999999999
20
1.2249999999999999
11
1.905
21
1.2249999999999999
0
LINE
8
BLACK
6
CONTINUOUS
10
1.905
20
1.2249999999999999
11
1.905
21
1.1699999999999999
0
LINE
8
BLACK
6
CONTINUOUS
10
1.2375
20
1.1724999999999999
11
1.1824999999999999
21
1.1724999999999999
0
LINE
8
BLACK
6
CONTINUOUS
10
1.1824999999999999
20
1.1724999999999999
11
1.1824999999999999
21
1.2075
0
LINE
8
BLACK
6
CONTINUOUS
10
1.1824999999999999
20
1.2075
11
1.2375
21
1.2075
0
LINE
8
BLACK
6
CONTINUOUS
10
1.2375
20
1.2075
11
1.2375
21
1.1724999999999999
0
LINE
8
BLACK
6
CONTINUOUS
10
1.3374999999999999
20
1.1724999999999999
11
1.2825
21
1.1724999999999999
0
LINE
8
BLACK
6
CONTINUOUS
10
1.2825
20
1.1724999999999999
11
1.2825
21
1.2075
0
LINE
8
BLACK
6
CONTINUOUS
10
1.2825
20
1.2075
11
1.3374999999999999
21
1.2075
0
LINE
8
BLACK
6
CONTINUOUS
10
1.3374999999999999
20
1.2075
11
1.3374999999999999
21
1.1724999999999999
0
LINE
8
BLACK
6
CONTINUOUS
10
1.4375
20
1.1724999999999999
11
1.3825000000000001
21
1.1724999999999999
0
LINE
8
BLACK
6
CONTINUOUS
10
1.3825000000000001
20
1.1724999999999999
11
1.3825000000000001
21
1.2075
0
LINE
8
BLACK
6
CONTINUOUS
10
1.3825000000000001
20
1.2075
11
1.4375
21
1.2075
0
LINE
8
BLACK
6
CONTINUOUS
10
1.4375
20
1.2075
11
1.4375
21
1.1724999999999999
0
LINE
8
BLACK
6
CONTINUOUS
10
0.6325
20
1.175
11
0.5775
21
1.175
0
LINE
8
BLACK
6
CONTINUOUS
10
0.5775
20
1.175
11
0.5775
21
1.21
0
LINE
8
BLACK
6
CONTINUOUS
10
0.5775
20
1.21
11
0.6325
21
1.21
0
LINE
8
BLACK
6
CONTINUOUS
10
0.6325
20
1.21
11
0.6325
21
1.175
0
LINE
8
BLACK
6
CONTINUOUS
10
0.7374999999999999
20
1.175
11
0.6825
21
1.175
0
LINE
8
BLACK
6
CONTINUOUS
10
0.6825
20
1.175
11
0.6825
21
1.21
0
LINE
8
BLACK
6
CONTINUOUS
10
0.6825
20
1.21
11
0.7374999999999999
21
1.21
0
LINE
8
BLACK
6
CONTINUOUS
10
0.7374999999999999
20
1.21
11
0.7374999999999999
21
1.175
0
LINE
8
BLACK
6
CONTINUOUS
10
0.8325
20
1.175
11
0.7775
21
1.175
0
LINE
8
BLACK
6
CONTINUOUS
10
0.7775
20
1.175
11
0.7775
21
1.21
0
LINE
8
BLACK
6
CONTINUOUS
10
0.7775
20
1.21
11
0.8325
21
1.21
0
LINE
8
BLACK
6
CONTINUOUS
10
0.8325
20
1.21
11
0.8325
21
1.175
0
LINE
8
BLACK
6
CONTINUOUS
10
0.9375
20
1.175
11
0.8825
21
1.175
0
LINE
8
BLACK
6
CONTINUOUS
10
0.8825
20
1.175
11
0.8825
21
1.21
0
LINE
8
BLACK
6
CONTINUOUS
10
0.8825
20
1.21
11
0.9375
21
1.21
0
LINE
8
BLACK
6
CONTINUOUS
10
0.9375
20
1.21
11
0.9375
21
1.175
0
LINE
8
BLACK
6
CONTINUOUS
10
1.0374999999999999
20
1.175
11
0.9824999999999999
21
1.175
0
LINE
8
BLACK
6
CONTINUOUS
10
0.9824999999999999
20
1.175
11
0.9824999999999999
21
1.21
0
LINE
8
BLACK
6
CONTINUOUS
10
0.9824999999999999
20
1.21
11
1.0374999999999999
21
1.21
0
LINE
8
BLACK
6
CONTINUOUS
10
1.0374999999999999
20
1.21
11
1.0374999999999999
21
1.175
0
LINE
8
BLACK
6
CONTINUOUS
10
1.1375
20
1.175
11
1.0825
21
1.175
0
LINE
8
BLACK
6
CONTINUOUS
10
1.0825
20
1.175
11
1.0825
21
1.21
0
LINE
8
BLACK
6
CONTINUOUS
10
1.0825
20
1.21
11
1.1375
21
1.21
0
LINE
8
BLACK
6
CONTINUOUS
10
1.1375
20
1.21
11
1.1375
21
1.175
0
LINE
8
BLACK
6
CONTINUOUS
10
1.6052999999999999
20
1.1765999999999999
11
1.5146999999999999
21
1.1765999999999999
0
LINE
8
BLACK
6
CONTINUOUS
10
1.5146999999999999
20
1.1765999999999999
11
1.5146999999999999
21
1.2749999999999999
0
LINE
8
BLACK
6
CONTINUOUS
10
1.5146999999999999
20
1.2749999999999999
11
1.6052999999999999
21
1.2749999999999999
0
LINE
8
BLACK
6
CONTINUOUS
10
1.6052999999999999
20
1.2749999999999999
11
1.6052999999999999
21
1.1765999999999999
0
LINE
8
BLACK
6
CONTINUOUS
10
0.5003
20
1.2007999999999999
11
0.4097
21
1.2007999999999999
0
LINE
8
BLACK
6
CONTINUOUS
10
0.4097
20
1.2007999999999999
11
0.4097
21
1.2991999999999999
0
LINE
8
BLACK
6
CONTINUOUS
10
0.4097
20
1.2991999999999999
11
0.5003
21
1.2991999999999999
0
LINE
8
BLACK
6
CONTINUOUS
10
0.5003
20
1.2991999999999999
11
0.5003
21
1.2007999999999999
0
LINE
8
BLACK
6
CONTINUOUS
10
1.2375
20
1.2475000000000001
11
1.1824999999999999
21
1.2475000000000001
0
LINE
8
BLACK
6
CONTINUOUS
10
1.1824999999999999
20
1.2475000000000001
11
1.1824999999999999
21
1.2825
0
LINE
8
BLACK
6
CONTINUOUS
10
1.1824999999999999
20
1.2825
11
1.2375
21
1.2825
0
LINE
8
BLACK
6
CONTINUOUS
10
1.2375
20
1.2825
11
1.2375
21
1.2475000000000001
0
LINE
8
BLACK
6
CONTINUOUS
10
1.3374999999999999
20
1.2475000000000001
11
1.2825
21
1.2475000000000001
0
LINE
8
BLACK
6
CONTINUOUS
10
1.2825
20
1.2475000000000001
11
1.2825
21
1.2825
0
LINE
8
BLACK
6
CONTINUOUS
10
1.2825
20
1.2825
11
1.3374999999999999
21
1.2825
0
LINE
8
BLACK
6
CONTINUOUS
10
1.3374999999999999
20
1.2825
11
1.3374999999999999
21
1.2475000000000001
0
LINE
8
BLACK
6
CONTINUOUS
10
1.4375
20
1.2475000000000001
11
1.3825000000000001
21
1.2475000000000001
0
LINE
8
BLACK
6
CONTINUOUS
10
1.3825000000000001
20
1.2475000000000001
11
1.3825000000000001
21
1.2825
0
LINE
8
BLACK
6
CONTINUOUS
10
1.3825000000000001
20
1.2825
11
1.4375
21
1.2825
0
LINE
8
BLACK
6
CONTINUOUS
10
1.4375
20
1.2825
11
1.4375
21
1.2475000000000001
0
LINE
8
BLACK
6
CONTINUOUS
10
0.6325
20
1.25
11
0.5775
21
1.25
0
LINE
8
BLACK
6
CONTINUOUS
10
0.5775
20
1.25
11
0.5775
21
1.2849999999999999
0
LINE
8
BLACK
6
CONTINUOUS
10
0.5775
20
1.2849999999999999
11
0.6325
21
1.2849999999999999
0
LINE
8
BLACK
6
CONTINUOUS
10
0.6325
20
1.2849999999999999
11
0.6325
21
1.25
0
LINE
8
BLACK
6
CONTINUOUS
10
0.7374999999999999
20
1.25
11
0.6825
21
1.25
0
LINE
8
BLACK
6
CONTINUOUS
10
0.6825
20
1.25
11
0.6825
21
1.2849999999999999
0
LINE
8
BLACK
6
CONTINUOUS
10
0.6825
20
1.2849999999999999
11
0.7374999999999999
21
1.2849999999999999
0
LINE
8
BLACK
6
CONTINUOUS
10
0.7374999999999999
20
1.2849999999999999
11
0.7374999999999999
21
1.25
0
LINE
8
BLACK
6
CONTINUOUS
10
0.8325
20
1.25
11
0.7775
21
1.25
0
LINE
8
BLACK
6
CONTINUOUS
10
0.7775
20
1.25
11
0.7775
21
1.2849999999999999
0
LINE
8
BLACK
6
CONTINUOUS
10
0.7775
20
1.2849999999999999
11
0.8325
21
1.2849999999999999
0
LINE
8
BLACK
6
CONTINUOUS
10
0.8325
20
1.2849999999999999
11
0.8325
21
1.25
0
LINE
8
BLACK
6
CONTINUOUS
10
0.9375
20
1.25
11
0.8825
21
1.25
0
LINE
8
BLACK
6
CONTINUOUS
10
0.8825
20
1.25
11
0.8825
21
1.2849999999999999
0
LINE
8
BLACK
6
CONTINUOUS
10
0.8825
20
1.2849999999999999
11
0.9375
21
1.2849999999999999
0
LINE
8
BLACK
6
CONTINUOUS
10
0.9375
20
1.2849999999999999
11
0.9375
21
1.25
0
LINE
8
BLACK
6
CONTINUOUS
10
1.0374999999999999
20
1.25
11
0.9824999999999999
21
1.25
0
LINE
8
BLACK
6
CONTINUOUS
10
0.9824999999999999
20
1.25
11
0.9824999999999999
21
1.2849999999999999
0
LINE
8
BLACK
6
CONTINUOUS
10
0.9824999999999999
20
1.2849999999999999
11
1.0374999999999999
21
1.2849999999999999
0
LINE
8
BLACK
6
CONTINUOUS
10
1.0374999999999999
20
1.2849999999999999
11
1.0374999999999999
21
1.25
0
LINE
8
BLACK
6
CONTINUOUS
10
1.1375
20
1.25
11
1.0825
21
1.25
0
LINE
8
BLACK
6
CONTINUOUS
10
1.0825
20
1.25
11
1.0825
21
1.2849999999999999
0
LINE
8
BLACK
6
CONTINUOUS
10
1.0825
20
1.2849999999999999
11
1.1375
21
1.2849999999999999
0
LINE
8
BLACK
6
CONTINUOUS
10
1.1375
20
1.2849999999999999
11
1.1375
21
1.25
0
LINE
8
BLACK
6
CONTINUOUS
10
1.6052999999999999
20
1.3457999999999999
11
1.5146999999999999
21
1.3457999999999999
0
LINE
8
BLACK
6
CONTINUOUS
10
1.5146999999999999
20
1.3457999999999999
11
1.5146999999999999
21
1.4441999999999999
0
LINE
8
BLACK
6
CONTINUOUS
10
1.5146999999999999
20
1.4441999999999999
11
1.6052999999999999
21
1.4441999999999999
0
LINE
8
BLACK
6
CONTINUOUS
10
1.6052999999999999
20
1.4441999999999999
11
1.6052999999999999
21
1.3457999999999999
0
LINE
8
BLACK
6
CONTINUOUS
10
0.5003
20
1.3699999999999999
11
0.4097
21
1.3699999999999999
0
LINE
8
BLACK
6
CONTINUOUS
10
0.4097
20
1.3699999999999999
11
0.4097
21
1.4683999999999999
0
LINE
8
BLACK
6
CONTINUOUS
10
0.4097
20
1.4683999999999999
11
0.5003
21
1.4683999999999999
0
LINE
8
BLACK
6
CONTINUOUS
10
0.5003
20
1.4683999999999999
11
0.5003
21
1.3699999999999999
0
LINE
8
BLACK
6
CONTINUOUS
10
1.5325
20
1.4675
11
1.4975000000000001
21
1.4675
0
LINE
8
BLACK
6
CONTINUOUS
10
1.4975000000000001
20
1.4675
11
1.4975000000000001
21
1.5225
0
LINE
8
BLACK
6
CONTINUOUS
10
1.4975000000000001
20
1.5225
11
1.5325
21
1.5225
0
LINE
8
BLACK
6
CONTINUOUS
10
1.5325
20
1.5225
11
1.5325
21
1.4675
0
LINE
8
BLACK
6
CONTINUOUS
10
1.6074999999999999
20
1.4675
11
1.5725
21
1.4675
0
LINE
8
BLACK
6
CONTINUOUS
10
1.5725
20
1.4675
11
1.5725
21
1.5225
0
LINE
8
BLACK
6
CONTINUOUS
10
1.5725
20
1.5225
11
1.6074999999999999
21
1.5225
0
LINE
8
BLACK
6
CONTINUOUS
10
1.6074999999999999
20
1.5225
11
1.6074999999999999
21
1.4675
  0
ENDSEC
  0
EOF
