<?xml version='1.0' encoding='ASCII' standalone='yes'?>
<svg xmlns:svg="http://www.w3.org/2000/svg" xmlns="http://www.w3.org/2000/svg" xmlns:xlink="http://www.w3.org/1999/xlink" version="1.1" width="297.0022mm" height="210.0072mm" viewBox="0.0000 0.0000 297.0022 210.0072">
<title>SVG Image created as DIG4SWHI01-B_Fab.svg date 2024/05/31 01:00:52 </title>
  <desc>Image generated by PCBNEW </desc>
<g style="fill:#000084; fill-opacity:1.0000;stroke:#000084; stroke-opacity:1.0000; stroke-linecap:round; stroke-linejoin:round;" transform="translate(0 0) scale(1 1)">
</g>
<g style="fill:#000084; fill-opacity:0.0;  stroke:#000084; stroke-width:0.0000; stroke-opacity:1;  stroke-linecap:round; stroke-linejoin:round;">
</g>
<g style="fill:#000084; fill-opacity:0.0;  stroke:#000084; stroke-width:0.7820; stroke-opacity:1;  stroke-linecap:round; stroke-linejoin:round;">
<g transform="rotate(90.000000 145.2324 85.1411)">
<text x="145.2324" y="87.7478" textLength="44.9953" font-size="6.9510" lengthAdjust="spacingAndGlyphs" text-anchor="middle" opacity="0">VNQ7050AJ</text>
</g>
<g class="stroked-text"><desc>VNQ7050AJ</desc>
<path d="M148.0746 63.7917 L142.8613 65.5294 "/>
<path d="M142.8613 65.5294 L148.0746 67.2671 "/>
<path d="M142.8613 69.0049 L148.0746 69.0049 "/>
<path d="M148.0746 69.0049 L142.8613 71.9839 "/>
<path d="M142.8613 71.9839 L148.0746 71.9839 "/>
<path d="M142.3648 77.9419 L142.6131 77.4454 "/>
<path d="M142.6131 77.4454 L143.1096 76.9489 "/>
<path d="M143.1096 76.9489 L143.8543 76.2041 "/>
<path d="M143.8543 76.2041 L144.1026 75.7076 "/>
<path d="M144.1026 75.7076 L144.1026 75.2111 "/>
<path d="M142.8613 75.4594 L143.1096 74.9629 "/>
<path d="M143.1096 74.9629 L143.6061 74.4664 "/>
<path d="M143.6061 74.4664 L144.5991 74.2181 "/>
<path d="M144.5991 74.2181 L146.3368 74.2181 "/>
<path d="M146.3368 74.2181 L147.3298 74.4664 "/>
<path d="M147.3298 74.4664 L147.8263 74.9629 "/>
<path d="M147.8263 74.9629 L148.0746 75.4594 "/>
<path d="M148.0746 75.4594 L148.0746 76.4524 "/>
<path d="M148.0746 76.4524 L147.8263 76.9489 "/>
<path d="M147.8263 76.9489 L147.3298 77.4454 "/>
<path d="M147.3298 77.4454 L146.3368 77.6936 "/>
<path d="M146.3368 77.6936 L144.5991 77.6936 "/>
<path d="M144.5991 77.6936 L143.6061 77.4454 "/>
<path d="M143.6061 77.4454 L143.1096 76.9489 "/>
<path d="M143.1096 76.9489 L142.8613 76.4524 "/>
<path d="M142.8613 76.4524 L142.8613 75.4594 "/>
<path d="M148.0746 79.4314 L148.0746 82.9069 "/>
<path d="M148.0746 82.9069 L142.8613 80.6726 "/>
<path d="M148.0746 85.8859 L148.0746 86.3824 "/>
<path d="M148.0746 86.3824 L147.8263 86.8789 "/>
<path d="M147.8263 86.8789 L147.5781 87.1271 "/>
<path d="M147.5781 87.1271 L147.0816 87.3754 "/>
<path d="M147.0816 87.3754 L146.0886 87.6236 "/>
<path d="M146.0886 87.6236 L144.8473 87.6236 "/>
<path d="M144.8473 87.6236 L143.8543 87.3754 "/>
<path d="M143.8543 87.3754 L143.3578 87.1271 "/>
<path d="M143.3578 87.1271 L143.1096 86.8789 "/>
<path d="M143.1096 86.8789 L142.8613 86.3824 "/>
<path d="M142.8613 86.3824 L142.8613 85.8859 "/>
<path d="M142.8613 85.8859 L143.1096 85.3894 "/>
<path d="M143.1096 85.3894 L143.3578 85.1411 "/>
<path d="M143.3578 85.1411 L143.8543 84.8929 "/>
<path d="M143.8543 84.8929 L144.8473 84.6446 "/>
<path d="M144.8473 84.6446 L146.0886 84.6446 "/>
<path d="M146.0886 84.6446 L147.0816 84.8929 "/>
<path d="M147.0816 84.8929 L147.5781 85.1411 "/>
<path d="M147.5781 85.1411 L147.8263 85.3894 "/>
<path d="M147.8263 85.3894 L148.0746 85.8859 "/>
<path d="M148.0746 92.3404 L148.0746 89.8579 "/>
<path d="M148.0746 89.8579 L145.5921 89.6096 "/>
<path d="M145.5921 89.6096 L145.8403 89.8579 "/>
<path d="M145.8403 89.8579 L146.0886 90.3544 "/>
<path d="M146.0886 90.3544 L146.0886 91.5956 "/>
<path d="M146.0886 91.5956 L145.8403 92.0921 "/>
<path d="M145.8403 92.0921 L145.5921 92.3404 "/>
<path d="M145.5921 92.3404 L145.0956 92.5886 "/>
<path d="M145.0956 92.5886 L143.8543 92.5886 "/>
<path d="M143.8543 92.5886 L143.3578 92.3404 "/>
<path d="M143.3578 92.3404 L143.1096 92.0921 "/>
<path d="M143.1096 92.0921 L142.8613 91.5956 "/>
<path d="M142.8613 91.5956 L142.8613 90.3544 "/>
<path d="M142.8613 90.3544 L143.1096 89.8579 "/>
<path d="M143.1096 89.8579 L143.3578 89.6096 "/>
<path d="M148.0746 95.8159 L148.0746 96.3124 "/>
<path d="M148.0746 96.3124 L147.8263 96.8089 "/>
<path d="M147.8263 96.8089 L147.5781 97.0571 "/>
<path d="M147.5781 97.0571 L147.0816 97.3054 "/>
<path d="M147.0816 97.3054 L146.0886 97.5536 "/>
<path d="M146.0886 97.5536 L144.8473 97.5536 "/>
<path d="M144.8473 97.5536 L143.8543 97.3054 "/>
<path d="M143.8543 97.3054 L143.3578 97.0571 "/>
<path d="M143.3578 97.0571 L143.1096 96.8089 "/>
<path d="M143.1096 96.8089 L142.8613 96.3124 "/>
<path d="M142.8613 96.3124 L142.8613 95.8159 "/>
<path d="M142.8613 95.8159 L143.1096 95.3194 "/>
<path d="M143.1096 95.3194 L143.3578 95.0711 "/>
<path d="M143.3578 95.0711 L143.8543 94.8229 "/>
<path d="M143.8543 94.8229 L144.8473 94.5746 "/>
<path d="M144.8473 94.5746 L146.0886 94.5746 "/>
<path d="M146.0886 94.5746 L147.0816 94.8229 "/>
<path d="M147.0816 94.8229 L147.5781 95.0711 "/>
<path d="M147.5781 95.0711 L147.8263 95.3194 "/>
<path d="M147.8263 95.3194 L148.0746 95.8159 "/>
<path d="M144.3508 99.5396 L144.3508 102.0221 "/>
<path d="M142.8613 99.0431 L148.0746 100.7809 "/>
<path d="M148.0746 100.7809 L142.8613 102.5186 "/>
<path d="M148.0746 105.7459 L144.3508 105.7459 "/>
<path d="M144.3508 105.7459 L143.6061 105.4976 "/>
<path d="M143.6061 105.4976 L143.1096 105.0011 "/>
<path d="M143.1096 105.0011 L142.8613 104.2564 "/>
<path d="M142.8613 104.2564 L142.8613 103.7599 "/>
</g><g>
</g>
<g>
</g>
<g>
</g>
<g>
</g>
<g>
</g>
<g>
</g>
<g>
</g>
<g>
</g>
<g>
</g>
<g>
</g>
<g>
</g>
<g>
</g>
<g>
</g>
<g>
</g>
<g>
</g>
<g>
</g>
<g>
</g>
<g>
</g>
<g>
</g>
<g>
</g>
<g>
</g>
<g>
</g>
<g>
</g>
<g>
</g>
<g>
</g>
<g>
</g>
<g>
</g>
<g>
</g>
<g>
</g>
<g>
</g>
<g>
</g>
<g>
</g>
<g>
</g>
<g>
</g>
<g>
</g>
<g>
</g>
<g>
</g>
<g>
</g>
<g>
</g>
<g>
</g>
<g>
</g>
<g>
</g>
<g>
</g>
<g>
</g>
<g>
</g>
<g>
</g>
<g>
</g>
<g>
</g>
<g>
</g>
<g>
</g>
<g>
</g>
<g>
</g>
<g>
</g>
<g>
</g>
</g> 
<svg:g><svg:g><svg:title>SVG Image created as DIG4SWHI01-Edge_Cuts.svg date 2024/05/31 01:00:52 </svg:title>
  <svg:desc>Image generated by PCBNEW </svg:desc>
<svg:g style="fill:#C2C200; fill-opacity:1.0000;stroke:#C2C200; stroke-opacity:1.0000; stroke-linecap:round; stroke-linejoin:round;" transform="translate(0 0) scale(1 1)">
</svg:g>
<svg:g style="fill:#C2C200; fill-opacity:0.0;  stroke:#C2C200; stroke-width:0.0000; stroke-opacity:1;  stroke-linecap:round; stroke-linejoin:round;">
</svg:g>
<svg:g style="fill:#C2C200; fill-opacity:0.0;  stroke:#C2C200; stroke-width:0.7820; stroke-opacity:1;  stroke-linecap:round; stroke-linejoin:round;">
<svg:path d="M279.5934 209.6126 L279.5934 0.3946 "/>
<svg:path d="M17.4088 0.3946 L17.4088 209.6126 "/>
<svg:path d="M279.5934 209.6126 L17.4088 209.6126 "/>
<svg:path d="M279.5934 0.3946 L17.4088 0.3946 "/>
<svg:g>
</svg:g>
<svg:g>
</svg:g>
<svg:g>
</svg:g>
<svg:g>
</svg:g>
<svg:g>
</svg:g>
<svg:g>
</svg:g>
<svg:g>
</svg:g>
<svg:g>
</svg:g>
<svg:g>
</svg:g>
<svg:g>
</svg:g>
<svg:g>
</svg:g>
<svg:g>
</svg:g>
<svg:g>
</svg:g>
<svg:g>
</svg:g>
<svg:g>
</svg:g>
<svg:g>
</svg:g>
<svg:g>
</svg:g>
<svg:g>
</svg:g>
<svg:g>
</svg:g>
<svg:g>
</svg:g>
<svg:g>
</svg:g>
<svg:g>
</svg:g>
<svg:g>
</svg:g>
<svg:g>
</svg:g>
<svg:g>
</svg:g>
<svg:g>
</svg:g>
<svg:g>
</svg:g>
<svg:g>
</svg:g>
<svg:g>
</svg:g>
<svg:g>
</svg:g>
<svg:g>
</svg:g>
<svg:g>
</svg:g>
<svg:g>
</svg:g>
<svg:g>
</svg:g>
<svg:g>
</svg:g>
<svg:g>
</svg:g>
<svg:g>
</svg:g>
<svg:g>
</svg:g>
<svg:g>
</svg:g>
<svg:g>
</svg:g>
<svg:g>
</svg:g>
<svg:g>
</svg:g>
<svg:g>
</svg:g>
<svg:g>
</svg:g>
<svg:g>
</svg:g>
<svg:g>
</svg:g>
<svg:g>
</svg:g>
<svg:g>
</svg:g>
<svg:g>
</svg:g>
<svg:g>
</svg:g>
<svg:g>
</svg:g>
<svg:g>
</svg:g>
<svg:g>
</svg:g>
<svg:g>
</svg:g>
</svg:g> 
</svg:g></svg:g></svg>
