M48
; DRILL file {KiCad 7.0.11+1} date Fri May 31 01:00:11 2024
; FORMAT={3:3/ absolute / metric / suppress leading zeros}
; #@! TF.CreationDate,2024-05-31T01:00:11+00:00
; #@! TF.GenerationSoftware,Kicad,Pcbnew,7.0.11+1
; #@! TF.FileFunction,Plated,1,2,PTH
FMAT,2
METRIC,TZ
; #@! TA.AperFunction,Plated,PTH,ViaDrill
T1C0.400
; #@! TA.AperFunction,Plated,PTH,ComponentDrill
T2C0.400
; #@! TA.AperFunction,Plated,PTH,ComponentDrill
T3C0.889
; #@! TA.AperFunction,Plated,PTH,ComponentDrill
T4C1.300
; #@! TA.AperFunction,Plated,PTH,ComponentDrill
T5C3.000
%
G90
G05
T1
X8890Y30353
X9144Y38354
X9144Y37084
X9144Y35814
X9144Y34544
X9144Y33274
X9144Y32004
X9906Y12700
X10414Y38354
X10414Y11176
X10414Y9906
X10414Y8382
X11176Y13970
X11684Y38354
X12446Y13970
X13208Y17145
X13716Y13970
X14732Y13970
X15367Y30988
X15875Y13970
X16510Y24130
X17018Y13970
X17526Y24638
X18034Y30988
X18161Y13970
X18669Y24892
X19045Y24251
X19431Y13970
X19685Y25019
X20447Y30988
X20828Y25273
X22860Y28702
X23114Y30988
X23622Y27432
X24130Y28702
X24638Y27432
X24892Y21590
X24892Y20574
X25654Y30988
X25654Y17526
X25908Y21590
X28194Y30988
X28194Y13970
X29210Y19050
X29464Y13970
X30734Y30988
X30734Y13970
X30787Y22630
X31877Y23241
X31960Y25507
X32004Y13970
X32639Y24765
X32893Y23638
X33274Y30988
X33274Y13970
X33401Y18669
X34544Y13970
X35814Y30988
X35814Y13970
X37084Y13970
X37592Y36068
X37592Y35052
X37592Y34036
X37592Y33020
X37592Y32004
X37592Y30734
X38100Y13970
X39116Y13970
X40386Y13970
X41148Y11684
X41148Y10414
X41148Y9144
X41402Y12954
X48514Y18669
T2
X24927Y25630
X24927Y24630
X24927Y23630
X24927Y22630
X26127Y25630
X26127Y24630
X26127Y23630
X26127Y22630
T3
X3175Y13970
X3175Y11430
X15367Y36957
X15367Y34417
X18034Y36957
X18034Y34417
X20574Y36957
X20574Y34417
X23114Y36957
X23114Y34417
X25654Y36957
X25654Y34417
X28194Y36957
X28194Y34417
X30734Y36957
X30734Y34417
X33274Y36957
X33274Y34417
X35814Y36957
X35814Y34417
T4
X5287Y26543
X5287Y21590
X10287Y26543
X10287Y21590
X13081Y10922
X13081Y5922
X18034Y10922
X18034Y5922
X23114Y10922
X23114Y5922
X28194Y10922
X28194Y5922
X33274Y10922
X33274Y5922
X38354Y10922
X38354Y5922
X40386Y26543
X40386Y21590
X45386Y26543
X45386Y21590
T5
X5080Y35560
X5080Y5080
X45720Y35560
X45720Y5080
M30
