%TF.GenerationSoftware,KiCad,Pcbnew,7.0.11+1*%
%TF.CreationDate,2024-05-31T01:00:11+00:00*%
%TF.ProjectId,DIG4SWHI01,44494734-5357-4484-9930-312e6b696361,rev?*%
%TF.SameCoordinates,Original*%
%TF.FileFunction,Copper,L1,Top*%
%TF.FilePolarity,Positive*%
%FSLAX46Y46*%
G04 Gerber Fmt 4.6, Leading zero omitted, Abs format (unit mm)*
G04 Created by KiCad (PCBNEW 7.0.11+1) date 2024-05-31 01:00:11*
%MOMM*%
%LPD*%
G01*
G04 APERTURE LIST*
%TA.AperFunction,ComponentPad*%
%ADD10C,6.000000*%
%TD*%
%TA.AperFunction,ComponentPad*%
%ADD11R,1.524000X1.524000*%
%TD*%
%TA.AperFunction,ComponentPad*%
%ADD12R,3.810000X3.810000*%
%TD*%
%TA.AperFunction,ComponentPad*%
%ADD13C,0.500000*%
%TD*%
%TA.AperFunction,ViaPad*%
%ADD14C,0.800000*%
%TD*%
%TA.AperFunction,Conductor*%
%ADD15C,0.250000*%
%TD*%
%TA.AperFunction,Conductor*%
%ADD16C,0.300000*%
%TD*%
G04 APERTURE END LIST*
D10*
%TO.P,M1,1*%
%TO.N,GND*%
X5080000Y5080000D03*
%TD*%
%TO.P,M2,1*%
%TO.N,GND*%
X45720000Y5080000D03*
%TD*%
%TO.P,M3,1*%
%TO.N,GND*%
X45720000Y35560000D03*
%TD*%
%TO.P,M4,1*%
%TO.N,GND*%
X5080000Y35560000D03*
%TD*%
D11*
%TO.P,J3,1,1*%
%TO.N,/CS*%
X30734000Y34417000D03*
%TO.P,J3,2,1*%
X30734000Y36957000D03*
%TD*%
%TO.P,J4,1,1*%
%TO.N,/IN0*%
X18034000Y34417000D03*
%TO.P,J4,2,1*%
X18034000Y36957000D03*
%TD*%
%TO.P,J5,1,1*%
%TO.N,/IN1*%
X23114000Y34417000D03*
%TO.P,J5,2,1*%
X23114000Y36957000D03*
%TD*%
%TO.P,J6,1,1*%
%TO.N,/IN2*%
X35814000Y34417000D03*
%TO.P,J6,2,1*%
X35814000Y36957000D03*
%TD*%
%TO.P,J7,1,1*%
%TO.N,/IN3*%
X28194000Y34417000D03*
%TO.P,J7,2,1*%
X28194000Y36957000D03*
%TD*%
%TO.P,J8,1,1*%
%TO.N,/SEL0*%
X33274000Y34417000D03*
%TO.P,J8,2,1*%
X33274000Y36957000D03*
%TD*%
%TO.P,J9,1,1*%
%TO.N,/SEL1*%
X25654000Y34417000D03*
%TO.P,J9,2,1*%
X25654000Y36957000D03*
%TD*%
%TO.P,J10,1,1*%
%TO.N,/SEn*%
X15367000Y34417000D03*
%TO.P,J10,2,1*%
X15367000Y36957000D03*
%TD*%
%TO.P,J11,1,1*%
%TO.N,/#FRST*%
X20574000Y34417000D03*
%TO.P,J11,2,1*%
X20574000Y36957000D03*
%TD*%
%TO.P,J20,1,1*%
%TO.N,GND*%
X3175000Y11430000D03*
%TO.P,J20,2,1*%
X3175000Y13970000D03*
%TD*%
D12*
%TO.P,J1,1,P1*%
%TO.N,VCC*%
X23114000Y5922000D03*
X23114000Y10922000D03*
%TD*%
%TO.P,J2,1,P1*%
%TO.N,GND*%
X18034000Y5922000D03*
X18034000Y10922000D03*
%TD*%
%TO.P,J12,1,P1*%
%TO.N,/OUT0*%
X5287000Y21590000D03*
X10287000Y21590000D03*
%TD*%
%TO.P,J13,1,P1*%
%TO.N,/OUT1*%
X5287000Y26543000D03*
X10287000Y26543000D03*
%TD*%
%TO.P,J14,1,P1*%
%TO.N,/OUT2*%
X45386000Y26543000D03*
X40386000Y26543000D03*
%TD*%
%TO.P,J15,1,P1*%
%TO.N,/OUT3*%
X45386000Y21590000D03*
X40386000Y21590000D03*
%TD*%
%TO.P,J16,1,P1*%
%TO.N,GND*%
X13081000Y5922000D03*
X13081000Y10922000D03*
%TD*%
%TO.P,J17,1,P1*%
%TO.N,GND*%
X28194000Y5922000D03*
X28194000Y10922000D03*
%TD*%
%TO.P,J18,1,P1*%
%TO.N,GND*%
X33274000Y5922000D03*
X33274000Y10922000D03*
%TD*%
%TO.P,J19,1,P1*%
%TO.N,GND*%
X38354000Y5922000D03*
X38354000Y10922000D03*
%TD*%
D13*
%TO.P,U1,17,VCC*%
%TO.N,VCC*%
X24927000Y22630000D03*
X26127000Y22630000D03*
X24927000Y23630000D03*
X26127000Y23630000D03*
X24927000Y24630000D03*
X26127000Y24630000D03*
X24927000Y25630000D03*
X26127000Y25630000D03*
%TD*%
D14*
%TO.N,GND*%
X41148000Y11684000D03*
X11176000Y13970000D03*
X41148000Y9144000D03*
X13716000Y13970000D03*
X17018000Y13970000D03*
X37592000Y34036000D03*
X24130000Y28702000D03*
X9144000Y33274000D03*
X19431000Y13970000D03*
X10414000Y9906000D03*
X35814000Y13970000D03*
X33274000Y13970000D03*
X38100000Y13970000D03*
X12446000Y13970000D03*
X9144000Y38354000D03*
X10414000Y11176000D03*
X15875000Y13969998D03*
X40386000Y13970000D03*
X22860000Y28702000D03*
X29210000Y19050000D03*
X11684000Y38354000D03*
X41148000Y10414000D03*
X19044814Y24250777D03*
X9906000Y12700000D03*
X41402000Y12954000D03*
X9144000Y35814000D03*
X37592000Y35052000D03*
X37592000Y36068000D03*
X37592000Y30734000D03*
X34544000Y13970000D03*
X37592000Y32004000D03*
X28194000Y13970000D03*
X9144000Y32004000D03*
X37592000Y33020000D03*
X30734000Y13970000D03*
X9144000Y37084000D03*
X37084000Y13970000D03*
X14732000Y13969994D03*
X32004000Y13970000D03*
X39116000Y13970000D03*
X10414000Y38354000D03*
X9144000Y34544000D03*
X18161000Y13970000D03*
X24638000Y27432000D03*
X10414000Y8382000D03*
X23622000Y27432000D03*
X29464000Y13970000D03*
X18669000Y24892000D03*
%TO.N,VCC*%
X13208000Y17145000D03*
X25908000Y21590000D03*
X24892000Y20574000D03*
X25654000Y17526000D03*
X48514000Y18669000D03*
X8890000Y30353000D03*
X24892000Y21590000D03*
%TO.N,Net-(U1-CS)*%
X30734000Y30988000D03*
X33401000Y18669000D03*
X32893000Y23637987D03*
%TO.N,Net-(U1-IN0)*%
X17526000Y24638000D03*
X18034000Y30988000D03*
%TO.N,Net-(U1-IN1)*%
X23114000Y30988000D03*
X20828000Y25273006D03*
%TO.N,Net-(U1-IN2)*%
X35814000Y30988000D03*
X31959985Y25506802D03*
%TO.N,Net-(U1-IN3)*%
X28194000Y30988000D03*
X31877000Y23240998D03*
%TO.N,Net-(U1-SEL0)*%
X33274000Y30988000D03*
X32639000Y24765000D03*
%TO.N,Net-(U1-SEL1)*%
X25654000Y30988000D03*
X30787228Y22630000D03*
%TO.N,Net-(U1-SEn)*%
X16510000Y24130000D03*
X15367000Y30988000D03*
%TO.N,Net-(U1-FRST)*%
X19685000Y25019000D03*
X20447000Y30988006D03*
%TD*%
D15*
%TO.N,GND*%
X13081000Y13077000D02*
X12188000Y13970000D01*
X41402000Y12954000D02*
X41402000Y11938000D01*
X14732000Y13969994D02*
X15874996Y13969994D01*
X9144000Y34544000D02*
X9144000Y35814000D01*
X32004000Y13970000D02*
X33274000Y13970000D01*
X13081000Y10922000D02*
X13081000Y13077000D01*
D16*
X18669000Y24892000D02*
X18669000Y24626591D01*
D15*
X12446000Y13970000D02*
X13716000Y13970000D01*
X37592000Y32004000D02*
X37592000Y30734000D01*
X12188000Y13970000D02*
X11176000Y13970000D01*
X23622000Y27432000D02*
X24638000Y27432000D01*
X10414000Y9906000D02*
X10414000Y8382000D01*
X29464000Y13970000D02*
X30734000Y13970000D01*
X10414000Y38354000D02*
X11684000Y38354000D01*
X39116000Y13970000D02*
X40386000Y13970000D01*
X9906000Y11684000D02*
X10414000Y11176000D01*
X17018000Y13970000D02*
X18161000Y13970000D01*
X37084000Y13970000D02*
X38100000Y13970000D01*
X37592000Y34036000D02*
X37592000Y33020000D01*
X41402000Y11938000D02*
X41148000Y11684000D01*
X41148000Y10414000D02*
X41148000Y9144000D01*
X9906000Y12700000D02*
X9906000Y11684000D01*
X22860000Y28702000D02*
X24130000Y28702000D01*
X15874996Y13969994D02*
X15875000Y13969998D01*
X28194000Y10922000D02*
X28194000Y13970000D01*
D16*
X18669000Y24626591D02*
X19044814Y24250777D01*
D15*
X34544000Y13970000D02*
X35814000Y13970000D01*
X9144000Y32004000D02*
X9144000Y33274000D01*
X37592000Y36068000D02*
X37592000Y35052000D01*
X9144000Y37084000D02*
X9144000Y38354000D01*
D16*
%TO.N,VCC*%
X8890000Y30353000D02*
X7747000Y29210000D01*
X47371000Y17526000D02*
X26219685Y17526000D01*
X7747000Y17399000D02*
X8001000Y17145000D01*
X8001000Y17145000D02*
X13208000Y17145000D01*
X7747000Y29210000D02*
X7747000Y17399000D01*
D15*
X24892000Y21590000D02*
X25908000Y21590000D01*
D16*
X48514000Y18669000D02*
X47371000Y17526000D01*
X26219685Y17526000D02*
X25654000Y17526000D01*
%TO.N,Net-(U1-CS)*%
X33401000Y23129987D02*
X33292999Y23237988D01*
X30334001Y30588001D02*
X30334001Y25309243D01*
X31525242Y24118002D02*
X32175994Y24118002D01*
X32656009Y23637987D02*
X32893000Y23637987D01*
X30734000Y30988000D02*
X30334001Y30588001D01*
X32175994Y24118002D02*
X32656009Y23637987D01*
X33292999Y23237988D02*
X32893000Y23637987D01*
X33401000Y18669000D02*
X33401000Y23129987D01*
X30334001Y25309243D02*
X31525242Y24118002D01*
%TO.N,Net-(U1-IN0)*%
X17526000Y24638000D02*
X17526000Y30480000D01*
X17634001Y30588001D02*
X18034000Y30988000D01*
X17526000Y30480000D02*
X17634001Y30588001D01*
%TO.N,Net-(U1-IN1)*%
X20828000Y25838691D02*
X20828000Y25273006D01*
X23114000Y30988000D02*
X20828000Y28702000D01*
X20828000Y28702000D02*
X20828000Y25838691D01*
%TO.N,Net-(U1-IN2)*%
X32359984Y25906801D02*
X31959985Y25506802D01*
X35814000Y30988000D02*
X35814000Y29360817D01*
X35814000Y29360817D02*
X32359984Y25906801D01*
%TO.N,Net-(U1-IN3)*%
X28194000Y26742122D02*
X31695124Y23240998D01*
X28194000Y30988000D02*
X28194000Y26742122D01*
X31695124Y23240998D02*
X31877000Y23240998D01*
%TO.N,Net-(U1-SEL0)*%
X31946315Y24638000D02*
X32073315Y24765000D01*
X31209975Y28923975D02*
X31209975Y25140391D01*
X31209975Y25140391D02*
X31712366Y24638000D01*
X33274000Y30988000D02*
X31209975Y28923975D01*
X32073315Y24765000D02*
X32639000Y24765000D01*
X31712366Y24638000D02*
X31946315Y24638000D01*
%TO.N,Net-(U1-SEL1)*%
X25654000Y28575000D02*
X25654000Y30988000D01*
X30787228Y22630000D02*
X30787228Y23441772D01*
X30787228Y23441772D02*
X25654000Y28575000D01*
%TO.N,Net-(U1-SEn)*%
X15367000Y25273000D02*
X15367000Y30422315D01*
X15367000Y30422315D02*
X15367000Y30988000D01*
X16510000Y24130000D02*
X15367000Y25273000D01*
%TO.N,Net-(U1-FRST)*%
X19685000Y25019000D02*
X19685000Y30226006D01*
X20047001Y30588007D02*
X20447000Y30988006D01*
X19685000Y30226006D02*
X20047001Y30588007D01*
%TD*%
%TA.AperFunction,Conductor*%
%TO.N,GND*%
G36*
X50412621Y40290498D02*
G01*
X50459114Y40236842D01*
X50470500Y40184500D01*
X50470500Y455500D01*
X50450498Y387379D01*
X50396842Y340886D01*
X50344500Y329500D01*
X455500Y329500D01*
X387379Y349502D01*
X340886Y403158D01*
X329500Y455500D01*
X329500Y3968350D01*
X20700500Y3968350D01*
X20707009Y3907803D01*
X20707011Y3907795D01*
X20758110Y3770797D01*
X20758112Y3770792D01*
X20845738Y3653738D01*
X20962792Y3566112D01*
X20962797Y3566110D01*
X21099795Y3515011D01*
X21099803Y3515009D01*
X21160350Y3508500D01*
X21160362Y3508500D01*
X25067649Y3508500D01*
X25128196Y3515009D01*
X25128204Y3515011D01*
X25265202Y3566110D01*
X25265207Y3566112D01*
X25382261Y3653738D01*
X25469887Y3770792D01*
X25469889Y3770797D01*
X25520988Y3907795D01*
X25520990Y3907803D01*
X25527499Y3968350D01*
X25527500Y3968367D01*
X25527500Y7875632D01*
X25527499Y7875649D01*
X25520990Y7936196D01*
X25520988Y7936204D01*
X25513960Y7955045D01*
X25469889Y8073204D01*
X25382261Y8190261D01*
X25265204Y8277889D01*
X25195343Y8303945D01*
X25138511Y8346491D01*
X25113700Y8413012D01*
X25128792Y8482386D01*
X25178994Y8532588D01*
X25195334Y8540050D01*
X25265204Y8566111D01*
X25265205Y8566112D01*
X25265208Y8566113D01*
X25382261Y8653738D01*
X25469887Y8770792D01*
X25469889Y8770797D01*
X25520988Y8907795D01*
X25520990Y8907803D01*
X25527499Y8968350D01*
X25527500Y8968367D01*
X25527500Y12875632D01*
X25527499Y12875649D01*
X25520990Y12936196D01*
X25520988Y12936204D01*
X25513960Y12955045D01*
X25469889Y13073204D01*
X25382261Y13190261D01*
X25265204Y13277889D01*
X25128201Y13328989D01*
X25128199Y13328989D01*
X25128196Y13328990D01*
X25067649Y13335499D01*
X25067645Y13335499D01*
X25067638Y13335500D01*
X21160362Y13335500D01*
X21160355Y13335499D01*
X21160350Y13335499D01*
X21099803Y13328990D01*
X21099795Y13328988D01*
X21021875Y13299924D01*
X20962796Y13277889D01*
X20962794Y13277888D01*
X20962792Y13277887D01*
X20845738Y13190261D01*
X20758112Y13073207D01*
X20758110Y13073202D01*
X20707011Y12936204D01*
X20707009Y12936196D01*
X20700500Y12875649D01*
X20700500Y8968350D01*
X20707009Y8907803D01*
X20707011Y8907795D01*
X20758110Y8770797D01*
X20758112Y8770792D01*
X20845738Y8653738D01*
X20962792Y8566112D01*
X20962797Y8566110D01*
X21032653Y8540055D01*
X21089489Y8497508D01*
X21114299Y8430988D01*
X21099207Y8361614D01*
X21049005Y8311412D01*
X21032653Y8303945D01*
X20995676Y8290152D01*
X20962796Y8277889D01*
X20962794Y8277888D01*
X20962792Y8277887D01*
X20845738Y8190261D01*
X20758112Y8073207D01*
X20758110Y8073202D01*
X20707011Y7936204D01*
X20707009Y7936196D01*
X20700500Y7875649D01*
X20700500Y3968350D01*
X329500Y3968350D01*
X329500Y19636350D01*
X2873500Y19636350D01*
X2880009Y19575803D01*
X2880011Y19575795D01*
X2931110Y19438797D01*
X2931112Y19438792D01*
X3018738Y19321738D01*
X3135792Y19234112D01*
X3135797Y19234110D01*
X3272795Y19183011D01*
X3272803Y19183009D01*
X3333350Y19176500D01*
X3333362Y19176500D01*
X6962500Y19176500D01*
X7030621Y19156498D01*
X7077114Y19102842D01*
X7088500Y19050500D01*
X7088500Y17485611D01*
X7086707Y17469382D01*
X7086958Y17469359D01*
X7086211Y17461465D01*
X7088438Y17390629D01*
X7088500Y17386671D01*
X7088500Y17357569D01*
X7089056Y17353165D01*
X7089986Y17341345D01*
X7091437Y17295172D01*
X7091438Y17295170D01*
X7097421Y17274574D01*
X7101428Y17255221D01*
X7104116Y17233940D01*
X7104118Y17233934D01*
X7121126Y17190974D01*
X7124969Y17179749D01*
X7137852Y17135406D01*
X7137855Y17135399D01*
X7148773Y17116937D01*
X7157466Y17099191D01*
X7165362Y17079248D01*
X7165364Y17079245D01*
X7192517Y17041872D01*
X7199032Y17031953D01*
X7222546Y16992194D01*
X7237714Y16977025D01*
X7250546Y16962001D01*
X7255581Y16955072D01*
X7263159Y16944643D01*
X7279292Y16931295D01*
X7298748Y16915200D01*
X7307525Y16907212D01*
X7474128Y16740609D01*
X7484342Y16727864D01*
X7484535Y16728024D01*
X7489586Y16721917D01*
X7541272Y16673380D01*
X7544110Y16670630D01*
X7564669Y16650071D01*
X7564677Y16650065D01*
X7568179Y16647348D01*
X7577183Y16639657D01*
X7610867Y16608027D01*
X7610866Y16608027D01*
X7629659Y16597696D01*
X7646180Y16586844D01*
X7663128Y16573698D01*
X7663133Y16573695D01*
X7705531Y16555347D01*
X7716187Y16550127D01*
X7756661Y16527876D01*
X7766957Y16525232D01*
X7777435Y16522541D01*
X7796126Y16516142D01*
X7815823Y16507619D01*
X7861460Y16500390D01*
X7873077Y16497985D01*
X7886120Y16494636D01*
X7917812Y16486500D01*
X7939258Y16486500D01*
X7958966Y16484949D01*
X7980151Y16481594D01*
X8026139Y16485941D01*
X8037995Y16486500D01*
X12527776Y16486500D01*
X12595897Y16466498D01*
X12601837Y16462436D01*
X12751247Y16353882D01*
X12925711Y16276206D01*
X13112513Y16236500D01*
X13303487Y16236500D01*
X13490288Y16276206D01*
X13664752Y16353882D01*
X13819255Y16466135D01*
X13947034Y16608048D01*
X13947041Y16608058D01*
X14042527Y16773444D01*
X14101542Y16955072D01*
X14121504Y17145000D01*
X14101542Y17334928D01*
X14042527Y17516556D01*
X13947040Y17681944D01*
X13909537Y17723595D01*
X13819255Y17823864D01*
X13819254Y17823864D01*
X13819253Y17823866D01*
X13664752Y17936118D01*
X13490288Y18013794D01*
X13303487Y18053500D01*
X13112513Y18053500D01*
X12925712Y18013794D01*
X12751248Y17936118D01*
X12670097Y17877158D01*
X12601837Y17827564D01*
X12534969Y17803706D01*
X12527776Y17803500D01*
X8531500Y17803500D01*
X8463379Y17823502D01*
X8416886Y17877158D01*
X8405500Y17929500D01*
X8405500Y19050500D01*
X8425502Y19118621D01*
X8479158Y19165114D01*
X8531500Y19176500D01*
X12240649Y19176500D01*
X12301196Y19183009D01*
X12301204Y19183011D01*
X12438202Y19234110D01*
X12438207Y19234112D01*
X12555261Y19321738D01*
X12642887Y19438792D01*
X12642889Y19438797D01*
X12693988Y19575795D01*
X12693990Y19575803D01*
X12700499Y19636350D01*
X12700500Y19636367D01*
X12700500Y20191990D01*
X23870500Y20191990D01*
X23882235Y20082844D01*
X23882235Y20082840D01*
X23893617Y20030519D01*
X23893623Y20030498D01*
X23928288Y19926345D01*
X24007310Y19803385D01*
X24051576Y19752299D01*
X24053395Y19750080D01*
X24164258Y19654019D01*
X24164261Y19654017D01*
X24297210Y19593301D01*
X24365322Y19573302D01*
X24365329Y19573300D01*
X24413554Y19566366D01*
X24510000Y19552500D01*
X24510004Y19552500D01*
X26544009Y19552500D01*
X26623859Y19561085D01*
X26653149Y19564234D01*
X26653152Y19564234D01*
X26653155Y19564235D01*
X26653159Y19564235D01*
X26705480Y19575617D01*
X26705488Y19575619D01*
X26705491Y19575620D01*
X26705494Y19575621D01*
X26705501Y19575623D01*
X26809654Y19610288D01*
X26850226Y19636362D01*
X26932612Y19689308D01*
X26932617Y19689312D01*
X26932621Y19689315D01*
X26983700Y19733575D01*
X26985920Y19735396D01*
X27081980Y19846258D01*
X27081982Y19846261D01*
X27142698Y19979210D01*
X27157757Y20030498D01*
X27162700Y20047331D01*
X27183500Y20192000D01*
X27183500Y25810049D01*
X27203502Y25878170D01*
X27257158Y25924663D01*
X27327432Y25934767D01*
X27392012Y25905273D01*
X27398595Y25899144D01*
X30010058Y23287680D01*
X30044084Y23225368D01*
X30039019Y23154552D01*
X30030082Y23135585D01*
X29986217Y23059607D01*
X29952701Y23001556D01*
X29923754Y22912470D01*
X29893685Y22819927D01*
X29873724Y22630000D01*
X29893685Y22440072D01*
X29952701Y22258445D01*
X29952704Y22258438D01*
X30048186Y22093058D01*
X30048193Y22093048D01*
X30175972Y21951135D01*
X30330475Y21838882D01*
X30504939Y21761206D01*
X30691741Y21721500D01*
X30882715Y21721500D01*
X31069516Y21761206D01*
X31243980Y21838882D01*
X31398483Y21951135D01*
X31526262Y22093048D01*
X31526269Y22093058D01*
X31621755Y22258444D01*
X31621758Y22258454D01*
X31624186Y22263905D01*
X31670166Y22318001D01*
X31738093Y22338650D01*
X31765485Y22335904D01*
X31781512Y22332498D01*
X31781513Y22332498D01*
X31972487Y22332498D01*
X32159288Y22372204D01*
X32333752Y22449880D01*
X32488253Y22562132D01*
X32522864Y22600571D01*
X32583310Y22637810D01*
X32654294Y22636458D01*
X32713278Y22596944D01*
X32741536Y22531814D01*
X32742500Y22516260D01*
X32742500Y19343759D01*
X32722498Y19275638D01*
X32710135Y19259447D01*
X32661961Y19205946D01*
X32648718Y19183009D01*
X32566473Y19040556D01*
X32537526Y18951470D01*
X32507457Y18858927D01*
X32487496Y18669000D01*
X32507457Y18479072D01*
X32521940Y18434500D01*
X32549580Y18349434D01*
X32551608Y18278469D01*
X32514946Y18217671D01*
X32451234Y18186346D01*
X32429747Y18184500D01*
X26334224Y18184500D01*
X26266103Y18204502D01*
X26260163Y18208564D01*
X26110752Y18317118D01*
X25936288Y18394794D01*
X25749487Y18434500D01*
X25558513Y18434500D01*
X25371712Y18394794D01*
X25197248Y18317118D01*
X25116097Y18258158D01*
X25042744Y18204864D01*
X24914965Y18062951D01*
X24914958Y18062941D01*
X24872924Y17990135D01*
X24819473Y17897556D01*
X24795529Y17823864D01*
X24760457Y17715927D01*
X24740496Y17526000D01*
X24760457Y17336072D01*
X24819473Y17154445D01*
X24819476Y17154438D01*
X24914958Y16989058D01*
X24914965Y16989048D01*
X25042744Y16847135D01*
X25197247Y16734882D01*
X25371711Y16657206D01*
X25558513Y16617500D01*
X25749487Y16617500D01*
X25936288Y16657206D01*
X26110752Y16734882D01*
X26260163Y16843436D01*
X26327031Y16867294D01*
X26334224Y16867500D01*
X47284389Y16867500D01*
X47300620Y16865708D01*
X47300644Y16865958D01*
X47308536Y16865211D01*
X47379369Y16867438D01*
X47383327Y16867500D01*
X47412429Y16867500D01*
X47412432Y16867500D01*
X47416838Y16868056D01*
X47428655Y16868986D01*
X47474829Y16870437D01*
X47474832Y16870438D01*
X47495429Y16876421D01*
X47514780Y16880428D01*
X47536060Y16883117D01*
X47536061Y16883117D01*
X47579018Y16900124D01*
X47590244Y16903967D01*
X47634597Y16916853D01*
X47634598Y16916853D01*
X47653058Y16927771D01*
X47670811Y16936468D01*
X47690755Y16944364D01*
X47690761Y16944368D01*
X47728123Y16971514D01*
X47738047Y16978033D01*
X47777804Y17001545D01*
X47777807Y17001547D01*
X47792974Y17016714D01*
X47808005Y17029552D01*
X47825356Y17042158D01*
X47854801Y17077751D01*
X47862791Y17086531D01*
X48499855Y17723595D01*
X48562167Y17757621D01*
X48588950Y17760500D01*
X48609487Y17760500D01*
X48796288Y17800206D01*
X48970752Y17877882D01*
X49125255Y17990135D01*
X49253034Y18132048D01*
X49253041Y18132058D01*
X49348527Y18297444D01*
X49407542Y18479072D01*
X49427504Y18669000D01*
X49407542Y18858928D01*
X49348527Y19040556D01*
X49253040Y19205944D01*
X49227679Y19234110D01*
X49125255Y19347864D01*
X49125254Y19347864D01*
X49125253Y19347866D01*
X48970752Y19460118D01*
X48796288Y19537794D01*
X48609487Y19577500D01*
X48418513Y19577500D01*
X48231712Y19537794D01*
X48057248Y19460118D01*
X48057247Y19460117D01*
X47973784Y19399478D01*
X47906916Y19375619D01*
X47837764Y19391700D01*
X47788284Y19442614D01*
X47774185Y19512197D01*
X47781666Y19545442D01*
X47792989Y19575799D01*
X47792989Y19575802D01*
X47792990Y19575803D01*
X47799499Y19636350D01*
X47799500Y19636367D01*
X47799500Y23543632D01*
X47799499Y23543649D01*
X47792990Y23604196D01*
X47792988Y23604204D01*
X47772987Y23657827D01*
X47741889Y23741204D01*
X47736096Y23748942D01*
X47654261Y23858261D01*
X47537207Y23945887D01*
X47537206Y23945887D01*
X47537204Y23945889D01*
X47530350Y23948445D01*
X47473516Y23990990D01*
X47448705Y24057510D01*
X47463796Y24126885D01*
X47513998Y24177087D01*
X47530343Y24184552D01*
X47537204Y24187111D01*
X47537207Y24187112D01*
X47654261Y24274738D01*
X47741887Y24391792D01*
X47741889Y24391797D01*
X47742504Y24393444D01*
X47775555Y24482056D01*
X47792988Y24528795D01*
X47792990Y24528803D01*
X47799499Y24589350D01*
X47799500Y24589367D01*
X47799500Y28496632D01*
X47799499Y28496649D01*
X47792990Y28557196D01*
X47792988Y28557204D01*
X47767945Y28624346D01*
X47741889Y28694204D01*
X47654261Y28811261D01*
X47623964Y28833941D01*
X47537207Y28898887D01*
X47537206Y28898887D01*
X47537204Y28898889D01*
X47400201Y28949989D01*
X47400199Y28949989D01*
X47400196Y28949990D01*
X47339649Y28956499D01*
X47339645Y28956499D01*
X47339638Y28956500D01*
X43432362Y28956500D01*
X43432355Y28956499D01*
X43432350Y28956499D01*
X43371803Y28949990D01*
X43371795Y28949988D01*
X43325384Y28932677D01*
X43234796Y28898889D01*
X43234794Y28898888D01*
X43234792Y28898887D01*
X43117738Y28811261D01*
X43030113Y28694208D01*
X43030113Y28694207D01*
X43030111Y28694204D01*
X43004054Y28624343D01*
X42961509Y28567511D01*
X42894988Y28542700D01*
X42825614Y28557792D01*
X42775412Y28607994D01*
X42767949Y28624334D01*
X42741889Y28694204D01*
X42654261Y28811261D01*
X42623964Y28833941D01*
X42537207Y28898887D01*
X42537206Y28898887D01*
X42537204Y28898889D01*
X42400201Y28949989D01*
X42400199Y28949989D01*
X42400196Y28949990D01*
X42339649Y28956499D01*
X42339645Y28956499D01*
X42339638Y28956500D01*
X38432362Y28956500D01*
X38432355Y28956499D01*
X38432350Y28956499D01*
X38371803Y28949990D01*
X38371795Y28949988D01*
X38325384Y28932677D01*
X38234796Y28898889D01*
X38234794Y28898888D01*
X38234792Y28898887D01*
X38117738Y28811261D01*
X38030112Y28694207D01*
X38030110Y28694202D01*
X37979011Y28557204D01*
X37979009Y28557196D01*
X37972500Y28496649D01*
X37972500Y24589350D01*
X37979009Y24528803D01*
X37979011Y24528795D01*
X38030110Y24391797D01*
X38030112Y24391792D01*
X38117738Y24274738D01*
X38234792Y24187112D01*
X38234795Y24187111D01*
X38241649Y24184555D01*
X38298484Y24142007D01*
X38323294Y24075487D01*
X38308202Y24006113D01*
X38257999Y23955912D01*
X38241649Y23948445D01*
X38234796Y23945889D01*
X38234795Y23945888D01*
X38234792Y23945887D01*
X38117738Y23858261D01*
X38030112Y23741207D01*
X38030110Y23741202D01*
X37979011Y23604204D01*
X37979009Y23604196D01*
X37972500Y23543649D01*
X37972500Y19636350D01*
X37979009Y19575803D01*
X37979011Y19575795D01*
X38030110Y19438797D01*
X38030112Y19438792D01*
X38117738Y19321738D01*
X38234792Y19234112D01*
X38234797Y19234110D01*
X38371795Y19183011D01*
X38371803Y19183009D01*
X38432350Y19176500D01*
X38432362Y19176500D01*
X42339649Y19176500D01*
X42400196Y19183009D01*
X42400204Y19183011D01*
X42537202Y19234110D01*
X42537207Y19234112D01*
X42654261Y19321738D01*
X42741887Y19438792D01*
X42741889Y19438797D01*
X42767945Y19508653D01*
X42810492Y19565489D01*
X42877012Y19590299D01*
X42946386Y19575207D01*
X42996588Y19525005D01*
X43004055Y19508653D01*
X43030110Y19438797D01*
X43030112Y19438792D01*
X43117738Y19321738D01*
X43234792Y19234112D01*
X43234797Y19234110D01*
X43371795Y19183011D01*
X43371803Y19183009D01*
X43432350Y19176500D01*
X43432362Y19176500D01*
X47339649Y19176500D01*
X47400196Y19183009D01*
X47400204Y19183011D01*
X47532531Y19232368D01*
X47603346Y19237434D01*
X47665659Y19203409D01*
X47699684Y19141097D01*
X47694620Y19070281D01*
X47685684Y19051315D01*
X47685214Y19050500D01*
X47679473Y19040556D01*
X47620458Y18858928D01*
X47620458Y18858927D01*
X47607245Y18733214D01*
X47580231Y18667557D01*
X47571030Y18657290D01*
X47135145Y18221405D01*
X47072833Y18187379D01*
X47046050Y18184500D01*
X34372253Y18184500D01*
X34304132Y18204502D01*
X34257639Y18258158D01*
X34247535Y18328432D01*
X34252418Y18349429D01*
X34294542Y18479072D01*
X34314504Y18669000D01*
X34294542Y18858928D01*
X34235527Y19040556D01*
X34140040Y19205944D01*
X34091864Y19259447D01*
X34061147Y19323454D01*
X34059500Y19343759D01*
X34059500Y23043376D01*
X34061291Y23059607D01*
X34061042Y23059631D01*
X34061788Y23067523D01*
X34059562Y23138356D01*
X34059500Y23142314D01*
X34059500Y23171412D01*
X34059500Y23171419D01*
X34058942Y23175829D01*
X34058012Y23187654D01*
X34057297Y23210412D01*
X34056562Y23233818D01*
X34050581Y23254405D01*
X34046570Y23273769D01*
X34043882Y23295051D01*
X34026870Y23338014D01*
X34023030Y23349233D01*
X34010145Y23393588D01*
X33999228Y23412045D01*
X33990529Y23429801D01*
X33982635Y23449743D01*
X33955475Y23487123D01*
X33948965Y23497035D01*
X33925452Y23536794D01*
X33910289Y23551956D01*
X33897453Y23566984D01*
X33884841Y23584344D01*
X33849223Y23613807D01*
X33840476Y23621768D01*
X33835967Y23626277D01*
X33801943Y23688587D01*
X33799754Y23702201D01*
X33795655Y23741207D01*
X33786542Y23827915D01*
X33727527Y24009543D01*
X33632040Y24174931D01*
X33512062Y24308179D01*
X33481347Y24372185D01*
X33485866Y24431421D01*
X33532542Y24575072D01*
X33552504Y24765000D01*
X33532542Y24954928D01*
X33473527Y25136556D01*
X33378040Y25301944D01*
X33347859Y25335463D01*
X33250256Y25443863D01*
X33250255Y25443863D01*
X33250253Y25443866D01*
X33125215Y25534711D01*
X33081863Y25590931D01*
X33075787Y25661667D01*
X33108919Y25724459D01*
X33110183Y25725740D01*
X36218383Y28833941D01*
X36231133Y28844157D01*
X36230974Y28844350D01*
X36237080Y28849401D01*
X36285618Y28901089D01*
X36288342Y28903900D01*
X36308926Y28924484D01*
X36311644Y28927989D01*
X36319346Y28937006D01*
X36350969Y28970681D01*
X36350971Y28970683D01*
X36354170Y28976502D01*
X36361303Y28989477D01*
X36372158Y29006001D01*
X36385305Y29022949D01*
X36385305Y29022950D01*
X36403652Y29065347D01*
X36408875Y29076008D01*
X36431121Y29116474D01*
X36431122Y29116476D01*
X36431124Y29116480D01*
X36436458Y29137257D01*
X36442857Y29155949D01*
X36451379Y29175640D01*
X36458606Y29221271D01*
X36461006Y29232867D01*
X36472500Y29277629D01*
X36472500Y29299074D01*
X36474051Y29318784D01*
X36476602Y29334893D01*
X36477406Y29339968D01*
X36473058Y29385956D01*
X36472500Y29397812D01*
X36472500Y30313240D01*
X36492502Y30381361D01*
X36504864Y30397550D01*
X36553034Y30451048D01*
X36553041Y30451058D01*
X36553043Y30451062D01*
X36648527Y30616444D01*
X36707542Y30798072D01*
X36727504Y30988000D01*
X36707542Y31177928D01*
X36648527Y31359556D01*
X36553040Y31524944D01*
X36553028Y31524957D01*
X36425255Y31666864D01*
X36425254Y31666864D01*
X36425253Y31666866D01*
X36270752Y31779118D01*
X36096288Y31856794D01*
X35909487Y31896500D01*
X35718513Y31896500D01*
X35531712Y31856794D01*
X35357248Y31779118D01*
X35357247Y31779117D01*
X35202744Y31666864D01*
X35074965Y31524951D01*
X35074960Y31524944D01*
X34979473Y31359556D01*
X34950526Y31270470D01*
X34920457Y31177927D01*
X34900496Y30988000D01*
X34920457Y30798072D01*
X34961685Y30671189D01*
X34975058Y30630031D01*
X34979473Y30616445D01*
X34979476Y30616438D01*
X35074958Y30451058D01*
X35074965Y30451048D01*
X35123136Y30397550D01*
X35153854Y30333543D01*
X35155500Y30313240D01*
X35155500Y29685766D01*
X35135498Y29617645D01*
X35118595Y29596671D01*
X32083567Y26561644D01*
X32021258Y26527620D01*
X31950443Y26532685D01*
X31893607Y26575232D01*
X31868796Y26641752D01*
X31868475Y26650741D01*
X31868475Y28599025D01*
X31888477Y28667146D01*
X31905380Y28688120D01*
X33259855Y30042595D01*
X33322167Y30076621D01*
X33348950Y30079500D01*
X33369487Y30079500D01*
X33556288Y30119206D01*
X33730752Y30196882D01*
X33885255Y30309135D01*
X34013034Y30451048D01*
X34013041Y30451058D01*
X34013043Y30451062D01*
X34108527Y30616444D01*
X34167542Y30798072D01*
X34187504Y30988000D01*
X34167542Y31177928D01*
X34108527Y31359556D01*
X34013040Y31524944D01*
X34013028Y31524957D01*
X33885255Y31666864D01*
X33885254Y31666864D01*
X33885253Y31666866D01*
X33730752Y31779118D01*
X33556288Y31856794D01*
X33369487Y31896500D01*
X33178513Y31896500D01*
X32991712Y31856794D01*
X32817248Y31779118D01*
X32817247Y31779117D01*
X32662744Y31666864D01*
X32534965Y31524951D01*
X32534960Y31524944D01*
X32439473Y31359556D01*
X32399084Y31235255D01*
X32380460Y31177933D01*
X32380458Y31177928D01*
X32367245Y31052214D01*
X32340231Y30986557D01*
X32331030Y30976290D01*
X31695231Y30340491D01*
X31632919Y30306465D01*
X31562104Y30311530D01*
X31505268Y30354077D01*
X31480457Y30420597D01*
X31495548Y30489971D01*
X31497017Y30492586D01*
X31568527Y30616444D01*
X31627542Y30798072D01*
X31647504Y30988000D01*
X31627542Y31177928D01*
X31568527Y31359556D01*
X31473040Y31524944D01*
X31473028Y31524957D01*
X31345255Y31666864D01*
X31345254Y31666864D01*
X31345253Y31666866D01*
X31190752Y31779118D01*
X31016288Y31856794D01*
X30829487Y31896500D01*
X30638513Y31896500D01*
X30451712Y31856794D01*
X30277248Y31779118D01*
X30277247Y31779117D01*
X30122744Y31666864D01*
X29994965Y31524951D01*
X29994960Y31524944D01*
X29899473Y31359556D01*
X29859084Y31235255D01*
X29840460Y31177933D01*
X29840458Y31177928D01*
X29832225Y31099603D01*
X29826717Y31047199D01*
X29801111Y30984964D01*
X29801688Y30984546D01*
X29799961Y30982169D01*
X29799703Y30981542D01*
X29798490Y30980145D01*
X29797024Y30978128D01*
X29786695Y30959339D01*
X29775844Y30942819D01*
X29762696Y30925868D01*
X29744347Y30883466D01*
X29739127Y30872811D01*
X29730007Y30856222D01*
X29716877Y30832339D01*
X29716876Y30832336D01*
X29711544Y30811569D01*
X29705141Y30792866D01*
X29696620Y30773175D01*
X29689395Y30727553D01*
X29686988Y30715930D01*
X29675501Y30671188D01*
X29675501Y30649742D01*
X29673950Y30630031D01*
X29670595Y30608848D01*
X29674942Y30562860D01*
X29675501Y30551003D01*
X29675501Y26496071D01*
X29655499Y26427950D01*
X29601843Y26381457D01*
X29531569Y26371353D01*
X29466989Y26400847D01*
X29460406Y26406976D01*
X28889405Y26977977D01*
X28855379Y27040289D01*
X28852500Y27067072D01*
X28852500Y30313240D01*
X28872502Y30381361D01*
X28884864Y30397550D01*
X28933034Y30451048D01*
X28933041Y30451058D01*
X28933043Y30451062D01*
X29028527Y30616444D01*
X29087542Y30798072D01*
X29107504Y30988000D01*
X29087542Y31177928D01*
X29028527Y31359556D01*
X28933040Y31524944D01*
X28933028Y31524957D01*
X28805255Y31666864D01*
X28805254Y31666864D01*
X28805253Y31666866D01*
X28650752Y31779118D01*
X28476288Y31856794D01*
X28289487Y31896500D01*
X28098513Y31896500D01*
X27911712Y31856794D01*
X27737248Y31779118D01*
X27737247Y31779117D01*
X27582744Y31666864D01*
X27454965Y31524951D01*
X27454960Y31524944D01*
X27359473Y31359556D01*
X27330526Y31270470D01*
X27300457Y31177927D01*
X27280496Y30988000D01*
X27300457Y30798072D01*
X27341685Y30671189D01*
X27355058Y30630031D01*
X27359473Y30616445D01*
X27359476Y30616438D01*
X27454958Y30451058D01*
X27454965Y30451048D01*
X27503136Y30397550D01*
X27533854Y30333543D01*
X27535500Y30313240D01*
X27535500Y27928950D01*
X27515498Y27860829D01*
X27461842Y27814336D01*
X27391568Y27804232D01*
X27326988Y27833726D01*
X27320405Y27839855D01*
X26349405Y28810855D01*
X26315379Y28873167D01*
X26312500Y28899950D01*
X26312500Y30313240D01*
X26332502Y30381361D01*
X26344864Y30397550D01*
X26393034Y30451048D01*
X26393041Y30451058D01*
X26393043Y30451062D01*
X26488527Y30616444D01*
X26547542Y30798072D01*
X26567504Y30988000D01*
X26547542Y31177928D01*
X26488527Y31359556D01*
X26393040Y31524944D01*
X26393028Y31524957D01*
X26265255Y31666864D01*
X26265254Y31666864D01*
X26265253Y31666866D01*
X26110752Y31779118D01*
X25936288Y31856794D01*
X25749487Y31896500D01*
X25558513Y31896500D01*
X25371712Y31856794D01*
X25197248Y31779118D01*
X25197247Y31779117D01*
X25042744Y31666864D01*
X24914965Y31524951D01*
X24914960Y31524944D01*
X24819473Y31359556D01*
X24790526Y31270470D01*
X24760457Y31177927D01*
X24740496Y30988000D01*
X24760457Y30798072D01*
X24801685Y30671189D01*
X24815058Y30630031D01*
X24819473Y30616445D01*
X24819476Y30616438D01*
X24914958Y30451058D01*
X24914965Y30451048D01*
X24963136Y30397550D01*
X24993854Y30333543D01*
X24995500Y30313240D01*
X24995500Y28661611D01*
X24993707Y28645382D01*
X24993958Y28645359D01*
X24993211Y28637465D01*
X24995438Y28566629D01*
X24995500Y28562671D01*
X24995500Y28533569D01*
X24996056Y28529165D01*
X24996986Y28517345D01*
X24998437Y28471172D01*
X24998437Y28471170D01*
X24998438Y28471169D01*
X25004421Y28450574D01*
X25008428Y28431221D01*
X25011116Y28409940D01*
X25011118Y28409934D01*
X25028126Y28366974D01*
X25031969Y28355749D01*
X25044852Y28311406D01*
X25044855Y28311399D01*
X25055773Y28292937D01*
X25064466Y28275191D01*
X25072362Y28255248D01*
X25072364Y28255245D01*
X25099517Y28217872D01*
X25106032Y28207953D01*
X25129546Y28168194D01*
X25144717Y28153022D01*
X25157550Y28137996D01*
X25170157Y28120644D01*
X25170158Y28120643D01*
X25205758Y28091191D01*
X25214534Y28083204D01*
X26407144Y26890595D01*
X26441169Y26828283D01*
X26436105Y26757468D01*
X26393558Y26700632D01*
X26327038Y26675821D01*
X26318049Y26675500D01*
X24510000Y26675500D01*
X24509991Y26675499D01*
X24509990Y26675499D01*
X24503796Y26674833D01*
X24400851Y26663766D01*
X24400842Y26663764D01*
X24400840Y26663764D01*
X24364663Y26655894D01*
X24348509Y26652380D01*
X24296073Y26634927D01*
X24244345Y26617711D01*
X24244343Y26617710D01*
X24121388Y26538692D01*
X24121386Y26538690D01*
X24121384Y26538689D01*
X24070300Y26494424D01*
X24068077Y26492600D01*
X23972019Y26381741D01*
X23972017Y26381738D01*
X23911301Y26248789D01*
X23894592Y26191881D01*
X23891300Y26180669D01*
X23870500Y26036000D01*
X23870500Y26035996D01*
X23870500Y20191990D01*
X12700500Y20191990D01*
X12700500Y23543632D01*
X12700499Y23543649D01*
X12693990Y23604196D01*
X12693988Y23604204D01*
X12673987Y23657827D01*
X12642889Y23741204D01*
X12637096Y23748942D01*
X12555261Y23858261D01*
X12438207Y23945887D01*
X12438206Y23945887D01*
X12438204Y23945889D01*
X12431350Y23948445D01*
X12374516Y23990990D01*
X12349705Y24057510D01*
X12364796Y24126885D01*
X12414998Y24177087D01*
X12431343Y24184552D01*
X12438204Y24187111D01*
X12438207Y24187112D01*
X12555261Y24274738D01*
X12642887Y24391792D01*
X12642889Y24391797D01*
X12643504Y24393444D01*
X12676555Y24482056D01*
X12693988Y24528795D01*
X12693990Y24528803D01*
X12700499Y24589350D01*
X12700500Y24589367D01*
X12700500Y28496632D01*
X12700499Y28496649D01*
X12693990Y28557196D01*
X12693988Y28557204D01*
X12668945Y28624346D01*
X12642889Y28694204D01*
X12555261Y28811261D01*
X12524964Y28833941D01*
X12438207Y28898887D01*
X12438206Y28898887D01*
X12438204Y28898889D01*
X12301201Y28949989D01*
X12301199Y28949989D01*
X12301196Y28949990D01*
X12240649Y28956499D01*
X12240645Y28956499D01*
X12240638Y28956500D01*
X12240632Y28956500D01*
X8728950Y28956500D01*
X8660829Y28976502D01*
X8614336Y29030158D01*
X8604232Y29100432D01*
X8633726Y29165012D01*
X8639855Y29171595D01*
X8875855Y29407595D01*
X8938167Y29441621D01*
X8964950Y29444500D01*
X8985487Y29444500D01*
X9172288Y29484206D01*
X9346752Y29561882D01*
X9501255Y29674135D01*
X9629034Y29816048D01*
X9629041Y29816058D01*
X9724527Y29981444D01*
X9783542Y30163072D01*
X9803504Y30353000D01*
X9783542Y30542928D01*
X9724527Y30724556D01*
X9629040Y30889944D01*
X9616561Y30903803D01*
X9540750Y30988000D01*
X14453496Y30988000D01*
X14473457Y30798072D01*
X14514685Y30671189D01*
X14528058Y30630031D01*
X14532473Y30616445D01*
X14532476Y30616438D01*
X14627958Y30451058D01*
X14627965Y30451048D01*
X14676136Y30397550D01*
X14706854Y30333543D01*
X14708500Y30313240D01*
X14708500Y25359611D01*
X14706707Y25343382D01*
X14706958Y25343359D01*
X14706211Y25335465D01*
X14708438Y25264629D01*
X14708500Y25260671D01*
X14708500Y25231569D01*
X14709056Y25227165D01*
X14709986Y25215345D01*
X14711437Y25169172D01*
X14711438Y25169170D01*
X14717421Y25148574D01*
X14721428Y25129221D01*
X14724116Y25107940D01*
X14724118Y25107934D01*
X14741126Y25064974D01*
X14744969Y25053749D01*
X14757852Y25009406D01*
X14757855Y25009399D01*
X14768773Y24990937D01*
X14777466Y24973191D01*
X14785362Y24953248D01*
X14785364Y24953245D01*
X14812517Y24915872D01*
X14819032Y24905953D01*
X14842546Y24866194D01*
X14857717Y24851022D01*
X14870550Y24835996D01*
X14883157Y24818644D01*
X14883158Y24818643D01*
X14918758Y24789191D01*
X14927534Y24781204D01*
X15567030Y24141708D01*
X15601056Y24079396D01*
X15603244Y24065784D01*
X15616458Y23940072D01*
X15616458Y23940069D01*
X15616459Y23940068D01*
X15675473Y23758445D01*
X15675476Y23758438D01*
X15770958Y23593058D01*
X15770965Y23593048D01*
X15898744Y23451135D01*
X16053247Y23338882D01*
X16227711Y23261206D01*
X16414513Y23221500D01*
X16605487Y23221500D01*
X16792288Y23261206D01*
X16966752Y23338882D01*
X17121255Y23451135D01*
X17249034Y23593048D01*
X17249036Y23593051D01*
X17249040Y23593056D01*
X17293269Y23669663D01*
X17344652Y23718656D01*
X17414366Y23732091D01*
X17428572Y23729911D01*
X17430504Y23729500D01*
X17430513Y23729500D01*
X17621487Y23729500D01*
X17808288Y23769206D01*
X17982752Y23846882D01*
X18137255Y23959135D01*
X18265034Y24101048D01*
X18265041Y24101058D01*
X18270295Y24110158D01*
X18360527Y24266444D01*
X18419542Y24448072D01*
X18439504Y24638000D01*
X18419542Y24827928D01*
X18360527Y25009556D01*
X18355074Y25019000D01*
X18771496Y25019000D01*
X18791457Y24829072D01*
X18850473Y24647445D01*
X18850476Y24647438D01*
X18945958Y24482058D01*
X18945965Y24482048D01*
X19073744Y24340135D01*
X19228247Y24227882D01*
X19402711Y24150206D01*
X19589513Y24110500D01*
X19780487Y24110500D01*
X19967288Y24150206D01*
X20141752Y24227882D01*
X20296252Y24340133D01*
X20309830Y24355213D01*
X20347569Y24397127D01*
X20408014Y24434366D01*
X20478998Y24433015D01*
X20492452Y24427923D01*
X20545707Y24404213D01*
X20604124Y24391796D01*
X20732513Y24364506D01*
X20923487Y24364506D01*
X21110288Y24404212D01*
X21284752Y24481888D01*
X21439255Y24594141D01*
X21567034Y24736054D01*
X21567041Y24736064D01*
X21614718Y24818643D01*
X21662527Y24901450D01*
X21721542Y25083078D01*
X21741504Y25273006D01*
X21721542Y25462934D01*
X21662527Y25644562D01*
X21567040Y25809950D01*
X21518864Y25863453D01*
X21488147Y25927460D01*
X21486500Y25947765D01*
X21486500Y28377050D01*
X21506502Y28445171D01*
X21523405Y28466145D01*
X23099855Y30042595D01*
X23162167Y30076621D01*
X23188950Y30079500D01*
X23209487Y30079500D01*
X23396288Y30119206D01*
X23570752Y30196882D01*
X23725255Y30309135D01*
X23853034Y30451048D01*
X23853041Y30451058D01*
X23853043Y30451062D01*
X23948527Y30616444D01*
X24007542Y30798072D01*
X24027504Y30988000D01*
X24007542Y31177928D01*
X23948527Y31359556D01*
X23853040Y31524944D01*
X23853028Y31524957D01*
X23725255Y31666864D01*
X23725254Y31666864D01*
X23725253Y31666866D01*
X23570752Y31779118D01*
X23396288Y31856794D01*
X23209487Y31896500D01*
X23018513Y31896500D01*
X22831712Y31856794D01*
X22657248Y31779118D01*
X22657247Y31779117D01*
X22502744Y31666864D01*
X22374965Y31524951D01*
X22374960Y31524944D01*
X22279473Y31359556D01*
X22250526Y31270470D01*
X22220457Y31177927D01*
X22207244Y31052212D01*
X22180230Y30986555D01*
X22171031Y30976290D01*
X20558592Y29363852D01*
X20496283Y29329828D01*
X20425468Y29334893D01*
X20368632Y29377440D01*
X20343821Y29443960D01*
X20343500Y29452949D01*
X20343500Y29901056D01*
X20363502Y29969177D01*
X20380405Y29990151D01*
X20432855Y30042601D01*
X20495167Y30076627D01*
X20521950Y30079506D01*
X20542487Y30079506D01*
X20729288Y30119212D01*
X20903752Y30196888D01*
X21058255Y30309141D01*
X21186034Y30451054D01*
X21186041Y30451064D01*
X21232668Y30531824D01*
X21281527Y30616450D01*
X21340542Y30798078D01*
X21360504Y30988006D01*
X21340542Y31177934D01*
X21281527Y31359562D01*
X21186040Y31524950D01*
X21058258Y31666866D01*
X21058255Y31666870D01*
X21058254Y31666870D01*
X21058253Y31666872D01*
X20903752Y31779124D01*
X20729288Y31856800D01*
X20542487Y31896506D01*
X20351513Y31896506D01*
X20164712Y31856800D01*
X19990248Y31779124D01*
X19896999Y31711374D01*
X19835744Y31666870D01*
X19707965Y31524957D01*
X19707958Y31524947D01*
X19707955Y31524941D01*
X19612473Y31359562D01*
X19553458Y31177934D01*
X19549904Y31144118D01*
X19540245Y31052220D01*
X19513231Y30986563D01*
X19504030Y30976296D01*
X19280615Y30752881D01*
X19267869Y30742670D01*
X19268030Y30742477D01*
X19261921Y30737423D01*
X19213395Y30685748D01*
X19210670Y30682936D01*
X19198923Y30671189D01*
X19190075Y30662341D01*
X19190066Y30662331D01*
X19187353Y30658833D01*
X19179646Y30649809D01*
X19148028Y30616139D01*
X19148027Y30616137D01*
X19148023Y30616131D01*
X19137694Y30597344D01*
X19126843Y30580824D01*
X19113696Y30563874D01*
X19112645Y30562097D01*
X19111458Y30560989D01*
X19108839Y30557612D01*
X19108293Y30558034D01*
X19064311Y30516972D01*
X19066741Y30465971D01*
X19066335Y30464343D01*
X19062544Y30449577D01*
X19056140Y30430871D01*
X19047619Y30411180D01*
X19040394Y30365558D01*
X19037987Y30353935D01*
X19026500Y30309193D01*
X19026500Y30287747D01*
X19024949Y30268036D01*
X19021594Y30246853D01*
X19025941Y30200865D01*
X19026500Y30189008D01*
X19026500Y25693759D01*
X19006498Y25625638D01*
X18994136Y25609449D01*
X18983783Y25597950D01*
X18945961Y25555946D01*
X18945960Y25555944D01*
X18850473Y25390556D01*
X18835898Y25345698D01*
X18791457Y25208927D01*
X18771496Y25019000D01*
X18355074Y25019000D01*
X18265040Y25174944D01*
X18216864Y25228447D01*
X18186147Y25292454D01*
X18184500Y25312759D01*
X18184500Y29989160D01*
X18204502Y30057281D01*
X18258158Y30103774D01*
X18284302Y30112406D01*
X18316284Y30119204D01*
X18490752Y30196882D01*
X18645255Y30309135D01*
X18773034Y30451048D01*
X18773041Y30451058D01*
X18773043Y30451062D01*
X18835175Y30558677D01*
X18883994Y30605226D01*
X18882065Y30657233D01*
X18884360Y30665174D01*
X18927542Y30798072D01*
X18947504Y30988000D01*
X18927542Y31177928D01*
X18868527Y31359556D01*
X18773040Y31524944D01*
X18773028Y31524957D01*
X18645255Y31666864D01*
X18645254Y31666864D01*
X18645253Y31666866D01*
X18490752Y31779118D01*
X18316288Y31856794D01*
X18129487Y31896500D01*
X17938513Y31896500D01*
X17751712Y31856794D01*
X17577248Y31779118D01*
X17577247Y31779117D01*
X17422744Y31666864D01*
X17294965Y31524951D01*
X17294960Y31524944D01*
X17199473Y31359556D01*
X17170526Y31270470D01*
X17140457Y31177927D01*
X17127547Y31055092D01*
X17100534Y30989435D01*
X17094087Y30982010D01*
X17054393Y30939740D01*
X17051668Y30936928D01*
X17040609Y30925869D01*
X17031075Y30916335D01*
X17031066Y30916325D01*
X17028353Y30912827D01*
X17020646Y30903803D01*
X16989028Y30870133D01*
X16989027Y30870131D01*
X16989023Y30870125D01*
X16978694Y30851338D01*
X16967843Y30834818D01*
X16954695Y30817867D01*
X16936346Y30775465D01*
X16931123Y30764804D01*
X16908876Y30724338D01*
X16908875Y30724335D01*
X16903543Y30703568D01*
X16897140Y30684865D01*
X16888619Y30665174D01*
X16881394Y30619552D01*
X16878987Y30607929D01*
X16867500Y30563187D01*
X16867500Y30541741D01*
X16865949Y30522030D01*
X16862594Y30500847D01*
X16866941Y30454859D01*
X16867500Y30443002D01*
X16867500Y25312759D01*
X16847498Y25244638D01*
X16835138Y25228450D01*
X16823338Y25215345D01*
X16786960Y25174944D01*
X16786958Y25174941D01*
X16742730Y25098336D01*
X16691347Y25049342D01*
X16621633Y25035907D01*
X16607422Y25038088D01*
X16605487Y25038500D01*
X16605483Y25038500D01*
X16584950Y25038500D01*
X16516829Y25058502D01*
X16495855Y25075405D01*
X16062405Y25508855D01*
X16028379Y25571167D01*
X16025500Y25597950D01*
X16025500Y30313240D01*
X16045502Y30381361D01*
X16057864Y30397550D01*
X16106034Y30451048D01*
X16106041Y30451058D01*
X16106043Y30451062D01*
X16201527Y30616444D01*
X16260542Y30798072D01*
X16280504Y30988000D01*
X16260542Y31177928D01*
X16201527Y31359556D01*
X16106040Y31524944D01*
X16106028Y31524957D01*
X15978255Y31666864D01*
X15978254Y31666864D01*
X15978253Y31666866D01*
X15823752Y31779118D01*
X15649288Y31856794D01*
X15462487Y31896500D01*
X15271513Y31896500D01*
X15084712Y31856794D01*
X14910248Y31779118D01*
X14910247Y31779117D01*
X14755744Y31666864D01*
X14627965Y31524951D01*
X14627960Y31524944D01*
X14532473Y31359556D01*
X14503526Y31270470D01*
X14473457Y31177927D01*
X14453496Y30988000D01*
X9540750Y30988000D01*
X9501255Y31031864D01*
X9501254Y31031864D01*
X9501253Y31031866D01*
X9346752Y31144118D01*
X9172288Y31221794D01*
X8985487Y31261500D01*
X8794513Y31261500D01*
X8607712Y31221794D01*
X8433248Y31144118D01*
X8433247Y31144117D01*
X8278744Y31031864D01*
X8150965Y30889951D01*
X8150960Y30889944D01*
X8055473Y30724556D01*
X8027942Y30639825D01*
X7999082Y30551003D01*
X7996458Y30542928D01*
X7983245Y30417214D01*
X7956231Y30351557D01*
X7947030Y30341290D01*
X7342615Y29736875D01*
X7329869Y29726664D01*
X7330030Y29726471D01*
X7323921Y29721417D01*
X7323920Y29721416D01*
X7279520Y29674135D01*
X7275395Y29669742D01*
X7272670Y29666930D01*
X7252075Y29646335D01*
X7252066Y29646325D01*
X7249353Y29642827D01*
X7241646Y29633803D01*
X7210028Y29600133D01*
X7210027Y29600131D01*
X7210023Y29600125D01*
X7199694Y29581338D01*
X7188843Y29564818D01*
X7175695Y29547867D01*
X7157346Y29505465D01*
X7152126Y29494810D01*
X7143006Y29478221D01*
X7129876Y29454338D01*
X7129875Y29454335D01*
X7124543Y29433568D01*
X7118140Y29414865D01*
X7109619Y29395174D01*
X7102394Y29349552D01*
X7099987Y29337929D01*
X7088500Y29293187D01*
X7088500Y29271741D01*
X7086949Y29252030D01*
X7083594Y29230847D01*
X7087941Y29184859D01*
X7088500Y29173002D01*
X7088500Y29082500D01*
X7068498Y29014379D01*
X7014842Y28967886D01*
X6962500Y28956500D01*
X3333362Y28956500D01*
X3333355Y28956499D01*
X3333350Y28956499D01*
X3272803Y28949990D01*
X3272795Y28949988D01*
X3226384Y28932677D01*
X3135796Y28898889D01*
X3135794Y28898888D01*
X3135792Y28898887D01*
X3018738Y28811261D01*
X2931112Y28694207D01*
X2931110Y28694202D01*
X2880011Y28557204D01*
X2880009Y28557196D01*
X2873500Y28496649D01*
X2873500Y24589350D01*
X2880009Y24528803D01*
X2880011Y24528795D01*
X2931110Y24391797D01*
X2931112Y24391792D01*
X3018738Y24274738D01*
X3135792Y24187112D01*
X3135795Y24187111D01*
X3142649Y24184555D01*
X3199484Y24142007D01*
X3224294Y24075487D01*
X3209202Y24006113D01*
X3158999Y23955912D01*
X3142649Y23948445D01*
X3135796Y23945889D01*
X3135795Y23945888D01*
X3135792Y23945887D01*
X3018738Y23858261D01*
X2931112Y23741207D01*
X2931110Y23741202D01*
X2880011Y23604204D01*
X2880009Y23604196D01*
X2873500Y23543649D01*
X2873500Y19636350D01*
X329500Y19636350D01*
X329500Y33606350D01*
X14096500Y33606350D01*
X14103009Y33545803D01*
X14103011Y33545795D01*
X14154110Y33408797D01*
X14154112Y33408792D01*
X14241738Y33291738D01*
X14358792Y33204112D01*
X14358797Y33204110D01*
X14495795Y33153011D01*
X14495803Y33153009D01*
X14556350Y33146500D01*
X14556362Y33146500D01*
X16177649Y33146500D01*
X16238196Y33153009D01*
X16238204Y33153011D01*
X16375202Y33204110D01*
X16375207Y33204112D01*
X16492261Y33291738D01*
X16579887Y33408792D01*
X16579888Y33408795D01*
X16579889Y33408796D01*
X16582445Y33415649D01*
X16624993Y33472484D01*
X16691513Y33497294D01*
X16760887Y33482202D01*
X16811088Y33431999D01*
X16818555Y33415649D01*
X16821111Y33408795D01*
X16821112Y33408792D01*
X16908738Y33291738D01*
X17025792Y33204112D01*
X17025797Y33204110D01*
X17162795Y33153011D01*
X17162803Y33153009D01*
X17223350Y33146500D01*
X17223362Y33146500D01*
X18844649Y33146500D01*
X18905196Y33153009D01*
X18905204Y33153011D01*
X19042202Y33204110D01*
X19042207Y33204112D01*
X19159261Y33291739D01*
X19203133Y33350343D01*
X19259969Y33392889D01*
X19330784Y33397953D01*
X19393096Y33363928D01*
X19404867Y33350343D01*
X19448738Y33291739D01*
X19565792Y33204112D01*
X19565797Y33204110D01*
X19702795Y33153011D01*
X19702803Y33153009D01*
X19763350Y33146500D01*
X19763362Y33146500D01*
X21384649Y33146500D01*
X21445196Y33153009D01*
X21445204Y33153011D01*
X21582202Y33204110D01*
X21582207Y33204112D01*
X21699261Y33291739D01*
X21743133Y33350343D01*
X21799969Y33392889D01*
X21870784Y33397953D01*
X21933096Y33363928D01*
X21944867Y33350343D01*
X21988738Y33291739D01*
X22105792Y33204112D01*
X22105797Y33204110D01*
X22242795Y33153011D01*
X22242803Y33153009D01*
X22303350Y33146500D01*
X22303362Y33146500D01*
X23924649Y33146500D01*
X23985196Y33153009D01*
X23985204Y33153011D01*
X24122202Y33204110D01*
X24122207Y33204112D01*
X24239261Y33291739D01*
X24283133Y33350343D01*
X24339969Y33392889D01*
X24410784Y33397953D01*
X24473096Y33363928D01*
X24484867Y33350343D01*
X24528738Y33291739D01*
X24645792Y33204112D01*
X24645797Y33204110D01*
X24782795Y33153011D01*
X24782803Y33153009D01*
X24843350Y33146500D01*
X24843362Y33146500D01*
X26464649Y33146500D01*
X26525196Y33153009D01*
X26525204Y33153011D01*
X26662202Y33204110D01*
X26662207Y33204112D01*
X26779261Y33291739D01*
X26823133Y33350343D01*
X26879969Y33392889D01*
X26950784Y33397953D01*
X27013096Y33363928D01*
X27024867Y33350343D01*
X27068738Y33291739D01*
X27185792Y33204112D01*
X27185797Y33204110D01*
X27322795Y33153011D01*
X27322803Y33153009D01*
X27383350Y33146500D01*
X27383362Y33146500D01*
X29004649Y33146500D01*
X29065196Y33153009D01*
X29065204Y33153011D01*
X29202202Y33204110D01*
X29202207Y33204112D01*
X29319261Y33291739D01*
X29363133Y33350343D01*
X29419969Y33392889D01*
X29490784Y33397953D01*
X29553096Y33363928D01*
X29564867Y33350343D01*
X29608738Y33291739D01*
X29725792Y33204112D01*
X29725797Y33204110D01*
X29862795Y33153011D01*
X29862803Y33153009D01*
X29923350Y33146500D01*
X29923362Y33146500D01*
X31544649Y33146500D01*
X31605196Y33153009D01*
X31605204Y33153011D01*
X31742202Y33204110D01*
X31742207Y33204112D01*
X31859261Y33291739D01*
X31903133Y33350343D01*
X31959969Y33392889D01*
X32030784Y33397953D01*
X32093096Y33363928D01*
X32104867Y33350343D01*
X32148738Y33291739D01*
X32265792Y33204112D01*
X32265797Y33204110D01*
X32402795Y33153011D01*
X32402803Y33153009D01*
X32463350Y33146500D01*
X32463362Y33146500D01*
X34084649Y33146500D01*
X34145196Y33153009D01*
X34145204Y33153011D01*
X34282202Y33204110D01*
X34282207Y33204112D01*
X34399261Y33291739D01*
X34443133Y33350343D01*
X34499969Y33392889D01*
X34570784Y33397953D01*
X34633096Y33363928D01*
X34644867Y33350343D01*
X34688738Y33291739D01*
X34805792Y33204112D01*
X34805797Y33204110D01*
X34942795Y33153011D01*
X34942803Y33153009D01*
X35003350Y33146500D01*
X35003362Y33146500D01*
X36624649Y33146500D01*
X36685196Y33153009D01*
X36685204Y33153011D01*
X36822202Y33204110D01*
X36822207Y33204112D01*
X36939261Y33291738D01*
X37026887Y33408792D01*
X37026889Y33408797D01*
X37077988Y33545795D01*
X37077990Y33545803D01*
X37084499Y33606350D01*
X37084500Y33606367D01*
X37084500Y35227632D01*
X37084499Y35227649D01*
X37077990Y35288196D01*
X37077988Y35288204D01*
X37054269Y35351796D01*
X37026889Y35425204D01*
X36939261Y35542261D01*
X36880657Y35586132D01*
X36838110Y35642968D01*
X36833046Y35713784D01*
X36867071Y35776096D01*
X36880657Y35787868D01*
X36939261Y35831738D01*
X37026887Y35948792D01*
X37026889Y35948797D01*
X37077988Y36085795D01*
X37077990Y36085803D01*
X37084499Y36146350D01*
X37084500Y36146367D01*
X37084500Y37767632D01*
X37084499Y37767649D01*
X37077990Y37828196D01*
X37077988Y37828204D01*
X37054269Y37891796D01*
X37026889Y37965204D01*
X36939261Y38082261D01*
X36822204Y38169889D01*
X36685201Y38220989D01*
X36685199Y38220989D01*
X36685196Y38220990D01*
X36624649Y38227499D01*
X36624645Y38227499D01*
X36624638Y38227500D01*
X35003362Y38227500D01*
X35003355Y38227499D01*
X35003350Y38227499D01*
X34942803Y38220990D01*
X34942795Y38220988D01*
X34864875Y38191924D01*
X34805796Y38169889D01*
X34805794Y38169888D01*
X34805792Y38169887D01*
X34688738Y38082261D01*
X34644868Y38023657D01*
X34588032Y37981110D01*
X34517216Y37976046D01*
X34454904Y38010071D01*
X34443132Y38023657D01*
X34399261Y38082261D01*
X34282207Y38169887D01*
X34282206Y38169887D01*
X34282204Y38169889D01*
X34145201Y38220989D01*
X34145199Y38220989D01*
X34145196Y38220990D01*
X34084649Y38227499D01*
X34084645Y38227499D01*
X34084638Y38227500D01*
X32463362Y38227500D01*
X32463355Y38227499D01*
X32463350Y38227499D01*
X32402803Y38220990D01*
X32402795Y38220988D01*
X32324875Y38191924D01*
X32265796Y38169889D01*
X32265794Y38169888D01*
X32265792Y38169887D01*
X32148738Y38082261D01*
X32104868Y38023657D01*
X32048032Y37981110D01*
X31977216Y37976046D01*
X31914904Y38010071D01*
X31903132Y38023657D01*
X31859261Y38082261D01*
X31742207Y38169887D01*
X31742206Y38169887D01*
X31742204Y38169889D01*
X31605201Y38220989D01*
X31605199Y38220989D01*
X31605196Y38220990D01*
X31544649Y38227499D01*
X31544645Y38227499D01*
X31544638Y38227500D01*
X29923362Y38227500D01*
X29923355Y38227499D01*
X29923350Y38227499D01*
X29862803Y38220990D01*
X29862795Y38220988D01*
X29784875Y38191924D01*
X29725796Y38169889D01*
X29725794Y38169888D01*
X29725792Y38169887D01*
X29608738Y38082261D01*
X29564868Y38023657D01*
X29508032Y37981110D01*
X29437216Y37976046D01*
X29374904Y38010071D01*
X29363132Y38023657D01*
X29319261Y38082261D01*
X29202207Y38169887D01*
X29202206Y38169887D01*
X29202204Y38169889D01*
X29065201Y38220989D01*
X29065199Y38220989D01*
X29065196Y38220990D01*
X29004649Y38227499D01*
X29004645Y38227499D01*
X29004638Y38227500D01*
X27383362Y38227500D01*
X27383355Y38227499D01*
X27383350Y38227499D01*
X27322803Y38220990D01*
X27322795Y38220988D01*
X27244875Y38191924D01*
X27185796Y38169889D01*
X27185794Y38169888D01*
X27185792Y38169887D01*
X27068738Y38082261D01*
X27024868Y38023657D01*
X26968032Y37981110D01*
X26897216Y37976046D01*
X26834904Y38010071D01*
X26823132Y38023657D01*
X26779261Y38082261D01*
X26662207Y38169887D01*
X26662206Y38169887D01*
X26662204Y38169889D01*
X26525201Y38220989D01*
X26525199Y38220989D01*
X26525196Y38220990D01*
X26464649Y38227499D01*
X26464645Y38227499D01*
X26464638Y38227500D01*
X24843362Y38227500D01*
X24843355Y38227499D01*
X24843350Y38227499D01*
X24782803Y38220990D01*
X24782795Y38220988D01*
X24704875Y38191924D01*
X24645796Y38169889D01*
X24645794Y38169888D01*
X24645792Y38169887D01*
X24528738Y38082261D01*
X24484868Y38023657D01*
X24428032Y37981110D01*
X24357216Y37976046D01*
X24294904Y38010071D01*
X24283132Y38023657D01*
X24239261Y38082261D01*
X24122207Y38169887D01*
X24122206Y38169887D01*
X24122204Y38169889D01*
X23985201Y38220989D01*
X23985199Y38220989D01*
X23985196Y38220990D01*
X23924649Y38227499D01*
X23924645Y38227499D01*
X23924638Y38227500D01*
X22303362Y38227500D01*
X22303355Y38227499D01*
X22303350Y38227499D01*
X22242803Y38220990D01*
X22242795Y38220988D01*
X22164875Y38191924D01*
X22105796Y38169889D01*
X22105794Y38169888D01*
X22105792Y38169887D01*
X21988738Y38082261D01*
X21944868Y38023657D01*
X21888032Y37981110D01*
X21817216Y37976046D01*
X21754904Y38010071D01*
X21743132Y38023657D01*
X21699261Y38082261D01*
X21582207Y38169887D01*
X21582206Y38169887D01*
X21582204Y38169889D01*
X21445201Y38220989D01*
X21445199Y38220989D01*
X21445196Y38220990D01*
X21384649Y38227499D01*
X21384645Y38227499D01*
X21384638Y38227500D01*
X19763362Y38227500D01*
X19763355Y38227499D01*
X19763350Y38227499D01*
X19702803Y38220990D01*
X19702795Y38220988D01*
X19624875Y38191924D01*
X19565796Y38169889D01*
X19565794Y38169888D01*
X19565792Y38169887D01*
X19448738Y38082261D01*
X19404868Y38023657D01*
X19348032Y37981110D01*
X19277216Y37976046D01*
X19214904Y38010071D01*
X19203132Y38023657D01*
X19159261Y38082261D01*
X19042207Y38169887D01*
X19042206Y38169887D01*
X19042204Y38169889D01*
X18905201Y38220989D01*
X18905199Y38220989D01*
X18905196Y38220990D01*
X18844649Y38227499D01*
X18844645Y38227499D01*
X18844638Y38227500D01*
X17223362Y38227500D01*
X17223355Y38227499D01*
X17223350Y38227499D01*
X17162803Y38220990D01*
X17162795Y38220988D01*
X17084875Y38191924D01*
X17025796Y38169889D01*
X17025794Y38169888D01*
X17025792Y38169887D01*
X16908738Y38082261D01*
X16821112Y37965207D01*
X16821111Y37965204D01*
X16818554Y37958350D01*
X16776010Y37901516D01*
X16709490Y37876705D01*
X16640115Y37891796D01*
X16589913Y37941998D01*
X16582447Y37958343D01*
X16579889Y37965204D01*
X16492261Y38082261D01*
X16375204Y38169889D01*
X16238201Y38220989D01*
X16238199Y38220989D01*
X16238196Y38220990D01*
X16177649Y38227499D01*
X16177645Y38227499D01*
X16177638Y38227500D01*
X14556362Y38227500D01*
X14556355Y38227499D01*
X14556350Y38227499D01*
X14495803Y38220990D01*
X14495795Y38220988D01*
X14417875Y38191924D01*
X14358796Y38169889D01*
X14358794Y38169888D01*
X14358792Y38169887D01*
X14241738Y38082261D01*
X14154112Y37965207D01*
X14154110Y37965202D01*
X14103011Y37828204D01*
X14103009Y37828196D01*
X14096500Y37767649D01*
X14096500Y36146350D01*
X14103009Y36085803D01*
X14103011Y36085795D01*
X14154110Y35948797D01*
X14154112Y35948792D01*
X14241739Y35831738D01*
X14300343Y35787867D01*
X14342889Y35731031D01*
X14347953Y35660216D01*
X14313928Y35597904D01*
X14300343Y35586133D01*
X14241739Y35542261D01*
X14154112Y35425207D01*
X14154110Y35425202D01*
X14103011Y35288204D01*
X14103009Y35288196D01*
X14096500Y35227649D01*
X14096500Y33606350D01*
X329500Y33606350D01*
X329500Y40184500D01*
X349502Y40252621D01*
X403158Y40299114D01*
X455500Y40310500D01*
X50344500Y40310500D01*
X50412621Y40290498D01*
G37*
%TD.AperFunction*%
%TD*%
%TA.AperFunction,Conductor*%
%TO.N,VCC*%
G36*
X26612121Y26141998D02*
G01*
X26658614Y26088342D01*
X26670000Y26036000D01*
X26670000Y20192000D01*
X26649998Y20123879D01*
X26596342Y20077386D01*
X26544000Y20066000D01*
X24510000Y20066000D01*
X24441879Y20086002D01*
X24395386Y20139658D01*
X24384000Y20192000D01*
X24384000Y26036000D01*
X24404002Y26104121D01*
X24457658Y26150614D01*
X24510000Y26162000D01*
X26544000Y26162000D01*
X26612121Y26141998D01*
G37*
%TD.AperFunction*%
%TD*%
M02*
