%TF.GenerationSoftware,KiCad,Pcbnew,7.0.11+1*%
%TF.CreationDate,2024-05-31T01:00:11+00:00*%
%TF.ProjectId,DIG4SWHI01,44494734-5357-4484-9930-312e6b696361,rev?*%
%TF.SameCoordinates,Original*%
%TF.FileFunction,Soldermask,Bot*%
%TF.FilePolarity,Negative*%
%FSLAX46Y46*%
G04 Gerber Fmt 4.6, Leading zero omitted, Abs format (unit mm)*
G04 Created by KiCad (PCBNEW 7.0.11+1) date 2024-05-31 01:00:11*
%MOMM*%
%LPD*%
G01*
G04 APERTURE LIST*
G04 APERTURE END LIST*
G36*
X5166184Y8275160D02*
G01*
X5253234Y8275160D01*
X5346177Y8265051D01*
X5438286Y8259879D01*
X5517513Y8246417D01*
X5597680Y8237699D01*
X5695312Y8216208D01*
X5792067Y8199769D01*
X5863535Y8179179D01*
X5936053Y8163217D01*
X6036973Y8129213D01*
X6136893Y8100427D01*
X6200048Y8074267D01*
X6264384Y8052590D01*
X6367038Y8005097D01*
X6468428Y7963100D01*
X6522969Y7932955D01*
X6578837Y7907109D01*
X6681484Y7845348D01*
X6782503Y7789517D01*
X6828398Y7756952D01*
X6875720Y7728480D01*
X6976503Y7651866D01*
X7075167Y7581861D01*
X7112602Y7548407D01*
X7151539Y7518808D01*
X7248498Y7426962D01*
X7342742Y7342742D01*
X7372153Y7309830D01*
X7403075Y7280540D01*
X7494181Y7173281D01*
X7581861Y7075167D01*
X7603884Y7044127D01*
X7627383Y7016463D01*
X7710624Y6893691D01*
X7789517Y6782503D01*
X7804968Y6754544D01*
X7821819Y6729693D01*
X7895172Y6591334D01*
X7963100Y6468428D01*
X7972984Y6444563D01*
X7984104Y6423591D01*
X8045517Y6269456D01*
X8100427Y6136893D01*
X8105887Y6117939D01*
X8112353Y6101712D01*
X8159945Y5930299D01*
X8199769Y5792067D01*
X8202046Y5778664D01*
X8205041Y5767878D01*
X8236964Y5573153D01*
X8259879Y5438286D01*
X8260298Y5430818D01*
X8261095Y5425959D01*
X8275741Y5155822D01*
X8280000Y5080000D01*
X8275742Y5004184D01*
X8261095Y4734040D01*
X8260298Y4729180D01*
X8259879Y4721714D01*
X8236968Y4586874D01*
X8205041Y4392121D01*
X8202045Y4381333D01*
X8199769Y4367933D01*
X8159952Y4229726D01*
X8112353Y4058287D01*
X8105886Y4042057D01*
X8100427Y4023107D01*
X8045527Y3890569D01*
X7984104Y3736408D01*
X7972983Y3715431D01*
X7963100Y3691572D01*
X7895185Y3568689D01*
X7821819Y3430306D01*
X7804965Y3405449D01*
X7789517Y3377497D01*
X7710639Y3266329D01*
X7627383Y3143536D01*
X7603880Y3115866D01*
X7581861Y3084833D01*
X7494198Y2986738D01*
X7403075Y2879459D01*
X7372147Y2850162D01*
X7342742Y2817258D01*
X7248517Y2733053D01*
X7151539Y2641191D01*
X7112594Y2611586D01*
X7075167Y2578139D01*
X6976523Y2508147D01*
X6875720Y2431519D01*
X6828388Y2403040D01*
X6782503Y2370483D01*
X6681504Y2314663D01*
X6578837Y2252890D01*
X6522958Y2227037D01*
X6468428Y2196900D01*
X6367059Y2154911D01*
X6264384Y2107409D01*
X6200035Y2085727D01*
X6136893Y2059573D01*
X6036993Y2030792D01*
X5936053Y1996782D01*
X5863520Y1980816D01*
X5792067Y1960231D01*
X5695332Y1943795D01*
X5597680Y1922300D01*
X5517500Y1913580D01*
X5438286Y1900121D01*
X5346182Y1894948D01*
X5253234Y1884840D01*
X5166184Y1884840D01*
X5080000Y1880000D01*
X4993816Y1884840D01*
X4906766Y1884840D01*
X4813816Y1894948D01*
X4721714Y1900121D01*
X4642500Y1913579D01*
X4562319Y1922300D01*
X4464662Y1943795D01*
X4367933Y1960231D01*
X4296482Y1980815D01*
X4223946Y1996782D01*
X4122999Y2030794D01*
X4023107Y2059573D01*
X3959969Y2085725D01*
X3895615Y2107409D01*
X3792931Y2154915D01*
X3691572Y2196900D01*
X3637046Y2227035D01*
X3581162Y2252890D01*
X3478483Y2314670D01*
X3377497Y2370483D01*
X3331616Y2403036D01*
X3284279Y2431519D01*
X3183461Y2508158D01*
X3084833Y2578139D01*
X3047411Y2611581D01*
X3008460Y2641191D01*
X2911465Y2733069D01*
X2817258Y2817258D01*
X2787857Y2850156D01*
X2756924Y2879459D01*
X2665781Y2986760D01*
X2578139Y3084833D01*
X2556124Y3115859D01*
X2532616Y3143536D01*
X2449337Y3266361D01*
X2370483Y3377497D01*
X2355038Y3405441D01*
X2338180Y3430306D01*
X2264790Y3568733D01*
X2196900Y3691572D01*
X2187020Y3715423D01*
X2175895Y3736408D01*
X2114445Y3890632D01*
X2059573Y4023107D01*
X2054116Y4042048D01*
X2047646Y4058287D01*
X2000019Y4229822D01*
X1960231Y4367933D01*
X1957955Y4381323D01*
X1954958Y4392121D01*
X1923002Y4587041D01*
X1900121Y4721714D01*
X1899702Y4729170D01*
X1898904Y4734040D01*
X1884228Y5004699D01*
X1880000Y5080000D01*
X1884229Y5155306D01*
X1898904Y5425959D01*
X1899702Y5430827D01*
X1900121Y5438286D01*
X1923007Y5572985D01*
X1954958Y5767878D01*
X1957955Y5778673D01*
X1960231Y5792067D01*
X2000027Y5930204D01*
X2047646Y6101712D01*
X2054115Y6117948D01*
X2059573Y6136893D01*
X2114456Y6269392D01*
X2175895Y6423591D01*
X2187018Y6444572D01*
X2196900Y6468428D01*
X2264803Y6591289D01*
X2338180Y6729693D01*
X2355035Y6754552D01*
X2370483Y6782503D01*
X2449352Y6893659D01*
X2532616Y7016463D01*
X2556120Y7044134D01*
X2578139Y7075167D01*
X2665798Y7173258D01*
X2756924Y7280540D01*
X2787852Y7309836D01*
X2817258Y7342742D01*
X2911483Y7426947D01*
X3008460Y7518808D01*
X3047403Y7548412D01*
X3084833Y7581861D01*
X3183481Y7651855D01*
X3284279Y7728480D01*
X3331607Y7756956D01*
X3377497Y7789517D01*
X3478503Y7845341D01*
X3581162Y7907109D01*
X3637035Y7932958D01*
X3691572Y7963100D01*
X3792952Y8005093D01*
X3895615Y8052590D01*
X3959956Y8074269D01*
X4023107Y8100427D01*
X4123019Y8129211D01*
X4223946Y8163217D01*
X4296467Y8179180D01*
X4367933Y8199769D01*
X4464682Y8216207D01*
X4562319Y8237699D01*
X4642488Y8246417D01*
X4721714Y8259879D01*
X4813822Y8265051D01*
X4906766Y8275160D01*
X4993816Y8275160D01*
X5080000Y8280000D01*
X5166184Y8275160D01*
G37*
G36*
X45806184Y8275160D02*
G01*
X45893234Y8275160D01*
X45986177Y8265051D01*
X46078286Y8259879D01*
X46157513Y8246417D01*
X46237680Y8237699D01*
X46335312Y8216208D01*
X46432067Y8199769D01*
X46503535Y8179179D01*
X46576053Y8163217D01*
X46676973Y8129213D01*
X46776893Y8100427D01*
X46840048Y8074267D01*
X46904384Y8052590D01*
X47007038Y8005097D01*
X47108428Y7963100D01*
X47162969Y7932955D01*
X47218837Y7907109D01*
X47321484Y7845348D01*
X47422503Y7789517D01*
X47468398Y7756952D01*
X47515720Y7728480D01*
X47616503Y7651866D01*
X47715167Y7581861D01*
X47752602Y7548407D01*
X47791539Y7518808D01*
X47888498Y7426962D01*
X47982742Y7342742D01*
X48012153Y7309830D01*
X48043075Y7280540D01*
X48134181Y7173281D01*
X48221861Y7075167D01*
X48243884Y7044127D01*
X48267383Y7016463D01*
X48350624Y6893691D01*
X48429517Y6782503D01*
X48444968Y6754544D01*
X48461819Y6729693D01*
X48535172Y6591334D01*
X48603100Y6468428D01*
X48612984Y6444563D01*
X48624104Y6423591D01*
X48685517Y6269456D01*
X48740427Y6136893D01*
X48745887Y6117939D01*
X48752353Y6101712D01*
X48799945Y5930299D01*
X48839769Y5792067D01*
X48842046Y5778664D01*
X48845041Y5767878D01*
X48876964Y5573153D01*
X48899879Y5438286D01*
X48900298Y5430818D01*
X48901095Y5425959D01*
X48915741Y5155822D01*
X48920000Y5080000D01*
X48915742Y5004184D01*
X48901095Y4734040D01*
X48900298Y4729180D01*
X48899879Y4721714D01*
X48876968Y4586874D01*
X48845041Y4392121D01*
X48842045Y4381333D01*
X48839769Y4367933D01*
X48799952Y4229726D01*
X48752353Y4058287D01*
X48745886Y4042057D01*
X48740427Y4023107D01*
X48685527Y3890569D01*
X48624104Y3736408D01*
X48612983Y3715431D01*
X48603100Y3691572D01*
X48535185Y3568689D01*
X48461819Y3430306D01*
X48444965Y3405449D01*
X48429517Y3377497D01*
X48350639Y3266329D01*
X48267383Y3143536D01*
X48243880Y3115866D01*
X48221861Y3084833D01*
X48134198Y2986738D01*
X48043075Y2879459D01*
X48012147Y2850162D01*
X47982742Y2817258D01*
X47888517Y2733053D01*
X47791539Y2641191D01*
X47752594Y2611586D01*
X47715167Y2578139D01*
X47616523Y2508147D01*
X47515720Y2431519D01*
X47468388Y2403040D01*
X47422503Y2370483D01*
X47321504Y2314663D01*
X47218837Y2252890D01*
X47162958Y2227037D01*
X47108428Y2196900D01*
X47007059Y2154911D01*
X46904384Y2107409D01*
X46840035Y2085727D01*
X46776893Y2059573D01*
X46676993Y2030792D01*
X46576053Y1996782D01*
X46503520Y1980816D01*
X46432067Y1960231D01*
X46335332Y1943795D01*
X46237680Y1922300D01*
X46157500Y1913580D01*
X46078286Y1900121D01*
X45986182Y1894948D01*
X45893234Y1884840D01*
X45806184Y1884840D01*
X45720000Y1880000D01*
X45633816Y1884840D01*
X45546766Y1884840D01*
X45453816Y1894948D01*
X45361714Y1900121D01*
X45282500Y1913579D01*
X45202319Y1922300D01*
X45104662Y1943795D01*
X45007933Y1960231D01*
X44936482Y1980815D01*
X44863946Y1996782D01*
X44762999Y2030794D01*
X44663107Y2059573D01*
X44599969Y2085725D01*
X44535615Y2107409D01*
X44432931Y2154915D01*
X44331572Y2196900D01*
X44277046Y2227035D01*
X44221162Y2252890D01*
X44118483Y2314670D01*
X44017497Y2370483D01*
X43971616Y2403036D01*
X43924279Y2431519D01*
X43823461Y2508158D01*
X43724833Y2578139D01*
X43687411Y2611581D01*
X43648460Y2641191D01*
X43551465Y2733069D01*
X43457258Y2817258D01*
X43427857Y2850156D01*
X43396924Y2879459D01*
X43305781Y2986760D01*
X43218139Y3084833D01*
X43196124Y3115859D01*
X43172616Y3143536D01*
X43089337Y3266361D01*
X43010483Y3377497D01*
X42995038Y3405441D01*
X42978180Y3430306D01*
X42904790Y3568733D01*
X42836900Y3691572D01*
X42827020Y3715423D01*
X42815895Y3736408D01*
X42754445Y3890632D01*
X42699573Y4023107D01*
X42694116Y4042048D01*
X42687646Y4058287D01*
X42640019Y4229822D01*
X42600231Y4367933D01*
X42597955Y4381323D01*
X42594958Y4392121D01*
X42563002Y4587041D01*
X42540121Y4721714D01*
X42539702Y4729170D01*
X42538904Y4734040D01*
X42524228Y5004699D01*
X42520000Y5080000D01*
X42524229Y5155306D01*
X42538904Y5425959D01*
X42539702Y5430827D01*
X42540121Y5438286D01*
X42563007Y5572985D01*
X42594958Y5767878D01*
X42597955Y5778673D01*
X42600231Y5792067D01*
X42640027Y5930204D01*
X42687646Y6101712D01*
X42694115Y6117948D01*
X42699573Y6136893D01*
X42754456Y6269392D01*
X42815895Y6423591D01*
X42827018Y6444572D01*
X42836900Y6468428D01*
X42904803Y6591289D01*
X42978180Y6729693D01*
X42995035Y6754552D01*
X43010483Y6782503D01*
X43089352Y6893659D01*
X43172616Y7016463D01*
X43196120Y7044134D01*
X43218139Y7075167D01*
X43305798Y7173258D01*
X43396924Y7280540D01*
X43427852Y7309836D01*
X43457258Y7342742D01*
X43551483Y7426947D01*
X43648460Y7518808D01*
X43687403Y7548412D01*
X43724833Y7581861D01*
X43823481Y7651855D01*
X43924279Y7728480D01*
X43971607Y7756956D01*
X44017497Y7789517D01*
X44118503Y7845341D01*
X44221162Y7907109D01*
X44277035Y7932958D01*
X44331572Y7963100D01*
X44432952Y8005093D01*
X44535615Y8052590D01*
X44599956Y8074269D01*
X44663107Y8100427D01*
X44763019Y8129211D01*
X44863946Y8163217D01*
X44936467Y8179180D01*
X45007933Y8199769D01*
X45104682Y8216207D01*
X45202319Y8237699D01*
X45282488Y8246417D01*
X45361714Y8259879D01*
X45453822Y8265051D01*
X45546766Y8275160D01*
X45633816Y8275160D01*
X45720000Y8280000D01*
X45806184Y8275160D01*
G37*
G36*
X14994107Y8025387D02*
G01*
X15028134Y8021440D01*
X15039759Y8016306D01*
X15062537Y8011776D01*
X15086921Y7995482D01*
X15098047Y7990570D01*
X15105646Y7982970D01*
X15127421Y7968421D01*
X15141970Y7946646D01*
X15149570Y7939047D01*
X15154482Y7927921D01*
X15170776Y7903537D01*
X15175306Y7880759D01*
X15180440Y7869134D01*
X15184387Y7835105D01*
X15186000Y7827000D01*
X15186000Y4017000D01*
X15184387Y4008894D01*
X15180440Y3974865D01*
X15175306Y3963238D01*
X15170776Y3940463D01*
X15154483Y3916080D01*
X15149570Y3904952D01*
X15141968Y3897350D01*
X15127421Y3875579D01*
X15105649Y3861031D01*
X15098047Y3853429D01*
X15086917Y3848514D01*
X15062537Y3832224D01*
X15039764Y3827694D01*
X15028134Y3822559D01*
X14994093Y3818609D01*
X14986000Y3817000D01*
X14980217Y3817000D01*
X11181784Y3817000D01*
X11176000Y3817000D01*
X11167906Y3818609D01*
X11133865Y3822559D01*
X11122234Y3827694D01*
X11099463Y3832224D01*
X11075084Y3848513D01*
X11063952Y3853429D01*
X11056347Y3861033D01*
X11034579Y3875579D01*
X11020033Y3897347D01*
X11012429Y3904952D01*
X11007513Y3916084D01*
X10991224Y3940463D01*
X10986694Y3963234D01*
X10981559Y3974865D01*
X10977609Y4008908D01*
X10976000Y4017000D01*
X10976000Y7827000D01*
X10977610Y7835095D01*
X10981559Y7869134D01*
X10986694Y7880764D01*
X10991224Y7903537D01*
X11007514Y7927917D01*
X11012429Y7939047D01*
X11020031Y7946649D01*
X11034579Y7968421D01*
X11056350Y7982968D01*
X11063952Y7990570D01*
X11075080Y7995483D01*
X11099463Y8011776D01*
X11122238Y8016306D01*
X11133865Y8021440D01*
X11167896Y8025388D01*
X11176000Y8027000D01*
X14986000Y8027000D01*
X14994107Y8025387D01*
G37*
G36*
X19947107Y8025387D02*
G01*
X19981134Y8021440D01*
X19992759Y8016306D01*
X20015537Y8011776D01*
X20039921Y7995482D01*
X20051047Y7990570D01*
X20058646Y7982970D01*
X20080421Y7968421D01*
X20094970Y7946646D01*
X20102570Y7939047D01*
X20107482Y7927921D01*
X20123776Y7903537D01*
X20128306Y7880759D01*
X20133440Y7869134D01*
X20137387Y7835105D01*
X20139000Y7827000D01*
X20139000Y4017000D01*
X20137387Y4008894D01*
X20133440Y3974865D01*
X20128306Y3963238D01*
X20123776Y3940463D01*
X20107483Y3916080D01*
X20102570Y3904952D01*
X20094968Y3897350D01*
X20080421Y3875579D01*
X20058649Y3861031D01*
X20051047Y3853429D01*
X20039917Y3848514D01*
X20015537Y3832224D01*
X19992764Y3827694D01*
X19981134Y3822559D01*
X19947093Y3818609D01*
X19939000Y3817000D01*
X19933217Y3817000D01*
X16134784Y3817000D01*
X16129000Y3817000D01*
X16120906Y3818609D01*
X16086865Y3822559D01*
X16075234Y3827694D01*
X16052463Y3832224D01*
X16028084Y3848513D01*
X16016952Y3853429D01*
X16009347Y3861033D01*
X15987579Y3875579D01*
X15973033Y3897347D01*
X15965429Y3904952D01*
X15960513Y3916084D01*
X15944224Y3940463D01*
X15939694Y3963234D01*
X15934559Y3974865D01*
X15930609Y4008908D01*
X15929000Y4017000D01*
X15929000Y7827000D01*
X15930610Y7835095D01*
X15934559Y7869134D01*
X15939694Y7880764D01*
X15944224Y7903537D01*
X15960514Y7927917D01*
X15965429Y7939047D01*
X15973031Y7946649D01*
X15987579Y7968421D01*
X16009350Y7982968D01*
X16016952Y7990570D01*
X16028080Y7995483D01*
X16052463Y8011776D01*
X16075238Y8016306D01*
X16086865Y8021440D01*
X16120896Y8025388D01*
X16129000Y8027000D01*
X19939000Y8027000D01*
X19947107Y8025387D01*
G37*
G36*
X25027107Y8025387D02*
G01*
X25061134Y8021440D01*
X25072759Y8016306D01*
X25095537Y8011776D01*
X25119921Y7995482D01*
X25131047Y7990570D01*
X25138646Y7982970D01*
X25160421Y7968421D01*
X25174970Y7946646D01*
X25182570Y7939047D01*
X25187482Y7927921D01*
X25203776Y7903537D01*
X25208306Y7880759D01*
X25213440Y7869134D01*
X25217387Y7835105D01*
X25219000Y7827000D01*
X25219000Y4017000D01*
X25217387Y4008894D01*
X25213440Y3974865D01*
X25208306Y3963238D01*
X25203776Y3940463D01*
X25187483Y3916080D01*
X25182570Y3904952D01*
X25174968Y3897350D01*
X25160421Y3875579D01*
X25138649Y3861031D01*
X25131047Y3853429D01*
X25119917Y3848514D01*
X25095537Y3832224D01*
X25072764Y3827694D01*
X25061134Y3822559D01*
X25027093Y3818609D01*
X25019000Y3817000D01*
X25013217Y3817000D01*
X21214784Y3817000D01*
X21209000Y3817000D01*
X21200906Y3818609D01*
X21166865Y3822559D01*
X21155234Y3827694D01*
X21132463Y3832224D01*
X21108084Y3848513D01*
X21096952Y3853429D01*
X21089347Y3861033D01*
X21067579Y3875579D01*
X21053033Y3897347D01*
X21045429Y3904952D01*
X21040513Y3916084D01*
X21024224Y3940463D01*
X21019694Y3963234D01*
X21014559Y3974865D01*
X21010609Y4008908D01*
X21009000Y4017000D01*
X21009000Y7827000D01*
X21010610Y7835095D01*
X21014559Y7869134D01*
X21019694Y7880764D01*
X21024224Y7903537D01*
X21040514Y7927917D01*
X21045429Y7939047D01*
X21053031Y7946649D01*
X21067579Y7968421D01*
X21089350Y7982968D01*
X21096952Y7990570D01*
X21108080Y7995483D01*
X21132463Y8011776D01*
X21155238Y8016306D01*
X21166865Y8021440D01*
X21200896Y8025388D01*
X21209000Y8027000D01*
X25019000Y8027000D01*
X25027107Y8025387D01*
G37*
G36*
X30107107Y8025387D02*
G01*
X30141134Y8021440D01*
X30152759Y8016306D01*
X30175537Y8011776D01*
X30199921Y7995482D01*
X30211047Y7990570D01*
X30218646Y7982970D01*
X30240421Y7968421D01*
X30254970Y7946646D01*
X30262570Y7939047D01*
X30267482Y7927921D01*
X30283776Y7903537D01*
X30288306Y7880759D01*
X30293440Y7869134D01*
X30297387Y7835105D01*
X30299000Y7827000D01*
X30299000Y4017000D01*
X30297387Y4008894D01*
X30293440Y3974865D01*
X30288306Y3963238D01*
X30283776Y3940463D01*
X30267483Y3916080D01*
X30262570Y3904952D01*
X30254968Y3897350D01*
X30240421Y3875579D01*
X30218649Y3861031D01*
X30211047Y3853429D01*
X30199917Y3848514D01*
X30175537Y3832224D01*
X30152764Y3827694D01*
X30141134Y3822559D01*
X30107093Y3818609D01*
X30099000Y3817000D01*
X30093217Y3817000D01*
X26294784Y3817000D01*
X26289000Y3817000D01*
X26280906Y3818609D01*
X26246865Y3822559D01*
X26235234Y3827694D01*
X26212463Y3832224D01*
X26188084Y3848513D01*
X26176952Y3853429D01*
X26169347Y3861033D01*
X26147579Y3875579D01*
X26133033Y3897347D01*
X26125429Y3904952D01*
X26120513Y3916084D01*
X26104224Y3940463D01*
X26099694Y3963234D01*
X26094559Y3974865D01*
X26090609Y4008908D01*
X26089000Y4017000D01*
X26089000Y7827000D01*
X26090610Y7835095D01*
X26094559Y7869134D01*
X26099694Y7880764D01*
X26104224Y7903537D01*
X26120514Y7927917D01*
X26125429Y7939047D01*
X26133031Y7946649D01*
X26147579Y7968421D01*
X26169350Y7982968D01*
X26176952Y7990570D01*
X26188080Y7995483D01*
X26212463Y8011776D01*
X26235238Y8016306D01*
X26246865Y8021440D01*
X26280896Y8025388D01*
X26289000Y8027000D01*
X30099000Y8027000D01*
X30107107Y8025387D01*
G37*
G36*
X35187107Y8025387D02*
G01*
X35221134Y8021440D01*
X35232759Y8016306D01*
X35255537Y8011776D01*
X35279921Y7995482D01*
X35291047Y7990570D01*
X35298646Y7982970D01*
X35320421Y7968421D01*
X35334970Y7946646D01*
X35342570Y7939047D01*
X35347482Y7927921D01*
X35363776Y7903537D01*
X35368306Y7880759D01*
X35373440Y7869134D01*
X35377387Y7835105D01*
X35379000Y7827000D01*
X35379000Y4017000D01*
X35377387Y4008894D01*
X35373440Y3974865D01*
X35368306Y3963238D01*
X35363776Y3940463D01*
X35347483Y3916080D01*
X35342570Y3904952D01*
X35334968Y3897350D01*
X35320421Y3875579D01*
X35298649Y3861031D01*
X35291047Y3853429D01*
X35279917Y3848514D01*
X35255537Y3832224D01*
X35232764Y3827694D01*
X35221134Y3822559D01*
X35187093Y3818609D01*
X35179000Y3817000D01*
X35173217Y3817000D01*
X31374784Y3817000D01*
X31369000Y3817000D01*
X31360906Y3818609D01*
X31326865Y3822559D01*
X31315234Y3827694D01*
X31292463Y3832224D01*
X31268084Y3848513D01*
X31256952Y3853429D01*
X31249347Y3861033D01*
X31227579Y3875579D01*
X31213033Y3897347D01*
X31205429Y3904952D01*
X31200513Y3916084D01*
X31184224Y3940463D01*
X31179694Y3963234D01*
X31174559Y3974865D01*
X31170609Y4008908D01*
X31169000Y4017000D01*
X31169000Y7827000D01*
X31170610Y7835095D01*
X31174559Y7869134D01*
X31179694Y7880764D01*
X31184224Y7903537D01*
X31200514Y7927917D01*
X31205429Y7939047D01*
X31213031Y7946649D01*
X31227579Y7968421D01*
X31249350Y7982968D01*
X31256952Y7990570D01*
X31268080Y7995483D01*
X31292463Y8011776D01*
X31315238Y8016306D01*
X31326865Y8021440D01*
X31360896Y8025388D01*
X31369000Y8027000D01*
X35179000Y8027000D01*
X35187107Y8025387D01*
G37*
G36*
X40267107Y8025387D02*
G01*
X40301134Y8021440D01*
X40312759Y8016306D01*
X40335537Y8011776D01*
X40359921Y7995482D01*
X40371047Y7990570D01*
X40378646Y7982970D01*
X40400421Y7968421D01*
X40414970Y7946646D01*
X40422570Y7939047D01*
X40427482Y7927921D01*
X40443776Y7903537D01*
X40448306Y7880759D01*
X40453440Y7869134D01*
X40457387Y7835105D01*
X40459000Y7827000D01*
X40459000Y4017000D01*
X40457387Y4008894D01*
X40453440Y3974865D01*
X40448306Y3963238D01*
X40443776Y3940463D01*
X40427483Y3916080D01*
X40422570Y3904952D01*
X40414968Y3897350D01*
X40400421Y3875579D01*
X40378649Y3861031D01*
X40371047Y3853429D01*
X40359917Y3848514D01*
X40335537Y3832224D01*
X40312764Y3827694D01*
X40301134Y3822559D01*
X40267093Y3818609D01*
X40259000Y3817000D01*
X40253217Y3817000D01*
X36454784Y3817000D01*
X36449000Y3817000D01*
X36440906Y3818609D01*
X36406865Y3822559D01*
X36395234Y3827694D01*
X36372463Y3832224D01*
X36348084Y3848513D01*
X36336952Y3853429D01*
X36329347Y3861033D01*
X36307579Y3875579D01*
X36293033Y3897347D01*
X36285429Y3904952D01*
X36280513Y3916084D01*
X36264224Y3940463D01*
X36259694Y3963234D01*
X36254559Y3974865D01*
X36250609Y4008908D01*
X36249000Y4017000D01*
X36249000Y7827000D01*
X36250610Y7835095D01*
X36254559Y7869134D01*
X36259694Y7880764D01*
X36264224Y7903537D01*
X36280514Y7927917D01*
X36285429Y7939047D01*
X36293031Y7946649D01*
X36307579Y7968421D01*
X36329350Y7982968D01*
X36336952Y7990570D01*
X36348080Y7995483D01*
X36372463Y8011776D01*
X36395238Y8016306D01*
X36406865Y8021440D01*
X36440896Y8025388D01*
X36449000Y8027000D01*
X40259000Y8027000D01*
X40267107Y8025387D01*
G37*
G36*
X14994107Y13025387D02*
G01*
X15028134Y13021440D01*
X15039759Y13016306D01*
X15062537Y13011776D01*
X15086921Y12995482D01*
X15098047Y12990570D01*
X15105646Y12982970D01*
X15127421Y12968421D01*
X15141970Y12946646D01*
X15149570Y12939047D01*
X15154482Y12927921D01*
X15170776Y12903537D01*
X15175306Y12880759D01*
X15180440Y12869134D01*
X15184387Y12835105D01*
X15186000Y12827000D01*
X15186000Y9017000D01*
X15184387Y9008894D01*
X15180440Y8974865D01*
X15175306Y8963238D01*
X15170776Y8940463D01*
X15154483Y8916080D01*
X15149570Y8904952D01*
X15141968Y8897350D01*
X15127421Y8875579D01*
X15105649Y8861031D01*
X15098047Y8853429D01*
X15086917Y8848514D01*
X15062537Y8832224D01*
X15039764Y8827694D01*
X15028134Y8822559D01*
X14994093Y8818609D01*
X14986000Y8817000D01*
X14980217Y8817000D01*
X11181784Y8817000D01*
X11176000Y8817000D01*
X11167906Y8818609D01*
X11133865Y8822559D01*
X11122234Y8827694D01*
X11099463Y8832224D01*
X11075084Y8848513D01*
X11063952Y8853429D01*
X11056347Y8861033D01*
X11034579Y8875579D01*
X11020033Y8897347D01*
X11012429Y8904952D01*
X11007513Y8916084D01*
X10991224Y8940463D01*
X10986694Y8963234D01*
X10981559Y8974865D01*
X10977609Y9008908D01*
X10976000Y9017000D01*
X10976000Y12827000D01*
X10977610Y12835095D01*
X10981559Y12869134D01*
X10986694Y12880764D01*
X10991224Y12903537D01*
X11007514Y12927917D01*
X11012429Y12939047D01*
X11020031Y12946649D01*
X11034579Y12968421D01*
X11056350Y12982968D01*
X11063952Y12990570D01*
X11075080Y12995483D01*
X11099463Y13011776D01*
X11122238Y13016306D01*
X11133865Y13021440D01*
X11167896Y13025388D01*
X11176000Y13027000D01*
X14986000Y13027000D01*
X14994107Y13025387D01*
G37*
G36*
X19947107Y13025387D02*
G01*
X19981134Y13021440D01*
X19992759Y13016306D01*
X20015537Y13011776D01*
X20039921Y12995482D01*
X20051047Y12990570D01*
X20058646Y12982970D01*
X20080421Y12968421D01*
X20094970Y12946646D01*
X20102570Y12939047D01*
X20107482Y12927921D01*
X20123776Y12903537D01*
X20128306Y12880759D01*
X20133440Y12869134D01*
X20137387Y12835105D01*
X20139000Y12827000D01*
X20139000Y9017000D01*
X20137387Y9008894D01*
X20133440Y8974865D01*
X20128306Y8963238D01*
X20123776Y8940463D01*
X20107483Y8916080D01*
X20102570Y8904952D01*
X20094968Y8897350D01*
X20080421Y8875579D01*
X20058649Y8861031D01*
X20051047Y8853429D01*
X20039917Y8848514D01*
X20015537Y8832224D01*
X19992764Y8827694D01*
X19981134Y8822559D01*
X19947093Y8818609D01*
X19939000Y8817000D01*
X19933217Y8817000D01*
X16134784Y8817000D01*
X16129000Y8817000D01*
X16120906Y8818609D01*
X16086865Y8822559D01*
X16075234Y8827694D01*
X16052463Y8832224D01*
X16028084Y8848513D01*
X16016952Y8853429D01*
X16009347Y8861033D01*
X15987579Y8875579D01*
X15973033Y8897347D01*
X15965429Y8904952D01*
X15960513Y8916084D01*
X15944224Y8940463D01*
X15939694Y8963234D01*
X15934559Y8974865D01*
X15930609Y9008908D01*
X15929000Y9017000D01*
X15929000Y12827000D01*
X15930610Y12835095D01*
X15934559Y12869134D01*
X15939694Y12880764D01*
X15944224Y12903537D01*
X15960514Y12927917D01*
X15965429Y12939047D01*
X15973031Y12946649D01*
X15987579Y12968421D01*
X16009350Y12982968D01*
X16016952Y12990570D01*
X16028080Y12995483D01*
X16052463Y13011776D01*
X16075238Y13016306D01*
X16086865Y13021440D01*
X16120896Y13025388D01*
X16129000Y13027000D01*
X19939000Y13027000D01*
X19947107Y13025387D01*
G37*
G36*
X25027107Y13025387D02*
G01*
X25061134Y13021440D01*
X25072759Y13016306D01*
X25095537Y13011776D01*
X25119921Y12995482D01*
X25131047Y12990570D01*
X25138646Y12982970D01*
X25160421Y12968421D01*
X25174970Y12946646D01*
X25182570Y12939047D01*
X25187482Y12927921D01*
X25203776Y12903537D01*
X25208306Y12880759D01*
X25213440Y12869134D01*
X25217387Y12835105D01*
X25219000Y12827000D01*
X25219000Y9017000D01*
X25217387Y9008894D01*
X25213440Y8974865D01*
X25208306Y8963238D01*
X25203776Y8940463D01*
X25187483Y8916080D01*
X25182570Y8904952D01*
X25174968Y8897350D01*
X25160421Y8875579D01*
X25138649Y8861031D01*
X25131047Y8853429D01*
X25119917Y8848514D01*
X25095537Y8832224D01*
X25072764Y8827694D01*
X25061134Y8822559D01*
X25027093Y8818609D01*
X25019000Y8817000D01*
X25013217Y8817000D01*
X21214784Y8817000D01*
X21209000Y8817000D01*
X21200906Y8818609D01*
X21166865Y8822559D01*
X21155234Y8827694D01*
X21132463Y8832224D01*
X21108084Y8848513D01*
X21096952Y8853429D01*
X21089347Y8861033D01*
X21067579Y8875579D01*
X21053033Y8897347D01*
X21045429Y8904952D01*
X21040513Y8916084D01*
X21024224Y8940463D01*
X21019694Y8963234D01*
X21014559Y8974865D01*
X21010609Y9008908D01*
X21009000Y9017000D01*
X21009000Y12827000D01*
X21010610Y12835095D01*
X21014559Y12869134D01*
X21019694Y12880764D01*
X21024224Y12903537D01*
X21040514Y12927917D01*
X21045429Y12939047D01*
X21053031Y12946649D01*
X21067579Y12968421D01*
X21089350Y12982968D01*
X21096952Y12990570D01*
X21108080Y12995483D01*
X21132463Y13011776D01*
X21155238Y13016306D01*
X21166865Y13021440D01*
X21200896Y13025388D01*
X21209000Y13027000D01*
X25019000Y13027000D01*
X25027107Y13025387D01*
G37*
G36*
X30107107Y13025387D02*
G01*
X30141134Y13021440D01*
X30152759Y13016306D01*
X30175537Y13011776D01*
X30199921Y12995482D01*
X30211047Y12990570D01*
X30218646Y12982970D01*
X30240421Y12968421D01*
X30254970Y12946646D01*
X30262570Y12939047D01*
X30267482Y12927921D01*
X30283776Y12903537D01*
X30288306Y12880759D01*
X30293440Y12869134D01*
X30297387Y12835105D01*
X30299000Y12827000D01*
X30299000Y9017000D01*
X30297387Y9008894D01*
X30293440Y8974865D01*
X30288306Y8963238D01*
X30283776Y8940463D01*
X30267483Y8916080D01*
X30262570Y8904952D01*
X30254968Y8897350D01*
X30240421Y8875579D01*
X30218649Y8861031D01*
X30211047Y8853429D01*
X30199917Y8848514D01*
X30175537Y8832224D01*
X30152764Y8827694D01*
X30141134Y8822559D01*
X30107093Y8818609D01*
X30099000Y8817000D01*
X30093217Y8817000D01*
X26294784Y8817000D01*
X26289000Y8817000D01*
X26280906Y8818609D01*
X26246865Y8822559D01*
X26235234Y8827694D01*
X26212463Y8832224D01*
X26188084Y8848513D01*
X26176952Y8853429D01*
X26169347Y8861033D01*
X26147579Y8875579D01*
X26133033Y8897347D01*
X26125429Y8904952D01*
X26120513Y8916084D01*
X26104224Y8940463D01*
X26099694Y8963234D01*
X26094559Y8974865D01*
X26090609Y9008908D01*
X26089000Y9017000D01*
X26089000Y12827000D01*
X26090610Y12835095D01*
X26094559Y12869134D01*
X26099694Y12880764D01*
X26104224Y12903537D01*
X26120514Y12927917D01*
X26125429Y12939047D01*
X26133031Y12946649D01*
X26147579Y12968421D01*
X26169350Y12982968D01*
X26176952Y12990570D01*
X26188080Y12995483D01*
X26212463Y13011776D01*
X26235238Y13016306D01*
X26246865Y13021440D01*
X26280896Y13025388D01*
X26289000Y13027000D01*
X30099000Y13027000D01*
X30107107Y13025387D01*
G37*
G36*
X35187107Y13025387D02*
G01*
X35221134Y13021440D01*
X35232759Y13016306D01*
X35255537Y13011776D01*
X35279921Y12995482D01*
X35291047Y12990570D01*
X35298646Y12982970D01*
X35320421Y12968421D01*
X35334970Y12946646D01*
X35342570Y12939047D01*
X35347482Y12927921D01*
X35363776Y12903537D01*
X35368306Y12880759D01*
X35373440Y12869134D01*
X35377387Y12835105D01*
X35379000Y12827000D01*
X35379000Y9017000D01*
X35377387Y9008894D01*
X35373440Y8974865D01*
X35368306Y8963238D01*
X35363776Y8940463D01*
X35347483Y8916080D01*
X35342570Y8904952D01*
X35334968Y8897350D01*
X35320421Y8875579D01*
X35298649Y8861031D01*
X35291047Y8853429D01*
X35279917Y8848514D01*
X35255537Y8832224D01*
X35232764Y8827694D01*
X35221134Y8822559D01*
X35187093Y8818609D01*
X35179000Y8817000D01*
X35173217Y8817000D01*
X31374784Y8817000D01*
X31369000Y8817000D01*
X31360906Y8818609D01*
X31326865Y8822559D01*
X31315234Y8827694D01*
X31292463Y8832224D01*
X31268084Y8848513D01*
X31256952Y8853429D01*
X31249347Y8861033D01*
X31227579Y8875579D01*
X31213033Y8897347D01*
X31205429Y8904952D01*
X31200513Y8916084D01*
X31184224Y8940463D01*
X31179694Y8963234D01*
X31174559Y8974865D01*
X31170609Y9008908D01*
X31169000Y9017000D01*
X31169000Y12827000D01*
X31170610Y12835095D01*
X31174559Y12869134D01*
X31179694Y12880764D01*
X31184224Y12903537D01*
X31200514Y12927917D01*
X31205429Y12939047D01*
X31213031Y12946649D01*
X31227579Y12968421D01*
X31249350Y12982968D01*
X31256952Y12990570D01*
X31268080Y12995483D01*
X31292463Y13011776D01*
X31315238Y13016306D01*
X31326865Y13021440D01*
X31360896Y13025388D01*
X31369000Y13027000D01*
X35179000Y13027000D01*
X35187107Y13025387D01*
G37*
G36*
X40267107Y13025387D02*
G01*
X40301134Y13021440D01*
X40312759Y13016306D01*
X40335537Y13011776D01*
X40359921Y12995482D01*
X40371047Y12990570D01*
X40378646Y12982970D01*
X40400421Y12968421D01*
X40414970Y12946646D01*
X40422570Y12939047D01*
X40427482Y12927921D01*
X40443776Y12903537D01*
X40448306Y12880759D01*
X40453440Y12869134D01*
X40457387Y12835105D01*
X40459000Y12827000D01*
X40459000Y9017000D01*
X40457387Y9008894D01*
X40453440Y8974865D01*
X40448306Y8963238D01*
X40443776Y8940463D01*
X40427483Y8916080D01*
X40422570Y8904952D01*
X40414968Y8897350D01*
X40400421Y8875579D01*
X40378649Y8861031D01*
X40371047Y8853429D01*
X40359917Y8848514D01*
X40335537Y8832224D01*
X40312764Y8827694D01*
X40301134Y8822559D01*
X40267093Y8818609D01*
X40259000Y8817000D01*
X40253217Y8817000D01*
X36454784Y8817000D01*
X36449000Y8817000D01*
X36440906Y8818609D01*
X36406865Y8822559D01*
X36395234Y8827694D01*
X36372463Y8832224D01*
X36348084Y8848513D01*
X36336952Y8853429D01*
X36329347Y8861033D01*
X36307579Y8875579D01*
X36293033Y8897347D01*
X36285429Y8904952D01*
X36280513Y8916084D01*
X36264224Y8940463D01*
X36259694Y8963234D01*
X36254559Y8974865D01*
X36250609Y9008908D01*
X36249000Y9017000D01*
X36249000Y12827000D01*
X36250610Y12835095D01*
X36254559Y12869134D01*
X36259694Y12880764D01*
X36264224Y12903537D01*
X36280514Y12927917D01*
X36285429Y12939047D01*
X36293031Y12946649D01*
X36307579Y12968421D01*
X36329350Y12982968D01*
X36336952Y12990570D01*
X36348080Y12995483D01*
X36372463Y13011776D01*
X36395238Y13016306D01*
X36406865Y13021440D01*
X36440896Y13025388D01*
X36449000Y13027000D01*
X40259000Y13027000D01*
X40267107Y13025387D01*
G37*
G36*
X8524727Y12898387D02*
G01*
X8558754Y12894440D01*
X8570379Y12889306D01*
X8593157Y12884776D01*
X8617541Y12868482D01*
X8628667Y12863570D01*
X8636266Y12855970D01*
X8658041Y12841421D01*
X8672590Y12819646D01*
X8680190Y12812047D01*
X8685102Y12800921D01*
X8701396Y12776537D01*
X8705926Y12753759D01*
X8711060Y12742134D01*
X8715007Y12708105D01*
X8716620Y12700000D01*
X8716620Y10200640D01*
X8715007Y10192534D01*
X8711060Y10158505D01*
X8705926Y10146878D01*
X8701396Y10124103D01*
X8685103Y10099720D01*
X8680190Y10088592D01*
X8672588Y10080990D01*
X8658041Y10059219D01*
X8636269Y10044671D01*
X8628667Y10037069D01*
X8617537Y10032154D01*
X8593157Y10015864D01*
X8570384Y10011334D01*
X8558754Y10006199D01*
X8524713Y10002249D01*
X8516620Y10000640D01*
X8510837Y10000640D01*
X6221164Y10000640D01*
X6215380Y10000640D01*
X6207286Y10002249D01*
X6173245Y10006199D01*
X6161614Y10011334D01*
X6138843Y10015864D01*
X6114464Y10032153D01*
X6103332Y10037069D01*
X6095727Y10044673D01*
X6073959Y10059219D01*
X6059413Y10080987D01*
X6051809Y10088592D01*
X6046893Y10099724D01*
X6030604Y10124103D01*
X6026074Y10146874D01*
X6020939Y10158505D01*
X6016989Y10192548D01*
X6015380Y10200640D01*
X6015380Y12700000D01*
X6016990Y12708095D01*
X6020939Y12742134D01*
X6026074Y12753764D01*
X6030604Y12776537D01*
X6046894Y12800917D01*
X6051809Y12812047D01*
X6059411Y12819649D01*
X6073959Y12841421D01*
X6095730Y12855968D01*
X6103332Y12863570D01*
X6114460Y12868483D01*
X6138843Y12884776D01*
X6161618Y12889306D01*
X6173245Y12894440D01*
X6207276Y12898388D01*
X6215380Y12900000D01*
X8516620Y12900000D01*
X8524727Y12898387D01*
G37*
G36*
X3945107Y12390387D02*
G01*
X3979134Y12386440D01*
X3990759Y12381306D01*
X4013537Y12376776D01*
X4037921Y12360482D01*
X4049047Y12355570D01*
X4056646Y12347970D01*
X4078421Y12333421D01*
X4092970Y12311646D01*
X4100570Y12304047D01*
X4105482Y12292921D01*
X4121776Y12268537D01*
X4126306Y12245759D01*
X4131440Y12234134D01*
X4135387Y12200105D01*
X4137000Y12192000D01*
X4137000Y10668000D01*
X4135387Y10659894D01*
X4131440Y10625865D01*
X4126306Y10614238D01*
X4121776Y10591463D01*
X4105483Y10567080D01*
X4100570Y10555952D01*
X4092968Y10548350D01*
X4078421Y10526579D01*
X4056649Y10512031D01*
X4049047Y10504429D01*
X4037917Y10499514D01*
X4013537Y10483224D01*
X3990764Y10478694D01*
X3979134Y10473559D01*
X3945093Y10469609D01*
X3937000Y10468000D01*
X3931217Y10468000D01*
X2418784Y10468000D01*
X2413000Y10468000D01*
X2404906Y10469609D01*
X2370865Y10473559D01*
X2359234Y10478694D01*
X2336463Y10483224D01*
X2312084Y10499513D01*
X2300952Y10504429D01*
X2293347Y10512033D01*
X2271579Y10526579D01*
X2257033Y10548347D01*
X2249429Y10555952D01*
X2244513Y10567084D01*
X2228224Y10591463D01*
X2223694Y10614234D01*
X2218559Y10625865D01*
X2214609Y10659908D01*
X2213000Y10668000D01*
X2213000Y12192000D01*
X2214610Y12200095D01*
X2218559Y12234134D01*
X2223694Y12245764D01*
X2228224Y12268537D01*
X2244514Y12292917D01*
X2249429Y12304047D01*
X2257031Y12311649D01*
X2271579Y12333421D01*
X2293350Y12347968D01*
X2300952Y12355570D01*
X2312080Y12360483D01*
X2336463Y12376776D01*
X2359238Y12381306D01*
X2370865Y12386440D01*
X2404896Y12390388D01*
X2413000Y12392000D01*
X3937000Y12392000D01*
X3945107Y12390387D01*
G37*
G36*
X45227727Y13533387D02*
G01*
X45261754Y13529440D01*
X45273379Y13524306D01*
X45296157Y13519776D01*
X45320541Y13503482D01*
X45331667Y13498570D01*
X45339266Y13490970D01*
X45361041Y13476421D01*
X45375590Y13454646D01*
X45383190Y13447047D01*
X45388102Y13435921D01*
X45404396Y13411537D01*
X45408926Y13388759D01*
X45414060Y13377134D01*
X45418007Y13343105D01*
X45419620Y13335000D01*
X45419620Y10835640D01*
X45418007Y10827534D01*
X45414060Y10793505D01*
X45408926Y10781878D01*
X45404396Y10759103D01*
X45388103Y10734720D01*
X45383190Y10723592D01*
X45375588Y10715990D01*
X45361041Y10694219D01*
X45339269Y10679671D01*
X45331667Y10672069D01*
X45320537Y10667154D01*
X45296157Y10650864D01*
X45273384Y10646334D01*
X45261754Y10641199D01*
X45227713Y10637249D01*
X45219620Y10635640D01*
X45213837Y10635640D01*
X42924164Y10635640D01*
X42918380Y10635640D01*
X42910286Y10637249D01*
X42876245Y10641199D01*
X42864614Y10646334D01*
X42841843Y10650864D01*
X42817464Y10667153D01*
X42806332Y10672069D01*
X42798727Y10679673D01*
X42776959Y10694219D01*
X42762413Y10715987D01*
X42754809Y10723592D01*
X42749893Y10734724D01*
X42733604Y10759103D01*
X42729074Y10781874D01*
X42723939Y10793505D01*
X42719989Y10827548D01*
X42718380Y10835640D01*
X42718380Y13335000D01*
X42719990Y13343095D01*
X42723939Y13377134D01*
X42729074Y13388764D01*
X42733604Y13411537D01*
X42749894Y13435917D01*
X42754809Y13447047D01*
X42762411Y13454649D01*
X42776959Y13476421D01*
X42798730Y13490968D01*
X42806332Y13498570D01*
X42817460Y13503483D01*
X42841843Y13519776D01*
X42864618Y13524306D01*
X42876245Y13529440D01*
X42910276Y13533388D01*
X42918380Y13535000D01*
X45219620Y13535000D01*
X45227727Y13533387D01*
G37*
G36*
X3945107Y14930387D02*
G01*
X3979134Y14926440D01*
X3990759Y14921306D01*
X4013537Y14916776D01*
X4037921Y14900482D01*
X4049047Y14895570D01*
X4056646Y14887970D01*
X4078421Y14873421D01*
X4092970Y14851646D01*
X4100570Y14844047D01*
X4105482Y14832921D01*
X4121776Y14808537D01*
X4126306Y14785759D01*
X4131440Y14774134D01*
X4135387Y14740105D01*
X4137000Y14732000D01*
X4137000Y13208000D01*
X4135387Y13199894D01*
X4131440Y13165865D01*
X4126306Y13154238D01*
X4121776Y13131463D01*
X4105483Y13107080D01*
X4100570Y13095952D01*
X4092968Y13088350D01*
X4078421Y13066579D01*
X4056649Y13052031D01*
X4049047Y13044429D01*
X4037917Y13039514D01*
X4013537Y13023224D01*
X3990764Y13018694D01*
X3979134Y13013559D01*
X3945093Y13009609D01*
X3937000Y13008000D01*
X3931217Y13008000D01*
X2418784Y13008000D01*
X2413000Y13008000D01*
X2404906Y13009609D01*
X2370865Y13013559D01*
X2359234Y13018694D01*
X2336463Y13023224D01*
X2312084Y13039513D01*
X2300952Y13044429D01*
X2293347Y13052033D01*
X2271579Y13066579D01*
X2257033Y13088347D01*
X2249429Y13095952D01*
X2244513Y13107084D01*
X2228224Y13131463D01*
X2223694Y13154234D01*
X2218559Y13165865D01*
X2214609Y13199908D01*
X2213000Y13208000D01*
X2213000Y14732000D01*
X2214610Y14740095D01*
X2218559Y14774134D01*
X2223694Y14785764D01*
X2228224Y14808537D01*
X2244514Y14832917D01*
X2249429Y14844047D01*
X2257031Y14851649D01*
X2271579Y14873421D01*
X2293350Y14887968D01*
X2300952Y14895570D01*
X2312080Y14900483D01*
X2336463Y14916776D01*
X2359238Y14921306D01*
X2370865Y14926440D01*
X2404896Y14930388D01*
X2413000Y14932000D01*
X3937000Y14932000D01*
X3945107Y14930387D01*
G37*
G36*
X8524727Y17196067D02*
G01*
X8558754Y17192120D01*
X8570379Y17186986D01*
X8593157Y17182456D01*
X8617541Y17166162D01*
X8628667Y17161250D01*
X8636266Y17153650D01*
X8658041Y17139101D01*
X8672590Y17117326D01*
X8680190Y17109727D01*
X8685102Y17098601D01*
X8701396Y17074217D01*
X8705926Y17051439D01*
X8711060Y17039814D01*
X8715007Y17005785D01*
X8716620Y16997680D01*
X8716620Y14498320D01*
X8715007Y14490214D01*
X8711060Y14456185D01*
X8705926Y14444558D01*
X8701396Y14421783D01*
X8685103Y14397400D01*
X8680190Y14386272D01*
X8672588Y14378670D01*
X8658041Y14356899D01*
X8636269Y14342351D01*
X8628667Y14334749D01*
X8617537Y14329834D01*
X8593157Y14313544D01*
X8570384Y14309014D01*
X8558754Y14303879D01*
X8524713Y14299929D01*
X8516620Y14298320D01*
X8510837Y14298320D01*
X6221164Y14298320D01*
X6215380Y14298320D01*
X6207286Y14299929D01*
X6173245Y14303879D01*
X6161614Y14309014D01*
X6138843Y14313544D01*
X6114464Y14329833D01*
X6103332Y14334749D01*
X6095727Y14342353D01*
X6073959Y14356899D01*
X6059413Y14378667D01*
X6051809Y14386272D01*
X6046893Y14397404D01*
X6030604Y14421783D01*
X6026074Y14444554D01*
X6020939Y14456185D01*
X6016989Y14490228D01*
X6015380Y14498320D01*
X6015380Y16997680D01*
X6016990Y17005775D01*
X6020939Y17039814D01*
X6026074Y17051444D01*
X6030604Y17074217D01*
X6046894Y17098597D01*
X6051809Y17109727D01*
X6059411Y17117329D01*
X6073959Y17139101D01*
X6095730Y17153648D01*
X6103332Y17161250D01*
X6114460Y17166163D01*
X6138843Y17182456D01*
X6161618Y17186986D01*
X6173245Y17192120D01*
X6207276Y17196068D01*
X6215380Y17197680D01*
X8516620Y17197680D01*
X8524727Y17196067D01*
G37*
G36*
X45227727Y17831067D02*
G01*
X45261754Y17827120D01*
X45273379Y17821986D01*
X45296157Y17817456D01*
X45320541Y17801162D01*
X45331667Y17796250D01*
X45339266Y17788650D01*
X45361041Y17774101D01*
X45375590Y17752326D01*
X45383190Y17744727D01*
X45388102Y17733601D01*
X45404396Y17709217D01*
X45408926Y17686439D01*
X45414060Y17674814D01*
X45418007Y17640785D01*
X45419620Y17632680D01*
X45419620Y15133320D01*
X45418007Y15125214D01*
X45414060Y15091185D01*
X45408926Y15079558D01*
X45404396Y15056783D01*
X45388103Y15032400D01*
X45383190Y15021272D01*
X45375588Y15013670D01*
X45361041Y14991899D01*
X45339269Y14977351D01*
X45331667Y14969749D01*
X45320537Y14964834D01*
X45296157Y14948544D01*
X45273384Y14944014D01*
X45261754Y14938879D01*
X45227713Y14934929D01*
X45219620Y14933320D01*
X45213837Y14933320D01*
X42924164Y14933320D01*
X42918380Y14933320D01*
X42910286Y14934929D01*
X42876245Y14938879D01*
X42864614Y14944014D01*
X42841843Y14948544D01*
X42817464Y14964833D01*
X42806332Y14969749D01*
X42798727Y14977353D01*
X42776959Y14991899D01*
X42762413Y15013667D01*
X42754809Y15021272D01*
X42749893Y15032404D01*
X42733604Y15056783D01*
X42729074Y15079554D01*
X42723939Y15091185D01*
X42719989Y15125228D01*
X42718380Y15133320D01*
X42718380Y17632680D01*
X42719990Y17640775D01*
X42723939Y17674814D01*
X42729074Y17686444D01*
X42733604Y17709217D01*
X42749894Y17733597D01*
X42754809Y17744727D01*
X42762411Y17752329D01*
X42776959Y17774101D01*
X42798730Y17788648D01*
X42806332Y17796250D01*
X42817460Y17801163D01*
X42841843Y17817456D01*
X42864618Y17821986D01*
X42876245Y17827120D01*
X42910276Y17831068D01*
X42918380Y17832680D01*
X45219620Y17832680D01*
X45227727Y17831067D01*
G37*
G36*
X34107607Y16454387D02*
G01*
X34141634Y16450440D01*
X34153259Y16445306D01*
X34176037Y16440776D01*
X34200421Y16424482D01*
X34211547Y16419570D01*
X34219146Y16411970D01*
X34240921Y16397421D01*
X34255470Y16375646D01*
X34263070Y16368047D01*
X34267982Y16356921D01*
X34284276Y16332537D01*
X34288806Y16309759D01*
X34293940Y16298134D01*
X34297887Y16264105D01*
X34299500Y16256000D01*
X34299500Y15367000D01*
X34297887Y15358894D01*
X34293940Y15324865D01*
X34288806Y15313238D01*
X34284276Y15290463D01*
X34267983Y15266080D01*
X34263070Y15254952D01*
X34255468Y15247350D01*
X34240921Y15225579D01*
X34219149Y15211031D01*
X34211547Y15203429D01*
X34200417Y15198514D01*
X34176037Y15182224D01*
X34153264Y15177694D01*
X34141634Y15172559D01*
X34107593Y15168609D01*
X34099500Y15167000D01*
X34093717Y15167000D01*
X32708284Y15167000D01*
X32702500Y15167000D01*
X32694406Y15168609D01*
X32660365Y15172559D01*
X32648734Y15177694D01*
X32625963Y15182224D01*
X32601584Y15198513D01*
X32590452Y15203429D01*
X32582847Y15211033D01*
X32561079Y15225579D01*
X32546533Y15247347D01*
X32538929Y15254952D01*
X32534013Y15266084D01*
X32517724Y15290463D01*
X32513194Y15313234D01*
X32508059Y15324865D01*
X32504109Y15358908D01*
X32502500Y15367000D01*
X32502500Y16256000D01*
X32504110Y16264095D01*
X32508059Y16298134D01*
X32513194Y16309764D01*
X32517724Y16332537D01*
X32534014Y16356917D01*
X32538929Y16368047D01*
X32546531Y16375649D01*
X32561079Y16397421D01*
X32582850Y16411968D01*
X32590452Y16419570D01*
X32601580Y16424483D01*
X32625963Y16440776D01*
X32648738Y16445306D01*
X32660365Y16450440D01*
X32694396Y16454388D01*
X32702500Y16456000D01*
X34099500Y16456000D01*
X34107607Y16454387D01*
G37*
G36*
X27175947Y17986007D02*
G01*
X27209974Y17982060D01*
X27221599Y17976926D01*
X27244377Y17972396D01*
X27268761Y17956102D01*
X27279887Y17951190D01*
X27287486Y17943590D01*
X27309261Y17929041D01*
X27323810Y17907266D01*
X27331410Y17899667D01*
X27336322Y17888541D01*
X27352616Y17864157D01*
X27357146Y17841379D01*
X27362280Y17829754D01*
X27366227Y17795725D01*
X27367840Y17787620D01*
X27367840Y15486380D01*
X27366227Y15478274D01*
X27362280Y15444245D01*
X27357146Y15432618D01*
X27352616Y15409843D01*
X27336323Y15385460D01*
X27331410Y15374332D01*
X27323808Y15366730D01*
X27309261Y15344959D01*
X27287489Y15330411D01*
X27279887Y15322809D01*
X27268757Y15317894D01*
X27244377Y15301604D01*
X27221604Y15297074D01*
X27209974Y15291939D01*
X27175933Y15287989D01*
X27167840Y15286380D01*
X27162057Y15286380D01*
X24674264Y15286380D01*
X24668480Y15286380D01*
X24660386Y15287989D01*
X24626345Y15291939D01*
X24614714Y15297074D01*
X24591943Y15301604D01*
X24567564Y15317893D01*
X24556432Y15322809D01*
X24548827Y15330413D01*
X24527059Y15344959D01*
X24512513Y15366727D01*
X24504909Y15374332D01*
X24499993Y15385464D01*
X24483704Y15409843D01*
X24479174Y15432614D01*
X24474039Y15444245D01*
X24470089Y15478288D01*
X24468480Y15486380D01*
X24468480Y17787620D01*
X24470090Y17795715D01*
X24474039Y17829754D01*
X24479174Y17841384D01*
X24483704Y17864157D01*
X24499994Y17888537D01*
X24504909Y17899667D01*
X24512511Y17907269D01*
X24527059Y17929041D01*
X24548830Y17943588D01*
X24556432Y17951190D01*
X24567560Y17956103D01*
X24591943Y17972396D01*
X24614718Y17976926D01*
X24626345Y17982060D01*
X24660376Y17986008D01*
X24668480Y17987620D01*
X27167840Y17987620D01*
X27175947Y17986007D01*
G37*
G36*
X31473627Y17986007D02*
G01*
X31507654Y17982060D01*
X31519279Y17976926D01*
X31542057Y17972396D01*
X31566441Y17956102D01*
X31577567Y17951190D01*
X31585166Y17943590D01*
X31606941Y17929041D01*
X31621490Y17907266D01*
X31629090Y17899667D01*
X31634002Y17888541D01*
X31650296Y17864157D01*
X31654826Y17841379D01*
X31659960Y17829754D01*
X31663907Y17795725D01*
X31665520Y17787620D01*
X31665520Y15486380D01*
X31663907Y15478274D01*
X31659960Y15444245D01*
X31654826Y15432618D01*
X31650296Y15409843D01*
X31634003Y15385460D01*
X31629090Y15374332D01*
X31621488Y15366730D01*
X31606941Y15344959D01*
X31585169Y15330411D01*
X31577567Y15322809D01*
X31566437Y15317894D01*
X31542057Y15301604D01*
X31519284Y15297074D01*
X31507654Y15291939D01*
X31473613Y15287989D01*
X31465520Y15286380D01*
X31459737Y15286380D01*
X28971944Y15286380D01*
X28966160Y15286380D01*
X28958066Y15287989D01*
X28924025Y15291939D01*
X28912394Y15297074D01*
X28889623Y15301604D01*
X28865244Y15317893D01*
X28854112Y15322809D01*
X28846507Y15330413D01*
X28824739Y15344959D01*
X28810193Y15366727D01*
X28802589Y15374332D01*
X28797673Y15385464D01*
X28781384Y15409843D01*
X28776854Y15432614D01*
X28771719Y15444245D01*
X28767769Y15478288D01*
X28766160Y15486380D01*
X28766160Y17787620D01*
X28767770Y17795715D01*
X28771719Y17829754D01*
X28776854Y17841384D01*
X28781384Y17864157D01*
X28797674Y17888537D01*
X28802589Y17899667D01*
X28810191Y17907269D01*
X28824739Y17929041D01*
X28846510Y17943588D01*
X28854112Y17951190D01*
X28865240Y17956103D01*
X28889623Y17972396D01*
X28912398Y17976926D01*
X28924025Y17982060D01*
X28958056Y17986008D01*
X28966160Y17987620D01*
X31465520Y17987620D01*
X31473627Y17986007D01*
G37*
G36*
X18316427Y18466067D02*
G01*
X18350454Y18462120D01*
X18362079Y18456986D01*
X18384857Y18452456D01*
X18409241Y18436162D01*
X18420367Y18431250D01*
X18427966Y18423650D01*
X18449741Y18409101D01*
X18464290Y18387326D01*
X18471890Y18379727D01*
X18476802Y18368601D01*
X18493096Y18344217D01*
X18497626Y18321439D01*
X18502760Y18309814D01*
X18506707Y18275785D01*
X18508320Y18267680D01*
X18508320Y15768320D01*
X18506707Y15760214D01*
X18502760Y15726185D01*
X18497626Y15714558D01*
X18493096Y15691783D01*
X18476803Y15667400D01*
X18471890Y15656272D01*
X18464288Y15648670D01*
X18449741Y15626899D01*
X18427969Y15612351D01*
X18420367Y15604749D01*
X18409237Y15599834D01*
X18384857Y15583544D01*
X18362084Y15579014D01*
X18350454Y15573879D01*
X18316413Y15569929D01*
X18308320Y15568320D01*
X18302537Y15568320D01*
X15763944Y15568320D01*
X15758160Y15568320D01*
X15750066Y15569929D01*
X15716025Y15573879D01*
X15704394Y15579014D01*
X15681623Y15583544D01*
X15657244Y15599833D01*
X15646112Y15604749D01*
X15638507Y15612353D01*
X15616739Y15626899D01*
X15602193Y15648667D01*
X15594589Y15656272D01*
X15589673Y15667404D01*
X15573384Y15691783D01*
X15568854Y15714554D01*
X15563719Y15726185D01*
X15559769Y15760228D01*
X15558160Y15768320D01*
X15558160Y18267680D01*
X15559770Y18275775D01*
X15563719Y18309814D01*
X15568854Y18321444D01*
X15573384Y18344217D01*
X15589674Y18368597D01*
X15594589Y18379727D01*
X15602191Y18387329D01*
X15616739Y18409101D01*
X15638510Y18423648D01*
X15646112Y18431250D01*
X15657240Y18436163D01*
X15681623Y18452456D01*
X15704398Y18456986D01*
X15716025Y18462120D01*
X15750056Y18466068D01*
X15758160Y18467680D01*
X18308320Y18467680D01*
X18316427Y18466067D01*
G37*
G36*
X23365947Y18466067D02*
G01*
X23399974Y18462120D01*
X23411599Y18456986D01*
X23434377Y18452456D01*
X23458761Y18436162D01*
X23469887Y18431250D01*
X23477486Y18423650D01*
X23499261Y18409101D01*
X23513810Y18387326D01*
X23521410Y18379727D01*
X23526322Y18368601D01*
X23542616Y18344217D01*
X23547146Y18321439D01*
X23552280Y18309814D01*
X23556227Y18275785D01*
X23557840Y18267680D01*
X23557840Y15768320D01*
X23556227Y15760214D01*
X23552280Y15726185D01*
X23547146Y15714558D01*
X23542616Y15691783D01*
X23526323Y15667400D01*
X23521410Y15656272D01*
X23513808Y15648670D01*
X23499261Y15626899D01*
X23477489Y15612351D01*
X23469887Y15604749D01*
X23458757Y15599834D01*
X23434377Y15583544D01*
X23411604Y15579014D01*
X23399974Y15573879D01*
X23365933Y15569929D01*
X23357840Y15568320D01*
X23352057Y15568320D01*
X20813464Y15568320D01*
X20807680Y15568320D01*
X20799586Y15569929D01*
X20765545Y15573879D01*
X20753914Y15579014D01*
X20731143Y15583544D01*
X20706764Y15599833D01*
X20695632Y15604749D01*
X20688027Y15612353D01*
X20666259Y15626899D01*
X20651713Y15648667D01*
X20644109Y15656272D01*
X20639193Y15667404D01*
X20622904Y15691783D01*
X20618374Y15714554D01*
X20613239Y15726185D01*
X20609289Y15760228D01*
X20607680Y15768320D01*
X20607680Y18267680D01*
X20609290Y18275775D01*
X20613239Y18309814D01*
X20618374Y18321444D01*
X20622904Y18344217D01*
X20639194Y18368597D01*
X20644109Y18379727D01*
X20651711Y18387329D01*
X20666259Y18409101D01*
X20688030Y18423648D01*
X20695632Y18431250D01*
X20706760Y18436163D01*
X20731143Y18452456D01*
X20753918Y18456986D01*
X20765545Y18462120D01*
X20799576Y18466068D01*
X20807680Y18467680D01*
X23357840Y18467680D01*
X23365947Y18466067D01*
G37*
G36*
X3373607Y18041887D02*
G01*
X3407634Y18037940D01*
X3419259Y18032806D01*
X3442037Y18028276D01*
X3466421Y18011982D01*
X3477547Y18007070D01*
X3485146Y17999470D01*
X3506921Y17984921D01*
X3521470Y17963146D01*
X3529070Y17955547D01*
X3533982Y17944421D01*
X3550276Y17920037D01*
X3554806Y17897259D01*
X3559940Y17885634D01*
X3563887Y17851605D01*
X3565500Y17843500D01*
X3565500Y16446500D01*
X3563887Y16438394D01*
X3559940Y16404365D01*
X3554806Y16392738D01*
X3550276Y16369963D01*
X3533983Y16345580D01*
X3529070Y16334452D01*
X3521468Y16326850D01*
X3506921Y16305079D01*
X3485149Y16290531D01*
X3477547Y16282929D01*
X3466417Y16278014D01*
X3442037Y16261724D01*
X3419264Y16257194D01*
X3407634Y16252059D01*
X3373593Y16248109D01*
X3365500Y16246500D01*
X3359717Y16246500D01*
X2482284Y16246500D01*
X2476500Y16246500D01*
X2468406Y16248109D01*
X2434365Y16252059D01*
X2422734Y16257194D01*
X2399963Y16261724D01*
X2375584Y16278013D01*
X2364452Y16282929D01*
X2356847Y16290533D01*
X2335079Y16305079D01*
X2320533Y16326847D01*
X2312929Y16334452D01*
X2308013Y16345584D01*
X2291724Y16369963D01*
X2287194Y16392734D01*
X2282059Y16404365D01*
X2278109Y16438408D01*
X2276500Y16446500D01*
X2276500Y17843500D01*
X2278110Y17851595D01*
X2282059Y17885634D01*
X2287194Y17897264D01*
X2291724Y17920037D01*
X2308014Y17944417D01*
X2312929Y17955547D01*
X2320531Y17963149D01*
X2335079Y17984921D01*
X2356850Y17999468D01*
X2364452Y18007070D01*
X2375580Y18011983D01*
X2399963Y18028276D01*
X2422738Y18032806D01*
X2434365Y18037940D01*
X2468396Y18041888D01*
X2476500Y18043500D01*
X3365500Y18043500D01*
X3373607Y18041887D01*
G37*
G36*
X5278607Y18041887D02*
G01*
X5312634Y18037940D01*
X5324259Y18032806D01*
X5347037Y18028276D01*
X5371421Y18011982D01*
X5382547Y18007070D01*
X5390146Y17999470D01*
X5411921Y17984921D01*
X5426470Y17963146D01*
X5434070Y17955547D01*
X5438982Y17944421D01*
X5455276Y17920037D01*
X5459806Y17897259D01*
X5464940Y17885634D01*
X5468887Y17851605D01*
X5470500Y17843500D01*
X5470500Y16446500D01*
X5468887Y16438394D01*
X5464940Y16404365D01*
X5459806Y16392738D01*
X5455276Y16369963D01*
X5438983Y16345580D01*
X5434070Y16334452D01*
X5426468Y16326850D01*
X5411921Y16305079D01*
X5390149Y16290531D01*
X5382547Y16282929D01*
X5371417Y16278014D01*
X5347037Y16261724D01*
X5324264Y16257194D01*
X5312634Y16252059D01*
X5278593Y16248109D01*
X5270500Y16246500D01*
X5264717Y16246500D01*
X4387284Y16246500D01*
X4381500Y16246500D01*
X4373406Y16248109D01*
X4339365Y16252059D01*
X4327734Y16257194D01*
X4304963Y16261724D01*
X4280584Y16278013D01*
X4269452Y16282929D01*
X4261847Y16290533D01*
X4240079Y16305079D01*
X4225533Y16326847D01*
X4217929Y16334452D01*
X4213013Y16345584D01*
X4196724Y16369963D01*
X4192194Y16392734D01*
X4187059Y16404365D01*
X4183109Y16438408D01*
X4181500Y16446500D01*
X4181500Y17843500D01*
X4183110Y17851595D01*
X4187059Y17885634D01*
X4192194Y17897264D01*
X4196724Y17920037D01*
X4213014Y17944417D01*
X4217929Y17955547D01*
X4225531Y17963149D01*
X4240079Y17984921D01*
X4261850Y17999468D01*
X4269452Y18007070D01*
X4280580Y18011983D01*
X4304963Y18028276D01*
X4327738Y18032806D01*
X4339365Y18037940D01*
X4373396Y18041888D01*
X4381500Y18043500D01*
X5270500Y18043500D01*
X5278607Y18041887D01*
G37*
G36*
X10485607Y18041887D02*
G01*
X10519634Y18037940D01*
X10531259Y18032806D01*
X10554037Y18028276D01*
X10578421Y18011982D01*
X10589547Y18007070D01*
X10597146Y17999470D01*
X10618921Y17984921D01*
X10633470Y17963146D01*
X10641070Y17955547D01*
X10645982Y17944421D01*
X10662276Y17920037D01*
X10666806Y17897259D01*
X10671940Y17885634D01*
X10675887Y17851605D01*
X10677500Y17843500D01*
X10677500Y16446500D01*
X10675887Y16438394D01*
X10671940Y16404365D01*
X10666806Y16392738D01*
X10662276Y16369963D01*
X10645983Y16345580D01*
X10641070Y16334452D01*
X10633468Y16326850D01*
X10618921Y16305079D01*
X10597149Y16290531D01*
X10589547Y16282929D01*
X10578417Y16278014D01*
X10554037Y16261724D01*
X10531264Y16257194D01*
X10519634Y16252059D01*
X10485593Y16248109D01*
X10477500Y16246500D01*
X10471717Y16246500D01*
X9594284Y16246500D01*
X9588500Y16246500D01*
X9580406Y16248109D01*
X9546365Y16252059D01*
X9534734Y16257194D01*
X9511963Y16261724D01*
X9487584Y16278013D01*
X9476452Y16282929D01*
X9468847Y16290533D01*
X9447079Y16305079D01*
X9432533Y16326847D01*
X9424929Y16334452D01*
X9420013Y16345584D01*
X9403724Y16369963D01*
X9399194Y16392734D01*
X9394059Y16404365D01*
X9390109Y16438408D01*
X9388500Y16446500D01*
X9388500Y17843500D01*
X9390110Y17851595D01*
X9394059Y17885634D01*
X9399194Y17897264D01*
X9403724Y17920037D01*
X9420014Y17944417D01*
X9424929Y17955547D01*
X9432531Y17963149D01*
X9447079Y17984921D01*
X9468850Y17999468D01*
X9476452Y18007070D01*
X9487580Y18011983D01*
X9511963Y18028276D01*
X9534738Y18032806D01*
X9546365Y18037940D01*
X9580396Y18041888D01*
X9588500Y18043500D01*
X10477500Y18043500D01*
X10485607Y18041887D01*
G37*
G36*
X12390607Y18041887D02*
G01*
X12424634Y18037940D01*
X12436259Y18032806D01*
X12459037Y18028276D01*
X12483421Y18011982D01*
X12494547Y18007070D01*
X12502146Y17999470D01*
X12523921Y17984921D01*
X12538470Y17963146D01*
X12546070Y17955547D01*
X12550982Y17944421D01*
X12567276Y17920037D01*
X12571806Y17897259D01*
X12576940Y17885634D01*
X12580887Y17851605D01*
X12582500Y17843500D01*
X12582500Y16446500D01*
X12580887Y16438394D01*
X12576940Y16404365D01*
X12571806Y16392738D01*
X12567276Y16369963D01*
X12550983Y16345580D01*
X12546070Y16334452D01*
X12538468Y16326850D01*
X12523921Y16305079D01*
X12502149Y16290531D01*
X12494547Y16282929D01*
X12483417Y16278014D01*
X12459037Y16261724D01*
X12436264Y16257194D01*
X12424634Y16252059D01*
X12390593Y16248109D01*
X12382500Y16246500D01*
X12376717Y16246500D01*
X11499284Y16246500D01*
X11493500Y16246500D01*
X11485406Y16248109D01*
X11451365Y16252059D01*
X11439734Y16257194D01*
X11416963Y16261724D01*
X11392584Y16278013D01*
X11381452Y16282929D01*
X11373847Y16290533D01*
X11352079Y16305079D01*
X11337533Y16326847D01*
X11329929Y16334452D01*
X11325013Y16345584D01*
X11308724Y16369963D01*
X11304194Y16392734D01*
X11299059Y16404365D01*
X11295109Y16438408D01*
X11293500Y16446500D01*
X11293500Y17843500D01*
X11295110Y17851595D01*
X11299059Y17885634D01*
X11304194Y17897264D01*
X11308724Y17920037D01*
X11325014Y17944417D01*
X11329929Y17955547D01*
X11337531Y17963149D01*
X11352079Y17984921D01*
X11373850Y17999468D01*
X11381452Y18007070D01*
X11392580Y18011983D01*
X11416963Y18028276D01*
X11439738Y18032806D01*
X11451365Y18037940D01*
X11485396Y18041888D01*
X11493500Y18043500D01*
X12382500Y18043500D01*
X12390607Y18041887D01*
G37*
G36*
X47061607Y18041887D02*
G01*
X47095634Y18037940D01*
X47107259Y18032806D01*
X47130037Y18028276D01*
X47154421Y18011982D01*
X47165547Y18007070D01*
X47173146Y17999470D01*
X47194921Y17984921D01*
X47209470Y17963146D01*
X47217070Y17955547D01*
X47221982Y17944421D01*
X47238276Y17920037D01*
X47242806Y17897259D01*
X47247940Y17885634D01*
X47251887Y17851605D01*
X47253500Y17843500D01*
X47253500Y16446500D01*
X47251887Y16438394D01*
X47247940Y16404365D01*
X47242806Y16392738D01*
X47238276Y16369963D01*
X47221983Y16345580D01*
X47217070Y16334452D01*
X47209468Y16326850D01*
X47194921Y16305079D01*
X47173149Y16290531D01*
X47165547Y16282929D01*
X47154417Y16278014D01*
X47130037Y16261724D01*
X47107264Y16257194D01*
X47095634Y16252059D01*
X47061593Y16248109D01*
X47053500Y16246500D01*
X47047717Y16246500D01*
X46170284Y16246500D01*
X46164500Y16246500D01*
X46156406Y16248109D01*
X46122365Y16252059D01*
X46110734Y16257194D01*
X46087963Y16261724D01*
X46063584Y16278013D01*
X46052452Y16282929D01*
X46044847Y16290533D01*
X46023079Y16305079D01*
X46008533Y16326847D01*
X46000929Y16334452D01*
X45996013Y16345584D01*
X45979724Y16369963D01*
X45975194Y16392734D01*
X45970059Y16404365D01*
X45966109Y16438408D01*
X45964500Y16446500D01*
X45964500Y17843500D01*
X45966110Y17851595D01*
X45970059Y17885634D01*
X45975194Y17897264D01*
X45979724Y17920037D01*
X45996014Y17944417D01*
X46000929Y17955547D01*
X46008531Y17963149D01*
X46023079Y17984921D01*
X46044850Y17999468D01*
X46052452Y18007070D01*
X46063580Y18011983D01*
X46087963Y18028276D01*
X46110738Y18032806D01*
X46122365Y18037940D01*
X46156396Y18041888D01*
X46164500Y18043500D01*
X47053500Y18043500D01*
X47061607Y18041887D01*
G37*
G36*
X48966607Y18041887D02*
G01*
X49000634Y18037940D01*
X49012259Y18032806D01*
X49035037Y18028276D01*
X49059421Y18011982D01*
X49070547Y18007070D01*
X49078146Y17999470D01*
X49099921Y17984921D01*
X49114470Y17963146D01*
X49122070Y17955547D01*
X49126982Y17944421D01*
X49143276Y17920037D01*
X49147806Y17897259D01*
X49152940Y17885634D01*
X49156887Y17851605D01*
X49158500Y17843500D01*
X49158500Y16446500D01*
X49156887Y16438394D01*
X49152940Y16404365D01*
X49147806Y16392738D01*
X49143276Y16369963D01*
X49126983Y16345580D01*
X49122070Y16334452D01*
X49114468Y16326850D01*
X49099921Y16305079D01*
X49078149Y16290531D01*
X49070547Y16282929D01*
X49059417Y16278014D01*
X49035037Y16261724D01*
X49012264Y16257194D01*
X49000634Y16252059D01*
X48966593Y16248109D01*
X48958500Y16246500D01*
X48952717Y16246500D01*
X48075284Y16246500D01*
X48069500Y16246500D01*
X48061406Y16248109D01*
X48027365Y16252059D01*
X48015734Y16257194D01*
X47992963Y16261724D01*
X47968584Y16278013D01*
X47957452Y16282929D01*
X47949847Y16290533D01*
X47928079Y16305079D01*
X47913533Y16326847D01*
X47905929Y16334452D01*
X47901013Y16345584D01*
X47884724Y16369963D01*
X47880194Y16392734D01*
X47875059Y16404365D01*
X47871109Y16438408D01*
X47869500Y16446500D01*
X47869500Y17843500D01*
X47871110Y17851595D01*
X47875059Y17885634D01*
X47880194Y17897264D01*
X47884724Y17920037D01*
X47901014Y17944417D01*
X47905929Y17955547D01*
X47913531Y17963149D01*
X47928079Y17984921D01*
X47949850Y17999468D01*
X47957452Y18007070D01*
X47968580Y18011983D01*
X47992963Y18028276D01*
X48015738Y18032806D01*
X48027365Y18037940D01*
X48061396Y18041888D01*
X48069500Y18043500D01*
X48958500Y18043500D01*
X48966607Y18041887D01*
G37*
G36*
X39505107Y18105387D02*
G01*
X39539134Y18101440D01*
X39550759Y18096306D01*
X39573537Y18091776D01*
X39597921Y18075482D01*
X39609047Y18070570D01*
X39616646Y18062970D01*
X39638421Y18048421D01*
X39652970Y18026646D01*
X39660570Y18019047D01*
X39665482Y18007921D01*
X39681776Y17983537D01*
X39686306Y17960759D01*
X39691440Y17949134D01*
X39695387Y17915105D01*
X39697000Y17907000D01*
X39697000Y16510000D01*
X39695387Y16501894D01*
X39691440Y16467865D01*
X39686306Y16456238D01*
X39681776Y16433463D01*
X39665483Y16409080D01*
X39660570Y16397952D01*
X39652968Y16390350D01*
X39638421Y16368579D01*
X39616649Y16354031D01*
X39609047Y16346429D01*
X39597917Y16341514D01*
X39573537Y16325224D01*
X39550764Y16320694D01*
X39539134Y16315559D01*
X39505093Y16311609D01*
X39497000Y16310000D01*
X39491217Y16310000D01*
X38613784Y16310000D01*
X38608000Y16310000D01*
X38599906Y16311609D01*
X38565865Y16315559D01*
X38554234Y16320694D01*
X38531463Y16325224D01*
X38507084Y16341513D01*
X38495952Y16346429D01*
X38488347Y16354033D01*
X38466579Y16368579D01*
X38452033Y16390347D01*
X38444429Y16397952D01*
X38439513Y16409084D01*
X38423224Y16433463D01*
X38418694Y16456234D01*
X38413559Y16467865D01*
X38409609Y16501908D01*
X38408000Y16510000D01*
X38408000Y17907000D01*
X38409610Y17915095D01*
X38413559Y17949134D01*
X38418694Y17960764D01*
X38423224Y17983537D01*
X38439514Y18007917D01*
X38444429Y18019047D01*
X38452031Y18026649D01*
X38466579Y18048421D01*
X38488350Y18062968D01*
X38495952Y18070570D01*
X38507080Y18075483D01*
X38531463Y18091776D01*
X38554238Y18096306D01*
X38565865Y18101440D01*
X38599896Y18105388D01*
X38608000Y18107000D01*
X39497000Y18107000D01*
X39505107Y18105387D01*
G37*
G36*
X41410107Y18105387D02*
G01*
X41444134Y18101440D01*
X41455759Y18096306D01*
X41478537Y18091776D01*
X41502921Y18075482D01*
X41514047Y18070570D01*
X41521646Y18062970D01*
X41543421Y18048421D01*
X41557970Y18026646D01*
X41565570Y18019047D01*
X41570482Y18007921D01*
X41586776Y17983537D01*
X41591306Y17960759D01*
X41596440Y17949134D01*
X41600387Y17915105D01*
X41602000Y17907000D01*
X41602000Y16510000D01*
X41600387Y16501894D01*
X41596440Y16467865D01*
X41591306Y16456238D01*
X41586776Y16433463D01*
X41570483Y16409080D01*
X41565570Y16397952D01*
X41557968Y16390350D01*
X41543421Y16368579D01*
X41521649Y16354031D01*
X41514047Y16346429D01*
X41502917Y16341514D01*
X41478537Y16325224D01*
X41455764Y16320694D01*
X41444134Y16315559D01*
X41410093Y16311609D01*
X41402000Y16310000D01*
X41396217Y16310000D01*
X40518784Y16310000D01*
X40513000Y16310000D01*
X40504906Y16311609D01*
X40470865Y16315559D01*
X40459234Y16320694D01*
X40436463Y16325224D01*
X40412084Y16341513D01*
X40400952Y16346429D01*
X40393347Y16354033D01*
X40371579Y16368579D01*
X40357033Y16390347D01*
X40349429Y16397952D01*
X40344513Y16409084D01*
X40328224Y16433463D01*
X40323694Y16456234D01*
X40318559Y16467865D01*
X40314609Y16501908D01*
X40313000Y16510000D01*
X40313000Y17907000D01*
X40314610Y17915095D01*
X40318559Y17949134D01*
X40323694Y17960764D01*
X40328224Y17983537D01*
X40344514Y18007917D01*
X40349429Y18019047D01*
X40357031Y18026649D01*
X40371579Y18048421D01*
X40393350Y18062968D01*
X40400952Y18070570D01*
X40412080Y18075483D01*
X40436463Y18091776D01*
X40459238Y18096306D01*
X40470865Y18101440D01*
X40504896Y18105388D01*
X40513000Y18107000D01*
X41402000Y18107000D01*
X41410107Y18105387D01*
G37*
G36*
X34107607Y18359387D02*
G01*
X34141634Y18355440D01*
X34153259Y18350306D01*
X34176037Y18345776D01*
X34200421Y18329482D01*
X34211547Y18324570D01*
X34219146Y18316970D01*
X34240921Y18302421D01*
X34255470Y18280646D01*
X34263070Y18273047D01*
X34267982Y18261921D01*
X34284276Y18237537D01*
X34288806Y18214759D01*
X34293940Y18203134D01*
X34297887Y18169105D01*
X34299500Y18161000D01*
X34299500Y17272000D01*
X34297887Y17263894D01*
X34293940Y17229865D01*
X34288806Y17218238D01*
X34284276Y17195463D01*
X34267983Y17171080D01*
X34263070Y17159952D01*
X34255468Y17152350D01*
X34240921Y17130579D01*
X34219149Y17116031D01*
X34211547Y17108429D01*
X34200417Y17103514D01*
X34176037Y17087224D01*
X34153264Y17082694D01*
X34141634Y17077559D01*
X34107593Y17073609D01*
X34099500Y17072000D01*
X34093717Y17072000D01*
X32708284Y17072000D01*
X32702500Y17072000D01*
X32694406Y17073609D01*
X32660365Y17077559D01*
X32648734Y17082694D01*
X32625963Y17087224D01*
X32601584Y17103513D01*
X32590452Y17108429D01*
X32582847Y17116033D01*
X32561079Y17130579D01*
X32546533Y17152347D01*
X32538929Y17159952D01*
X32534013Y17171084D01*
X32517724Y17195463D01*
X32513194Y17218234D01*
X32508059Y17229865D01*
X32504109Y17263908D01*
X32502500Y17272000D01*
X32502500Y18161000D01*
X32504110Y18169095D01*
X32508059Y18203134D01*
X32513194Y18214764D01*
X32517724Y18237537D01*
X32534014Y18261917D01*
X32538929Y18273047D01*
X32546531Y18280649D01*
X32561079Y18302421D01*
X32582850Y18316968D01*
X32590452Y18324570D01*
X32601580Y18329483D01*
X32625963Y18345776D01*
X32648738Y18350306D01*
X32660365Y18355440D01*
X32694396Y18359388D01*
X32702500Y18361000D01*
X34099500Y18361000D01*
X34107607Y18359387D01*
G37*
G36*
X26297107Y21089887D02*
G01*
X26331134Y21085940D01*
X26342759Y21080806D01*
X26365537Y21076276D01*
X26389921Y21059982D01*
X26401047Y21055070D01*
X26408646Y21047470D01*
X26430421Y21032921D01*
X26444970Y21011146D01*
X26452570Y21003547D01*
X26457482Y20992421D01*
X26473776Y20968037D01*
X26478306Y20945259D01*
X26483440Y20933634D01*
X26487387Y20899605D01*
X26489000Y20891500D01*
X26489000Y19494500D01*
X26487387Y19486394D01*
X26483440Y19452365D01*
X26478306Y19440738D01*
X26473776Y19417963D01*
X26457483Y19393580D01*
X26452570Y19382452D01*
X26444968Y19374850D01*
X26430421Y19353079D01*
X26408649Y19338531D01*
X26401047Y19330929D01*
X26389917Y19326014D01*
X26365537Y19309724D01*
X26342764Y19305194D01*
X26331134Y19300059D01*
X26297093Y19296109D01*
X26289000Y19294500D01*
X26283217Y19294500D01*
X25405784Y19294500D01*
X25400000Y19294500D01*
X25391906Y19296109D01*
X25357865Y19300059D01*
X25346234Y19305194D01*
X25323463Y19309724D01*
X25299084Y19326013D01*
X25287952Y19330929D01*
X25280347Y19338533D01*
X25258579Y19353079D01*
X25244033Y19374847D01*
X25236429Y19382452D01*
X25231513Y19393584D01*
X25215224Y19417963D01*
X25210694Y19440734D01*
X25205559Y19452365D01*
X25201609Y19486408D01*
X25200000Y19494500D01*
X25200000Y20891500D01*
X25201610Y20899595D01*
X25205559Y20933634D01*
X25210694Y20945264D01*
X25215224Y20968037D01*
X25231514Y20992417D01*
X25236429Y21003547D01*
X25244031Y21011149D01*
X25258579Y21032921D01*
X25280350Y21047468D01*
X25287952Y21055070D01*
X25299080Y21059983D01*
X25323463Y21076276D01*
X25346238Y21080806D01*
X25357865Y21085940D01*
X25391896Y21089888D01*
X25400000Y21091500D01*
X26289000Y21091500D01*
X26297107Y21089887D01*
G37*
G36*
X28202107Y21089887D02*
G01*
X28236134Y21085940D01*
X28247759Y21080806D01*
X28270537Y21076276D01*
X28294921Y21059982D01*
X28306047Y21055070D01*
X28313646Y21047470D01*
X28335421Y21032921D01*
X28349970Y21011146D01*
X28357570Y21003547D01*
X28362482Y20992421D01*
X28378776Y20968037D01*
X28383306Y20945259D01*
X28388440Y20933634D01*
X28392387Y20899605D01*
X28394000Y20891500D01*
X28394000Y19494500D01*
X28392387Y19486394D01*
X28388440Y19452365D01*
X28383306Y19440738D01*
X28378776Y19417963D01*
X28362483Y19393580D01*
X28357570Y19382452D01*
X28349968Y19374850D01*
X28335421Y19353079D01*
X28313649Y19338531D01*
X28306047Y19330929D01*
X28294917Y19326014D01*
X28270537Y19309724D01*
X28247764Y19305194D01*
X28236134Y19300059D01*
X28202093Y19296109D01*
X28194000Y19294500D01*
X28188217Y19294500D01*
X27310784Y19294500D01*
X27305000Y19294500D01*
X27296906Y19296109D01*
X27262865Y19300059D01*
X27251234Y19305194D01*
X27228463Y19309724D01*
X27204084Y19326013D01*
X27192952Y19330929D01*
X27185347Y19338533D01*
X27163579Y19353079D01*
X27149033Y19374847D01*
X27141429Y19382452D01*
X27136513Y19393584D01*
X27120224Y19417963D01*
X27115694Y19440734D01*
X27110559Y19452365D01*
X27106609Y19486408D01*
X27105000Y19494500D01*
X27105000Y20891500D01*
X27106610Y20899595D01*
X27110559Y20933634D01*
X27115694Y20945264D01*
X27120224Y20968037D01*
X27136514Y20992417D01*
X27141429Y21003547D01*
X27149031Y21011149D01*
X27163579Y21032921D01*
X27185350Y21047468D01*
X27192952Y21055070D01*
X27204080Y21059983D01*
X27228463Y21076276D01*
X27251238Y21080806D01*
X27262865Y21085940D01*
X27296896Y21089888D01*
X27305000Y21091500D01*
X28194000Y21091500D01*
X28202107Y21089887D01*
G37*
G36*
X7200107Y23693387D02*
G01*
X7234134Y23689440D01*
X7245759Y23684306D01*
X7268537Y23679776D01*
X7292921Y23663482D01*
X7304047Y23658570D01*
X7311646Y23650970D01*
X7333421Y23636421D01*
X7347970Y23614646D01*
X7355570Y23607047D01*
X7360482Y23595921D01*
X7376776Y23571537D01*
X7381306Y23548759D01*
X7386440Y23537134D01*
X7390387Y23503105D01*
X7392000Y23495000D01*
X7392000Y19685000D01*
X7390387Y19676894D01*
X7386440Y19642865D01*
X7381306Y19631238D01*
X7376776Y19608463D01*
X7360483Y19584080D01*
X7355570Y19572952D01*
X7347968Y19565350D01*
X7333421Y19543579D01*
X7311649Y19529031D01*
X7304047Y19521429D01*
X7292917Y19516514D01*
X7268537Y19500224D01*
X7245764Y19495694D01*
X7234134Y19490559D01*
X7200093Y19486609D01*
X7192000Y19485000D01*
X7186217Y19485000D01*
X3387784Y19485000D01*
X3382000Y19485000D01*
X3373906Y19486609D01*
X3339865Y19490559D01*
X3328234Y19495694D01*
X3305463Y19500224D01*
X3281084Y19516513D01*
X3269952Y19521429D01*
X3262347Y19529033D01*
X3240579Y19543579D01*
X3226033Y19565347D01*
X3218429Y19572952D01*
X3213513Y19584084D01*
X3197224Y19608463D01*
X3192694Y19631234D01*
X3187559Y19642865D01*
X3183609Y19676908D01*
X3182000Y19685000D01*
X3182000Y23495000D01*
X3183610Y23503095D01*
X3187559Y23537134D01*
X3192694Y23548764D01*
X3197224Y23571537D01*
X3213514Y23595917D01*
X3218429Y23607047D01*
X3226031Y23614649D01*
X3240579Y23636421D01*
X3262350Y23650968D01*
X3269952Y23658570D01*
X3281080Y23663483D01*
X3305463Y23679776D01*
X3328238Y23684306D01*
X3339865Y23689440D01*
X3373896Y23693388D01*
X3382000Y23695000D01*
X7192000Y23695000D01*
X7200107Y23693387D01*
G37*
G36*
X12200107Y23693387D02*
G01*
X12234134Y23689440D01*
X12245759Y23684306D01*
X12268537Y23679776D01*
X12292921Y23663482D01*
X12304047Y23658570D01*
X12311646Y23650970D01*
X12333421Y23636421D01*
X12347970Y23614646D01*
X12355570Y23607047D01*
X12360482Y23595921D01*
X12376776Y23571537D01*
X12381306Y23548759D01*
X12386440Y23537134D01*
X12390387Y23503105D01*
X12392000Y23495000D01*
X12392000Y19685000D01*
X12390387Y19676894D01*
X12386440Y19642865D01*
X12381306Y19631238D01*
X12376776Y19608463D01*
X12360483Y19584080D01*
X12355570Y19572952D01*
X12347968Y19565350D01*
X12333421Y19543579D01*
X12311649Y19529031D01*
X12304047Y19521429D01*
X12292917Y19516514D01*
X12268537Y19500224D01*
X12245764Y19495694D01*
X12234134Y19490559D01*
X12200093Y19486609D01*
X12192000Y19485000D01*
X12186217Y19485000D01*
X8387784Y19485000D01*
X8382000Y19485000D01*
X8373906Y19486609D01*
X8339865Y19490559D01*
X8328234Y19495694D01*
X8305463Y19500224D01*
X8281084Y19516513D01*
X8269952Y19521429D01*
X8262347Y19529033D01*
X8240579Y19543579D01*
X8226033Y19565347D01*
X8218429Y19572952D01*
X8213513Y19584084D01*
X8197224Y19608463D01*
X8192694Y19631234D01*
X8187559Y19642865D01*
X8183609Y19676908D01*
X8182000Y19685000D01*
X8182000Y23495000D01*
X8183610Y23503095D01*
X8187559Y23537134D01*
X8192694Y23548764D01*
X8197224Y23571537D01*
X8213514Y23595917D01*
X8218429Y23607047D01*
X8226031Y23614649D01*
X8240579Y23636421D01*
X8262350Y23650968D01*
X8269952Y23658570D01*
X8281080Y23663483D01*
X8305463Y23679776D01*
X8328238Y23684306D01*
X8339865Y23689440D01*
X8373896Y23693388D01*
X8382000Y23695000D01*
X12192000Y23695000D01*
X12200107Y23693387D01*
G37*
G36*
X42299107Y23693387D02*
G01*
X42333134Y23689440D01*
X42344759Y23684306D01*
X42367537Y23679776D01*
X42391921Y23663482D01*
X42403047Y23658570D01*
X42410646Y23650970D01*
X42432421Y23636421D01*
X42446970Y23614646D01*
X42454570Y23607047D01*
X42459482Y23595921D01*
X42475776Y23571537D01*
X42480306Y23548759D01*
X42485440Y23537134D01*
X42489387Y23503105D01*
X42491000Y23495000D01*
X42491000Y19685000D01*
X42489387Y19676894D01*
X42485440Y19642865D01*
X42480306Y19631238D01*
X42475776Y19608463D01*
X42459483Y19584080D01*
X42454570Y19572952D01*
X42446968Y19565350D01*
X42432421Y19543579D01*
X42410649Y19529031D01*
X42403047Y19521429D01*
X42391917Y19516514D01*
X42367537Y19500224D01*
X42344764Y19495694D01*
X42333134Y19490559D01*
X42299093Y19486609D01*
X42291000Y19485000D01*
X42285217Y19485000D01*
X38486784Y19485000D01*
X38481000Y19485000D01*
X38472906Y19486609D01*
X38438865Y19490559D01*
X38427234Y19495694D01*
X38404463Y19500224D01*
X38380084Y19516513D01*
X38368952Y19521429D01*
X38361347Y19529033D01*
X38339579Y19543579D01*
X38325033Y19565347D01*
X38317429Y19572952D01*
X38312513Y19584084D01*
X38296224Y19608463D01*
X38291694Y19631234D01*
X38286559Y19642865D01*
X38282609Y19676908D01*
X38281000Y19685000D01*
X38281000Y23495000D01*
X38282610Y23503095D01*
X38286559Y23537134D01*
X38291694Y23548764D01*
X38296224Y23571537D01*
X38312514Y23595917D01*
X38317429Y23607047D01*
X38325031Y23614649D01*
X38339579Y23636421D01*
X38361350Y23650968D01*
X38368952Y23658570D01*
X38380080Y23663483D01*
X38404463Y23679776D01*
X38427238Y23684306D01*
X38438865Y23689440D01*
X38472896Y23693388D01*
X38481000Y23695000D01*
X42291000Y23695000D01*
X42299107Y23693387D01*
G37*
G36*
X47299107Y23693387D02*
G01*
X47333134Y23689440D01*
X47344759Y23684306D01*
X47367537Y23679776D01*
X47391921Y23663482D01*
X47403047Y23658570D01*
X47410646Y23650970D01*
X47432421Y23636421D01*
X47446970Y23614646D01*
X47454570Y23607047D01*
X47459482Y23595921D01*
X47475776Y23571537D01*
X47480306Y23548759D01*
X47485440Y23537134D01*
X47489387Y23503105D01*
X47491000Y23495000D01*
X47491000Y19685000D01*
X47489387Y19676894D01*
X47485440Y19642865D01*
X47480306Y19631238D01*
X47475776Y19608463D01*
X47459483Y19584080D01*
X47454570Y19572952D01*
X47446968Y19565350D01*
X47432421Y19543579D01*
X47410649Y19529031D01*
X47403047Y19521429D01*
X47391917Y19516514D01*
X47367537Y19500224D01*
X47344764Y19495694D01*
X47333134Y19490559D01*
X47299093Y19486609D01*
X47291000Y19485000D01*
X47285217Y19485000D01*
X43486784Y19485000D01*
X43481000Y19485000D01*
X43472906Y19486609D01*
X43438865Y19490559D01*
X43427234Y19495694D01*
X43404463Y19500224D01*
X43380084Y19516513D01*
X43368952Y19521429D01*
X43361347Y19529033D01*
X43339579Y19543579D01*
X43325033Y19565347D01*
X43317429Y19572952D01*
X43312513Y19584084D01*
X43296224Y19608463D01*
X43291694Y19631234D01*
X43286559Y19642865D01*
X43282609Y19676908D01*
X43281000Y19685000D01*
X43281000Y23495000D01*
X43282610Y23503095D01*
X43286559Y23537134D01*
X43291694Y23548764D01*
X43296224Y23571537D01*
X43312514Y23595917D01*
X43317429Y23607047D01*
X43325031Y23614649D01*
X43339579Y23636421D01*
X43361350Y23650968D01*
X43368952Y23658570D01*
X43380080Y23663483D01*
X43404463Y23679776D01*
X43427238Y23684306D01*
X43438865Y23689440D01*
X43472896Y23693388D01*
X43481000Y23695000D01*
X47291000Y23695000D01*
X47299107Y23693387D01*
G37*
G36*
X23335107Y26228387D02*
G01*
X23369134Y26224440D01*
X23380759Y26219306D01*
X23403537Y26214776D01*
X23427921Y26198482D01*
X23439047Y26193570D01*
X23446646Y26185970D01*
X23468421Y26171421D01*
X23482970Y26149646D01*
X23490570Y26142047D01*
X23495482Y26130921D01*
X23511776Y26106537D01*
X23516306Y26083759D01*
X23521440Y26072134D01*
X23525387Y26038106D01*
X23527000Y26030000D01*
X23527000Y25730000D01*
X23525387Y25721894D01*
X23521440Y25687865D01*
X23516306Y25676238D01*
X23511776Y25653463D01*
X23505204Y25643627D01*
X23505204Y25616372D01*
X23511776Y25606537D01*
X23516306Y25583760D01*
X23521440Y25572134D01*
X23525387Y25538106D01*
X23527000Y25530000D01*
X23527000Y25230000D01*
X23525387Y25221894D01*
X23521440Y25187865D01*
X23516306Y25176238D01*
X23511776Y25153463D01*
X23505204Y25143627D01*
X23505204Y25116372D01*
X23511776Y25106537D01*
X23516306Y25083760D01*
X23521440Y25072134D01*
X23525387Y25038106D01*
X23527000Y25030000D01*
X23527000Y24730000D01*
X23525387Y24721894D01*
X23521440Y24687865D01*
X23516306Y24676238D01*
X23511776Y24653463D01*
X23505204Y24643627D01*
X23505204Y24616372D01*
X23511776Y24606537D01*
X23516306Y24583760D01*
X23521440Y24572134D01*
X23525387Y24538106D01*
X23527000Y24530000D01*
X23527000Y24230000D01*
X23525387Y24221894D01*
X23521440Y24187865D01*
X23516306Y24176238D01*
X23511776Y24153463D01*
X23505204Y24143627D01*
X23505204Y24116372D01*
X23511776Y24106537D01*
X23516306Y24083760D01*
X23521440Y24072134D01*
X23525387Y24038106D01*
X23527000Y24030000D01*
X23527000Y23730000D01*
X23525387Y23721894D01*
X23521440Y23687865D01*
X23516306Y23676238D01*
X23511776Y23653463D01*
X23505204Y23643627D01*
X23505204Y23616372D01*
X23511776Y23606537D01*
X23516306Y23583760D01*
X23521440Y23572134D01*
X23525387Y23538106D01*
X23527000Y23530000D01*
X23527000Y23230000D01*
X23525387Y23221894D01*
X23521440Y23187865D01*
X23516306Y23176238D01*
X23511776Y23153463D01*
X23505204Y23143627D01*
X23505204Y23116372D01*
X23511776Y23106537D01*
X23516306Y23083760D01*
X23521440Y23072134D01*
X23525387Y23038106D01*
X23527000Y23030000D01*
X23527000Y22730000D01*
X23525387Y22721894D01*
X23521440Y22687865D01*
X23516306Y22676238D01*
X23511776Y22653463D01*
X23505204Y22643627D01*
X23505204Y22616372D01*
X23511776Y22606537D01*
X23516306Y22583760D01*
X23521440Y22572134D01*
X23525387Y22538106D01*
X23527000Y22530000D01*
X23527000Y22230000D01*
X23525387Y22221894D01*
X23521440Y22187865D01*
X23516306Y22176238D01*
X23511776Y22153463D01*
X23495483Y22129080D01*
X23490570Y22117952D01*
X23482968Y22110350D01*
X23468421Y22088579D01*
X23446649Y22074031D01*
X23439047Y22066429D01*
X23427917Y22061514D01*
X23403537Y22045224D01*
X23380764Y22040694D01*
X23369134Y22035559D01*
X23335093Y22031609D01*
X23327000Y22030000D01*
X23321217Y22030000D01*
X22132784Y22030000D01*
X22127000Y22030000D01*
X22118906Y22031609D01*
X22084865Y22035559D01*
X22073234Y22040694D01*
X22050463Y22045224D01*
X22026084Y22061513D01*
X22014952Y22066429D01*
X22007347Y22074033D01*
X21985579Y22088579D01*
X21971033Y22110347D01*
X21963429Y22117952D01*
X21958513Y22129084D01*
X21942224Y22153463D01*
X21937694Y22176234D01*
X21932559Y22187865D01*
X21928609Y22221907D01*
X21927000Y22230000D01*
X21927000Y22530000D01*
X21928610Y22538094D01*
X21932559Y22572136D01*
X21937694Y22583767D01*
X21942224Y22606537D01*
X21948795Y22616370D01*
X21948795Y22643629D01*
X21942224Y22653463D01*
X21937695Y22676230D01*
X21932559Y22687863D01*
X21928609Y22721908D01*
X21927000Y22730000D01*
X21927000Y23030000D01*
X21928610Y23038094D01*
X21932559Y23072136D01*
X21937694Y23083767D01*
X21942224Y23106537D01*
X21948795Y23116370D01*
X21948795Y23143629D01*
X21942224Y23153463D01*
X21937695Y23176230D01*
X21932559Y23187863D01*
X21928609Y23221908D01*
X21927000Y23230000D01*
X21927000Y23530000D01*
X21928610Y23538094D01*
X21932559Y23572136D01*
X21937694Y23583767D01*
X21942224Y23606537D01*
X21948795Y23616370D01*
X21948795Y23643629D01*
X21942224Y23653463D01*
X21937695Y23676230D01*
X21932559Y23687863D01*
X21928609Y23721908D01*
X21927000Y23730000D01*
X21927000Y24030000D01*
X21928610Y24038094D01*
X21932559Y24072136D01*
X21937694Y24083767D01*
X21942224Y24106537D01*
X21948795Y24116370D01*
X21948795Y24143629D01*
X21942224Y24153463D01*
X21937695Y24176230D01*
X21932559Y24187863D01*
X21928609Y24221908D01*
X21927000Y24230000D01*
X21927000Y24530000D01*
X21928610Y24538094D01*
X21932559Y24572136D01*
X21937694Y24583767D01*
X21942224Y24606537D01*
X21948795Y24616370D01*
X21948795Y24643629D01*
X21942224Y24653463D01*
X21937695Y24676230D01*
X21932559Y24687863D01*
X21928609Y24721908D01*
X21927000Y24730000D01*
X21927000Y25030000D01*
X21928610Y25038094D01*
X21932559Y25072136D01*
X21937694Y25083767D01*
X21942224Y25106537D01*
X21948795Y25116370D01*
X21948795Y25143629D01*
X21942224Y25153463D01*
X21937695Y25176230D01*
X21932559Y25187863D01*
X21928609Y25221908D01*
X21927000Y25230000D01*
X21927000Y25530000D01*
X21928610Y25538094D01*
X21932559Y25572136D01*
X21937694Y25583767D01*
X21942224Y25606537D01*
X21948795Y25616370D01*
X21948795Y25643629D01*
X21942224Y25653463D01*
X21937695Y25676230D01*
X21932559Y25687863D01*
X21928609Y25721908D01*
X21927000Y25730000D01*
X21927000Y26030000D01*
X21928610Y26038095D01*
X21932559Y26072134D01*
X21937694Y26083764D01*
X21942224Y26106537D01*
X21958514Y26130917D01*
X21963429Y26142047D01*
X21971031Y26149649D01*
X21985579Y26171421D01*
X22007350Y26185968D01*
X22014952Y26193570D01*
X22026080Y26198483D01*
X22050463Y26214776D01*
X22073238Y26219306D01*
X22084865Y26224440D01*
X22118896Y26228388D01*
X22127000Y26230000D01*
X23327000Y26230000D01*
X23335107Y26228387D01*
G37*
G36*
X26635107Y26228387D02*
G01*
X26669134Y26224440D01*
X26680759Y26219306D01*
X26703537Y26214776D01*
X26727921Y26198482D01*
X26739047Y26193570D01*
X26746646Y26185970D01*
X26768421Y26171421D01*
X26782970Y26149646D01*
X26790570Y26142047D01*
X26795482Y26130921D01*
X26811776Y26106537D01*
X26816306Y26083759D01*
X26821440Y26072134D01*
X26825387Y26038105D01*
X26827000Y26030000D01*
X26827000Y22230000D01*
X26825387Y22221894D01*
X26821440Y22187865D01*
X26816306Y22176238D01*
X26811776Y22153463D01*
X26795483Y22129080D01*
X26790570Y22117952D01*
X26782968Y22110350D01*
X26768421Y22088579D01*
X26746649Y22074031D01*
X26739047Y22066429D01*
X26727917Y22061514D01*
X26703537Y22045224D01*
X26680764Y22040694D01*
X26669134Y22035559D01*
X26635093Y22031609D01*
X26627000Y22030000D01*
X26621217Y22030000D01*
X24432784Y22030000D01*
X24427000Y22030000D01*
X24418906Y22031609D01*
X24384865Y22035559D01*
X24373234Y22040694D01*
X24350463Y22045224D01*
X24326084Y22061513D01*
X24314952Y22066429D01*
X24307347Y22074033D01*
X24285579Y22088579D01*
X24271033Y22110347D01*
X24263429Y22117952D01*
X24258513Y22129084D01*
X24242224Y22153463D01*
X24237694Y22176234D01*
X24232559Y22187865D01*
X24228609Y22221908D01*
X24227000Y22230000D01*
X24227000Y26030000D01*
X24228610Y26038095D01*
X24232559Y26072134D01*
X24237694Y26083764D01*
X24242224Y26106537D01*
X24258514Y26130917D01*
X24263429Y26142047D01*
X24271031Y26149649D01*
X24285579Y26171421D01*
X24307350Y26185968D01*
X24314952Y26193570D01*
X24326080Y26198483D01*
X24350463Y26214776D01*
X24373238Y26219306D01*
X24384865Y26224440D01*
X24418896Y26228388D01*
X24427000Y26230000D01*
X26627000Y26230000D01*
X26635107Y26228387D01*
G37*
G36*
X28935107Y26228387D02*
G01*
X28969134Y26224440D01*
X28980759Y26219306D01*
X29003537Y26214776D01*
X29027921Y26198482D01*
X29039047Y26193570D01*
X29046646Y26185970D01*
X29068421Y26171421D01*
X29082970Y26149646D01*
X29090570Y26142047D01*
X29095482Y26130921D01*
X29111776Y26106537D01*
X29116306Y26083759D01*
X29121440Y26072134D01*
X29125387Y26038106D01*
X29127000Y26030000D01*
X29127000Y25730000D01*
X29125387Y25721894D01*
X29121440Y25687865D01*
X29116306Y25676238D01*
X29111776Y25653463D01*
X29105204Y25643627D01*
X29105204Y25616372D01*
X29111776Y25606537D01*
X29116306Y25583760D01*
X29121440Y25572134D01*
X29125387Y25538106D01*
X29127000Y25530000D01*
X29127000Y25230000D01*
X29125387Y25221894D01*
X29121440Y25187865D01*
X29116306Y25176238D01*
X29111776Y25153463D01*
X29105204Y25143627D01*
X29105204Y25116372D01*
X29111776Y25106537D01*
X29116306Y25083760D01*
X29121440Y25072134D01*
X29125387Y25038106D01*
X29127000Y25030000D01*
X29127000Y24730000D01*
X29125387Y24721894D01*
X29121440Y24687865D01*
X29116306Y24676238D01*
X29111776Y24653463D01*
X29105204Y24643627D01*
X29105204Y24616372D01*
X29111776Y24606537D01*
X29116306Y24583760D01*
X29121440Y24572134D01*
X29125387Y24538106D01*
X29127000Y24530000D01*
X29127000Y24230000D01*
X29125387Y24221894D01*
X29121440Y24187865D01*
X29116306Y24176238D01*
X29111776Y24153463D01*
X29105204Y24143627D01*
X29105204Y24116372D01*
X29111776Y24106537D01*
X29116306Y24083760D01*
X29121440Y24072134D01*
X29125387Y24038106D01*
X29127000Y24030000D01*
X29127000Y23730000D01*
X29125387Y23721894D01*
X29121440Y23687865D01*
X29116306Y23676238D01*
X29111776Y23653463D01*
X29105204Y23643627D01*
X29105204Y23616372D01*
X29111776Y23606537D01*
X29116306Y23583760D01*
X29121440Y23572134D01*
X29125387Y23538106D01*
X29127000Y23530000D01*
X29127000Y23230000D01*
X29125387Y23221894D01*
X29121440Y23187865D01*
X29116306Y23176238D01*
X29111776Y23153463D01*
X29105204Y23143627D01*
X29105204Y23116372D01*
X29111776Y23106537D01*
X29116306Y23083760D01*
X29121440Y23072134D01*
X29125387Y23038106D01*
X29127000Y23030000D01*
X29127000Y22730000D01*
X29125387Y22721894D01*
X29121440Y22687865D01*
X29116306Y22676238D01*
X29111776Y22653463D01*
X29105204Y22643627D01*
X29105204Y22616372D01*
X29111776Y22606537D01*
X29116306Y22583760D01*
X29121440Y22572134D01*
X29125387Y22538106D01*
X29127000Y22530000D01*
X29127000Y22230000D01*
X29125387Y22221894D01*
X29121440Y22187865D01*
X29116306Y22176238D01*
X29111776Y22153463D01*
X29095483Y22129080D01*
X29090570Y22117952D01*
X29082968Y22110350D01*
X29068421Y22088579D01*
X29046649Y22074031D01*
X29039047Y22066429D01*
X29027917Y22061514D01*
X29003537Y22045224D01*
X28980764Y22040694D01*
X28969134Y22035559D01*
X28935093Y22031609D01*
X28927000Y22030000D01*
X28921217Y22030000D01*
X27732784Y22030000D01*
X27727000Y22030000D01*
X27718906Y22031609D01*
X27684865Y22035559D01*
X27673234Y22040694D01*
X27650463Y22045224D01*
X27626084Y22061513D01*
X27614952Y22066429D01*
X27607347Y22074033D01*
X27585579Y22088579D01*
X27571033Y22110347D01*
X27563429Y22117952D01*
X27558513Y22129084D01*
X27542224Y22153463D01*
X27537694Y22176234D01*
X27532559Y22187865D01*
X27528609Y22221907D01*
X27527000Y22230000D01*
X27527000Y22530000D01*
X27528610Y22538094D01*
X27532559Y22572136D01*
X27537694Y22583767D01*
X27542224Y22606537D01*
X27548795Y22616370D01*
X27548795Y22643629D01*
X27542224Y22653463D01*
X27537695Y22676230D01*
X27532559Y22687863D01*
X27528609Y22721908D01*
X27527000Y22730000D01*
X27527000Y23030000D01*
X27528610Y23038094D01*
X27532559Y23072136D01*
X27537694Y23083767D01*
X27542224Y23106537D01*
X27548795Y23116370D01*
X27548795Y23143629D01*
X27542224Y23153463D01*
X27537695Y23176230D01*
X27532559Y23187863D01*
X27528609Y23221908D01*
X27527000Y23230000D01*
X27527000Y23530000D01*
X27528610Y23538094D01*
X27532559Y23572136D01*
X27537694Y23583767D01*
X27542224Y23606537D01*
X27548795Y23616370D01*
X27548795Y23643629D01*
X27542224Y23653463D01*
X27537695Y23676230D01*
X27532559Y23687863D01*
X27528609Y23721908D01*
X27527000Y23730000D01*
X27527000Y24030000D01*
X27528610Y24038094D01*
X27532559Y24072136D01*
X27537694Y24083767D01*
X27542224Y24106537D01*
X27548795Y24116370D01*
X27548795Y24143629D01*
X27542224Y24153463D01*
X27537695Y24176230D01*
X27532559Y24187863D01*
X27528609Y24221908D01*
X27527000Y24230000D01*
X27527000Y24530000D01*
X27528610Y24538094D01*
X27532559Y24572136D01*
X27537694Y24583767D01*
X27542224Y24606537D01*
X27548795Y24616370D01*
X27548795Y24643629D01*
X27542224Y24653463D01*
X27537695Y24676230D01*
X27532559Y24687863D01*
X27528609Y24721908D01*
X27527000Y24730000D01*
X27527000Y25030000D01*
X27528610Y25038094D01*
X27532559Y25072136D01*
X27537694Y25083767D01*
X27542224Y25106537D01*
X27548795Y25116370D01*
X27548795Y25143629D01*
X27542224Y25153463D01*
X27537695Y25176230D01*
X27532559Y25187863D01*
X27528609Y25221908D01*
X27527000Y25230000D01*
X27527000Y25530000D01*
X27528610Y25538094D01*
X27532559Y25572136D01*
X27537694Y25583767D01*
X27542224Y25606537D01*
X27548795Y25616370D01*
X27548795Y25643629D01*
X27542224Y25653463D01*
X27537695Y25676230D01*
X27532559Y25687863D01*
X27528609Y25721908D01*
X27527000Y25730000D01*
X27527000Y26030000D01*
X27528610Y26038095D01*
X27532559Y26072134D01*
X27537694Y26083764D01*
X27542224Y26106537D01*
X27558514Y26130917D01*
X27563429Y26142047D01*
X27571031Y26149649D01*
X27585579Y26171421D01*
X27607350Y26185968D01*
X27614952Y26193570D01*
X27626080Y26198483D01*
X27650463Y26214776D01*
X27673238Y26219306D01*
X27684865Y26224440D01*
X27718896Y26228388D01*
X27727000Y26230000D01*
X28927000Y26230000D01*
X28935107Y26228387D01*
G37*
G36*
X7200107Y28646387D02*
G01*
X7234134Y28642440D01*
X7245759Y28637306D01*
X7268537Y28632776D01*
X7292921Y28616482D01*
X7304047Y28611570D01*
X7311646Y28603970D01*
X7333421Y28589421D01*
X7347970Y28567646D01*
X7355570Y28560047D01*
X7360482Y28548921D01*
X7376776Y28524537D01*
X7381306Y28501759D01*
X7386440Y28490134D01*
X7390387Y28456105D01*
X7392000Y28448000D01*
X7392000Y24638000D01*
X7390387Y24629894D01*
X7386440Y24595865D01*
X7381306Y24584238D01*
X7376776Y24561463D01*
X7360483Y24537080D01*
X7355570Y24525952D01*
X7347968Y24518350D01*
X7333421Y24496579D01*
X7311649Y24482031D01*
X7304047Y24474429D01*
X7292917Y24469514D01*
X7268537Y24453224D01*
X7245764Y24448694D01*
X7234134Y24443559D01*
X7200093Y24439609D01*
X7192000Y24438000D01*
X7186217Y24438000D01*
X3387784Y24438000D01*
X3382000Y24438000D01*
X3373906Y24439609D01*
X3339865Y24443559D01*
X3328234Y24448694D01*
X3305463Y24453224D01*
X3281084Y24469513D01*
X3269952Y24474429D01*
X3262347Y24482033D01*
X3240579Y24496579D01*
X3226033Y24518347D01*
X3218429Y24525952D01*
X3213513Y24537084D01*
X3197224Y24561463D01*
X3192694Y24584234D01*
X3187559Y24595865D01*
X3183609Y24629908D01*
X3182000Y24638000D01*
X3182000Y28448000D01*
X3183610Y28456095D01*
X3187559Y28490134D01*
X3192694Y28501764D01*
X3197224Y28524537D01*
X3213514Y28548917D01*
X3218429Y28560047D01*
X3226031Y28567649D01*
X3240579Y28589421D01*
X3262350Y28603968D01*
X3269952Y28611570D01*
X3281080Y28616483D01*
X3305463Y28632776D01*
X3328238Y28637306D01*
X3339865Y28642440D01*
X3373896Y28646388D01*
X3382000Y28648000D01*
X7192000Y28648000D01*
X7200107Y28646387D01*
G37*
G36*
X12200107Y28646387D02*
G01*
X12234134Y28642440D01*
X12245759Y28637306D01*
X12268537Y28632776D01*
X12292921Y28616482D01*
X12304047Y28611570D01*
X12311646Y28603970D01*
X12333421Y28589421D01*
X12347970Y28567646D01*
X12355570Y28560047D01*
X12360482Y28548921D01*
X12376776Y28524537D01*
X12381306Y28501759D01*
X12386440Y28490134D01*
X12390387Y28456105D01*
X12392000Y28448000D01*
X12392000Y24638000D01*
X12390387Y24629894D01*
X12386440Y24595865D01*
X12381306Y24584238D01*
X12376776Y24561463D01*
X12360483Y24537080D01*
X12355570Y24525952D01*
X12347968Y24518350D01*
X12333421Y24496579D01*
X12311649Y24482031D01*
X12304047Y24474429D01*
X12292917Y24469514D01*
X12268537Y24453224D01*
X12245764Y24448694D01*
X12234134Y24443559D01*
X12200093Y24439609D01*
X12192000Y24438000D01*
X12186217Y24438000D01*
X8387784Y24438000D01*
X8382000Y24438000D01*
X8373906Y24439609D01*
X8339865Y24443559D01*
X8328234Y24448694D01*
X8305463Y24453224D01*
X8281084Y24469513D01*
X8269952Y24474429D01*
X8262347Y24482033D01*
X8240579Y24496579D01*
X8226033Y24518347D01*
X8218429Y24525952D01*
X8213513Y24537084D01*
X8197224Y24561463D01*
X8192694Y24584234D01*
X8187559Y24595865D01*
X8183609Y24629908D01*
X8182000Y24638000D01*
X8182000Y28448000D01*
X8183610Y28456095D01*
X8187559Y28490134D01*
X8192694Y28501764D01*
X8197224Y28524537D01*
X8213514Y28548917D01*
X8218429Y28560047D01*
X8226031Y28567649D01*
X8240579Y28589421D01*
X8262350Y28603968D01*
X8269952Y28611570D01*
X8281080Y28616483D01*
X8305463Y28632776D01*
X8328238Y28637306D01*
X8339865Y28642440D01*
X8373896Y28646388D01*
X8382000Y28648000D01*
X12192000Y28648000D01*
X12200107Y28646387D01*
G37*
G36*
X42299107Y28646387D02*
G01*
X42333134Y28642440D01*
X42344759Y28637306D01*
X42367537Y28632776D01*
X42391921Y28616482D01*
X42403047Y28611570D01*
X42410646Y28603970D01*
X42432421Y28589421D01*
X42446970Y28567646D01*
X42454570Y28560047D01*
X42459482Y28548921D01*
X42475776Y28524537D01*
X42480306Y28501759D01*
X42485440Y28490134D01*
X42489387Y28456105D01*
X42491000Y28448000D01*
X42491000Y24638000D01*
X42489387Y24629894D01*
X42485440Y24595865D01*
X42480306Y24584238D01*
X42475776Y24561463D01*
X42459483Y24537080D01*
X42454570Y24525952D01*
X42446968Y24518350D01*
X42432421Y24496579D01*
X42410649Y24482031D01*
X42403047Y24474429D01*
X42391917Y24469514D01*
X42367537Y24453224D01*
X42344764Y24448694D01*
X42333134Y24443559D01*
X42299093Y24439609D01*
X42291000Y24438000D01*
X42285217Y24438000D01*
X38486784Y24438000D01*
X38481000Y24438000D01*
X38472906Y24439609D01*
X38438865Y24443559D01*
X38427234Y24448694D01*
X38404463Y24453224D01*
X38380084Y24469513D01*
X38368952Y24474429D01*
X38361347Y24482033D01*
X38339579Y24496579D01*
X38325033Y24518347D01*
X38317429Y24525952D01*
X38312513Y24537084D01*
X38296224Y24561463D01*
X38291694Y24584234D01*
X38286559Y24595865D01*
X38282609Y24629908D01*
X38281000Y24638000D01*
X38281000Y28448000D01*
X38282610Y28456095D01*
X38286559Y28490134D01*
X38291694Y28501764D01*
X38296224Y28524537D01*
X38312514Y28548917D01*
X38317429Y28560047D01*
X38325031Y28567649D01*
X38339579Y28589421D01*
X38361350Y28603968D01*
X38368952Y28611570D01*
X38380080Y28616483D01*
X38404463Y28632776D01*
X38427238Y28637306D01*
X38438865Y28642440D01*
X38472896Y28646388D01*
X38481000Y28648000D01*
X42291000Y28648000D01*
X42299107Y28646387D01*
G37*
G36*
X47299107Y28646387D02*
G01*
X47333134Y28642440D01*
X47344759Y28637306D01*
X47367537Y28632776D01*
X47391921Y28616482D01*
X47403047Y28611570D01*
X47410646Y28603970D01*
X47432421Y28589421D01*
X47446970Y28567646D01*
X47454570Y28560047D01*
X47459482Y28548921D01*
X47475776Y28524537D01*
X47480306Y28501759D01*
X47485440Y28490134D01*
X47489387Y28456105D01*
X47491000Y28448000D01*
X47491000Y24638000D01*
X47489387Y24629894D01*
X47485440Y24595865D01*
X47480306Y24584238D01*
X47475776Y24561463D01*
X47459483Y24537080D01*
X47454570Y24525952D01*
X47446968Y24518350D01*
X47432421Y24496579D01*
X47410649Y24482031D01*
X47403047Y24474429D01*
X47391917Y24469514D01*
X47367537Y24453224D01*
X47344764Y24448694D01*
X47333134Y24443559D01*
X47299093Y24439609D01*
X47291000Y24438000D01*
X47285217Y24438000D01*
X43486784Y24438000D01*
X43481000Y24438000D01*
X43472906Y24439609D01*
X43438865Y24443559D01*
X43427234Y24448694D01*
X43404463Y24453224D01*
X43380084Y24469513D01*
X43368952Y24474429D01*
X43361347Y24482033D01*
X43339579Y24496579D01*
X43325033Y24518347D01*
X43317429Y24525952D01*
X43312513Y24537084D01*
X43296224Y24561463D01*
X43291694Y24584234D01*
X43286559Y24595865D01*
X43282609Y24629908D01*
X43281000Y24638000D01*
X43281000Y28448000D01*
X43282610Y28456095D01*
X43286559Y28490134D01*
X43291694Y28501764D01*
X43296224Y28524537D01*
X43312514Y28548917D01*
X43317429Y28560047D01*
X43325031Y28567649D01*
X43339579Y28589421D01*
X43361350Y28603968D01*
X43368952Y28611570D01*
X43380080Y28616483D01*
X43404463Y28632776D01*
X43427238Y28637306D01*
X43438865Y28642440D01*
X43472896Y28646388D01*
X43481000Y28648000D01*
X47291000Y28648000D01*
X47299107Y28646387D01*
G37*
G36*
X2865607Y31122887D02*
G01*
X2899634Y31118940D01*
X2911259Y31113806D01*
X2934037Y31109276D01*
X2958421Y31092982D01*
X2969547Y31088070D01*
X2977146Y31080470D01*
X2998921Y31065921D01*
X3013470Y31044146D01*
X3021070Y31036547D01*
X3025982Y31025421D01*
X3042276Y31001037D01*
X3046806Y30978259D01*
X3051940Y30966634D01*
X3055887Y30932605D01*
X3057500Y30924500D01*
X3057500Y29527500D01*
X3055887Y29519394D01*
X3051940Y29485365D01*
X3046806Y29473738D01*
X3042276Y29450963D01*
X3025983Y29426580D01*
X3021070Y29415452D01*
X3013468Y29407850D01*
X2998921Y29386079D01*
X2977149Y29371531D01*
X2969547Y29363929D01*
X2958417Y29359014D01*
X2934037Y29342724D01*
X2911264Y29338194D01*
X2899634Y29333059D01*
X2865593Y29329109D01*
X2857500Y29327500D01*
X2851717Y29327500D01*
X1974284Y29327500D01*
X1968500Y29327500D01*
X1960406Y29329109D01*
X1926365Y29333059D01*
X1914734Y29338194D01*
X1891963Y29342724D01*
X1867584Y29359013D01*
X1856452Y29363929D01*
X1848847Y29371533D01*
X1827079Y29386079D01*
X1812533Y29407847D01*
X1804929Y29415452D01*
X1800013Y29426584D01*
X1783724Y29450963D01*
X1779194Y29473734D01*
X1774059Y29485365D01*
X1770109Y29519408D01*
X1768500Y29527500D01*
X1768500Y30924500D01*
X1770110Y30932595D01*
X1774059Y30966634D01*
X1779194Y30978264D01*
X1783724Y31001037D01*
X1800014Y31025417D01*
X1804929Y31036547D01*
X1812531Y31044149D01*
X1827079Y31065921D01*
X1848850Y31080468D01*
X1856452Y31088070D01*
X1867580Y31092983D01*
X1891963Y31109276D01*
X1914738Y31113806D01*
X1926365Y31118940D01*
X1960396Y31122888D01*
X1968500Y31124500D01*
X2857500Y31124500D01*
X2865607Y31122887D01*
G37*
G36*
X4770607Y31122887D02*
G01*
X4804634Y31118940D01*
X4816259Y31113806D01*
X4839037Y31109276D01*
X4863421Y31092982D01*
X4874547Y31088070D01*
X4882146Y31080470D01*
X4903921Y31065921D01*
X4918470Y31044146D01*
X4926070Y31036547D01*
X4930982Y31025421D01*
X4947276Y31001037D01*
X4951806Y30978259D01*
X4956940Y30966634D01*
X4960887Y30932605D01*
X4962500Y30924500D01*
X4962500Y29527500D01*
X4960887Y29519394D01*
X4956940Y29485365D01*
X4951806Y29473738D01*
X4947276Y29450963D01*
X4930983Y29426580D01*
X4926070Y29415452D01*
X4918468Y29407850D01*
X4903921Y29386079D01*
X4882149Y29371531D01*
X4874547Y29363929D01*
X4863417Y29359014D01*
X4839037Y29342724D01*
X4816264Y29338194D01*
X4804634Y29333059D01*
X4770593Y29329109D01*
X4762500Y29327500D01*
X4756717Y29327500D01*
X3879284Y29327500D01*
X3873500Y29327500D01*
X3865406Y29329109D01*
X3831365Y29333059D01*
X3819734Y29338194D01*
X3796963Y29342724D01*
X3772584Y29359013D01*
X3761452Y29363929D01*
X3753847Y29371533D01*
X3732079Y29386079D01*
X3717533Y29407847D01*
X3709929Y29415452D01*
X3705013Y29426584D01*
X3688724Y29450963D01*
X3684194Y29473734D01*
X3679059Y29485365D01*
X3675109Y29519408D01*
X3673500Y29527500D01*
X3673500Y30924500D01*
X3675110Y30932595D01*
X3679059Y30966634D01*
X3684194Y30978264D01*
X3688724Y31001037D01*
X3705014Y31025417D01*
X3709929Y31036547D01*
X3717531Y31044149D01*
X3732079Y31065921D01*
X3753850Y31080468D01*
X3761452Y31088070D01*
X3772580Y31092983D01*
X3796963Y31109276D01*
X3819738Y31113806D01*
X3831365Y31118940D01*
X3865396Y31122888D01*
X3873500Y31124500D01*
X4762500Y31124500D01*
X4770607Y31122887D01*
G37*
G36*
X6421607Y31122887D02*
G01*
X6455634Y31118940D01*
X6467259Y31113806D01*
X6490037Y31109276D01*
X6514421Y31092982D01*
X6525547Y31088070D01*
X6533146Y31080470D01*
X6554921Y31065921D01*
X6569470Y31044146D01*
X6577070Y31036547D01*
X6581982Y31025421D01*
X6598276Y31001037D01*
X6602806Y30978259D01*
X6607940Y30966634D01*
X6611887Y30932605D01*
X6613500Y30924500D01*
X6613500Y29527500D01*
X6611887Y29519394D01*
X6607940Y29485365D01*
X6602806Y29473738D01*
X6598276Y29450963D01*
X6581983Y29426580D01*
X6577070Y29415452D01*
X6569468Y29407850D01*
X6554921Y29386079D01*
X6533149Y29371531D01*
X6525547Y29363929D01*
X6514417Y29359014D01*
X6490037Y29342724D01*
X6467264Y29338194D01*
X6455634Y29333059D01*
X6421593Y29329109D01*
X6413500Y29327500D01*
X6407717Y29327500D01*
X5530284Y29327500D01*
X5524500Y29327500D01*
X5516406Y29329109D01*
X5482365Y29333059D01*
X5470734Y29338194D01*
X5447963Y29342724D01*
X5423584Y29359013D01*
X5412452Y29363929D01*
X5404847Y29371533D01*
X5383079Y29386079D01*
X5368533Y29407847D01*
X5360929Y29415452D01*
X5356013Y29426584D01*
X5339724Y29450963D01*
X5335194Y29473734D01*
X5330059Y29485365D01*
X5326109Y29519408D01*
X5324500Y29527500D01*
X5324500Y30924500D01*
X5326110Y30932595D01*
X5330059Y30966634D01*
X5335194Y30978264D01*
X5339724Y31001037D01*
X5356014Y31025417D01*
X5360929Y31036547D01*
X5368531Y31044149D01*
X5383079Y31065921D01*
X5404850Y31080468D01*
X5412452Y31088070D01*
X5423580Y31092983D01*
X5447963Y31109276D01*
X5470738Y31113806D01*
X5482365Y31118940D01*
X5516396Y31122888D01*
X5524500Y31124500D01*
X6413500Y31124500D01*
X6421607Y31122887D01*
G37*
G36*
X8326607Y31122887D02*
G01*
X8360634Y31118940D01*
X8372259Y31113806D01*
X8395037Y31109276D01*
X8419421Y31092982D01*
X8430547Y31088070D01*
X8438146Y31080470D01*
X8459921Y31065921D01*
X8474470Y31044146D01*
X8482070Y31036547D01*
X8486982Y31025421D01*
X8503276Y31001037D01*
X8507806Y30978259D01*
X8512940Y30966634D01*
X8516887Y30932605D01*
X8518500Y30924500D01*
X8518500Y29527500D01*
X8516887Y29519394D01*
X8512940Y29485365D01*
X8507806Y29473738D01*
X8503276Y29450963D01*
X8486983Y29426580D01*
X8482070Y29415452D01*
X8474468Y29407850D01*
X8459921Y29386079D01*
X8438149Y29371531D01*
X8430547Y29363929D01*
X8419417Y29359014D01*
X8395037Y29342724D01*
X8372264Y29338194D01*
X8360634Y29333059D01*
X8326593Y29329109D01*
X8318500Y29327500D01*
X8312717Y29327500D01*
X7435284Y29327500D01*
X7429500Y29327500D01*
X7421406Y29329109D01*
X7387365Y29333059D01*
X7375734Y29338194D01*
X7352963Y29342724D01*
X7328584Y29359013D01*
X7317452Y29363929D01*
X7309847Y29371533D01*
X7288079Y29386079D01*
X7273533Y29407847D01*
X7265929Y29415452D01*
X7261013Y29426584D01*
X7244724Y29450963D01*
X7240194Y29473734D01*
X7235059Y29485365D01*
X7231109Y29519408D01*
X7229500Y29527500D01*
X7229500Y30924500D01*
X7231110Y30932595D01*
X7235059Y30966634D01*
X7240194Y30978264D01*
X7244724Y31001037D01*
X7261014Y31025417D01*
X7265929Y31036547D01*
X7273531Y31044149D01*
X7288079Y31065921D01*
X7309850Y31080468D01*
X7317452Y31088070D01*
X7328580Y31092983D01*
X7352963Y31109276D01*
X7375738Y31113806D01*
X7387365Y31118940D01*
X7421396Y31122888D01*
X7429500Y31124500D01*
X8318500Y31124500D01*
X8326607Y31122887D01*
G37*
G36*
X42997607Y31249887D02*
G01*
X43031634Y31245940D01*
X43043259Y31240806D01*
X43066037Y31236276D01*
X43090421Y31219982D01*
X43101547Y31215070D01*
X43109146Y31207470D01*
X43130921Y31192921D01*
X43145470Y31171146D01*
X43153070Y31163547D01*
X43157982Y31152421D01*
X43174276Y31128037D01*
X43178806Y31105259D01*
X43183940Y31093634D01*
X43187887Y31059605D01*
X43189500Y31051500D01*
X43189500Y29654500D01*
X43187887Y29646394D01*
X43183940Y29612365D01*
X43178806Y29600738D01*
X43174276Y29577963D01*
X43157983Y29553580D01*
X43153070Y29542452D01*
X43145468Y29534850D01*
X43130921Y29513079D01*
X43109149Y29498531D01*
X43101547Y29490929D01*
X43090417Y29486014D01*
X43066037Y29469724D01*
X43043264Y29465194D01*
X43031634Y29460059D01*
X42997593Y29456109D01*
X42989500Y29454500D01*
X42983717Y29454500D01*
X42106284Y29454500D01*
X42100500Y29454500D01*
X42092406Y29456109D01*
X42058365Y29460059D01*
X42046734Y29465194D01*
X42023963Y29469724D01*
X41999584Y29486013D01*
X41988452Y29490929D01*
X41980847Y29498533D01*
X41959079Y29513079D01*
X41944533Y29534847D01*
X41936929Y29542452D01*
X41932013Y29553584D01*
X41915724Y29577963D01*
X41911194Y29600734D01*
X41906059Y29612365D01*
X41902109Y29646408D01*
X41900500Y29654500D01*
X41900500Y31051500D01*
X41902110Y31059595D01*
X41906059Y31093634D01*
X41911194Y31105264D01*
X41915724Y31128037D01*
X41932014Y31152417D01*
X41936929Y31163547D01*
X41944531Y31171149D01*
X41959079Y31192921D01*
X41980850Y31207468D01*
X41988452Y31215070D01*
X41999580Y31219983D01*
X42023963Y31236276D01*
X42046738Y31240806D01*
X42058365Y31245940D01*
X42092396Y31249888D01*
X42100500Y31251500D01*
X42989500Y31251500D01*
X42997607Y31249887D01*
G37*
G36*
X44902607Y31249887D02*
G01*
X44936634Y31245940D01*
X44948259Y31240806D01*
X44971037Y31236276D01*
X44995421Y31219982D01*
X45006547Y31215070D01*
X45014146Y31207470D01*
X45035921Y31192921D01*
X45050470Y31171146D01*
X45058070Y31163547D01*
X45062982Y31152421D01*
X45079276Y31128037D01*
X45083806Y31105259D01*
X45088940Y31093634D01*
X45092887Y31059605D01*
X45094500Y31051500D01*
X45094500Y29654500D01*
X45092887Y29646394D01*
X45088940Y29612365D01*
X45083806Y29600738D01*
X45079276Y29577963D01*
X45062983Y29553580D01*
X45058070Y29542452D01*
X45050468Y29534850D01*
X45035921Y29513079D01*
X45014149Y29498531D01*
X45006547Y29490929D01*
X44995417Y29486014D01*
X44971037Y29469724D01*
X44948264Y29465194D01*
X44936634Y29460059D01*
X44902593Y29456109D01*
X44894500Y29454500D01*
X44888717Y29454500D01*
X44011284Y29454500D01*
X44005500Y29454500D01*
X43997406Y29456109D01*
X43963365Y29460059D01*
X43951734Y29465194D01*
X43928963Y29469724D01*
X43904584Y29486013D01*
X43893452Y29490929D01*
X43885847Y29498533D01*
X43864079Y29513079D01*
X43849533Y29534847D01*
X43841929Y29542452D01*
X43837013Y29553584D01*
X43820724Y29577963D01*
X43816194Y29600734D01*
X43811059Y29612365D01*
X43807109Y29646408D01*
X43805500Y29654500D01*
X43805500Y31051500D01*
X43807110Y31059595D01*
X43811059Y31093634D01*
X43816194Y31105264D01*
X43820724Y31128037D01*
X43837014Y31152417D01*
X43841929Y31163547D01*
X43849531Y31171149D01*
X43864079Y31192921D01*
X43885850Y31207468D01*
X43893452Y31215070D01*
X43904580Y31219983D01*
X43928963Y31236276D01*
X43951738Y31240806D01*
X43963365Y31245940D01*
X43997396Y31249888D01*
X44005500Y31251500D01*
X44894500Y31251500D01*
X44902607Y31249887D01*
G37*
G36*
X46490107Y31313387D02*
G01*
X46524134Y31309440D01*
X46535759Y31304306D01*
X46558537Y31299776D01*
X46582921Y31283482D01*
X46594047Y31278570D01*
X46601646Y31270970D01*
X46623421Y31256421D01*
X46637970Y31234646D01*
X46645570Y31227047D01*
X46650482Y31215921D01*
X46666776Y31191537D01*
X46671306Y31168759D01*
X46676440Y31157134D01*
X46680387Y31123105D01*
X46682000Y31115000D01*
X46682000Y29718000D01*
X46680387Y29709894D01*
X46676440Y29675865D01*
X46671306Y29664238D01*
X46666776Y29641463D01*
X46650483Y29617080D01*
X46645570Y29605952D01*
X46637968Y29598350D01*
X46623421Y29576579D01*
X46601649Y29562031D01*
X46594047Y29554429D01*
X46582917Y29549514D01*
X46558537Y29533224D01*
X46535764Y29528694D01*
X46524134Y29523559D01*
X46490093Y29519609D01*
X46482000Y29518000D01*
X46476217Y29518000D01*
X45598784Y29518000D01*
X45593000Y29518000D01*
X45584906Y29519609D01*
X45550865Y29523559D01*
X45539234Y29528694D01*
X45516463Y29533224D01*
X45492084Y29549513D01*
X45480952Y29554429D01*
X45473347Y29562033D01*
X45451579Y29576579D01*
X45437033Y29598347D01*
X45429429Y29605952D01*
X45424513Y29617084D01*
X45408224Y29641463D01*
X45403694Y29664234D01*
X45398559Y29675865D01*
X45394609Y29709908D01*
X45393000Y29718000D01*
X45393000Y31115000D01*
X45394610Y31123095D01*
X45398559Y31157134D01*
X45403694Y31168764D01*
X45408224Y31191537D01*
X45424514Y31215917D01*
X45429429Y31227047D01*
X45437031Y31234649D01*
X45451579Y31256421D01*
X45473350Y31270968D01*
X45480952Y31278570D01*
X45492080Y31283483D01*
X45516463Y31299776D01*
X45539238Y31304306D01*
X45550865Y31309440D01*
X45584896Y31313388D01*
X45593000Y31315000D01*
X46482000Y31315000D01*
X46490107Y31313387D01*
G37*
G36*
X48395107Y31313387D02*
G01*
X48429134Y31309440D01*
X48440759Y31304306D01*
X48463537Y31299776D01*
X48487921Y31283482D01*
X48499047Y31278570D01*
X48506646Y31270970D01*
X48528421Y31256421D01*
X48542970Y31234646D01*
X48550570Y31227047D01*
X48555482Y31215921D01*
X48571776Y31191537D01*
X48576306Y31168759D01*
X48581440Y31157134D01*
X48585387Y31123105D01*
X48587000Y31115000D01*
X48587000Y29718000D01*
X48585387Y29709894D01*
X48581440Y29675865D01*
X48576306Y29664238D01*
X48571776Y29641463D01*
X48555483Y29617080D01*
X48550570Y29605952D01*
X48542968Y29598350D01*
X48528421Y29576579D01*
X48506649Y29562031D01*
X48499047Y29554429D01*
X48487917Y29549514D01*
X48463537Y29533224D01*
X48440764Y29528694D01*
X48429134Y29523559D01*
X48395093Y29519609D01*
X48387000Y29518000D01*
X48381217Y29518000D01*
X47503784Y29518000D01*
X47498000Y29518000D01*
X47489906Y29519609D01*
X47455865Y29523559D01*
X47444234Y29528694D01*
X47421463Y29533224D01*
X47397084Y29549513D01*
X47385952Y29554429D01*
X47378347Y29562033D01*
X47356579Y29576579D01*
X47342033Y29598347D01*
X47334429Y29605952D01*
X47329513Y29617084D01*
X47313224Y29641463D01*
X47308694Y29664234D01*
X47303559Y29675865D01*
X47299609Y29709908D01*
X47298000Y29718000D01*
X47298000Y31115000D01*
X47299610Y31123095D01*
X47303559Y31157134D01*
X47308694Y31168764D01*
X47313224Y31191537D01*
X47329514Y31215917D01*
X47334429Y31227047D01*
X47342031Y31234649D01*
X47356579Y31256421D01*
X47378350Y31270968D01*
X47385952Y31278570D01*
X47397080Y31283483D01*
X47421463Y31299776D01*
X47444238Y31304306D01*
X47455865Y31309440D01*
X47489896Y31313388D01*
X47498000Y31315000D01*
X48387000Y31315000D01*
X48395107Y31313387D01*
G37*
G36*
X31440607Y30868887D02*
G01*
X31474634Y30864940D01*
X31486259Y30859806D01*
X31509037Y30855276D01*
X31533421Y30838982D01*
X31544547Y30834070D01*
X31552146Y30826470D01*
X31573921Y30811921D01*
X31588470Y30790146D01*
X31596070Y30782547D01*
X31600982Y30771421D01*
X31617276Y30747037D01*
X31621806Y30724259D01*
X31626940Y30712634D01*
X31630887Y30678605D01*
X31632500Y30670500D01*
X31632500Y29781500D01*
X31630887Y29773394D01*
X31626940Y29739365D01*
X31621806Y29727738D01*
X31617276Y29704963D01*
X31600983Y29680580D01*
X31596070Y29669452D01*
X31588468Y29661850D01*
X31573921Y29640079D01*
X31552149Y29625531D01*
X31544547Y29617929D01*
X31533417Y29613014D01*
X31509037Y29596724D01*
X31486264Y29592194D01*
X31474634Y29587059D01*
X31440593Y29583109D01*
X31432500Y29581500D01*
X31426717Y29581500D01*
X30041284Y29581500D01*
X30035500Y29581500D01*
X30027406Y29583109D01*
X29993365Y29587059D01*
X29981734Y29592194D01*
X29958963Y29596724D01*
X29934584Y29613013D01*
X29923452Y29617929D01*
X29915847Y29625533D01*
X29894079Y29640079D01*
X29879533Y29661847D01*
X29871929Y29669452D01*
X29867013Y29680584D01*
X29850724Y29704963D01*
X29846194Y29727734D01*
X29841059Y29739365D01*
X29837109Y29773408D01*
X29835500Y29781500D01*
X29835500Y30670500D01*
X29837110Y30678595D01*
X29841059Y30712634D01*
X29846194Y30724264D01*
X29850724Y30747037D01*
X29867014Y30771417D01*
X29871929Y30782547D01*
X29879531Y30790149D01*
X29894079Y30811921D01*
X29915850Y30826468D01*
X29923452Y30834070D01*
X29934580Y30838983D01*
X29958963Y30855276D01*
X29981738Y30859806D01*
X29993365Y30864940D01*
X30027396Y30868888D01*
X30035500Y30870500D01*
X31432500Y30870500D01*
X31440607Y30868887D01*
G37*
G36*
X33980607Y30868887D02*
G01*
X34014634Y30864940D01*
X34026259Y30859806D01*
X34049037Y30855276D01*
X34073421Y30838982D01*
X34084547Y30834070D01*
X34092146Y30826470D01*
X34113921Y30811921D01*
X34128470Y30790146D01*
X34136070Y30782547D01*
X34140982Y30771421D01*
X34157276Y30747037D01*
X34161806Y30724259D01*
X34166940Y30712634D01*
X34170887Y30678605D01*
X34172500Y30670500D01*
X34172500Y29781500D01*
X34170887Y29773394D01*
X34166940Y29739365D01*
X34161806Y29727738D01*
X34157276Y29704963D01*
X34140983Y29680580D01*
X34136070Y29669452D01*
X34128468Y29661850D01*
X34113921Y29640079D01*
X34092149Y29625531D01*
X34084547Y29617929D01*
X34073417Y29613014D01*
X34049037Y29596724D01*
X34026264Y29592194D01*
X34014634Y29587059D01*
X33980593Y29583109D01*
X33972500Y29581500D01*
X33966717Y29581500D01*
X32581284Y29581500D01*
X32575500Y29581500D01*
X32567406Y29583109D01*
X32533365Y29587059D01*
X32521734Y29592194D01*
X32498963Y29596724D01*
X32474584Y29613013D01*
X32463452Y29617929D01*
X32455847Y29625533D01*
X32434079Y29640079D01*
X32419533Y29661847D01*
X32411929Y29669452D01*
X32407013Y29680584D01*
X32390724Y29704963D01*
X32386194Y29727734D01*
X32381059Y29739365D01*
X32377109Y29773408D01*
X32375500Y29781500D01*
X32375500Y30670500D01*
X32377110Y30678595D01*
X32381059Y30712634D01*
X32386194Y30724264D01*
X32390724Y30747037D01*
X32407014Y30771417D01*
X32411929Y30782547D01*
X32419531Y30790149D01*
X32434079Y30811921D01*
X32455850Y30826468D01*
X32463452Y30834070D01*
X32474580Y30838983D01*
X32498963Y30855276D01*
X32521738Y30859806D01*
X32533365Y30864940D01*
X32567396Y30868888D01*
X32575500Y30870500D01*
X33972500Y30870500D01*
X33980607Y30868887D01*
G37*
G36*
X36520607Y30868887D02*
G01*
X36554634Y30864940D01*
X36566259Y30859806D01*
X36589037Y30855276D01*
X36613421Y30838982D01*
X36624547Y30834070D01*
X36632146Y30826470D01*
X36653921Y30811921D01*
X36668470Y30790146D01*
X36676070Y30782547D01*
X36680982Y30771421D01*
X36697276Y30747037D01*
X36701806Y30724259D01*
X36706940Y30712634D01*
X36710887Y30678605D01*
X36712500Y30670500D01*
X36712500Y29781500D01*
X36710887Y29773394D01*
X36706940Y29739365D01*
X36701806Y29727738D01*
X36697276Y29704963D01*
X36680983Y29680580D01*
X36676070Y29669452D01*
X36668468Y29661850D01*
X36653921Y29640079D01*
X36632149Y29625531D01*
X36624547Y29617929D01*
X36613417Y29613014D01*
X36589037Y29596724D01*
X36566264Y29592194D01*
X36554634Y29587059D01*
X36520593Y29583109D01*
X36512500Y29581500D01*
X36506717Y29581500D01*
X35121284Y29581500D01*
X35115500Y29581500D01*
X35107406Y29583109D01*
X35073365Y29587059D01*
X35061734Y29592194D01*
X35038963Y29596724D01*
X35014584Y29613013D01*
X35003452Y29617929D01*
X34995847Y29625533D01*
X34974079Y29640079D01*
X34959533Y29661847D01*
X34951929Y29669452D01*
X34947013Y29680584D01*
X34930724Y29704963D01*
X34926194Y29727734D01*
X34921059Y29739365D01*
X34917109Y29773408D01*
X34915500Y29781500D01*
X34915500Y30670500D01*
X34917110Y30678595D01*
X34921059Y30712634D01*
X34926194Y30724264D01*
X34930724Y30747037D01*
X34947014Y30771417D01*
X34951929Y30782547D01*
X34959531Y30790149D01*
X34974079Y30811921D01*
X34995850Y30826468D01*
X35003452Y30834070D01*
X35014580Y30838983D01*
X35038963Y30855276D01*
X35061738Y30859806D01*
X35073365Y30864940D01*
X35107396Y30868888D01*
X35115500Y30870500D01*
X36512500Y30870500D01*
X36520607Y30868887D01*
G37*
G36*
X16073607Y30932387D02*
G01*
X16107634Y30928440D01*
X16119259Y30923306D01*
X16142037Y30918776D01*
X16166421Y30902482D01*
X16177547Y30897570D01*
X16185146Y30889970D01*
X16206921Y30875421D01*
X16221470Y30853646D01*
X16229070Y30846047D01*
X16233982Y30834921D01*
X16250276Y30810537D01*
X16254806Y30787759D01*
X16259940Y30776134D01*
X16263887Y30742105D01*
X16265500Y30734000D01*
X16265500Y29845000D01*
X16263887Y29836894D01*
X16259940Y29802865D01*
X16254806Y29791238D01*
X16250276Y29768463D01*
X16233983Y29744080D01*
X16229070Y29732952D01*
X16221468Y29725350D01*
X16206921Y29703579D01*
X16185149Y29689031D01*
X16177547Y29681429D01*
X16166417Y29676514D01*
X16142037Y29660224D01*
X16119264Y29655694D01*
X16107634Y29650559D01*
X16073593Y29646609D01*
X16065500Y29645000D01*
X16059717Y29645000D01*
X14674284Y29645000D01*
X14668500Y29645000D01*
X14660406Y29646609D01*
X14626365Y29650559D01*
X14614734Y29655694D01*
X14591963Y29660224D01*
X14567584Y29676513D01*
X14556452Y29681429D01*
X14548847Y29689033D01*
X14527079Y29703579D01*
X14512533Y29725347D01*
X14504929Y29732952D01*
X14500013Y29744084D01*
X14483724Y29768463D01*
X14479194Y29791234D01*
X14474059Y29802865D01*
X14470109Y29836908D01*
X14468500Y29845000D01*
X14468500Y30734000D01*
X14470110Y30742095D01*
X14474059Y30776134D01*
X14479194Y30787764D01*
X14483724Y30810537D01*
X14500014Y30834917D01*
X14504929Y30846047D01*
X14512531Y30853649D01*
X14527079Y30875421D01*
X14548850Y30889968D01*
X14556452Y30897570D01*
X14567580Y30902483D01*
X14591963Y30918776D01*
X14614738Y30923306D01*
X14626365Y30928440D01*
X14660396Y30932388D01*
X14668500Y30934000D01*
X16065500Y30934000D01*
X16073607Y30932387D01*
G37*
G36*
X18740607Y30932387D02*
G01*
X18774634Y30928440D01*
X18786259Y30923306D01*
X18809037Y30918776D01*
X18833421Y30902482D01*
X18844547Y30897570D01*
X18852146Y30889970D01*
X18873921Y30875421D01*
X18888470Y30853646D01*
X18896070Y30846047D01*
X18900982Y30834921D01*
X18917276Y30810537D01*
X18921806Y30787759D01*
X18926940Y30776134D01*
X18930887Y30742105D01*
X18932500Y30734000D01*
X18932500Y29845000D01*
X18930887Y29836894D01*
X18926940Y29802865D01*
X18921806Y29791238D01*
X18917276Y29768463D01*
X18900983Y29744080D01*
X18896070Y29732952D01*
X18888468Y29725350D01*
X18873921Y29703579D01*
X18852149Y29689031D01*
X18844547Y29681429D01*
X18833417Y29676514D01*
X18809037Y29660224D01*
X18786264Y29655694D01*
X18774634Y29650559D01*
X18740593Y29646609D01*
X18732500Y29645000D01*
X18726717Y29645000D01*
X17341284Y29645000D01*
X17335500Y29645000D01*
X17327406Y29646609D01*
X17293365Y29650559D01*
X17281734Y29655694D01*
X17258963Y29660224D01*
X17234584Y29676513D01*
X17223452Y29681429D01*
X17215847Y29689033D01*
X17194079Y29703579D01*
X17179533Y29725347D01*
X17171929Y29732952D01*
X17167013Y29744084D01*
X17150724Y29768463D01*
X17146194Y29791234D01*
X17141059Y29802865D01*
X17137109Y29836908D01*
X17135500Y29845000D01*
X17135500Y30734000D01*
X17137110Y30742095D01*
X17141059Y30776134D01*
X17146194Y30787764D01*
X17150724Y30810537D01*
X17167014Y30834917D01*
X17171929Y30846047D01*
X17179531Y30853649D01*
X17194079Y30875421D01*
X17215850Y30889968D01*
X17223452Y30897570D01*
X17234580Y30902483D01*
X17258963Y30918776D01*
X17281738Y30923306D01*
X17293365Y30928440D01*
X17327396Y30932388D01*
X17335500Y30934000D01*
X18732500Y30934000D01*
X18740607Y30932387D01*
G37*
G36*
X21153607Y30932387D02*
G01*
X21187634Y30928440D01*
X21199259Y30923306D01*
X21222037Y30918776D01*
X21246421Y30902482D01*
X21257547Y30897570D01*
X21265146Y30889970D01*
X21286921Y30875421D01*
X21301470Y30853646D01*
X21309070Y30846047D01*
X21313982Y30834921D01*
X21330276Y30810537D01*
X21334806Y30787759D01*
X21339940Y30776134D01*
X21343887Y30742105D01*
X21345500Y30734000D01*
X21345500Y29845000D01*
X21343887Y29836894D01*
X21339940Y29802865D01*
X21334806Y29791238D01*
X21330276Y29768463D01*
X21313983Y29744080D01*
X21309070Y29732952D01*
X21301468Y29725350D01*
X21286921Y29703579D01*
X21265149Y29689031D01*
X21257547Y29681429D01*
X21246417Y29676514D01*
X21222037Y29660224D01*
X21199264Y29655694D01*
X21187634Y29650559D01*
X21153593Y29646609D01*
X21145500Y29645000D01*
X21139717Y29645000D01*
X19754284Y29645000D01*
X19748500Y29645000D01*
X19740406Y29646609D01*
X19706365Y29650559D01*
X19694734Y29655694D01*
X19671963Y29660224D01*
X19647584Y29676513D01*
X19636452Y29681429D01*
X19628847Y29689033D01*
X19607079Y29703579D01*
X19592533Y29725347D01*
X19584929Y29732952D01*
X19580013Y29744084D01*
X19563724Y29768463D01*
X19559194Y29791234D01*
X19554059Y29802865D01*
X19550109Y29836908D01*
X19548500Y29845000D01*
X19548500Y30734000D01*
X19550110Y30742095D01*
X19554059Y30776134D01*
X19559194Y30787764D01*
X19563724Y30810537D01*
X19580014Y30834917D01*
X19584929Y30846047D01*
X19592531Y30853649D01*
X19607079Y30875421D01*
X19628850Y30889968D01*
X19636452Y30897570D01*
X19647580Y30902483D01*
X19671963Y30918776D01*
X19694738Y30923306D01*
X19706365Y30928440D01*
X19740396Y30932388D01*
X19748500Y30934000D01*
X21145500Y30934000D01*
X21153607Y30932387D01*
G37*
G36*
X23820607Y30932387D02*
G01*
X23854634Y30928440D01*
X23866259Y30923306D01*
X23889037Y30918776D01*
X23913421Y30902482D01*
X23924547Y30897570D01*
X23932146Y30889970D01*
X23953921Y30875421D01*
X23968470Y30853646D01*
X23976070Y30846047D01*
X23980982Y30834921D01*
X23997276Y30810537D01*
X24001806Y30787759D01*
X24006940Y30776134D01*
X24010887Y30742105D01*
X24012500Y30734000D01*
X24012500Y29845000D01*
X24010887Y29836894D01*
X24006940Y29802865D01*
X24001806Y29791238D01*
X23997276Y29768463D01*
X23980983Y29744080D01*
X23976070Y29732952D01*
X23968468Y29725350D01*
X23953921Y29703579D01*
X23932149Y29689031D01*
X23924547Y29681429D01*
X23913417Y29676514D01*
X23889037Y29660224D01*
X23866264Y29655694D01*
X23854634Y29650559D01*
X23820593Y29646609D01*
X23812500Y29645000D01*
X23806717Y29645000D01*
X22421284Y29645000D01*
X22415500Y29645000D01*
X22407406Y29646609D01*
X22373365Y29650559D01*
X22361734Y29655694D01*
X22338963Y29660224D01*
X22314584Y29676513D01*
X22303452Y29681429D01*
X22295847Y29689033D01*
X22274079Y29703579D01*
X22259533Y29725347D01*
X22251929Y29732952D01*
X22247013Y29744084D01*
X22230724Y29768463D01*
X22226194Y29791234D01*
X22221059Y29802865D01*
X22217109Y29836908D01*
X22215500Y29845000D01*
X22215500Y30734000D01*
X22217110Y30742095D01*
X22221059Y30776134D01*
X22226194Y30787764D01*
X22230724Y30810537D01*
X22247014Y30834917D01*
X22251929Y30846047D01*
X22259531Y30853649D01*
X22274079Y30875421D01*
X22295850Y30889968D01*
X22303452Y30897570D01*
X22314580Y30902483D01*
X22338963Y30918776D01*
X22361738Y30923306D01*
X22373365Y30928440D01*
X22407396Y30932388D01*
X22415500Y30934000D01*
X23812500Y30934000D01*
X23820607Y30932387D01*
G37*
G36*
X26360607Y30932387D02*
G01*
X26394634Y30928440D01*
X26406259Y30923306D01*
X26429037Y30918776D01*
X26453421Y30902482D01*
X26464547Y30897570D01*
X26472146Y30889970D01*
X26493921Y30875421D01*
X26508470Y30853646D01*
X26516070Y30846047D01*
X26520982Y30834921D01*
X26537276Y30810537D01*
X26541806Y30787759D01*
X26546940Y30776134D01*
X26550887Y30742105D01*
X26552500Y30734000D01*
X26552500Y29845000D01*
X26550887Y29836894D01*
X26546940Y29802865D01*
X26541806Y29791238D01*
X26537276Y29768463D01*
X26520983Y29744080D01*
X26516070Y29732952D01*
X26508468Y29725350D01*
X26493921Y29703579D01*
X26472149Y29689031D01*
X26464547Y29681429D01*
X26453417Y29676514D01*
X26429037Y29660224D01*
X26406264Y29655694D01*
X26394634Y29650559D01*
X26360593Y29646609D01*
X26352500Y29645000D01*
X26346717Y29645000D01*
X24961284Y29645000D01*
X24955500Y29645000D01*
X24947406Y29646609D01*
X24913365Y29650559D01*
X24901734Y29655694D01*
X24878963Y29660224D01*
X24854584Y29676513D01*
X24843452Y29681429D01*
X24835847Y29689033D01*
X24814079Y29703579D01*
X24799533Y29725347D01*
X24791929Y29732952D01*
X24787013Y29744084D01*
X24770724Y29768463D01*
X24766194Y29791234D01*
X24761059Y29802865D01*
X24757109Y29836908D01*
X24755500Y29845000D01*
X24755500Y30734000D01*
X24757110Y30742095D01*
X24761059Y30776134D01*
X24766194Y30787764D01*
X24770724Y30810537D01*
X24787014Y30834917D01*
X24791929Y30846047D01*
X24799531Y30853649D01*
X24814079Y30875421D01*
X24835850Y30889968D01*
X24843452Y30897570D01*
X24854580Y30902483D01*
X24878963Y30918776D01*
X24901738Y30923306D01*
X24913365Y30928440D01*
X24947396Y30932388D01*
X24955500Y30934000D01*
X26352500Y30934000D01*
X26360607Y30932387D01*
G37*
G36*
X28900607Y30932387D02*
G01*
X28934634Y30928440D01*
X28946259Y30923306D01*
X28969037Y30918776D01*
X28993421Y30902482D01*
X29004547Y30897570D01*
X29012146Y30889970D01*
X29033921Y30875421D01*
X29048470Y30853646D01*
X29056070Y30846047D01*
X29060982Y30834921D01*
X29077276Y30810537D01*
X29081806Y30787759D01*
X29086940Y30776134D01*
X29090887Y30742105D01*
X29092500Y30734000D01*
X29092500Y29845000D01*
X29090887Y29836894D01*
X29086940Y29802865D01*
X29081806Y29791238D01*
X29077276Y29768463D01*
X29060983Y29744080D01*
X29056070Y29732952D01*
X29048468Y29725350D01*
X29033921Y29703579D01*
X29012149Y29689031D01*
X29004547Y29681429D01*
X28993417Y29676514D01*
X28969037Y29660224D01*
X28946264Y29655694D01*
X28934634Y29650559D01*
X28900593Y29646609D01*
X28892500Y29645000D01*
X28886717Y29645000D01*
X27501284Y29645000D01*
X27495500Y29645000D01*
X27487406Y29646609D01*
X27453365Y29650559D01*
X27441734Y29655694D01*
X27418963Y29660224D01*
X27394584Y29676513D01*
X27383452Y29681429D01*
X27375847Y29689033D01*
X27354079Y29703579D01*
X27339533Y29725347D01*
X27331929Y29732952D01*
X27327013Y29744084D01*
X27310724Y29768463D01*
X27306194Y29791234D01*
X27301059Y29802865D01*
X27297109Y29836908D01*
X27295500Y29845000D01*
X27295500Y30734000D01*
X27297110Y30742095D01*
X27301059Y30776134D01*
X27306194Y30787764D01*
X27310724Y30810537D01*
X27327014Y30834917D01*
X27331929Y30846047D01*
X27339531Y30853649D01*
X27354079Y30875421D01*
X27375850Y30889968D01*
X27383452Y30897570D01*
X27394580Y30902483D01*
X27418963Y30918776D01*
X27441738Y30923306D01*
X27453365Y30928440D01*
X27487396Y30932388D01*
X27495500Y30934000D01*
X28892500Y30934000D01*
X28900607Y30932387D01*
G37*
G36*
X40782727Y32583387D02*
G01*
X40816754Y32579440D01*
X40828379Y32574306D01*
X40851157Y32569776D01*
X40875541Y32553482D01*
X40886667Y32548570D01*
X40894266Y32540970D01*
X40916041Y32526421D01*
X40930590Y32504646D01*
X40938190Y32497047D01*
X40943102Y32485921D01*
X40959396Y32461537D01*
X40963926Y32438759D01*
X40969060Y32427134D01*
X40973007Y32393105D01*
X40974620Y32385000D01*
X40974620Y29885640D01*
X40973007Y29877534D01*
X40969060Y29843505D01*
X40963926Y29831878D01*
X40959396Y29809103D01*
X40943103Y29784720D01*
X40938190Y29773592D01*
X40930588Y29765990D01*
X40916041Y29744219D01*
X40894269Y29729671D01*
X40886667Y29722069D01*
X40875537Y29717154D01*
X40851157Y29700864D01*
X40828384Y29696334D01*
X40816754Y29691199D01*
X40782713Y29687249D01*
X40774620Y29685640D01*
X40768837Y29685640D01*
X38479164Y29685640D01*
X38473380Y29685640D01*
X38465286Y29687249D01*
X38431245Y29691199D01*
X38419614Y29696334D01*
X38396843Y29700864D01*
X38372464Y29717153D01*
X38361332Y29722069D01*
X38353727Y29729673D01*
X38331959Y29744219D01*
X38317413Y29765987D01*
X38309809Y29773592D01*
X38304893Y29784724D01*
X38288604Y29809103D01*
X38284074Y29831874D01*
X38278939Y29843505D01*
X38274989Y29877548D01*
X38273380Y29885640D01*
X38273380Y32385000D01*
X38274990Y32393095D01*
X38278939Y32427134D01*
X38284074Y32438764D01*
X38288604Y32461537D01*
X38304894Y32485917D01*
X38309809Y32497047D01*
X38317411Y32504649D01*
X38331959Y32526421D01*
X38353730Y32540968D01*
X38361332Y32548570D01*
X38372460Y32553483D01*
X38396843Y32569776D01*
X38419618Y32574306D01*
X38431245Y32579440D01*
X38465276Y32583388D01*
X38473380Y32585000D01*
X40774620Y32585000D01*
X40782727Y32583387D01*
G37*
G36*
X12715727Y33198067D02*
G01*
X12749754Y33194120D01*
X12761379Y33188986D01*
X12784157Y33184456D01*
X12808541Y33168162D01*
X12819667Y33163250D01*
X12827266Y33155650D01*
X12849041Y33141101D01*
X12863590Y33119326D01*
X12871190Y33111727D01*
X12876102Y33100601D01*
X12892396Y33076217D01*
X12896926Y33053439D01*
X12902060Y33041814D01*
X12906007Y33007785D01*
X12907620Y32999680D01*
X12907620Y30500320D01*
X12906007Y30492214D01*
X12902060Y30458185D01*
X12896926Y30446558D01*
X12892396Y30423783D01*
X12876103Y30399400D01*
X12871190Y30388272D01*
X12863588Y30380670D01*
X12849041Y30358899D01*
X12827269Y30344351D01*
X12819667Y30336749D01*
X12808537Y30331834D01*
X12784157Y30315544D01*
X12761384Y30311014D01*
X12749754Y30305879D01*
X12715713Y30301929D01*
X12707620Y30300320D01*
X12701837Y30300320D01*
X10412164Y30300320D01*
X10406380Y30300320D01*
X10398286Y30301929D01*
X10364245Y30305879D01*
X10352614Y30311014D01*
X10329843Y30315544D01*
X10305464Y30331833D01*
X10294332Y30336749D01*
X10286727Y30344353D01*
X10264959Y30358899D01*
X10250413Y30380667D01*
X10242809Y30388272D01*
X10237893Y30399404D01*
X10221604Y30423783D01*
X10217074Y30446554D01*
X10211939Y30458185D01*
X10207989Y30492228D01*
X10206380Y30500320D01*
X10206380Y32999680D01*
X10207990Y33007775D01*
X10211939Y33041814D01*
X10217074Y33053444D01*
X10221604Y33076217D01*
X10237894Y33100597D01*
X10242809Y33111727D01*
X10250411Y33119329D01*
X10264959Y33141101D01*
X10286730Y33155648D01*
X10294332Y33163250D01*
X10305460Y33168163D01*
X10329843Y33184456D01*
X10352618Y33188986D01*
X10364245Y33194120D01*
X10398276Y33198068D01*
X10406380Y33199680D01*
X12707620Y33199680D01*
X12715727Y33198067D01*
G37*
G36*
X31440607Y32773887D02*
G01*
X31474634Y32769940D01*
X31486259Y32764806D01*
X31509037Y32760276D01*
X31533421Y32743982D01*
X31544547Y32739070D01*
X31552146Y32731470D01*
X31573921Y32716921D01*
X31588470Y32695146D01*
X31596070Y32687547D01*
X31600982Y32676421D01*
X31617276Y32652037D01*
X31621806Y32629259D01*
X31626940Y32617634D01*
X31630887Y32583605D01*
X31632500Y32575500D01*
X31632500Y31686500D01*
X31630887Y31678394D01*
X31626940Y31644365D01*
X31621806Y31632738D01*
X31617276Y31609963D01*
X31600983Y31585580D01*
X31596070Y31574452D01*
X31588468Y31566850D01*
X31573921Y31545079D01*
X31552149Y31530531D01*
X31544547Y31522929D01*
X31533417Y31518014D01*
X31509037Y31501724D01*
X31486264Y31497194D01*
X31474634Y31492059D01*
X31440593Y31488109D01*
X31432500Y31486500D01*
X31426717Y31486500D01*
X30041284Y31486500D01*
X30035500Y31486500D01*
X30027406Y31488109D01*
X29993365Y31492059D01*
X29981734Y31497194D01*
X29958963Y31501724D01*
X29934584Y31518013D01*
X29923452Y31522929D01*
X29915847Y31530533D01*
X29894079Y31545079D01*
X29879533Y31566847D01*
X29871929Y31574452D01*
X29867013Y31585584D01*
X29850724Y31609963D01*
X29846194Y31632734D01*
X29841059Y31644365D01*
X29837109Y31678408D01*
X29835500Y31686500D01*
X29835500Y32575500D01*
X29837110Y32583595D01*
X29841059Y32617634D01*
X29846194Y32629264D01*
X29850724Y32652037D01*
X29867014Y32676417D01*
X29871929Y32687547D01*
X29879531Y32695149D01*
X29894079Y32716921D01*
X29915850Y32731468D01*
X29923452Y32739070D01*
X29934580Y32743983D01*
X29958963Y32760276D01*
X29981738Y32764806D01*
X29993365Y32769940D01*
X30027396Y32773888D01*
X30035500Y32775500D01*
X31432500Y32775500D01*
X31440607Y32773887D01*
G37*
G36*
X33980607Y32773887D02*
G01*
X34014634Y32769940D01*
X34026259Y32764806D01*
X34049037Y32760276D01*
X34073421Y32743982D01*
X34084547Y32739070D01*
X34092146Y32731470D01*
X34113921Y32716921D01*
X34128470Y32695146D01*
X34136070Y32687547D01*
X34140982Y32676421D01*
X34157276Y32652037D01*
X34161806Y32629259D01*
X34166940Y32617634D01*
X34170887Y32583605D01*
X34172500Y32575500D01*
X34172500Y31686500D01*
X34170887Y31678394D01*
X34166940Y31644365D01*
X34161806Y31632738D01*
X34157276Y31609963D01*
X34140983Y31585580D01*
X34136070Y31574452D01*
X34128468Y31566850D01*
X34113921Y31545079D01*
X34092149Y31530531D01*
X34084547Y31522929D01*
X34073417Y31518014D01*
X34049037Y31501724D01*
X34026264Y31497194D01*
X34014634Y31492059D01*
X33980593Y31488109D01*
X33972500Y31486500D01*
X33966717Y31486500D01*
X32581284Y31486500D01*
X32575500Y31486500D01*
X32567406Y31488109D01*
X32533365Y31492059D01*
X32521734Y31497194D01*
X32498963Y31501724D01*
X32474584Y31518013D01*
X32463452Y31522929D01*
X32455847Y31530533D01*
X32434079Y31545079D01*
X32419533Y31566847D01*
X32411929Y31574452D01*
X32407013Y31585584D01*
X32390724Y31609963D01*
X32386194Y31632734D01*
X32381059Y31644365D01*
X32377109Y31678408D01*
X32375500Y31686500D01*
X32375500Y32575500D01*
X32377110Y32583595D01*
X32381059Y32617634D01*
X32386194Y32629264D01*
X32390724Y32652037D01*
X32407014Y32676417D01*
X32411929Y32687547D01*
X32419531Y32695149D01*
X32434079Y32716921D01*
X32455850Y32731468D01*
X32463452Y32739070D01*
X32474580Y32743983D01*
X32498963Y32760276D01*
X32521738Y32764806D01*
X32533365Y32769940D01*
X32567396Y32773888D01*
X32575500Y32775500D01*
X33972500Y32775500D01*
X33980607Y32773887D01*
G37*
G36*
X36520607Y32773887D02*
G01*
X36554634Y32769940D01*
X36566259Y32764806D01*
X36589037Y32760276D01*
X36613421Y32743982D01*
X36624547Y32739070D01*
X36632146Y32731470D01*
X36653921Y32716921D01*
X36668470Y32695146D01*
X36676070Y32687547D01*
X36680982Y32676421D01*
X36697276Y32652037D01*
X36701806Y32629259D01*
X36706940Y32617634D01*
X36710887Y32583605D01*
X36712500Y32575500D01*
X36712500Y31686500D01*
X36710887Y31678394D01*
X36706940Y31644365D01*
X36701806Y31632738D01*
X36697276Y31609963D01*
X36680983Y31585580D01*
X36676070Y31574452D01*
X36668468Y31566850D01*
X36653921Y31545079D01*
X36632149Y31530531D01*
X36624547Y31522929D01*
X36613417Y31518014D01*
X36589037Y31501724D01*
X36566264Y31497194D01*
X36554634Y31492059D01*
X36520593Y31488109D01*
X36512500Y31486500D01*
X36506717Y31486500D01*
X35121284Y31486500D01*
X35115500Y31486500D01*
X35107406Y31488109D01*
X35073365Y31492059D01*
X35061734Y31497194D01*
X35038963Y31501724D01*
X35014584Y31518013D01*
X35003452Y31522929D01*
X34995847Y31530533D01*
X34974079Y31545079D01*
X34959533Y31566847D01*
X34951929Y31574452D01*
X34947013Y31585584D01*
X34930724Y31609963D01*
X34926194Y31632734D01*
X34921059Y31644365D01*
X34917109Y31678408D01*
X34915500Y31686500D01*
X34915500Y32575500D01*
X34917110Y32583595D01*
X34921059Y32617634D01*
X34926194Y32629264D01*
X34930724Y32652037D01*
X34947014Y32676417D01*
X34951929Y32687547D01*
X34959531Y32695149D01*
X34974079Y32716921D01*
X34995850Y32731468D01*
X35003452Y32739070D01*
X35014580Y32743983D01*
X35038963Y32760276D01*
X35061738Y32764806D01*
X35073365Y32769940D01*
X35107396Y32773888D01*
X35115500Y32775500D01*
X36512500Y32775500D01*
X36520607Y32773887D01*
G37*
G36*
X16073607Y32837387D02*
G01*
X16107634Y32833440D01*
X16119259Y32828306D01*
X16142037Y32823776D01*
X16166421Y32807482D01*
X16177547Y32802570D01*
X16185146Y32794970D01*
X16206921Y32780421D01*
X16221470Y32758646D01*
X16229070Y32751047D01*
X16233982Y32739921D01*
X16250276Y32715537D01*
X16254806Y32692759D01*
X16259940Y32681134D01*
X16263887Y32647105D01*
X16265500Y32639000D01*
X16265500Y31750000D01*
X16263887Y31741894D01*
X16259940Y31707865D01*
X16254806Y31696238D01*
X16250276Y31673463D01*
X16233983Y31649080D01*
X16229070Y31637952D01*
X16221468Y31630350D01*
X16206921Y31608579D01*
X16185149Y31594031D01*
X16177547Y31586429D01*
X16166417Y31581514D01*
X16142037Y31565224D01*
X16119264Y31560694D01*
X16107634Y31555559D01*
X16073593Y31551609D01*
X16065500Y31550000D01*
X16059717Y31550000D01*
X14674284Y31550000D01*
X14668500Y31550000D01*
X14660406Y31551609D01*
X14626365Y31555559D01*
X14614734Y31560694D01*
X14591963Y31565224D01*
X14567584Y31581513D01*
X14556452Y31586429D01*
X14548847Y31594033D01*
X14527079Y31608579D01*
X14512533Y31630347D01*
X14504929Y31637952D01*
X14500013Y31649084D01*
X14483724Y31673463D01*
X14479194Y31696234D01*
X14474059Y31707865D01*
X14470109Y31741908D01*
X14468500Y31750000D01*
X14468500Y32639000D01*
X14470110Y32647095D01*
X14474059Y32681134D01*
X14479194Y32692764D01*
X14483724Y32715537D01*
X14500014Y32739917D01*
X14504929Y32751047D01*
X14512531Y32758649D01*
X14527079Y32780421D01*
X14548850Y32794968D01*
X14556452Y32802570D01*
X14567580Y32807483D01*
X14591963Y32823776D01*
X14614738Y32828306D01*
X14626365Y32833440D01*
X14660396Y32837388D01*
X14668500Y32839000D01*
X16065500Y32839000D01*
X16073607Y32837387D01*
G37*
G36*
X18740607Y32837387D02*
G01*
X18774634Y32833440D01*
X18786259Y32828306D01*
X18809037Y32823776D01*
X18833421Y32807482D01*
X18844547Y32802570D01*
X18852146Y32794970D01*
X18873921Y32780421D01*
X18888470Y32758646D01*
X18896070Y32751047D01*
X18900982Y32739921D01*
X18917276Y32715537D01*
X18921806Y32692759D01*
X18926940Y32681134D01*
X18930887Y32647105D01*
X18932500Y32639000D01*
X18932500Y31750000D01*
X18930887Y31741894D01*
X18926940Y31707865D01*
X18921806Y31696238D01*
X18917276Y31673463D01*
X18900983Y31649080D01*
X18896070Y31637952D01*
X18888468Y31630350D01*
X18873921Y31608579D01*
X18852149Y31594031D01*
X18844547Y31586429D01*
X18833417Y31581514D01*
X18809037Y31565224D01*
X18786264Y31560694D01*
X18774634Y31555559D01*
X18740593Y31551609D01*
X18732500Y31550000D01*
X18726717Y31550000D01*
X17341284Y31550000D01*
X17335500Y31550000D01*
X17327406Y31551609D01*
X17293365Y31555559D01*
X17281734Y31560694D01*
X17258963Y31565224D01*
X17234584Y31581513D01*
X17223452Y31586429D01*
X17215847Y31594033D01*
X17194079Y31608579D01*
X17179533Y31630347D01*
X17171929Y31637952D01*
X17167013Y31649084D01*
X17150724Y31673463D01*
X17146194Y31696234D01*
X17141059Y31707865D01*
X17137109Y31741908D01*
X17135500Y31750000D01*
X17135500Y32639000D01*
X17137110Y32647095D01*
X17141059Y32681134D01*
X17146194Y32692764D01*
X17150724Y32715537D01*
X17167014Y32739917D01*
X17171929Y32751047D01*
X17179531Y32758649D01*
X17194079Y32780421D01*
X17215850Y32794968D01*
X17223452Y32802570D01*
X17234580Y32807483D01*
X17258963Y32823776D01*
X17281738Y32828306D01*
X17293365Y32833440D01*
X17327396Y32837388D01*
X17335500Y32839000D01*
X18732500Y32839000D01*
X18740607Y32837387D01*
G37*
G36*
X21153607Y32837387D02*
G01*
X21187634Y32833440D01*
X21199259Y32828306D01*
X21222037Y32823776D01*
X21246421Y32807482D01*
X21257547Y32802570D01*
X21265146Y32794970D01*
X21286921Y32780421D01*
X21301470Y32758646D01*
X21309070Y32751047D01*
X21313982Y32739921D01*
X21330276Y32715537D01*
X21334806Y32692759D01*
X21339940Y32681134D01*
X21343887Y32647105D01*
X21345500Y32639000D01*
X21345500Y31750000D01*
X21343887Y31741894D01*
X21339940Y31707865D01*
X21334806Y31696238D01*
X21330276Y31673463D01*
X21313983Y31649080D01*
X21309070Y31637952D01*
X21301468Y31630350D01*
X21286921Y31608579D01*
X21265149Y31594031D01*
X21257547Y31586429D01*
X21246417Y31581514D01*
X21222037Y31565224D01*
X21199264Y31560694D01*
X21187634Y31555559D01*
X21153593Y31551609D01*
X21145500Y31550000D01*
X21139717Y31550000D01*
X19754284Y31550000D01*
X19748500Y31550000D01*
X19740406Y31551609D01*
X19706365Y31555559D01*
X19694734Y31560694D01*
X19671963Y31565224D01*
X19647584Y31581513D01*
X19636452Y31586429D01*
X19628847Y31594033D01*
X19607079Y31608579D01*
X19592533Y31630347D01*
X19584929Y31637952D01*
X19580013Y31649084D01*
X19563724Y31673463D01*
X19559194Y31696234D01*
X19554059Y31707865D01*
X19550109Y31741908D01*
X19548500Y31750000D01*
X19548500Y32639000D01*
X19550110Y32647095D01*
X19554059Y32681134D01*
X19559194Y32692764D01*
X19563724Y32715537D01*
X19580014Y32739917D01*
X19584929Y32751047D01*
X19592531Y32758649D01*
X19607079Y32780421D01*
X19628850Y32794968D01*
X19636452Y32802570D01*
X19647580Y32807483D01*
X19671963Y32823776D01*
X19694738Y32828306D01*
X19706365Y32833440D01*
X19740396Y32837388D01*
X19748500Y32839000D01*
X21145500Y32839000D01*
X21153607Y32837387D01*
G37*
G36*
X23820607Y32837387D02*
G01*
X23854634Y32833440D01*
X23866259Y32828306D01*
X23889037Y32823776D01*
X23913421Y32807482D01*
X23924547Y32802570D01*
X23932146Y32794970D01*
X23953921Y32780421D01*
X23968470Y32758646D01*
X23976070Y32751047D01*
X23980982Y32739921D01*
X23997276Y32715537D01*
X24001806Y32692759D01*
X24006940Y32681134D01*
X24010887Y32647105D01*
X24012500Y32639000D01*
X24012500Y31750000D01*
X24010887Y31741894D01*
X24006940Y31707865D01*
X24001806Y31696238D01*
X23997276Y31673463D01*
X23980983Y31649080D01*
X23976070Y31637952D01*
X23968468Y31630350D01*
X23953921Y31608579D01*
X23932149Y31594031D01*
X23924547Y31586429D01*
X23913417Y31581514D01*
X23889037Y31565224D01*
X23866264Y31560694D01*
X23854634Y31555559D01*
X23820593Y31551609D01*
X23812500Y31550000D01*
X23806717Y31550000D01*
X22421284Y31550000D01*
X22415500Y31550000D01*
X22407406Y31551609D01*
X22373365Y31555559D01*
X22361734Y31560694D01*
X22338963Y31565224D01*
X22314584Y31581513D01*
X22303452Y31586429D01*
X22295847Y31594033D01*
X22274079Y31608579D01*
X22259533Y31630347D01*
X22251929Y31637952D01*
X22247013Y31649084D01*
X22230724Y31673463D01*
X22226194Y31696234D01*
X22221059Y31707865D01*
X22217109Y31741908D01*
X22215500Y31750000D01*
X22215500Y32639000D01*
X22217110Y32647095D01*
X22221059Y32681134D01*
X22226194Y32692764D01*
X22230724Y32715537D01*
X22247014Y32739917D01*
X22251929Y32751047D01*
X22259531Y32758649D01*
X22274079Y32780421D01*
X22295850Y32794968D01*
X22303452Y32802570D01*
X22314580Y32807483D01*
X22338963Y32823776D01*
X22361738Y32828306D01*
X22373365Y32833440D01*
X22407396Y32837388D01*
X22415500Y32839000D01*
X23812500Y32839000D01*
X23820607Y32837387D01*
G37*
G36*
X26360607Y32837387D02*
G01*
X26394634Y32833440D01*
X26406259Y32828306D01*
X26429037Y32823776D01*
X26453421Y32807482D01*
X26464547Y32802570D01*
X26472146Y32794970D01*
X26493921Y32780421D01*
X26508470Y32758646D01*
X26516070Y32751047D01*
X26520982Y32739921D01*
X26537276Y32715537D01*
X26541806Y32692759D01*
X26546940Y32681134D01*
X26550887Y32647105D01*
X26552500Y32639000D01*
X26552500Y31750000D01*
X26550887Y31741894D01*
X26546940Y31707865D01*
X26541806Y31696238D01*
X26537276Y31673463D01*
X26520983Y31649080D01*
X26516070Y31637952D01*
X26508468Y31630350D01*
X26493921Y31608579D01*
X26472149Y31594031D01*
X26464547Y31586429D01*
X26453417Y31581514D01*
X26429037Y31565224D01*
X26406264Y31560694D01*
X26394634Y31555559D01*
X26360593Y31551609D01*
X26352500Y31550000D01*
X26346717Y31550000D01*
X24961284Y31550000D01*
X24955500Y31550000D01*
X24947406Y31551609D01*
X24913365Y31555559D01*
X24901734Y31560694D01*
X24878963Y31565224D01*
X24854584Y31581513D01*
X24843452Y31586429D01*
X24835847Y31594033D01*
X24814079Y31608579D01*
X24799533Y31630347D01*
X24791929Y31637952D01*
X24787013Y31649084D01*
X24770724Y31673463D01*
X24766194Y31696234D01*
X24761059Y31707865D01*
X24757109Y31741908D01*
X24755500Y31750000D01*
X24755500Y32639000D01*
X24757110Y32647095D01*
X24761059Y32681134D01*
X24766194Y32692764D01*
X24770724Y32715537D01*
X24787014Y32739917D01*
X24791929Y32751047D01*
X24799531Y32758649D01*
X24814079Y32780421D01*
X24835850Y32794968D01*
X24843452Y32802570D01*
X24854580Y32807483D01*
X24878963Y32823776D01*
X24901738Y32828306D01*
X24913365Y32833440D01*
X24947396Y32837388D01*
X24955500Y32839000D01*
X26352500Y32839000D01*
X26360607Y32837387D01*
G37*
G36*
X28900607Y32837387D02*
G01*
X28934634Y32833440D01*
X28946259Y32828306D01*
X28969037Y32823776D01*
X28993421Y32807482D01*
X29004547Y32802570D01*
X29012146Y32794970D01*
X29033921Y32780421D01*
X29048470Y32758646D01*
X29056070Y32751047D01*
X29060982Y32739921D01*
X29077276Y32715537D01*
X29081806Y32692759D01*
X29086940Y32681134D01*
X29090887Y32647105D01*
X29092500Y32639000D01*
X29092500Y31750000D01*
X29090887Y31741894D01*
X29086940Y31707865D01*
X29081806Y31696238D01*
X29077276Y31673463D01*
X29060983Y31649080D01*
X29056070Y31637952D01*
X29048468Y31630350D01*
X29033921Y31608579D01*
X29012149Y31594031D01*
X29004547Y31586429D01*
X28993417Y31581514D01*
X28969037Y31565224D01*
X28946264Y31560694D01*
X28934634Y31555559D01*
X28900593Y31551609D01*
X28892500Y31550000D01*
X28886717Y31550000D01*
X27501284Y31550000D01*
X27495500Y31550000D01*
X27487406Y31551609D01*
X27453365Y31555559D01*
X27441734Y31560694D01*
X27418963Y31565224D01*
X27394584Y31581513D01*
X27383452Y31586429D01*
X27375847Y31594033D01*
X27354079Y31608579D01*
X27339533Y31630347D01*
X27331929Y31637952D01*
X27327013Y31649084D01*
X27310724Y31673463D01*
X27306194Y31696234D01*
X27301059Y31707865D01*
X27297109Y31741908D01*
X27295500Y31750000D01*
X27295500Y32639000D01*
X27297110Y32647095D01*
X27301059Y32681134D01*
X27306194Y32692764D01*
X27310724Y32715537D01*
X27327014Y32739917D01*
X27331929Y32751047D01*
X27339531Y32758649D01*
X27354079Y32780421D01*
X27375850Y32794968D01*
X27383452Y32802570D01*
X27394580Y32807483D01*
X27418963Y32823776D01*
X27441738Y32828306D01*
X27453365Y32833440D01*
X27487396Y32837388D01*
X27495500Y32839000D01*
X28892500Y32839000D01*
X28900607Y32837387D01*
G37*
G36*
X5166184Y38755160D02*
G01*
X5253234Y38755160D01*
X5346177Y38745051D01*
X5438286Y38739879D01*
X5517513Y38726417D01*
X5597680Y38717699D01*
X5695312Y38696208D01*
X5792067Y38679769D01*
X5863535Y38659179D01*
X5936053Y38643217D01*
X6036973Y38609213D01*
X6136893Y38580427D01*
X6200048Y38554267D01*
X6264384Y38532590D01*
X6367038Y38485097D01*
X6468428Y38443100D01*
X6522969Y38412955D01*
X6578837Y38387109D01*
X6681484Y38325348D01*
X6782503Y38269517D01*
X6828398Y38236952D01*
X6875720Y38208480D01*
X6976503Y38131866D01*
X7075167Y38061861D01*
X7112602Y38028407D01*
X7151539Y37998808D01*
X7248498Y37906962D01*
X7342742Y37822742D01*
X7372153Y37789830D01*
X7403075Y37760540D01*
X7494181Y37653281D01*
X7581861Y37555167D01*
X7603884Y37524127D01*
X7627383Y37496463D01*
X7710624Y37373691D01*
X7789517Y37262503D01*
X7804968Y37234544D01*
X7821819Y37209693D01*
X7895172Y37071334D01*
X7963100Y36948428D01*
X7972984Y36924563D01*
X7984104Y36903591D01*
X8045517Y36749456D01*
X8100427Y36616893D01*
X8105887Y36597939D01*
X8112353Y36581712D01*
X8159945Y36410299D01*
X8199769Y36272067D01*
X8202046Y36258664D01*
X8205041Y36247878D01*
X8236964Y36053153D01*
X8259879Y35918286D01*
X8260298Y35910818D01*
X8261095Y35905959D01*
X8275741Y35635822D01*
X8280000Y35560000D01*
X8275742Y35484184D01*
X8261095Y35214040D01*
X8260298Y35209180D01*
X8259879Y35201714D01*
X8236968Y35066874D01*
X8205041Y34872121D01*
X8202045Y34861333D01*
X8199769Y34847933D01*
X8159952Y34709726D01*
X8112353Y34538287D01*
X8105886Y34522057D01*
X8100427Y34503107D01*
X8045527Y34370569D01*
X7984104Y34216408D01*
X7972983Y34195431D01*
X7963100Y34171572D01*
X7895185Y34048689D01*
X7821819Y33910306D01*
X7804965Y33885449D01*
X7789517Y33857497D01*
X7710639Y33746329D01*
X7627383Y33623536D01*
X7603880Y33595866D01*
X7581861Y33564833D01*
X7494198Y33466738D01*
X7403075Y33359459D01*
X7372147Y33330162D01*
X7342742Y33297258D01*
X7248517Y33213053D01*
X7151539Y33121191D01*
X7112594Y33091586D01*
X7075167Y33058139D01*
X6976523Y32988147D01*
X6875720Y32911519D01*
X6828388Y32883040D01*
X6782503Y32850483D01*
X6681504Y32794663D01*
X6578837Y32732890D01*
X6522958Y32707037D01*
X6468428Y32676900D01*
X6367059Y32634911D01*
X6264384Y32587409D01*
X6200035Y32565727D01*
X6136893Y32539573D01*
X6036993Y32510792D01*
X5936053Y32476782D01*
X5863520Y32460816D01*
X5792067Y32440231D01*
X5695332Y32423795D01*
X5597680Y32402300D01*
X5517500Y32393580D01*
X5438286Y32380121D01*
X5346182Y32374948D01*
X5253234Y32364840D01*
X5166184Y32364840D01*
X5080000Y32360000D01*
X4993816Y32364840D01*
X4906766Y32364840D01*
X4813816Y32374948D01*
X4721714Y32380121D01*
X4642500Y32393579D01*
X4562319Y32402300D01*
X4464662Y32423795D01*
X4367933Y32440231D01*
X4296482Y32460815D01*
X4223946Y32476782D01*
X4122999Y32510794D01*
X4023107Y32539573D01*
X3959969Y32565725D01*
X3895615Y32587409D01*
X3792931Y32634915D01*
X3691572Y32676900D01*
X3637046Y32707035D01*
X3581162Y32732890D01*
X3478483Y32794670D01*
X3377497Y32850483D01*
X3331616Y32883036D01*
X3284279Y32911519D01*
X3183461Y32988158D01*
X3084833Y33058139D01*
X3047411Y33091581D01*
X3008460Y33121191D01*
X2911465Y33213069D01*
X2817258Y33297258D01*
X2787857Y33330156D01*
X2756924Y33359459D01*
X2665781Y33466760D01*
X2578139Y33564833D01*
X2556124Y33595859D01*
X2532616Y33623536D01*
X2449337Y33746361D01*
X2370483Y33857497D01*
X2355038Y33885441D01*
X2338180Y33910306D01*
X2264790Y34048733D01*
X2196900Y34171572D01*
X2187020Y34195423D01*
X2175895Y34216408D01*
X2114445Y34370632D01*
X2059573Y34503107D01*
X2054116Y34522048D01*
X2047646Y34538287D01*
X2000019Y34709822D01*
X1960231Y34847933D01*
X1957955Y34861323D01*
X1954958Y34872121D01*
X1923002Y35067041D01*
X1900121Y35201714D01*
X1899702Y35209170D01*
X1898904Y35214040D01*
X1884228Y35484699D01*
X1880000Y35560000D01*
X1884229Y35635306D01*
X1898904Y35905959D01*
X1899702Y35910827D01*
X1900121Y35918286D01*
X1923007Y36052985D01*
X1954958Y36247878D01*
X1957955Y36258673D01*
X1960231Y36272067D01*
X2000027Y36410204D01*
X2047646Y36581712D01*
X2054115Y36597948D01*
X2059573Y36616893D01*
X2114456Y36749392D01*
X2175895Y36903591D01*
X2187018Y36924572D01*
X2196900Y36948428D01*
X2264803Y37071289D01*
X2338180Y37209693D01*
X2355035Y37234552D01*
X2370483Y37262503D01*
X2449352Y37373659D01*
X2532616Y37496463D01*
X2556120Y37524134D01*
X2578139Y37555167D01*
X2665798Y37653258D01*
X2756924Y37760540D01*
X2787852Y37789836D01*
X2817258Y37822742D01*
X2911483Y37906947D01*
X3008460Y37998808D01*
X3047403Y38028412D01*
X3084833Y38061861D01*
X3183481Y38131855D01*
X3284279Y38208480D01*
X3331607Y38236956D01*
X3377497Y38269517D01*
X3478503Y38325341D01*
X3581162Y38387109D01*
X3637035Y38412958D01*
X3691572Y38443100D01*
X3792952Y38485093D01*
X3895615Y38532590D01*
X3959956Y38554269D01*
X4023107Y38580427D01*
X4123019Y38609211D01*
X4223946Y38643217D01*
X4296467Y38659180D01*
X4367933Y38679769D01*
X4464682Y38696207D01*
X4562319Y38717699D01*
X4642488Y38726417D01*
X4721714Y38739879D01*
X4813822Y38745051D01*
X4906766Y38755160D01*
X4993816Y38755160D01*
X5080000Y38760000D01*
X5166184Y38755160D01*
G37*
G36*
X45806184Y38755160D02*
G01*
X45893234Y38755160D01*
X45986177Y38745051D01*
X46078286Y38739879D01*
X46157513Y38726417D01*
X46237680Y38717699D01*
X46335312Y38696208D01*
X46432067Y38679769D01*
X46503535Y38659179D01*
X46576053Y38643217D01*
X46676973Y38609213D01*
X46776893Y38580427D01*
X46840048Y38554267D01*
X46904384Y38532590D01*
X47007038Y38485097D01*
X47108428Y38443100D01*
X47162969Y38412955D01*
X47218837Y38387109D01*
X47321484Y38325348D01*
X47422503Y38269517D01*
X47468398Y38236952D01*
X47515720Y38208480D01*
X47616503Y38131866D01*
X47715167Y38061861D01*
X47752602Y38028407D01*
X47791539Y37998808D01*
X47888498Y37906962D01*
X47982742Y37822742D01*
X48012153Y37789830D01*
X48043075Y37760540D01*
X48134181Y37653281D01*
X48221861Y37555167D01*
X48243884Y37524127D01*
X48267383Y37496463D01*
X48350624Y37373691D01*
X48429517Y37262503D01*
X48444968Y37234544D01*
X48461819Y37209693D01*
X48535172Y37071334D01*
X48603100Y36948428D01*
X48612984Y36924563D01*
X48624104Y36903591D01*
X48685517Y36749456D01*
X48740427Y36616893D01*
X48745887Y36597939D01*
X48752353Y36581712D01*
X48799945Y36410299D01*
X48839769Y36272067D01*
X48842046Y36258664D01*
X48845041Y36247878D01*
X48876964Y36053153D01*
X48899879Y35918286D01*
X48900298Y35910818D01*
X48901095Y35905959D01*
X48915741Y35635822D01*
X48920000Y35560000D01*
X48915742Y35484184D01*
X48901095Y35214040D01*
X48900298Y35209180D01*
X48899879Y35201714D01*
X48876968Y35066874D01*
X48845041Y34872121D01*
X48842045Y34861333D01*
X48839769Y34847933D01*
X48799952Y34709726D01*
X48752353Y34538287D01*
X48745886Y34522057D01*
X48740427Y34503107D01*
X48685527Y34370569D01*
X48624104Y34216408D01*
X48612983Y34195431D01*
X48603100Y34171572D01*
X48535185Y34048689D01*
X48461819Y33910306D01*
X48444965Y33885449D01*
X48429517Y33857497D01*
X48350639Y33746329D01*
X48267383Y33623536D01*
X48243880Y33595866D01*
X48221861Y33564833D01*
X48134198Y33466738D01*
X48043075Y33359459D01*
X48012147Y33330162D01*
X47982742Y33297258D01*
X47888517Y33213053D01*
X47791539Y33121191D01*
X47752594Y33091586D01*
X47715167Y33058139D01*
X47616523Y32988147D01*
X47515720Y32911519D01*
X47468388Y32883040D01*
X47422503Y32850483D01*
X47321504Y32794663D01*
X47218837Y32732890D01*
X47162958Y32707037D01*
X47108428Y32676900D01*
X47007059Y32634911D01*
X46904384Y32587409D01*
X46840035Y32565727D01*
X46776893Y32539573D01*
X46676993Y32510792D01*
X46576053Y32476782D01*
X46503520Y32460816D01*
X46432067Y32440231D01*
X46335332Y32423795D01*
X46237680Y32402300D01*
X46157500Y32393580D01*
X46078286Y32380121D01*
X45986182Y32374948D01*
X45893234Y32364840D01*
X45806184Y32364840D01*
X45720000Y32360000D01*
X45633816Y32364840D01*
X45546766Y32364840D01*
X45453816Y32374948D01*
X45361714Y32380121D01*
X45282500Y32393579D01*
X45202319Y32402300D01*
X45104662Y32423795D01*
X45007933Y32440231D01*
X44936482Y32460815D01*
X44863946Y32476782D01*
X44762999Y32510794D01*
X44663107Y32539573D01*
X44599969Y32565725D01*
X44535615Y32587409D01*
X44432931Y32634915D01*
X44331572Y32676900D01*
X44277046Y32707035D01*
X44221162Y32732890D01*
X44118483Y32794670D01*
X44017497Y32850483D01*
X43971616Y32883036D01*
X43924279Y32911519D01*
X43823461Y32988158D01*
X43724833Y33058139D01*
X43687411Y33091581D01*
X43648460Y33121191D01*
X43551465Y33213069D01*
X43457258Y33297258D01*
X43427857Y33330156D01*
X43396924Y33359459D01*
X43305781Y33466760D01*
X43218139Y33564833D01*
X43196124Y33595859D01*
X43172616Y33623536D01*
X43089337Y33746361D01*
X43010483Y33857497D01*
X42995038Y33885441D01*
X42978180Y33910306D01*
X42904790Y34048733D01*
X42836900Y34171572D01*
X42827020Y34195423D01*
X42815895Y34216408D01*
X42754445Y34370632D01*
X42699573Y34503107D01*
X42694116Y34522048D01*
X42687646Y34538287D01*
X42640019Y34709822D01*
X42600231Y34847933D01*
X42597955Y34861323D01*
X42594958Y34872121D01*
X42563002Y35067041D01*
X42540121Y35201714D01*
X42539702Y35209170D01*
X42538904Y35214040D01*
X42524228Y35484699D01*
X42520000Y35560000D01*
X42524229Y35635306D01*
X42538904Y35905959D01*
X42539702Y35910827D01*
X42540121Y35918286D01*
X42563007Y36052985D01*
X42594958Y36247878D01*
X42597955Y36258673D01*
X42600231Y36272067D01*
X42640027Y36410204D01*
X42687646Y36581712D01*
X42694115Y36597948D01*
X42699573Y36616893D01*
X42754456Y36749392D01*
X42815895Y36903591D01*
X42827018Y36924572D01*
X42836900Y36948428D01*
X42904803Y37071289D01*
X42978180Y37209693D01*
X42995035Y37234552D01*
X43010483Y37262503D01*
X43089352Y37373659D01*
X43172616Y37496463D01*
X43196120Y37524134D01*
X43218139Y37555167D01*
X43305798Y37653258D01*
X43396924Y37760540D01*
X43427852Y37789836D01*
X43457258Y37822742D01*
X43551483Y37906947D01*
X43648460Y37998808D01*
X43687403Y38028412D01*
X43724833Y38061861D01*
X43823481Y38131855D01*
X43924279Y38208480D01*
X43971607Y38236956D01*
X44017497Y38269517D01*
X44118503Y38325341D01*
X44221162Y38387109D01*
X44277035Y38412958D01*
X44331572Y38443100D01*
X44432952Y38485093D01*
X44535615Y38532590D01*
X44599956Y38554269D01*
X44663107Y38580427D01*
X44763019Y38609211D01*
X44863946Y38643217D01*
X44936467Y38659180D01*
X45007933Y38679769D01*
X45104682Y38696207D01*
X45202319Y38717699D01*
X45282488Y38726417D01*
X45361714Y38739879D01*
X45453822Y38745051D01*
X45546766Y38755160D01*
X45633816Y38755160D01*
X45720000Y38760000D01*
X45806184Y38755160D01*
G37*
G36*
X16137107Y35377387D02*
G01*
X16171134Y35373440D01*
X16182759Y35368306D01*
X16205537Y35363776D01*
X16229921Y35347482D01*
X16241047Y35342570D01*
X16248646Y35334970D01*
X16270421Y35320421D01*
X16284970Y35298646D01*
X16292570Y35291047D01*
X16297482Y35279921D01*
X16313776Y35255537D01*
X16318306Y35232759D01*
X16323440Y35221134D01*
X16327387Y35187105D01*
X16329000Y35179000D01*
X16329000Y33655000D01*
X16327387Y33646894D01*
X16323440Y33612865D01*
X16318306Y33601238D01*
X16313776Y33578463D01*
X16297483Y33554080D01*
X16292570Y33542952D01*
X16284968Y33535350D01*
X16270421Y33513579D01*
X16248649Y33499031D01*
X16241047Y33491429D01*
X16229917Y33486514D01*
X16205537Y33470224D01*
X16182764Y33465694D01*
X16171134Y33460559D01*
X16137093Y33456609D01*
X16129000Y33455000D01*
X16123217Y33455000D01*
X14610784Y33455000D01*
X14605000Y33455000D01*
X14596906Y33456609D01*
X14562865Y33460559D01*
X14551234Y33465694D01*
X14528463Y33470224D01*
X14504084Y33486513D01*
X14492952Y33491429D01*
X14485347Y33499033D01*
X14463579Y33513579D01*
X14449033Y33535347D01*
X14441429Y33542952D01*
X14436513Y33554084D01*
X14420224Y33578463D01*
X14415694Y33601234D01*
X14410559Y33612865D01*
X14406609Y33646908D01*
X14405000Y33655000D01*
X14405000Y35179000D01*
X14406610Y35187095D01*
X14410559Y35221134D01*
X14415694Y35232764D01*
X14420224Y35255537D01*
X14436514Y35279917D01*
X14441429Y35291047D01*
X14449031Y35298649D01*
X14463579Y35320421D01*
X14485350Y35334968D01*
X14492952Y35342570D01*
X14504080Y35347483D01*
X14528463Y35363776D01*
X14551238Y35368306D01*
X14562865Y35373440D01*
X14596896Y35377388D01*
X14605000Y35379000D01*
X16129000Y35379000D01*
X16137107Y35377387D01*
G37*
G36*
X18804107Y35377387D02*
G01*
X18838134Y35373440D01*
X18849759Y35368306D01*
X18872537Y35363776D01*
X18896921Y35347482D01*
X18908047Y35342570D01*
X18915646Y35334970D01*
X18937421Y35320421D01*
X18951970Y35298646D01*
X18959570Y35291047D01*
X18964482Y35279921D01*
X18980776Y35255537D01*
X18985306Y35232759D01*
X18990440Y35221134D01*
X18994387Y35187105D01*
X18996000Y35179000D01*
X18996000Y33655000D01*
X18994387Y33646894D01*
X18990440Y33612865D01*
X18985306Y33601238D01*
X18980776Y33578463D01*
X18964483Y33554080D01*
X18959570Y33542952D01*
X18951968Y33535350D01*
X18937421Y33513579D01*
X18915649Y33499031D01*
X18908047Y33491429D01*
X18896917Y33486514D01*
X18872537Y33470224D01*
X18849764Y33465694D01*
X18838134Y33460559D01*
X18804093Y33456609D01*
X18796000Y33455000D01*
X18790217Y33455000D01*
X17277784Y33455000D01*
X17272000Y33455000D01*
X17263906Y33456609D01*
X17229865Y33460559D01*
X17218234Y33465694D01*
X17195463Y33470224D01*
X17171084Y33486513D01*
X17159952Y33491429D01*
X17152347Y33499033D01*
X17130579Y33513579D01*
X17116033Y33535347D01*
X17108429Y33542952D01*
X17103513Y33554084D01*
X17087224Y33578463D01*
X17082694Y33601234D01*
X17077559Y33612865D01*
X17073609Y33646908D01*
X17072000Y33655000D01*
X17072000Y35179000D01*
X17073610Y35187095D01*
X17077559Y35221134D01*
X17082694Y35232764D01*
X17087224Y35255537D01*
X17103514Y35279917D01*
X17108429Y35291047D01*
X17116031Y35298649D01*
X17130579Y35320421D01*
X17152350Y35334968D01*
X17159952Y35342570D01*
X17171080Y35347483D01*
X17195463Y35363776D01*
X17218238Y35368306D01*
X17229865Y35373440D01*
X17263896Y35377388D01*
X17272000Y35379000D01*
X18796000Y35379000D01*
X18804107Y35377387D01*
G37*
G36*
X21344107Y35377387D02*
G01*
X21378134Y35373440D01*
X21389759Y35368306D01*
X21412537Y35363776D01*
X21436921Y35347482D01*
X21448047Y35342570D01*
X21455646Y35334970D01*
X21477421Y35320421D01*
X21491970Y35298646D01*
X21499570Y35291047D01*
X21504482Y35279921D01*
X21520776Y35255537D01*
X21525306Y35232759D01*
X21530440Y35221134D01*
X21534387Y35187105D01*
X21536000Y35179000D01*
X21536000Y33655000D01*
X21534387Y33646894D01*
X21530440Y33612865D01*
X21525306Y33601238D01*
X21520776Y33578463D01*
X21504483Y33554080D01*
X21499570Y33542952D01*
X21491968Y33535350D01*
X21477421Y33513579D01*
X21455649Y33499031D01*
X21448047Y33491429D01*
X21436917Y33486514D01*
X21412537Y33470224D01*
X21389764Y33465694D01*
X21378134Y33460559D01*
X21344093Y33456609D01*
X21336000Y33455000D01*
X21330217Y33455000D01*
X19817784Y33455000D01*
X19812000Y33455000D01*
X19803906Y33456609D01*
X19769865Y33460559D01*
X19758234Y33465694D01*
X19735463Y33470224D01*
X19711084Y33486513D01*
X19699952Y33491429D01*
X19692347Y33499033D01*
X19670579Y33513579D01*
X19656033Y33535347D01*
X19648429Y33542952D01*
X19643513Y33554084D01*
X19627224Y33578463D01*
X19622694Y33601234D01*
X19617559Y33612865D01*
X19613609Y33646908D01*
X19612000Y33655000D01*
X19612000Y35179000D01*
X19613610Y35187095D01*
X19617559Y35221134D01*
X19622694Y35232764D01*
X19627224Y35255537D01*
X19643514Y35279917D01*
X19648429Y35291047D01*
X19656031Y35298649D01*
X19670579Y35320421D01*
X19692350Y35334968D01*
X19699952Y35342570D01*
X19711080Y35347483D01*
X19735463Y35363776D01*
X19758238Y35368306D01*
X19769865Y35373440D01*
X19803896Y35377388D01*
X19812000Y35379000D01*
X21336000Y35379000D01*
X21344107Y35377387D01*
G37*
G36*
X23884107Y35377387D02*
G01*
X23918134Y35373440D01*
X23929759Y35368306D01*
X23952537Y35363776D01*
X23976921Y35347482D01*
X23988047Y35342570D01*
X23995646Y35334970D01*
X24017421Y35320421D01*
X24031970Y35298646D01*
X24039570Y35291047D01*
X24044482Y35279921D01*
X24060776Y35255537D01*
X24065306Y35232759D01*
X24070440Y35221134D01*
X24074387Y35187105D01*
X24076000Y35179000D01*
X24076000Y33655000D01*
X24074387Y33646894D01*
X24070440Y33612865D01*
X24065306Y33601238D01*
X24060776Y33578463D01*
X24044483Y33554080D01*
X24039570Y33542952D01*
X24031968Y33535350D01*
X24017421Y33513579D01*
X23995649Y33499031D01*
X23988047Y33491429D01*
X23976917Y33486514D01*
X23952537Y33470224D01*
X23929764Y33465694D01*
X23918134Y33460559D01*
X23884093Y33456609D01*
X23876000Y33455000D01*
X23870217Y33455000D01*
X22357784Y33455000D01*
X22352000Y33455000D01*
X22343906Y33456609D01*
X22309865Y33460559D01*
X22298234Y33465694D01*
X22275463Y33470224D01*
X22251084Y33486513D01*
X22239952Y33491429D01*
X22232347Y33499033D01*
X22210579Y33513579D01*
X22196033Y33535347D01*
X22188429Y33542952D01*
X22183513Y33554084D01*
X22167224Y33578463D01*
X22162694Y33601234D01*
X22157559Y33612865D01*
X22153609Y33646908D01*
X22152000Y33655000D01*
X22152000Y35179000D01*
X22153610Y35187095D01*
X22157559Y35221134D01*
X22162694Y35232764D01*
X22167224Y35255537D01*
X22183514Y35279917D01*
X22188429Y35291047D01*
X22196031Y35298649D01*
X22210579Y35320421D01*
X22232350Y35334968D01*
X22239952Y35342570D01*
X22251080Y35347483D01*
X22275463Y35363776D01*
X22298238Y35368306D01*
X22309865Y35373440D01*
X22343896Y35377388D01*
X22352000Y35379000D01*
X23876000Y35379000D01*
X23884107Y35377387D01*
G37*
G36*
X26424107Y35377387D02*
G01*
X26458134Y35373440D01*
X26469759Y35368306D01*
X26492537Y35363776D01*
X26516921Y35347482D01*
X26528047Y35342570D01*
X26535646Y35334970D01*
X26557421Y35320421D01*
X26571970Y35298646D01*
X26579570Y35291047D01*
X26584482Y35279921D01*
X26600776Y35255537D01*
X26605306Y35232759D01*
X26610440Y35221134D01*
X26614387Y35187105D01*
X26616000Y35179000D01*
X26616000Y33655000D01*
X26614387Y33646894D01*
X26610440Y33612865D01*
X26605306Y33601238D01*
X26600776Y33578463D01*
X26584483Y33554080D01*
X26579570Y33542952D01*
X26571968Y33535350D01*
X26557421Y33513579D01*
X26535649Y33499031D01*
X26528047Y33491429D01*
X26516917Y33486514D01*
X26492537Y33470224D01*
X26469764Y33465694D01*
X26458134Y33460559D01*
X26424093Y33456609D01*
X26416000Y33455000D01*
X26410217Y33455000D01*
X24897784Y33455000D01*
X24892000Y33455000D01*
X24883906Y33456609D01*
X24849865Y33460559D01*
X24838234Y33465694D01*
X24815463Y33470224D01*
X24791084Y33486513D01*
X24779952Y33491429D01*
X24772347Y33499033D01*
X24750579Y33513579D01*
X24736033Y33535347D01*
X24728429Y33542952D01*
X24723513Y33554084D01*
X24707224Y33578463D01*
X24702694Y33601234D01*
X24697559Y33612865D01*
X24693609Y33646908D01*
X24692000Y33655000D01*
X24692000Y35179000D01*
X24693610Y35187095D01*
X24697559Y35221134D01*
X24702694Y35232764D01*
X24707224Y35255537D01*
X24723514Y35279917D01*
X24728429Y35291047D01*
X24736031Y35298649D01*
X24750579Y35320421D01*
X24772350Y35334968D01*
X24779952Y35342570D01*
X24791080Y35347483D01*
X24815463Y35363776D01*
X24838238Y35368306D01*
X24849865Y35373440D01*
X24883896Y35377388D01*
X24892000Y35379000D01*
X26416000Y35379000D01*
X26424107Y35377387D01*
G37*
G36*
X28964107Y35377387D02*
G01*
X28998134Y35373440D01*
X29009759Y35368306D01*
X29032537Y35363776D01*
X29056921Y35347482D01*
X29068047Y35342570D01*
X29075646Y35334970D01*
X29097421Y35320421D01*
X29111970Y35298646D01*
X29119570Y35291047D01*
X29124482Y35279921D01*
X29140776Y35255537D01*
X29145306Y35232759D01*
X29150440Y35221134D01*
X29154387Y35187105D01*
X29156000Y35179000D01*
X29156000Y33655000D01*
X29154387Y33646894D01*
X29150440Y33612865D01*
X29145306Y33601238D01*
X29140776Y33578463D01*
X29124483Y33554080D01*
X29119570Y33542952D01*
X29111968Y33535350D01*
X29097421Y33513579D01*
X29075649Y33499031D01*
X29068047Y33491429D01*
X29056917Y33486514D01*
X29032537Y33470224D01*
X29009764Y33465694D01*
X28998134Y33460559D01*
X28964093Y33456609D01*
X28956000Y33455000D01*
X28950217Y33455000D01*
X27437784Y33455000D01*
X27432000Y33455000D01*
X27423906Y33456609D01*
X27389865Y33460559D01*
X27378234Y33465694D01*
X27355463Y33470224D01*
X27331084Y33486513D01*
X27319952Y33491429D01*
X27312347Y33499033D01*
X27290579Y33513579D01*
X27276033Y33535347D01*
X27268429Y33542952D01*
X27263513Y33554084D01*
X27247224Y33578463D01*
X27242694Y33601234D01*
X27237559Y33612865D01*
X27233609Y33646908D01*
X27232000Y33655000D01*
X27232000Y35179000D01*
X27233610Y35187095D01*
X27237559Y35221134D01*
X27242694Y35232764D01*
X27247224Y35255537D01*
X27263514Y35279917D01*
X27268429Y35291047D01*
X27276031Y35298649D01*
X27290579Y35320421D01*
X27312350Y35334968D01*
X27319952Y35342570D01*
X27331080Y35347483D01*
X27355463Y35363776D01*
X27378238Y35368306D01*
X27389865Y35373440D01*
X27423896Y35377388D01*
X27432000Y35379000D01*
X28956000Y35379000D01*
X28964107Y35377387D01*
G37*
G36*
X31504107Y35377387D02*
G01*
X31538134Y35373440D01*
X31549759Y35368306D01*
X31572537Y35363776D01*
X31596921Y35347482D01*
X31608047Y35342570D01*
X31615646Y35334970D01*
X31637421Y35320421D01*
X31651970Y35298646D01*
X31659570Y35291047D01*
X31664482Y35279921D01*
X31680776Y35255537D01*
X31685306Y35232759D01*
X31690440Y35221134D01*
X31694387Y35187105D01*
X31696000Y35179000D01*
X31696000Y33655000D01*
X31694387Y33646894D01*
X31690440Y33612865D01*
X31685306Y33601238D01*
X31680776Y33578463D01*
X31664483Y33554080D01*
X31659570Y33542952D01*
X31651968Y33535350D01*
X31637421Y33513579D01*
X31615649Y33499031D01*
X31608047Y33491429D01*
X31596917Y33486514D01*
X31572537Y33470224D01*
X31549764Y33465694D01*
X31538134Y33460559D01*
X31504093Y33456609D01*
X31496000Y33455000D01*
X31490217Y33455000D01*
X29977784Y33455000D01*
X29972000Y33455000D01*
X29963906Y33456609D01*
X29929865Y33460559D01*
X29918234Y33465694D01*
X29895463Y33470224D01*
X29871084Y33486513D01*
X29859952Y33491429D01*
X29852347Y33499033D01*
X29830579Y33513579D01*
X29816033Y33535347D01*
X29808429Y33542952D01*
X29803513Y33554084D01*
X29787224Y33578463D01*
X29782694Y33601234D01*
X29777559Y33612865D01*
X29773609Y33646908D01*
X29772000Y33655000D01*
X29772000Y35179000D01*
X29773610Y35187095D01*
X29777559Y35221134D01*
X29782694Y35232764D01*
X29787224Y35255537D01*
X29803514Y35279917D01*
X29808429Y35291047D01*
X29816031Y35298649D01*
X29830579Y35320421D01*
X29852350Y35334968D01*
X29859952Y35342570D01*
X29871080Y35347483D01*
X29895463Y35363776D01*
X29918238Y35368306D01*
X29929865Y35373440D01*
X29963896Y35377388D01*
X29972000Y35379000D01*
X31496000Y35379000D01*
X31504107Y35377387D01*
G37*
G36*
X34044107Y35377387D02*
G01*
X34078134Y35373440D01*
X34089759Y35368306D01*
X34112537Y35363776D01*
X34136921Y35347482D01*
X34148047Y35342570D01*
X34155646Y35334970D01*
X34177421Y35320421D01*
X34191970Y35298646D01*
X34199570Y35291047D01*
X34204482Y35279921D01*
X34220776Y35255537D01*
X34225306Y35232759D01*
X34230440Y35221134D01*
X34234387Y35187105D01*
X34236000Y35179000D01*
X34236000Y33655000D01*
X34234387Y33646894D01*
X34230440Y33612865D01*
X34225306Y33601238D01*
X34220776Y33578463D01*
X34204483Y33554080D01*
X34199570Y33542952D01*
X34191968Y33535350D01*
X34177421Y33513579D01*
X34155649Y33499031D01*
X34148047Y33491429D01*
X34136917Y33486514D01*
X34112537Y33470224D01*
X34089764Y33465694D01*
X34078134Y33460559D01*
X34044093Y33456609D01*
X34036000Y33455000D01*
X34030217Y33455000D01*
X32517784Y33455000D01*
X32512000Y33455000D01*
X32503906Y33456609D01*
X32469865Y33460559D01*
X32458234Y33465694D01*
X32435463Y33470224D01*
X32411084Y33486513D01*
X32399952Y33491429D01*
X32392347Y33499033D01*
X32370579Y33513579D01*
X32356033Y33535347D01*
X32348429Y33542952D01*
X32343513Y33554084D01*
X32327224Y33578463D01*
X32322694Y33601234D01*
X32317559Y33612865D01*
X32313609Y33646908D01*
X32312000Y33655000D01*
X32312000Y35179000D01*
X32313610Y35187095D01*
X32317559Y35221134D01*
X32322694Y35232764D01*
X32327224Y35255537D01*
X32343514Y35279917D01*
X32348429Y35291047D01*
X32356031Y35298649D01*
X32370579Y35320421D01*
X32392350Y35334968D01*
X32399952Y35342570D01*
X32411080Y35347483D01*
X32435463Y35363776D01*
X32458238Y35368306D01*
X32469865Y35373440D01*
X32503896Y35377388D01*
X32512000Y35379000D01*
X34036000Y35379000D01*
X34044107Y35377387D01*
G37*
G36*
X36584107Y35377387D02*
G01*
X36618134Y35373440D01*
X36629759Y35368306D01*
X36652537Y35363776D01*
X36676921Y35347482D01*
X36688047Y35342570D01*
X36695646Y35334970D01*
X36717421Y35320421D01*
X36731970Y35298646D01*
X36739570Y35291047D01*
X36744482Y35279921D01*
X36760776Y35255537D01*
X36765306Y35232759D01*
X36770440Y35221134D01*
X36774387Y35187105D01*
X36776000Y35179000D01*
X36776000Y33655000D01*
X36774387Y33646894D01*
X36770440Y33612865D01*
X36765306Y33601238D01*
X36760776Y33578463D01*
X36744483Y33554080D01*
X36739570Y33542952D01*
X36731968Y33535350D01*
X36717421Y33513579D01*
X36695649Y33499031D01*
X36688047Y33491429D01*
X36676917Y33486514D01*
X36652537Y33470224D01*
X36629764Y33465694D01*
X36618134Y33460559D01*
X36584093Y33456609D01*
X36576000Y33455000D01*
X36570217Y33455000D01*
X35057784Y33455000D01*
X35052000Y33455000D01*
X35043906Y33456609D01*
X35009865Y33460559D01*
X34998234Y33465694D01*
X34975463Y33470224D01*
X34951084Y33486513D01*
X34939952Y33491429D01*
X34932347Y33499033D01*
X34910579Y33513579D01*
X34896033Y33535347D01*
X34888429Y33542952D01*
X34883513Y33554084D01*
X34867224Y33578463D01*
X34862694Y33601234D01*
X34857559Y33612865D01*
X34853609Y33646908D01*
X34852000Y33655000D01*
X34852000Y35179000D01*
X34853610Y35187095D01*
X34857559Y35221134D01*
X34862694Y35232764D01*
X34867224Y35255537D01*
X34883514Y35279917D01*
X34888429Y35291047D01*
X34896031Y35298649D01*
X34910579Y35320421D01*
X34932350Y35334968D01*
X34939952Y35342570D01*
X34951080Y35347483D01*
X34975463Y35363776D01*
X34998238Y35368306D01*
X35009865Y35373440D01*
X35043896Y35377388D01*
X35052000Y35379000D01*
X36576000Y35379000D01*
X36584107Y35377387D01*
G37*
G36*
X38933607Y38869887D02*
G01*
X38967634Y38865940D01*
X38979259Y38860806D01*
X39002037Y38856276D01*
X39026421Y38839982D01*
X39037547Y38835070D01*
X39045146Y38827470D01*
X39066921Y38812921D01*
X39081470Y38791146D01*
X39089070Y38783547D01*
X39093982Y38772421D01*
X39110276Y38748037D01*
X39114806Y38725259D01*
X39119940Y38713634D01*
X39123887Y38679605D01*
X39125500Y38671500D01*
X39125500Y37274500D01*
X39123887Y37266394D01*
X39119940Y37232365D01*
X39114806Y37220738D01*
X39110276Y37197963D01*
X39093983Y37173580D01*
X39089070Y37162452D01*
X39081468Y37154850D01*
X39066921Y37133079D01*
X39045149Y37118531D01*
X39037547Y37110929D01*
X39026417Y37106014D01*
X39002037Y37089724D01*
X38979262Y37085193D01*
X38880070Y37041396D01*
X38913551Y36882680D01*
X39953447Y36882680D01*
X39986928Y37041396D01*
X39887734Y37085194D01*
X39864963Y37089724D01*
X39840584Y37106013D01*
X39829452Y37110929D01*
X39821847Y37118533D01*
X39800079Y37133079D01*
X39785533Y37154847D01*
X39777929Y37162452D01*
X39773013Y37173584D01*
X39756724Y37197963D01*
X39752194Y37220734D01*
X39747059Y37232365D01*
X39743109Y37266408D01*
X39741500Y37274500D01*
X39741500Y38671500D01*
X39743110Y38679595D01*
X39747059Y38713634D01*
X39752194Y38725264D01*
X39756724Y38748037D01*
X39773014Y38772417D01*
X39777929Y38783547D01*
X39785531Y38791149D01*
X39800079Y38812921D01*
X39821850Y38827468D01*
X39829452Y38835070D01*
X39840580Y38839983D01*
X39864963Y38856276D01*
X39887738Y38860806D01*
X39899365Y38865940D01*
X39933396Y38869888D01*
X39941500Y38871500D01*
X40830500Y38871500D01*
X40838607Y38869887D01*
X40872634Y38865940D01*
X40884259Y38860806D01*
X40907037Y38856276D01*
X40931421Y38839982D01*
X40942547Y38835070D01*
X40950146Y38827470D01*
X40971921Y38812921D01*
X40986470Y38791146D01*
X40994070Y38783547D01*
X40998982Y38772421D01*
X41015276Y38748037D01*
X41019806Y38725259D01*
X41024940Y38713634D01*
X41028887Y38679605D01*
X41030500Y38671500D01*
X41030500Y37274500D01*
X41028887Y37266394D01*
X41024940Y37232365D01*
X41019806Y37220738D01*
X41015276Y37197963D01*
X40998983Y37173580D01*
X40994070Y37162452D01*
X40986468Y37154850D01*
X40971921Y37133079D01*
X40950149Y37118531D01*
X40942547Y37110929D01*
X40931417Y37106014D01*
X40907037Y37089724D01*
X40884264Y37085194D01*
X40872634Y37080059D01*
X40838591Y37076109D01*
X40830500Y37074500D01*
X40824719Y37074500D01*
X40737792Y37064415D01*
X40737806Y36886264D01*
X40768739Y36882680D01*
X40774620Y36882680D01*
X40782824Y36881048D01*
X40816762Y36877116D01*
X40828378Y36871986D01*
X40851157Y36867456D01*
X40875541Y36851162D01*
X40886667Y36846250D01*
X40894266Y36838650D01*
X40916041Y36824101D01*
X40930590Y36802326D01*
X40938190Y36794727D01*
X40943102Y36783601D01*
X40959396Y36759217D01*
X40963926Y36736439D01*
X40969060Y36724814D01*
X40973007Y36690785D01*
X40974620Y36682680D01*
X40974620Y34183320D01*
X40973007Y34175214D01*
X40969060Y34141185D01*
X40963926Y34129558D01*
X40959396Y34106783D01*
X40943103Y34082400D01*
X40938190Y34071272D01*
X40930588Y34063670D01*
X40916041Y34041899D01*
X40894269Y34027351D01*
X40886667Y34019749D01*
X40875537Y34014834D01*
X40851157Y33998544D01*
X40828384Y33994014D01*
X40816754Y33988879D01*
X40782713Y33984929D01*
X40774620Y33983320D01*
X40768837Y33983320D01*
X38479164Y33983320D01*
X38473380Y33983320D01*
X38465286Y33984929D01*
X38431245Y33988879D01*
X38419614Y33994014D01*
X38396843Y33998544D01*
X38372464Y34014833D01*
X38361332Y34019749D01*
X38353727Y34027353D01*
X38331959Y34041899D01*
X38317413Y34063667D01*
X38309809Y34071272D01*
X38304893Y34082404D01*
X38288604Y34106783D01*
X38284074Y34129554D01*
X38278939Y34141185D01*
X38274989Y34175228D01*
X38273380Y34183320D01*
X38273380Y36682680D01*
X38274990Y36690775D01*
X38278939Y36724814D01*
X38284074Y36736444D01*
X38288604Y36759217D01*
X38304894Y36783597D01*
X38309809Y36794727D01*
X38317411Y36802329D01*
X38331959Y36824101D01*
X38353730Y36838648D01*
X38361332Y36846250D01*
X38372460Y36851163D01*
X38396843Y36867456D01*
X38419618Y36871986D01*
X38518808Y36915783D01*
X38485327Y37074500D01*
X38042285Y37074500D01*
X38036500Y37074500D01*
X38028405Y37076110D01*
X37994365Y37080059D01*
X37982734Y37085194D01*
X37959963Y37089724D01*
X37935584Y37106013D01*
X37924452Y37110929D01*
X37916847Y37118533D01*
X37895079Y37133079D01*
X37880533Y37154847D01*
X37872929Y37162452D01*
X37868013Y37173584D01*
X37851724Y37197963D01*
X37847194Y37220734D01*
X37842059Y37232365D01*
X37838109Y37266408D01*
X37836500Y37274500D01*
X37836500Y38671500D01*
X37838110Y38679595D01*
X37842059Y38713634D01*
X37847194Y38725264D01*
X37851724Y38748037D01*
X37868014Y38772417D01*
X37872929Y38783547D01*
X37880531Y38791149D01*
X37895079Y38812921D01*
X37916850Y38827468D01*
X37924452Y38835070D01*
X37935580Y38839983D01*
X37959963Y38856276D01*
X37982738Y38860806D01*
X37994365Y38865940D01*
X38028396Y38869888D01*
X38036500Y38871500D01*
X38925500Y38871500D01*
X38933607Y38869887D01*
G37*
G36*
X12715727Y37495747D02*
G01*
X12749754Y37491800D01*
X12761379Y37486666D01*
X12784157Y37482136D01*
X12808541Y37465842D01*
X12819667Y37460930D01*
X12827266Y37453330D01*
X12849041Y37438781D01*
X12863590Y37417006D01*
X12871190Y37409407D01*
X12876102Y37398281D01*
X12892396Y37373897D01*
X12896926Y37351119D01*
X12902060Y37339494D01*
X12906007Y37305465D01*
X12907620Y37297360D01*
X12907620Y34798000D01*
X12906007Y34789894D01*
X12902060Y34755865D01*
X12896926Y34744238D01*
X12892396Y34721463D01*
X12876103Y34697080D01*
X12871190Y34685952D01*
X12863588Y34678350D01*
X12849041Y34656579D01*
X12827269Y34642031D01*
X12819667Y34634429D01*
X12808537Y34629514D01*
X12784157Y34613224D01*
X12761384Y34608694D01*
X12749754Y34603559D01*
X12715713Y34599609D01*
X12707620Y34598000D01*
X12701837Y34598000D01*
X10412164Y34598000D01*
X10406380Y34598000D01*
X10398286Y34599609D01*
X10364245Y34603559D01*
X10352614Y34608694D01*
X10329843Y34613224D01*
X10305464Y34629513D01*
X10294332Y34634429D01*
X10286727Y34642033D01*
X10264959Y34656579D01*
X10250413Y34678347D01*
X10242809Y34685952D01*
X10237893Y34697084D01*
X10221604Y34721463D01*
X10217074Y34744234D01*
X10211939Y34755865D01*
X10207989Y34789908D01*
X10206380Y34798000D01*
X10206380Y37297360D01*
X10207990Y37305455D01*
X10211939Y37339494D01*
X10217074Y37351124D01*
X10221604Y37373897D01*
X10237894Y37398277D01*
X10242809Y37409407D01*
X10250411Y37417009D01*
X10264959Y37438781D01*
X10286730Y37453328D01*
X10294332Y37460930D01*
X10305460Y37465843D01*
X10329843Y37482136D01*
X10352618Y37486666D01*
X10364245Y37491800D01*
X10398276Y37495748D01*
X10406380Y37497360D01*
X12707620Y37497360D01*
X12715727Y37495747D01*
G37*
G36*
X16137107Y37917387D02*
G01*
X16171134Y37913440D01*
X16182759Y37908306D01*
X16205537Y37903776D01*
X16229921Y37887482D01*
X16241047Y37882570D01*
X16248646Y37874970D01*
X16270421Y37860421D01*
X16284970Y37838646D01*
X16292570Y37831047D01*
X16297482Y37819921D01*
X16313776Y37795537D01*
X16318306Y37772759D01*
X16323440Y37761134D01*
X16327387Y37727105D01*
X16329000Y37719000D01*
X16329000Y36195000D01*
X16327387Y36186894D01*
X16323440Y36152865D01*
X16318306Y36141238D01*
X16313776Y36118463D01*
X16297483Y36094080D01*
X16292570Y36082952D01*
X16284968Y36075350D01*
X16270421Y36053579D01*
X16248649Y36039031D01*
X16241047Y36031429D01*
X16229917Y36026514D01*
X16205537Y36010224D01*
X16182764Y36005694D01*
X16171134Y36000559D01*
X16137093Y35996609D01*
X16129000Y35995000D01*
X16123217Y35995000D01*
X14610784Y35995000D01*
X14605000Y35995000D01*
X14596906Y35996609D01*
X14562865Y36000559D01*
X14551234Y36005694D01*
X14528463Y36010224D01*
X14504084Y36026513D01*
X14492952Y36031429D01*
X14485347Y36039033D01*
X14463579Y36053579D01*
X14449033Y36075347D01*
X14441429Y36082952D01*
X14436513Y36094084D01*
X14420224Y36118463D01*
X14415694Y36141234D01*
X14410559Y36152865D01*
X14406609Y36186908D01*
X14405000Y36195000D01*
X14405000Y37719000D01*
X14406610Y37727095D01*
X14410559Y37761134D01*
X14415694Y37772764D01*
X14420224Y37795537D01*
X14436514Y37819917D01*
X14441429Y37831047D01*
X14449031Y37838649D01*
X14463579Y37860421D01*
X14485350Y37874968D01*
X14492952Y37882570D01*
X14504080Y37887483D01*
X14528463Y37903776D01*
X14551238Y37908306D01*
X14562865Y37913440D01*
X14596896Y37917388D01*
X14605000Y37919000D01*
X16129000Y37919000D01*
X16137107Y37917387D01*
G37*
G36*
X18804107Y37917387D02*
G01*
X18838134Y37913440D01*
X18849759Y37908306D01*
X18872537Y37903776D01*
X18896921Y37887482D01*
X18908047Y37882570D01*
X18915646Y37874970D01*
X18937421Y37860421D01*
X18951970Y37838646D01*
X18959570Y37831047D01*
X18964482Y37819921D01*
X18980776Y37795537D01*
X18985306Y37772759D01*
X18990440Y37761134D01*
X18994387Y37727105D01*
X18996000Y37719000D01*
X18996000Y36195000D01*
X18994387Y36186894D01*
X18990440Y36152865D01*
X18985306Y36141238D01*
X18980776Y36118463D01*
X18964483Y36094080D01*
X18959570Y36082952D01*
X18951968Y36075350D01*
X18937421Y36053579D01*
X18915649Y36039031D01*
X18908047Y36031429D01*
X18896917Y36026514D01*
X18872537Y36010224D01*
X18849764Y36005694D01*
X18838134Y36000559D01*
X18804093Y35996609D01*
X18796000Y35995000D01*
X18790217Y35995000D01*
X17277784Y35995000D01*
X17272000Y35995000D01*
X17263906Y35996609D01*
X17229865Y36000559D01*
X17218234Y36005694D01*
X17195463Y36010224D01*
X17171084Y36026513D01*
X17159952Y36031429D01*
X17152347Y36039033D01*
X17130579Y36053579D01*
X17116033Y36075347D01*
X17108429Y36082952D01*
X17103513Y36094084D01*
X17087224Y36118463D01*
X17082694Y36141234D01*
X17077559Y36152865D01*
X17073609Y36186908D01*
X17072000Y36195000D01*
X17072000Y37719000D01*
X17073610Y37727095D01*
X17077559Y37761134D01*
X17082694Y37772764D01*
X17087224Y37795537D01*
X17103514Y37819917D01*
X17108429Y37831047D01*
X17116031Y37838649D01*
X17130579Y37860421D01*
X17152350Y37874968D01*
X17159952Y37882570D01*
X17171080Y37887483D01*
X17195463Y37903776D01*
X17218238Y37908306D01*
X17229865Y37913440D01*
X17263896Y37917388D01*
X17272000Y37919000D01*
X18796000Y37919000D01*
X18804107Y37917387D01*
G37*
G36*
X21344107Y37917387D02*
G01*
X21378134Y37913440D01*
X21389759Y37908306D01*
X21412537Y37903776D01*
X21436921Y37887482D01*
X21448047Y37882570D01*
X21455646Y37874970D01*
X21477421Y37860421D01*
X21491970Y37838646D01*
X21499570Y37831047D01*
X21504482Y37819921D01*
X21520776Y37795537D01*
X21525306Y37772759D01*
X21530440Y37761134D01*
X21534387Y37727105D01*
X21536000Y37719000D01*
X21536000Y36195000D01*
X21534387Y36186894D01*
X21530440Y36152865D01*
X21525306Y36141238D01*
X21520776Y36118463D01*
X21504483Y36094080D01*
X21499570Y36082952D01*
X21491968Y36075350D01*
X21477421Y36053579D01*
X21455649Y36039031D01*
X21448047Y36031429D01*
X21436917Y36026514D01*
X21412537Y36010224D01*
X21389764Y36005694D01*
X21378134Y36000559D01*
X21344093Y35996609D01*
X21336000Y35995000D01*
X21330217Y35995000D01*
X19817784Y35995000D01*
X19812000Y35995000D01*
X19803906Y35996609D01*
X19769865Y36000559D01*
X19758234Y36005694D01*
X19735463Y36010224D01*
X19711084Y36026513D01*
X19699952Y36031429D01*
X19692347Y36039033D01*
X19670579Y36053579D01*
X19656033Y36075347D01*
X19648429Y36082952D01*
X19643513Y36094084D01*
X19627224Y36118463D01*
X19622694Y36141234D01*
X19617559Y36152865D01*
X19613609Y36186908D01*
X19612000Y36195000D01*
X19612000Y37719000D01*
X19613610Y37727095D01*
X19617559Y37761134D01*
X19622694Y37772764D01*
X19627224Y37795537D01*
X19643514Y37819917D01*
X19648429Y37831047D01*
X19656031Y37838649D01*
X19670579Y37860421D01*
X19692350Y37874968D01*
X19699952Y37882570D01*
X19711080Y37887483D01*
X19735463Y37903776D01*
X19758238Y37908306D01*
X19769865Y37913440D01*
X19803896Y37917388D01*
X19812000Y37919000D01*
X21336000Y37919000D01*
X21344107Y37917387D01*
G37*
G36*
X23884107Y37917387D02*
G01*
X23918134Y37913440D01*
X23929759Y37908306D01*
X23952537Y37903776D01*
X23976921Y37887482D01*
X23988047Y37882570D01*
X23995646Y37874970D01*
X24017421Y37860421D01*
X24031970Y37838646D01*
X24039570Y37831047D01*
X24044482Y37819921D01*
X24060776Y37795537D01*
X24065306Y37772759D01*
X24070440Y37761134D01*
X24074387Y37727105D01*
X24076000Y37719000D01*
X24076000Y36195000D01*
X24074387Y36186894D01*
X24070440Y36152865D01*
X24065306Y36141238D01*
X24060776Y36118463D01*
X24044483Y36094080D01*
X24039570Y36082952D01*
X24031968Y36075350D01*
X24017421Y36053579D01*
X23995649Y36039031D01*
X23988047Y36031429D01*
X23976917Y36026514D01*
X23952537Y36010224D01*
X23929764Y36005694D01*
X23918134Y36000559D01*
X23884093Y35996609D01*
X23876000Y35995000D01*
X23870217Y35995000D01*
X22357784Y35995000D01*
X22352000Y35995000D01*
X22343906Y35996609D01*
X22309865Y36000559D01*
X22298234Y36005694D01*
X22275463Y36010224D01*
X22251084Y36026513D01*
X22239952Y36031429D01*
X22232347Y36039033D01*
X22210579Y36053579D01*
X22196033Y36075347D01*
X22188429Y36082952D01*
X22183513Y36094084D01*
X22167224Y36118463D01*
X22162694Y36141234D01*
X22157559Y36152865D01*
X22153609Y36186908D01*
X22152000Y36195000D01*
X22152000Y37719000D01*
X22153610Y37727095D01*
X22157559Y37761134D01*
X22162694Y37772764D01*
X22167224Y37795537D01*
X22183514Y37819917D01*
X22188429Y37831047D01*
X22196031Y37838649D01*
X22210579Y37860421D01*
X22232350Y37874968D01*
X22239952Y37882570D01*
X22251080Y37887483D01*
X22275463Y37903776D01*
X22298238Y37908306D01*
X22309865Y37913440D01*
X22343896Y37917388D01*
X22352000Y37919000D01*
X23876000Y37919000D01*
X23884107Y37917387D01*
G37*
G36*
X26424107Y37917387D02*
G01*
X26458134Y37913440D01*
X26469759Y37908306D01*
X26492537Y37903776D01*
X26516921Y37887482D01*
X26528047Y37882570D01*
X26535646Y37874970D01*
X26557421Y37860421D01*
X26571970Y37838646D01*
X26579570Y37831047D01*
X26584482Y37819921D01*
X26600776Y37795537D01*
X26605306Y37772759D01*
X26610440Y37761134D01*
X26614387Y37727105D01*
X26616000Y37719000D01*
X26616000Y36195000D01*
X26614387Y36186894D01*
X26610440Y36152865D01*
X26605306Y36141238D01*
X26600776Y36118463D01*
X26584483Y36094080D01*
X26579570Y36082952D01*
X26571968Y36075350D01*
X26557421Y36053579D01*
X26535649Y36039031D01*
X26528047Y36031429D01*
X26516917Y36026514D01*
X26492537Y36010224D01*
X26469764Y36005694D01*
X26458134Y36000559D01*
X26424093Y35996609D01*
X26416000Y35995000D01*
X26410217Y35995000D01*
X24897784Y35995000D01*
X24892000Y35995000D01*
X24883906Y35996609D01*
X24849865Y36000559D01*
X24838234Y36005694D01*
X24815463Y36010224D01*
X24791084Y36026513D01*
X24779952Y36031429D01*
X24772347Y36039033D01*
X24750579Y36053579D01*
X24736033Y36075347D01*
X24728429Y36082952D01*
X24723513Y36094084D01*
X24707224Y36118463D01*
X24702694Y36141234D01*
X24697559Y36152865D01*
X24693609Y36186908D01*
X24692000Y36195000D01*
X24692000Y37719000D01*
X24693610Y37727095D01*
X24697559Y37761134D01*
X24702694Y37772764D01*
X24707224Y37795537D01*
X24723514Y37819917D01*
X24728429Y37831047D01*
X24736031Y37838649D01*
X24750579Y37860421D01*
X24772350Y37874968D01*
X24779952Y37882570D01*
X24791080Y37887483D01*
X24815463Y37903776D01*
X24838238Y37908306D01*
X24849865Y37913440D01*
X24883896Y37917388D01*
X24892000Y37919000D01*
X26416000Y37919000D01*
X26424107Y37917387D01*
G37*
G36*
X28964107Y37917387D02*
G01*
X28998134Y37913440D01*
X29009759Y37908306D01*
X29032537Y37903776D01*
X29056921Y37887482D01*
X29068047Y37882570D01*
X29075646Y37874970D01*
X29097421Y37860421D01*
X29111970Y37838646D01*
X29119570Y37831047D01*
X29124482Y37819921D01*
X29140776Y37795537D01*
X29145306Y37772759D01*
X29150440Y37761134D01*
X29154387Y37727105D01*
X29156000Y37719000D01*
X29156000Y36195000D01*
X29154387Y36186894D01*
X29150440Y36152865D01*
X29145306Y36141238D01*
X29140776Y36118463D01*
X29124483Y36094080D01*
X29119570Y36082952D01*
X29111968Y36075350D01*
X29097421Y36053579D01*
X29075649Y36039031D01*
X29068047Y36031429D01*
X29056917Y36026514D01*
X29032537Y36010224D01*
X29009764Y36005694D01*
X28998134Y36000559D01*
X28964093Y35996609D01*
X28956000Y35995000D01*
X28950217Y35995000D01*
X27437784Y35995000D01*
X27432000Y35995000D01*
X27423906Y35996609D01*
X27389865Y36000559D01*
X27378234Y36005694D01*
X27355463Y36010224D01*
X27331084Y36026513D01*
X27319952Y36031429D01*
X27312347Y36039033D01*
X27290579Y36053579D01*
X27276033Y36075347D01*
X27268429Y36082952D01*
X27263513Y36094084D01*
X27247224Y36118463D01*
X27242694Y36141234D01*
X27237559Y36152865D01*
X27233609Y36186908D01*
X27232000Y36195000D01*
X27232000Y37719000D01*
X27233610Y37727095D01*
X27237559Y37761134D01*
X27242694Y37772764D01*
X27247224Y37795537D01*
X27263514Y37819917D01*
X27268429Y37831047D01*
X27276031Y37838649D01*
X27290579Y37860421D01*
X27312350Y37874968D01*
X27319952Y37882570D01*
X27331080Y37887483D01*
X27355463Y37903776D01*
X27378238Y37908306D01*
X27389865Y37913440D01*
X27423896Y37917388D01*
X27432000Y37919000D01*
X28956000Y37919000D01*
X28964107Y37917387D01*
G37*
G36*
X31504107Y37917387D02*
G01*
X31538134Y37913440D01*
X31549759Y37908306D01*
X31572537Y37903776D01*
X31596921Y37887482D01*
X31608047Y37882570D01*
X31615646Y37874970D01*
X31637421Y37860421D01*
X31651970Y37838646D01*
X31659570Y37831047D01*
X31664482Y37819921D01*
X31680776Y37795537D01*
X31685306Y37772759D01*
X31690440Y37761134D01*
X31694387Y37727105D01*
X31696000Y37719000D01*
X31696000Y36195000D01*
X31694387Y36186894D01*
X31690440Y36152865D01*
X31685306Y36141238D01*
X31680776Y36118463D01*
X31664483Y36094080D01*
X31659570Y36082952D01*
X31651968Y36075350D01*
X31637421Y36053579D01*
X31615649Y36039031D01*
X31608047Y36031429D01*
X31596917Y36026514D01*
X31572537Y36010224D01*
X31549764Y36005694D01*
X31538134Y36000559D01*
X31504093Y35996609D01*
X31496000Y35995000D01*
X31490217Y35995000D01*
X29977784Y35995000D01*
X29972000Y35995000D01*
X29963906Y35996609D01*
X29929865Y36000559D01*
X29918234Y36005694D01*
X29895463Y36010224D01*
X29871084Y36026513D01*
X29859952Y36031429D01*
X29852347Y36039033D01*
X29830579Y36053579D01*
X29816033Y36075347D01*
X29808429Y36082952D01*
X29803513Y36094084D01*
X29787224Y36118463D01*
X29782694Y36141234D01*
X29777559Y36152865D01*
X29773609Y36186908D01*
X29772000Y36195000D01*
X29772000Y37719000D01*
X29773610Y37727095D01*
X29777559Y37761134D01*
X29782694Y37772764D01*
X29787224Y37795537D01*
X29803514Y37819917D01*
X29808429Y37831047D01*
X29816031Y37838649D01*
X29830579Y37860421D01*
X29852350Y37874968D01*
X29859952Y37882570D01*
X29871080Y37887483D01*
X29895463Y37903776D01*
X29918238Y37908306D01*
X29929865Y37913440D01*
X29963896Y37917388D01*
X29972000Y37919000D01*
X31496000Y37919000D01*
X31504107Y37917387D01*
G37*
G36*
X34044107Y37917387D02*
G01*
X34078134Y37913440D01*
X34089759Y37908306D01*
X34112537Y37903776D01*
X34136921Y37887482D01*
X34148047Y37882570D01*
X34155646Y37874970D01*
X34177421Y37860421D01*
X34191970Y37838646D01*
X34199570Y37831047D01*
X34204482Y37819921D01*
X34220776Y37795537D01*
X34225306Y37772759D01*
X34230440Y37761134D01*
X34234387Y37727105D01*
X34236000Y37719000D01*
X34236000Y36195000D01*
X34234387Y36186894D01*
X34230440Y36152865D01*
X34225306Y36141238D01*
X34220776Y36118463D01*
X34204483Y36094080D01*
X34199570Y36082952D01*
X34191968Y36075350D01*
X34177421Y36053579D01*
X34155649Y36039031D01*
X34148047Y36031429D01*
X34136917Y36026514D01*
X34112537Y36010224D01*
X34089764Y36005694D01*
X34078134Y36000559D01*
X34044093Y35996609D01*
X34036000Y35995000D01*
X34030217Y35995000D01*
X32517784Y35995000D01*
X32512000Y35995000D01*
X32503906Y35996609D01*
X32469865Y36000559D01*
X32458234Y36005694D01*
X32435463Y36010224D01*
X32411084Y36026513D01*
X32399952Y36031429D01*
X32392347Y36039033D01*
X32370579Y36053579D01*
X32356033Y36075347D01*
X32348429Y36082952D01*
X32343513Y36094084D01*
X32327224Y36118463D01*
X32322694Y36141234D01*
X32317559Y36152865D01*
X32313609Y36186908D01*
X32312000Y36195000D01*
X32312000Y37719000D01*
X32313610Y37727095D01*
X32317559Y37761134D01*
X32322694Y37772764D01*
X32327224Y37795537D01*
X32343514Y37819917D01*
X32348429Y37831047D01*
X32356031Y37838649D01*
X32370579Y37860421D01*
X32392350Y37874968D01*
X32399952Y37882570D01*
X32411080Y37887483D01*
X32435463Y37903776D01*
X32458238Y37908306D01*
X32469865Y37913440D01*
X32503896Y37917388D01*
X32512000Y37919000D01*
X34036000Y37919000D01*
X34044107Y37917387D01*
G37*
G36*
X36584107Y37917387D02*
G01*
X36618134Y37913440D01*
X36629759Y37908306D01*
X36652537Y37903776D01*
X36676921Y37887482D01*
X36688047Y37882570D01*
X36695646Y37874970D01*
X36717421Y37860421D01*
X36731970Y37838646D01*
X36739570Y37831047D01*
X36744482Y37819921D01*
X36760776Y37795537D01*
X36765306Y37772759D01*
X36770440Y37761134D01*
X36774387Y37727105D01*
X36776000Y37719000D01*
X36776000Y36195000D01*
X36774387Y36186894D01*
X36770440Y36152865D01*
X36765306Y36141238D01*
X36760776Y36118463D01*
X36744483Y36094080D01*
X36739570Y36082952D01*
X36731968Y36075350D01*
X36717421Y36053579D01*
X36695649Y36039031D01*
X36688047Y36031429D01*
X36676917Y36026514D01*
X36652537Y36010224D01*
X36629764Y36005694D01*
X36618134Y36000559D01*
X36584093Y35996609D01*
X36576000Y35995000D01*
X36570217Y35995000D01*
X35057784Y35995000D01*
X35052000Y35995000D01*
X35043906Y35996609D01*
X35009865Y36000559D01*
X34998234Y36005694D01*
X34975463Y36010224D01*
X34951084Y36026513D01*
X34939952Y36031429D01*
X34932347Y36039033D01*
X34910579Y36053579D01*
X34896033Y36075347D01*
X34888429Y36082952D01*
X34883513Y36094084D01*
X34867224Y36118463D01*
X34862694Y36141234D01*
X34857559Y36152865D01*
X34853609Y36186908D01*
X34852000Y36195000D01*
X34852000Y37719000D01*
X34853610Y37727095D01*
X34857559Y37761134D01*
X34862694Y37772764D01*
X34867224Y37795537D01*
X34883514Y37819917D01*
X34888429Y37831047D01*
X34896031Y37838649D01*
X34910579Y37860421D01*
X34932350Y37874968D01*
X34939952Y37882570D01*
X34951080Y37887483D01*
X34975463Y37903776D01*
X34998238Y37908306D01*
X35009865Y37913440D01*
X35043896Y37917388D01*
X35052000Y37919000D01*
X36576000Y37919000D01*
X36584107Y37917387D01*
G37*
M02*
