%TF.GenerationSoftware,KiCad,Pcbnew,7.0.11+1*%
%TF.CreationDate,2024-05-31T01:00:11+00:00*%
%TF.ProjectId,DIG4SWHI01,44494734-5357-4484-9930-312e6b696361,rev?*%
%TF.SameCoordinates,Original*%
%TF.FileFunction,Legend,Top*%
%TF.FilePolarity,Positive*%
%FSLAX46Y46*%
G04 Gerber Fmt 4.6, Leading zero omitted, Abs format (unit mm)*
G04 Created by KiCad (PCBNEW 7.0.11+1) date 2024-05-31 01:00:11*
%MOMM*%
%LPD*%
G01*
G04 APERTURE LIST*
%ADD10C,0.300000*%
%ADD11C,0.304800*%
%ADD12C,0.150000*%
%ADD13R,1.524000X1.524000*%
%ADD14R,3.810000X3.810000*%
G04 APERTURE END LIST*
D10*
X16999999Y20264885D02*
X16999999Y22064885D01*
X16999999Y22064885D02*
X17428570Y22064885D01*
X17428570Y22064885D02*
X17685713Y21979171D01*
X17685713Y21979171D02*
X17857142Y21807742D01*
X17857142Y21807742D02*
X17942856Y21636314D01*
X17942856Y21636314D02*
X18028570Y21293457D01*
X18028570Y21293457D02*
X18028570Y21036314D01*
X18028570Y21036314D02*
X17942856Y20693457D01*
X17942856Y20693457D02*
X17857142Y20522028D01*
X17857142Y20522028D02*
X17685713Y20350600D01*
X17685713Y20350600D02*
X17428570Y20264885D01*
X17428570Y20264885D02*
X16999999Y20264885D01*
X18799999Y20264885D02*
X18799999Y22064885D01*
X20599999Y21979171D02*
X20428571Y22064885D01*
X20428571Y22064885D02*
X20171428Y22064885D01*
X20171428Y22064885D02*
X19914285Y21979171D01*
X19914285Y21979171D02*
X19742856Y21807742D01*
X19742856Y21807742D02*
X19657142Y21636314D01*
X19657142Y21636314D02*
X19571428Y21293457D01*
X19571428Y21293457D02*
X19571428Y21036314D01*
X19571428Y21036314D02*
X19657142Y20693457D01*
X19657142Y20693457D02*
X19742856Y20522028D01*
X19742856Y20522028D02*
X19914285Y20350600D01*
X19914285Y20350600D02*
X20171428Y20264885D01*
X20171428Y20264885D02*
X20342856Y20264885D01*
X20342856Y20264885D02*
X20599999Y20350600D01*
X20599999Y20350600D02*
X20685713Y20436314D01*
X20685713Y20436314D02*
X20685713Y21036314D01*
X20685713Y21036314D02*
X20342856Y21036314D01*
X22228571Y21464885D02*
X22228571Y20264885D01*
X21799999Y22150600D02*
X21371428Y20864885D01*
X21371428Y20864885D02*
X22485713Y20864885D01*
X23085714Y20350600D02*
X23342857Y20264885D01*
X23342857Y20264885D02*
X23771428Y20264885D01*
X23771428Y20264885D02*
X23942857Y20350600D01*
X23942857Y20350600D02*
X24028571Y20436314D01*
X24028571Y20436314D02*
X24114285Y20607742D01*
X24114285Y20607742D02*
X24114285Y20779171D01*
X24114285Y20779171D02*
X24028571Y20950600D01*
X24028571Y20950600D02*
X23942857Y21036314D01*
X23942857Y21036314D02*
X23771428Y21122028D01*
X23771428Y21122028D02*
X23428571Y21207742D01*
X23428571Y21207742D02*
X23257142Y21293457D01*
X23257142Y21293457D02*
X23171428Y21379171D01*
X23171428Y21379171D02*
X23085714Y21550600D01*
X23085714Y21550600D02*
X23085714Y21722028D01*
X23085714Y21722028D02*
X23171428Y21893457D01*
X23171428Y21893457D02*
X23257142Y21979171D01*
X23257142Y21979171D02*
X23428571Y22064885D01*
X23428571Y22064885D02*
X23857142Y22064885D01*
X23857142Y22064885D02*
X24114285Y21979171D01*
X24714285Y22064885D02*
X25142857Y20264885D01*
X25142857Y20264885D02*
X25485714Y21550600D01*
X25485714Y21550600D02*
X25828571Y20264885D01*
X25828571Y20264885D02*
X26257143Y22064885D01*
X26942857Y20264885D02*
X26942857Y22064885D01*
X26942857Y21207742D02*
X27971428Y21207742D01*
X27971428Y20264885D02*
X27971428Y22064885D01*
X28828571Y20264885D02*
X28828571Y22064885D01*
X30028571Y22064885D02*
X30200000Y22064885D01*
X30200000Y22064885D02*
X30371428Y21979171D01*
X30371428Y21979171D02*
X30457143Y21893457D01*
X30457143Y21893457D02*
X30542857Y21722028D01*
X30542857Y21722028D02*
X30628571Y21379171D01*
X30628571Y21379171D02*
X30628571Y20950600D01*
X30628571Y20950600D02*
X30542857Y20607742D01*
X30542857Y20607742D02*
X30457143Y20436314D01*
X30457143Y20436314D02*
X30371428Y20350600D01*
X30371428Y20350600D02*
X30200000Y20264885D01*
X30200000Y20264885D02*
X30028571Y20264885D01*
X30028571Y20264885D02*
X29857143Y20350600D01*
X29857143Y20350600D02*
X29771428Y20436314D01*
X29771428Y20436314D02*
X29685714Y20607742D01*
X29685714Y20607742D02*
X29600000Y20950600D01*
X29600000Y20950600D02*
X29600000Y21379171D01*
X29600000Y21379171D02*
X29685714Y21722028D01*
X29685714Y21722028D02*
X29771428Y21893457D01*
X29771428Y21893457D02*
X29857143Y21979171D01*
X29857143Y21979171D02*
X30028571Y22064885D01*
X32342857Y20264885D02*
X31314286Y20264885D01*
X31828571Y20264885D02*
X31828571Y22064885D01*
X31828571Y22064885D02*
X31657143Y21807742D01*
X31657143Y21807742D02*
X31485714Y21636314D01*
X31485714Y21636314D02*
X31314286Y21550600D01*
X33028572Y20779171D02*
X33885715Y20779171D01*
X32857143Y20264885D02*
X33457143Y22064885D01*
X33457143Y22064885D02*
X34057143Y20264885D01*
X20722285Y23312885D02*
X20722285Y25112885D01*
X20722285Y25112885D02*
X21322285Y23827171D01*
X21322285Y23827171D02*
X21922285Y25112885D01*
X21922285Y25112885D02*
X21922285Y23312885D01*
X23636571Y23312885D02*
X22779428Y23312885D01*
X22779428Y23312885D02*
X22779428Y25112885D01*
X24150857Y23827171D02*
X25008000Y23827171D01*
X23979428Y23312885D02*
X24579428Y25112885D01*
X24579428Y25112885D02*
X25179428Y23312885D01*
X26379428Y24255742D02*
X26636571Y24170028D01*
X26636571Y24170028D02*
X26722285Y24084314D01*
X26722285Y24084314D02*
X26807999Y23912885D01*
X26807999Y23912885D02*
X26807999Y23655742D01*
X26807999Y23655742D02*
X26722285Y23484314D01*
X26722285Y23484314D02*
X26636571Y23398600D01*
X26636571Y23398600D02*
X26465142Y23312885D01*
X26465142Y23312885D02*
X25779428Y23312885D01*
X25779428Y23312885D02*
X25779428Y25112885D01*
X25779428Y25112885D02*
X26379428Y25112885D01*
X26379428Y25112885D02*
X26550857Y25027171D01*
X26550857Y25027171D02*
X26636571Y24941457D01*
X26636571Y24941457D02*
X26722285Y24770028D01*
X26722285Y24770028D02*
X26722285Y24598600D01*
X26722285Y24598600D02*
X26636571Y24427171D01*
X26636571Y24427171D02*
X26550857Y24341457D01*
X26550857Y24341457D02*
X26379428Y24255742D01*
X26379428Y24255742D02*
X25779428Y24255742D01*
X27579428Y23484314D02*
X27665142Y23398600D01*
X27665142Y23398600D02*
X27579428Y23312885D01*
X27579428Y23312885D02*
X27493714Y23398600D01*
X27493714Y23398600D02*
X27579428Y23484314D01*
X27579428Y23484314D02*
X27579428Y23312885D01*
X29465142Y23484314D02*
X29379428Y23398600D01*
X29379428Y23398600D02*
X29122285Y23312885D01*
X29122285Y23312885D02*
X28950857Y23312885D01*
X28950857Y23312885D02*
X28693714Y23398600D01*
X28693714Y23398600D02*
X28522285Y23570028D01*
X28522285Y23570028D02*
X28436571Y23741457D01*
X28436571Y23741457D02*
X28350857Y24084314D01*
X28350857Y24084314D02*
X28350857Y24341457D01*
X28350857Y24341457D02*
X28436571Y24684314D01*
X28436571Y24684314D02*
X28522285Y24855742D01*
X28522285Y24855742D02*
X28693714Y25027171D01*
X28693714Y25027171D02*
X28950857Y25112885D01*
X28950857Y25112885D02*
X29122285Y25112885D01*
X29122285Y25112885D02*
X29379428Y25027171D01*
X29379428Y25027171D02*
X29465142Y24941457D01*
X30065142Y25112885D02*
X31265142Y25112885D01*
X31265142Y25112885D02*
X30065142Y23312885D01*
X30065142Y23312885D02*
X31265142Y23312885D01*
X46531457Y15531714D02*
X46617171Y15446000D01*
X46617171Y15446000D02*
X46702885Y15274572D01*
X46702885Y15274572D02*
X46702885Y14846000D01*
X46702885Y14846000D02*
X46617171Y14674572D01*
X46617171Y14674572D02*
X46531457Y14588857D01*
X46531457Y14588857D02*
X46360028Y14503143D01*
X46360028Y14503143D02*
X46188600Y14503143D01*
X46188600Y14503143D02*
X45931457Y14588857D01*
X45931457Y14588857D02*
X44902885Y15617429D01*
X44902885Y15617429D02*
X44902885Y14503143D01*
X46702885Y13388857D02*
X46702885Y13217428D01*
X46702885Y13217428D02*
X46617171Y13046000D01*
X46617171Y13046000D02*
X46531457Y12960286D01*
X46531457Y12960286D02*
X46360028Y12874571D01*
X46360028Y12874571D02*
X46017171Y12788857D01*
X46017171Y12788857D02*
X45588600Y12788857D01*
X45588600Y12788857D02*
X45245742Y12874571D01*
X45245742Y12874571D02*
X45074314Y12960286D01*
X45074314Y12960286D02*
X44988600Y13046000D01*
X44988600Y13046000D02*
X44902885Y13217428D01*
X44902885Y13217428D02*
X44902885Y13388857D01*
X44902885Y13388857D02*
X44988600Y13560286D01*
X44988600Y13560286D02*
X45074314Y13646000D01*
X45074314Y13646000D02*
X45245742Y13731714D01*
X45245742Y13731714D02*
X45588600Y13817428D01*
X45588600Y13817428D02*
X46017171Y13817428D01*
X46017171Y13817428D02*
X46360028Y13731714D01*
X46360028Y13731714D02*
X46531457Y13646000D01*
X46531457Y13646000D02*
X46617171Y13560286D01*
X46617171Y13560286D02*
X46702885Y13388857D01*
X44902885Y11074571D02*
X44902885Y12103142D01*
X44902885Y11588857D02*
X46702885Y11588857D01*
X46702885Y11588857D02*
X46445742Y11760285D01*
X46445742Y11760285D02*
X46274314Y11931714D01*
X46274314Y11931714D02*
X46188600Y12103142D01*
X46702885Y10474571D02*
X46702885Y9274571D01*
X46702885Y9274571D02*
X44902885Y10045999D01*
X14760100Y32790917D02*
X14688671Y32576632D01*
X14688671Y32576632D02*
X14688671Y32219489D01*
X14688671Y32219489D02*
X14760100Y32076632D01*
X14760100Y32076632D02*
X14831528Y32005203D01*
X14831528Y32005203D02*
X14974385Y31933774D01*
X14974385Y31933774D02*
X15117242Y31933774D01*
X15117242Y31933774D02*
X15260100Y32005203D01*
X15260100Y32005203D02*
X15331528Y32076632D01*
X15331528Y32076632D02*
X15402957Y32219489D01*
X15402957Y32219489D02*
X15474385Y32505203D01*
X15474385Y32505203D02*
X15545814Y32648060D01*
X15545814Y32648060D02*
X15617242Y32719489D01*
X15617242Y32719489D02*
X15760100Y32790917D01*
X15760100Y32790917D02*
X15902957Y32790917D01*
X15902957Y32790917D02*
X16045814Y32719489D01*
X16045814Y32719489D02*
X16117242Y32648060D01*
X16117242Y32648060D02*
X16188671Y32505203D01*
X16188671Y32505203D02*
X16188671Y32148060D01*
X16188671Y32148060D02*
X16117242Y31933774D01*
X15474385Y31290918D02*
X15474385Y30790918D01*
X14688671Y30576632D02*
X14688671Y31290918D01*
X14688671Y31290918D02*
X16188671Y31290918D01*
X16188671Y31290918D02*
X16188671Y30576632D01*
X15688671Y29933775D02*
X14688671Y29933775D01*
X15545814Y29933775D02*
X15617242Y29862346D01*
X15617242Y29862346D02*
X15688671Y29719489D01*
X15688671Y29719489D02*
X15688671Y29505203D01*
X15688671Y29505203D02*
X15617242Y29362346D01*
X15617242Y29362346D02*
X15474385Y29290918D01*
X15474385Y29290918D02*
X14688671Y29290918D01*
X17355671Y32338489D02*
X18855671Y32338489D01*
X17355671Y31624203D02*
X18855671Y31624203D01*
X18855671Y31624203D02*
X17355671Y30767060D01*
X17355671Y30767060D02*
X18855671Y30767060D01*
X18855671Y29767059D02*
X18855671Y29624202D01*
X18855671Y29624202D02*
X18784242Y29481345D01*
X18784242Y29481345D02*
X18712814Y29409917D01*
X18712814Y29409917D02*
X18569957Y29338488D01*
X18569957Y29338488D02*
X18284242Y29267059D01*
X18284242Y29267059D02*
X17927100Y29267059D01*
X17927100Y29267059D02*
X17641385Y29338488D01*
X17641385Y29338488D02*
X17498528Y29409917D01*
X17498528Y29409917D02*
X17427100Y29481345D01*
X17427100Y29481345D02*
X17355671Y29624202D01*
X17355671Y29624202D02*
X17355671Y29767059D01*
X17355671Y29767059D02*
X17427100Y29909917D01*
X17427100Y29909917D02*
X17498528Y29981345D01*
X17498528Y29981345D02*
X17641385Y30052774D01*
X17641385Y30052774D02*
X17927100Y30124202D01*
X17927100Y30124202D02*
X18284242Y30124202D01*
X18284242Y30124202D02*
X18569957Y30052774D01*
X18569957Y30052774D02*
X18712814Y29981345D01*
X18712814Y29981345D02*
X18784242Y29909917D01*
X18784242Y29909917D02*
X18855671Y29767059D01*
X20895671Y32409917D02*
X20895671Y31338489D01*
X21538528Y31981346D02*
X19609957Y32409917D01*
X20252814Y31481346D02*
X20252814Y32552774D01*
X19609957Y31909917D02*
X21538528Y31481346D01*
X20681385Y30338489D02*
X20681385Y30838489D01*
X19895671Y30838489D02*
X21395671Y30838489D01*
X21395671Y30838489D02*
X21395671Y30124203D01*
X19895671Y28695632D02*
X20609957Y29195632D01*
X19895671Y29552775D02*
X21395671Y29552775D01*
X21395671Y29552775D02*
X21395671Y28981346D01*
X21395671Y28981346D02*
X21324242Y28838489D01*
X21324242Y28838489D02*
X21252814Y28767060D01*
X21252814Y28767060D02*
X21109957Y28695632D01*
X21109957Y28695632D02*
X20895671Y28695632D01*
X20895671Y28695632D02*
X20752814Y28767060D01*
X20752814Y28767060D02*
X20681385Y28838489D01*
X20681385Y28838489D02*
X20609957Y28981346D01*
X20609957Y28981346D02*
X20609957Y29552775D01*
X19967100Y28124203D02*
X19895671Y27909918D01*
X19895671Y27909918D02*
X19895671Y27552775D01*
X19895671Y27552775D02*
X19967100Y27409918D01*
X19967100Y27409918D02*
X20038528Y27338489D01*
X20038528Y27338489D02*
X20181385Y27267060D01*
X20181385Y27267060D02*
X20324242Y27267060D01*
X20324242Y27267060D02*
X20467100Y27338489D01*
X20467100Y27338489D02*
X20538528Y27409918D01*
X20538528Y27409918D02*
X20609957Y27552775D01*
X20609957Y27552775D02*
X20681385Y27838489D01*
X20681385Y27838489D02*
X20752814Y27981346D01*
X20752814Y27981346D02*
X20824242Y28052775D01*
X20824242Y28052775D02*
X20967100Y28124203D01*
X20967100Y28124203D02*
X21109957Y28124203D01*
X21109957Y28124203D02*
X21252814Y28052775D01*
X21252814Y28052775D02*
X21324242Y27981346D01*
X21324242Y27981346D02*
X21395671Y27838489D01*
X21395671Y27838489D02*
X21395671Y27481346D01*
X21395671Y27481346D02*
X21324242Y27267060D01*
X21395671Y26838489D02*
X21395671Y25981347D01*
X19895671Y26409918D02*
X21395671Y26409918D01*
X22435671Y32338489D02*
X23935671Y32338489D01*
X22435671Y31624203D02*
X23935671Y31624203D01*
X23935671Y31624203D02*
X22435671Y30767060D01*
X22435671Y30767060D02*
X23935671Y30767060D01*
X22435671Y29267059D02*
X22435671Y30124202D01*
X22435671Y29695631D02*
X23935671Y29695631D01*
X23935671Y29695631D02*
X23721385Y29838488D01*
X23721385Y29838488D02*
X23578528Y29981345D01*
X23578528Y29981345D02*
X23507100Y30124202D01*
X25047100Y32409917D02*
X24975671Y32195632D01*
X24975671Y32195632D02*
X24975671Y31838489D01*
X24975671Y31838489D02*
X25047100Y31695632D01*
X25047100Y31695632D02*
X25118528Y31624203D01*
X25118528Y31624203D02*
X25261385Y31552774D01*
X25261385Y31552774D02*
X25404242Y31552774D01*
X25404242Y31552774D02*
X25547100Y31624203D01*
X25547100Y31624203D02*
X25618528Y31695632D01*
X25618528Y31695632D02*
X25689957Y31838489D01*
X25689957Y31838489D02*
X25761385Y32124203D01*
X25761385Y32124203D02*
X25832814Y32267060D01*
X25832814Y32267060D02*
X25904242Y32338489D01*
X25904242Y32338489D02*
X26047100Y32409917D01*
X26047100Y32409917D02*
X26189957Y32409917D01*
X26189957Y32409917D02*
X26332814Y32338489D01*
X26332814Y32338489D02*
X26404242Y32267060D01*
X26404242Y32267060D02*
X26475671Y32124203D01*
X26475671Y32124203D02*
X26475671Y31767060D01*
X26475671Y31767060D02*
X26404242Y31552774D01*
X25761385Y30909918D02*
X25761385Y30409918D01*
X24975671Y30195632D02*
X24975671Y30909918D01*
X24975671Y30909918D02*
X26475671Y30909918D01*
X26475671Y30909918D02*
X26475671Y30195632D01*
X24975671Y28838489D02*
X24975671Y29552775D01*
X24975671Y29552775D02*
X26475671Y29552775D01*
X24975671Y27552774D02*
X24975671Y28409917D01*
X24975671Y27981346D02*
X26475671Y27981346D01*
X26475671Y27981346D02*
X26261385Y28124203D01*
X26261385Y28124203D02*
X26118528Y28267060D01*
X26118528Y28267060D02*
X26047100Y28409917D01*
X27388671Y32338489D02*
X28888671Y32338489D01*
X27388671Y31624203D02*
X28888671Y31624203D01*
X28888671Y31624203D02*
X27388671Y30767060D01*
X27388671Y30767060D02*
X28888671Y30767060D01*
X28888671Y30195631D02*
X28888671Y29267059D01*
X28888671Y29267059D02*
X28317242Y29767059D01*
X28317242Y29767059D02*
X28317242Y29552774D01*
X28317242Y29552774D02*
X28245814Y29409917D01*
X28245814Y29409917D02*
X28174385Y29338488D01*
X28174385Y29338488D02*
X28031528Y29267059D01*
X28031528Y29267059D02*
X27674385Y29267059D01*
X27674385Y29267059D02*
X27531528Y29338488D01*
X27531528Y29338488D02*
X27460100Y29409917D01*
X27460100Y29409917D02*
X27388671Y29552774D01*
X27388671Y29552774D02*
X27388671Y29981345D01*
X27388671Y29981345D02*
X27460100Y30124202D01*
X27460100Y30124202D02*
X27531528Y30195631D01*
X30198528Y31354346D02*
X30127100Y31425774D01*
X30127100Y31425774D02*
X30055671Y31640060D01*
X30055671Y31640060D02*
X30055671Y31782917D01*
X30055671Y31782917D02*
X30127100Y31997203D01*
X30127100Y31997203D02*
X30269957Y32140060D01*
X30269957Y32140060D02*
X30412814Y32211489D01*
X30412814Y32211489D02*
X30698528Y32282917D01*
X30698528Y32282917D02*
X30912814Y32282917D01*
X30912814Y32282917D02*
X31198528Y32211489D01*
X31198528Y32211489D02*
X31341385Y32140060D01*
X31341385Y32140060D02*
X31484242Y31997203D01*
X31484242Y31997203D02*
X31555671Y31782917D01*
X31555671Y31782917D02*
X31555671Y31640060D01*
X31555671Y31640060D02*
X31484242Y31425774D01*
X31484242Y31425774D02*
X31412814Y31354346D01*
X30127100Y30782917D02*
X30055671Y30568632D01*
X30055671Y30568632D02*
X30055671Y30211489D01*
X30055671Y30211489D02*
X30127100Y30068632D01*
X30127100Y30068632D02*
X30198528Y29997203D01*
X30198528Y29997203D02*
X30341385Y29925774D01*
X30341385Y29925774D02*
X30484242Y29925774D01*
X30484242Y29925774D02*
X30627100Y29997203D01*
X30627100Y29997203D02*
X30698528Y30068632D01*
X30698528Y30068632D02*
X30769957Y30211489D01*
X30769957Y30211489D02*
X30841385Y30497203D01*
X30841385Y30497203D02*
X30912814Y30640060D01*
X30912814Y30640060D02*
X30984242Y30711489D01*
X30984242Y30711489D02*
X31127100Y30782917D01*
X31127100Y30782917D02*
X31269957Y30782917D01*
X31269957Y30782917D02*
X31412814Y30711489D01*
X31412814Y30711489D02*
X31484242Y30640060D01*
X31484242Y30640060D02*
X31555671Y30497203D01*
X31555671Y30497203D02*
X31555671Y30140060D01*
X31555671Y30140060D02*
X31484242Y29925774D01*
X32667100Y32282917D02*
X32595671Y32068632D01*
X32595671Y32068632D02*
X32595671Y31711489D01*
X32595671Y31711489D02*
X32667100Y31568632D01*
X32667100Y31568632D02*
X32738528Y31497203D01*
X32738528Y31497203D02*
X32881385Y31425774D01*
X32881385Y31425774D02*
X33024242Y31425774D01*
X33024242Y31425774D02*
X33167100Y31497203D01*
X33167100Y31497203D02*
X33238528Y31568632D01*
X33238528Y31568632D02*
X33309957Y31711489D01*
X33309957Y31711489D02*
X33381385Y31997203D01*
X33381385Y31997203D02*
X33452814Y32140060D01*
X33452814Y32140060D02*
X33524242Y32211489D01*
X33524242Y32211489D02*
X33667100Y32282917D01*
X33667100Y32282917D02*
X33809957Y32282917D01*
X33809957Y32282917D02*
X33952814Y32211489D01*
X33952814Y32211489D02*
X34024242Y32140060D01*
X34024242Y32140060D02*
X34095671Y31997203D01*
X34095671Y31997203D02*
X34095671Y31640060D01*
X34095671Y31640060D02*
X34024242Y31425774D01*
X33381385Y30782918D02*
X33381385Y30282918D01*
X32595671Y30068632D02*
X32595671Y30782918D01*
X32595671Y30782918D02*
X34095671Y30782918D01*
X34095671Y30782918D02*
X34095671Y30068632D01*
X32595671Y28711489D02*
X32595671Y29425775D01*
X32595671Y29425775D02*
X34095671Y29425775D01*
X34095671Y27925774D02*
X34095671Y27782917D01*
X34095671Y27782917D02*
X34024242Y27640060D01*
X34024242Y27640060D02*
X33952814Y27568632D01*
X33952814Y27568632D02*
X33809957Y27497203D01*
X33809957Y27497203D02*
X33524242Y27425774D01*
X33524242Y27425774D02*
X33167100Y27425774D01*
X33167100Y27425774D02*
X32881385Y27497203D01*
X32881385Y27497203D02*
X32738528Y27568632D01*
X32738528Y27568632D02*
X32667100Y27640060D01*
X32667100Y27640060D02*
X32595671Y27782917D01*
X32595671Y27782917D02*
X32595671Y27925774D01*
X32595671Y27925774D02*
X32667100Y28068632D01*
X32667100Y28068632D02*
X32738528Y28140060D01*
X32738528Y28140060D02*
X32881385Y28211489D01*
X32881385Y28211489D02*
X33167100Y28282917D01*
X33167100Y28282917D02*
X33524242Y28282917D01*
X33524242Y28282917D02*
X33809957Y28211489D01*
X33809957Y28211489D02*
X33952814Y28140060D01*
X33952814Y28140060D02*
X34024242Y28068632D01*
X34024242Y28068632D02*
X34095671Y27925774D01*
X35135671Y32592489D02*
X36635671Y32592489D01*
X35135671Y31878203D02*
X36635671Y31878203D01*
X36635671Y31878203D02*
X35135671Y31021060D01*
X35135671Y31021060D02*
X36635671Y31021060D01*
X36492814Y30378202D02*
X36564242Y30306774D01*
X36564242Y30306774D02*
X36635671Y30163917D01*
X36635671Y30163917D02*
X36635671Y29806774D01*
X36635671Y29806774D02*
X36564242Y29663917D01*
X36564242Y29663917D02*
X36492814Y29592488D01*
X36492814Y29592488D02*
X36349957Y29521059D01*
X36349957Y29521059D02*
X36207100Y29521059D01*
X36207100Y29521059D02*
X35992814Y29592488D01*
X35992814Y29592488D02*
X35135671Y30449631D01*
X35135671Y30449631D02*
X35135671Y29521059D01*
X21168225Y17839671D02*
X21668225Y16339671D01*
X21668225Y16339671D02*
X22168225Y17839671D01*
X23525367Y16482528D02*
X23453939Y16411100D01*
X23453939Y16411100D02*
X23239653Y16339671D01*
X23239653Y16339671D02*
X23096796Y16339671D01*
X23096796Y16339671D02*
X22882510Y16411100D01*
X22882510Y16411100D02*
X22739653Y16553957D01*
X22739653Y16553957D02*
X22668224Y16696814D01*
X22668224Y16696814D02*
X22596796Y16982528D01*
X22596796Y16982528D02*
X22596796Y17196814D01*
X22596796Y17196814D02*
X22668224Y17482528D01*
X22668224Y17482528D02*
X22739653Y17625385D01*
X22739653Y17625385D02*
X22882510Y17768242D01*
X22882510Y17768242D02*
X23096796Y17839671D01*
X23096796Y17839671D02*
X23239653Y17839671D01*
X23239653Y17839671D02*
X23453939Y17768242D01*
X23453939Y17768242D02*
X23525367Y17696814D01*
X25025367Y16482528D02*
X24953939Y16411100D01*
X24953939Y16411100D02*
X24739653Y16339671D01*
X24739653Y16339671D02*
X24596796Y16339671D01*
X24596796Y16339671D02*
X24382510Y16411100D01*
X24382510Y16411100D02*
X24239653Y16553957D01*
X24239653Y16553957D02*
X24168224Y16696814D01*
X24168224Y16696814D02*
X24096796Y16982528D01*
X24096796Y16982528D02*
X24096796Y17196814D01*
X24096796Y17196814D02*
X24168224Y17482528D01*
X24168224Y17482528D02*
X24239653Y17625385D01*
X24239653Y17625385D02*
X24382510Y17768242D01*
X24382510Y17768242D02*
X24596796Y17839671D01*
X24596796Y17839671D02*
X24739653Y17839671D01*
X24739653Y17839671D02*
X24953939Y17768242D01*
X24953939Y17768242D02*
X25025367Y17696814D01*
X16891143Y17768242D02*
X16748286Y17839671D01*
X16748286Y17839671D02*
X16534000Y17839671D01*
X16534000Y17839671D02*
X16319714Y17768242D01*
X16319714Y17768242D02*
X16176857Y17625385D01*
X16176857Y17625385D02*
X16105428Y17482528D01*
X16105428Y17482528D02*
X16034000Y17196814D01*
X16034000Y17196814D02*
X16034000Y16982528D01*
X16034000Y16982528D02*
X16105428Y16696814D01*
X16105428Y16696814D02*
X16176857Y16553957D01*
X16176857Y16553957D02*
X16319714Y16411100D01*
X16319714Y16411100D02*
X16534000Y16339671D01*
X16534000Y16339671D02*
X16676857Y16339671D01*
X16676857Y16339671D02*
X16891143Y16411100D01*
X16891143Y16411100D02*
X16962571Y16482528D01*
X16962571Y16482528D02*
X16962571Y16982528D01*
X16962571Y16982528D02*
X16676857Y16982528D01*
X17605428Y16339671D02*
X17605428Y17839671D01*
X17605428Y17839671D02*
X18462571Y16339671D01*
X18462571Y16339671D02*
X18462571Y17839671D01*
X19176857Y16339671D02*
X19176857Y17839671D01*
X19176857Y17839671D02*
X19534000Y17839671D01*
X19534000Y17839671D02*
X19748286Y17768242D01*
X19748286Y17768242D02*
X19891143Y17625385D01*
X19891143Y17625385D02*
X19962572Y17482528D01*
X19962572Y17482528D02*
X20034000Y17196814D01*
X20034000Y17196814D02*
X20034000Y16982528D01*
X20034000Y16982528D02*
X19962572Y16696814D01*
X19962572Y16696814D02*
X19891143Y16553957D01*
X19891143Y16553957D02*
X19748286Y16411100D01*
X19748286Y16411100D02*
X19534000Y16339671D01*
X19534000Y16339671D02*
X19176857Y16339671D01*
X6592242Y13969856D02*
X6663671Y14112714D01*
X6663671Y14112714D02*
X6663671Y14326999D01*
X6663671Y14326999D02*
X6592242Y14541285D01*
X6592242Y14541285D02*
X6449385Y14684142D01*
X6449385Y14684142D02*
X6306528Y14755571D01*
X6306528Y14755571D02*
X6020814Y14826999D01*
X6020814Y14826999D02*
X5806528Y14826999D01*
X5806528Y14826999D02*
X5520814Y14755571D01*
X5520814Y14755571D02*
X5377957Y14684142D01*
X5377957Y14684142D02*
X5235100Y14541285D01*
X5235100Y14541285D02*
X5163671Y14326999D01*
X5163671Y14326999D02*
X5163671Y14184142D01*
X5163671Y14184142D02*
X5235100Y13969856D01*
X5235100Y13969856D02*
X5306528Y13898428D01*
X5306528Y13898428D02*
X5806528Y13898428D01*
X5806528Y13898428D02*
X5806528Y14184142D01*
X5163671Y13255571D02*
X6663671Y13255571D01*
X6663671Y13255571D02*
X5163671Y12398428D01*
X5163671Y12398428D02*
X6663671Y12398428D01*
X5163671Y11684142D02*
X6663671Y11684142D01*
X6663671Y11684142D02*
X6663671Y11326999D01*
X6663671Y11326999D02*
X6592242Y11112713D01*
X6592242Y11112713D02*
X6449385Y10969856D01*
X6449385Y10969856D02*
X6306528Y10898427D01*
X6306528Y10898427D02*
X6020814Y10826999D01*
X6020814Y10826999D02*
X5806528Y10826999D01*
X5806528Y10826999D02*
X5520814Y10898427D01*
X5520814Y10898427D02*
X5377957Y10969856D01*
X5377957Y10969856D02*
X5235100Y11112713D01*
X5235100Y11112713D02*
X5163671Y11326999D01*
X5163671Y11326999D02*
X5163671Y11684142D01*
X43124714Y18601671D02*
X43410428Y18601671D01*
X43410428Y18601671D02*
X43553285Y18530242D01*
X43553285Y18530242D02*
X43696142Y18387385D01*
X43696142Y18387385D02*
X43767571Y18101671D01*
X43767571Y18101671D02*
X43767571Y17601671D01*
X43767571Y17601671D02*
X43696142Y17315957D01*
X43696142Y17315957D02*
X43553285Y17173100D01*
X43553285Y17173100D02*
X43410428Y17101671D01*
X43410428Y17101671D02*
X43124714Y17101671D01*
X43124714Y17101671D02*
X42981857Y17173100D01*
X42981857Y17173100D02*
X42838999Y17315957D01*
X42838999Y17315957D02*
X42767571Y17601671D01*
X42767571Y17601671D02*
X42767571Y18101671D01*
X42767571Y18101671D02*
X42838999Y18387385D01*
X42838999Y18387385D02*
X42981857Y18530242D01*
X42981857Y18530242D02*
X43124714Y18601671D01*
X44410428Y18601671D02*
X44410428Y17387385D01*
X44410428Y17387385D02*
X44481857Y17244528D01*
X44481857Y17244528D02*
X44553286Y17173100D01*
X44553286Y17173100D02*
X44696143Y17101671D01*
X44696143Y17101671D02*
X44981857Y17101671D01*
X44981857Y17101671D02*
X45124714Y17173100D01*
X45124714Y17173100D02*
X45196143Y17244528D01*
X45196143Y17244528D02*
X45267571Y17387385D01*
X45267571Y17387385D02*
X45267571Y18601671D01*
X45767572Y18601671D02*
X46624715Y18601671D01*
X46196143Y17101671D02*
X46196143Y18601671D01*
X46981857Y18601671D02*
X47910429Y18601671D01*
X47910429Y18601671D02*
X47410429Y18030242D01*
X47410429Y18030242D02*
X47624714Y18030242D01*
X47624714Y18030242D02*
X47767572Y17958814D01*
X47767572Y17958814D02*
X47839000Y17887385D01*
X47839000Y17887385D02*
X47910429Y17744528D01*
X47910429Y17744528D02*
X47910429Y17387385D01*
X47910429Y17387385D02*
X47839000Y17244528D01*
X47839000Y17244528D02*
X47767572Y17173100D01*
X47767572Y17173100D02*
X47624714Y17101671D01*
X47624714Y17101671D02*
X47196143Y17101671D01*
X47196143Y17101671D02*
X47053286Y17173100D01*
X47053286Y17173100D02*
X46981857Y17244528D01*
X43124714Y31301671D02*
X43410428Y31301671D01*
X43410428Y31301671D02*
X43553285Y31230242D01*
X43553285Y31230242D02*
X43696142Y31087385D01*
X43696142Y31087385D02*
X43767571Y30801671D01*
X43767571Y30801671D02*
X43767571Y30301671D01*
X43767571Y30301671D02*
X43696142Y30015957D01*
X43696142Y30015957D02*
X43553285Y29873100D01*
X43553285Y29873100D02*
X43410428Y29801671D01*
X43410428Y29801671D02*
X43124714Y29801671D01*
X43124714Y29801671D02*
X42981857Y29873100D01*
X42981857Y29873100D02*
X42838999Y30015957D01*
X42838999Y30015957D02*
X42767571Y30301671D01*
X42767571Y30301671D02*
X42767571Y30801671D01*
X42767571Y30801671D02*
X42838999Y31087385D01*
X42838999Y31087385D02*
X42981857Y31230242D01*
X42981857Y31230242D02*
X43124714Y31301671D01*
X44410428Y31301671D02*
X44410428Y30087385D01*
X44410428Y30087385D02*
X44481857Y29944528D01*
X44481857Y29944528D02*
X44553286Y29873100D01*
X44553286Y29873100D02*
X44696143Y29801671D01*
X44696143Y29801671D02*
X44981857Y29801671D01*
X44981857Y29801671D02*
X45124714Y29873100D01*
X45124714Y29873100D02*
X45196143Y29944528D01*
X45196143Y29944528D02*
X45267571Y30087385D01*
X45267571Y30087385D02*
X45267571Y31301671D01*
X45767572Y31301671D02*
X46624715Y31301671D01*
X46196143Y29801671D02*
X46196143Y31301671D01*
X47053286Y31158814D02*
X47124714Y31230242D01*
X47124714Y31230242D02*
X47267572Y31301671D01*
X47267572Y31301671D02*
X47624714Y31301671D01*
X47624714Y31301671D02*
X47767572Y31230242D01*
X47767572Y31230242D02*
X47839000Y31158814D01*
X47839000Y31158814D02*
X47910429Y31015957D01*
X47910429Y31015957D02*
X47910429Y30873100D01*
X47910429Y30873100D02*
X47839000Y30658814D01*
X47839000Y30658814D02*
X46981857Y29801671D01*
X46981857Y29801671D02*
X47910429Y29801671D01*
X2992714Y18220671D02*
X3278428Y18220671D01*
X3278428Y18220671D02*
X3421285Y18149242D01*
X3421285Y18149242D02*
X3564142Y18006385D01*
X3564142Y18006385D02*
X3635571Y17720671D01*
X3635571Y17720671D02*
X3635571Y17220671D01*
X3635571Y17220671D02*
X3564142Y16934957D01*
X3564142Y16934957D02*
X3421285Y16792100D01*
X3421285Y16792100D02*
X3278428Y16720671D01*
X3278428Y16720671D02*
X2992714Y16720671D01*
X2992714Y16720671D02*
X2849857Y16792100D01*
X2849857Y16792100D02*
X2706999Y16934957D01*
X2706999Y16934957D02*
X2635571Y17220671D01*
X2635571Y17220671D02*
X2635571Y17720671D01*
X2635571Y17720671D02*
X2706999Y18006385D01*
X2706999Y18006385D02*
X2849857Y18149242D01*
X2849857Y18149242D02*
X2992714Y18220671D01*
X4278428Y18220671D02*
X4278428Y17006385D01*
X4278428Y17006385D02*
X4349857Y16863528D01*
X4349857Y16863528D02*
X4421286Y16792100D01*
X4421286Y16792100D02*
X4564143Y16720671D01*
X4564143Y16720671D02*
X4849857Y16720671D01*
X4849857Y16720671D02*
X4992714Y16792100D01*
X4992714Y16792100D02*
X5064143Y16863528D01*
X5064143Y16863528D02*
X5135571Y17006385D01*
X5135571Y17006385D02*
X5135571Y18220671D01*
X5635572Y18220671D02*
X6492715Y18220671D01*
X6064143Y16720671D02*
X6064143Y18220671D01*
X7278429Y18220671D02*
X7421286Y18220671D01*
X7421286Y18220671D02*
X7564143Y18149242D01*
X7564143Y18149242D02*
X7635572Y18077814D01*
X7635572Y18077814D02*
X7707000Y17934957D01*
X7707000Y17934957D02*
X7778429Y17649242D01*
X7778429Y17649242D02*
X7778429Y17292100D01*
X7778429Y17292100D02*
X7707000Y17006385D01*
X7707000Y17006385D02*
X7635572Y16863528D01*
X7635572Y16863528D02*
X7564143Y16792100D01*
X7564143Y16792100D02*
X7421286Y16720671D01*
X7421286Y16720671D02*
X7278429Y16720671D01*
X7278429Y16720671D02*
X7135572Y16792100D01*
X7135572Y16792100D02*
X7064143Y16863528D01*
X7064143Y16863528D02*
X6992714Y17006385D01*
X6992714Y17006385D02*
X6921286Y17292100D01*
X6921286Y17292100D02*
X6921286Y17649242D01*
X6921286Y17649242D02*
X6992714Y17934957D01*
X6992714Y17934957D02*
X7064143Y18077814D01*
X7064143Y18077814D02*
X7135572Y18149242D01*
X7135572Y18149242D02*
X7278429Y18220671D01*
X2992714Y31047671D02*
X3278428Y31047671D01*
X3278428Y31047671D02*
X3421285Y30976242D01*
X3421285Y30976242D02*
X3564142Y30833385D01*
X3564142Y30833385D02*
X3635571Y30547671D01*
X3635571Y30547671D02*
X3635571Y30047671D01*
X3635571Y30047671D02*
X3564142Y29761957D01*
X3564142Y29761957D02*
X3421285Y29619100D01*
X3421285Y29619100D02*
X3278428Y29547671D01*
X3278428Y29547671D02*
X2992714Y29547671D01*
X2992714Y29547671D02*
X2849857Y29619100D01*
X2849857Y29619100D02*
X2706999Y29761957D01*
X2706999Y29761957D02*
X2635571Y30047671D01*
X2635571Y30047671D02*
X2635571Y30547671D01*
X2635571Y30547671D02*
X2706999Y30833385D01*
X2706999Y30833385D02*
X2849857Y30976242D01*
X2849857Y30976242D02*
X2992714Y31047671D01*
X4278428Y31047671D02*
X4278428Y29833385D01*
X4278428Y29833385D02*
X4349857Y29690528D01*
X4349857Y29690528D02*
X4421286Y29619100D01*
X4421286Y29619100D02*
X4564143Y29547671D01*
X4564143Y29547671D02*
X4849857Y29547671D01*
X4849857Y29547671D02*
X4992714Y29619100D01*
X4992714Y29619100D02*
X5064143Y29690528D01*
X5064143Y29690528D02*
X5135571Y29833385D01*
X5135571Y29833385D02*
X5135571Y31047671D01*
X5635572Y31047671D02*
X6492715Y31047671D01*
X6064143Y29547671D02*
X6064143Y31047671D01*
X7778429Y29547671D02*
X6921286Y29547671D01*
X7349857Y29547671D02*
X7349857Y31047671D01*
X7349857Y31047671D02*
X7207000Y30833385D01*
X7207000Y30833385D02*
X7064143Y30690528D01*
X7064143Y30690528D02*
X6921286Y30619100D01*
X49750885Y15491999D02*
X48465171Y15491999D01*
X48465171Y15491999D02*
X48208028Y15577714D01*
X48208028Y15577714D02*
X48036600Y15749142D01*
X48036600Y15749142D02*
X47950885Y16006285D01*
X47950885Y16006285D02*
X47950885Y16177714D01*
X48465171Y14720570D02*
X48465171Y13863428D01*
X47950885Y14891999D02*
X49750885Y14291999D01*
X49750885Y14291999D02*
X47950885Y13691999D01*
X48122314Y12063428D02*
X48036600Y12149142D01*
X48036600Y12149142D02*
X47950885Y12406285D01*
X47950885Y12406285D02*
X47950885Y12577713D01*
X47950885Y12577713D02*
X48036600Y12834856D01*
X48036600Y12834856D02*
X48208028Y13006285D01*
X48208028Y13006285D02*
X48379457Y13091999D01*
X48379457Y13091999D02*
X48722314Y13177713D01*
X48722314Y13177713D02*
X48979457Y13177713D01*
X48979457Y13177713D02*
X49322314Y13091999D01*
X49322314Y13091999D02*
X49493742Y13006285D01*
X49493742Y13006285D02*
X49665171Y12834856D01*
X49665171Y12834856D02*
X49750885Y12577713D01*
X49750885Y12577713D02*
X49750885Y12406285D01*
X49750885Y12406285D02*
X49665171Y12149142D01*
X49665171Y12149142D02*
X49579457Y12063428D01*
X47950885Y11291999D02*
X49750885Y11291999D01*
X48893742Y11291999D02*
X48893742Y10263428D01*
X47950885Y10263428D02*
X49750885Y10263428D01*
X49750885Y9063428D02*
X49750885Y8720571D01*
X49750885Y8720571D02*
X49665171Y8549142D01*
X49665171Y8549142D02*
X49493742Y8377714D01*
X49493742Y8377714D02*
X49150885Y8291999D01*
X49150885Y8291999D02*
X48550885Y8291999D01*
X48550885Y8291999D02*
X48208028Y8377714D01*
X48208028Y8377714D02*
X48036600Y8549142D01*
X48036600Y8549142D02*
X47950885Y8720571D01*
X47950885Y8720571D02*
X47950885Y9063428D01*
X47950885Y9063428D02*
X48036600Y9234857D01*
X48036600Y9234857D02*
X48208028Y9406285D01*
X48208028Y9406285D02*
X48550885Y9491999D01*
X48550885Y9491999D02*
X49150885Y9491999D01*
X49150885Y9491999D02*
X49493742Y9406285D01*
X49493742Y9406285D02*
X49665171Y9234857D01*
X49665171Y9234857D02*
X49750885Y9063428D01*
X11811143Y17768242D02*
X11668286Y17839671D01*
X11668286Y17839671D02*
X11454000Y17839671D01*
X11454000Y17839671D02*
X11239714Y17768242D01*
X11239714Y17768242D02*
X11096857Y17625385D01*
X11096857Y17625385D02*
X11025428Y17482528D01*
X11025428Y17482528D02*
X10954000Y17196814D01*
X10954000Y17196814D02*
X10954000Y16982528D01*
X10954000Y16982528D02*
X11025428Y16696814D01*
X11025428Y16696814D02*
X11096857Y16553957D01*
X11096857Y16553957D02*
X11239714Y16411100D01*
X11239714Y16411100D02*
X11454000Y16339671D01*
X11454000Y16339671D02*
X11596857Y16339671D01*
X11596857Y16339671D02*
X11811143Y16411100D01*
X11811143Y16411100D02*
X11882571Y16482528D01*
X11882571Y16482528D02*
X11882571Y16982528D01*
X11882571Y16982528D02*
X11596857Y16982528D01*
X12525428Y16339671D02*
X12525428Y17839671D01*
X12525428Y17839671D02*
X13382571Y16339671D01*
X13382571Y16339671D02*
X13382571Y17839671D01*
X14096857Y16339671D02*
X14096857Y17839671D01*
X14096857Y17839671D02*
X14454000Y17839671D01*
X14454000Y17839671D02*
X14668286Y17768242D01*
X14668286Y17768242D02*
X14811143Y17625385D01*
X14811143Y17625385D02*
X14882572Y17482528D01*
X14882572Y17482528D02*
X14954000Y17196814D01*
X14954000Y17196814D02*
X14954000Y16982528D01*
X14954000Y16982528D02*
X14882572Y16696814D01*
X14882572Y16696814D02*
X14811143Y16553957D01*
X14811143Y16553957D02*
X14668286Y16411100D01*
X14668286Y16411100D02*
X14454000Y16339671D01*
X14454000Y16339671D02*
X14096857Y16339671D01*
X27051143Y17768242D02*
X26908286Y17839671D01*
X26908286Y17839671D02*
X26694000Y17839671D01*
X26694000Y17839671D02*
X26479714Y17768242D01*
X26479714Y17768242D02*
X26336857Y17625385D01*
X26336857Y17625385D02*
X26265428Y17482528D01*
X26265428Y17482528D02*
X26194000Y17196814D01*
X26194000Y17196814D02*
X26194000Y16982528D01*
X26194000Y16982528D02*
X26265428Y16696814D01*
X26265428Y16696814D02*
X26336857Y16553957D01*
X26336857Y16553957D02*
X26479714Y16411100D01*
X26479714Y16411100D02*
X26694000Y16339671D01*
X26694000Y16339671D02*
X26836857Y16339671D01*
X26836857Y16339671D02*
X27051143Y16411100D01*
X27051143Y16411100D02*
X27122571Y16482528D01*
X27122571Y16482528D02*
X27122571Y16982528D01*
X27122571Y16982528D02*
X26836857Y16982528D01*
X27765428Y16339671D02*
X27765428Y17839671D01*
X27765428Y17839671D02*
X28622571Y16339671D01*
X28622571Y16339671D02*
X28622571Y17839671D01*
X29336857Y16339671D02*
X29336857Y17839671D01*
X29336857Y17839671D02*
X29694000Y17839671D01*
X29694000Y17839671D02*
X29908286Y17768242D01*
X29908286Y17768242D02*
X30051143Y17625385D01*
X30051143Y17625385D02*
X30122572Y17482528D01*
X30122572Y17482528D02*
X30194000Y17196814D01*
X30194000Y17196814D02*
X30194000Y16982528D01*
X30194000Y16982528D02*
X30122572Y16696814D01*
X30122572Y16696814D02*
X30051143Y16553957D01*
X30051143Y16553957D02*
X29908286Y16411100D01*
X29908286Y16411100D02*
X29694000Y16339671D01*
X29694000Y16339671D02*
X29336857Y16339671D01*
X32131143Y17768242D02*
X31988286Y17839671D01*
X31988286Y17839671D02*
X31774000Y17839671D01*
X31774000Y17839671D02*
X31559714Y17768242D01*
X31559714Y17768242D02*
X31416857Y17625385D01*
X31416857Y17625385D02*
X31345428Y17482528D01*
X31345428Y17482528D02*
X31274000Y17196814D01*
X31274000Y17196814D02*
X31274000Y16982528D01*
X31274000Y16982528D02*
X31345428Y16696814D01*
X31345428Y16696814D02*
X31416857Y16553957D01*
X31416857Y16553957D02*
X31559714Y16411100D01*
X31559714Y16411100D02*
X31774000Y16339671D01*
X31774000Y16339671D02*
X31916857Y16339671D01*
X31916857Y16339671D02*
X32131143Y16411100D01*
X32131143Y16411100D02*
X32202571Y16482528D01*
X32202571Y16482528D02*
X32202571Y16982528D01*
X32202571Y16982528D02*
X31916857Y16982528D01*
X32845428Y16339671D02*
X32845428Y17839671D01*
X32845428Y17839671D02*
X33702571Y16339671D01*
X33702571Y16339671D02*
X33702571Y17839671D01*
X34416857Y16339671D02*
X34416857Y17839671D01*
X34416857Y17839671D02*
X34774000Y17839671D01*
X34774000Y17839671D02*
X34988286Y17768242D01*
X34988286Y17768242D02*
X35131143Y17625385D01*
X35131143Y17625385D02*
X35202572Y17482528D01*
X35202572Y17482528D02*
X35274000Y17196814D01*
X35274000Y17196814D02*
X35274000Y16982528D01*
X35274000Y16982528D02*
X35202572Y16696814D01*
X35202572Y16696814D02*
X35131143Y16553957D01*
X35131143Y16553957D02*
X34988286Y16411100D01*
X34988286Y16411100D02*
X34774000Y16339671D01*
X34774000Y16339671D02*
X34416857Y16339671D01*
X37211143Y17768242D02*
X37068286Y17839671D01*
X37068286Y17839671D02*
X36854000Y17839671D01*
X36854000Y17839671D02*
X36639714Y17768242D01*
X36639714Y17768242D02*
X36496857Y17625385D01*
X36496857Y17625385D02*
X36425428Y17482528D01*
X36425428Y17482528D02*
X36354000Y17196814D01*
X36354000Y17196814D02*
X36354000Y16982528D01*
X36354000Y16982528D02*
X36425428Y16696814D01*
X36425428Y16696814D02*
X36496857Y16553957D01*
X36496857Y16553957D02*
X36639714Y16411100D01*
X36639714Y16411100D02*
X36854000Y16339671D01*
X36854000Y16339671D02*
X36996857Y16339671D01*
X36996857Y16339671D02*
X37211143Y16411100D01*
X37211143Y16411100D02*
X37282571Y16482528D01*
X37282571Y16482528D02*
X37282571Y16982528D01*
X37282571Y16982528D02*
X36996857Y16982528D01*
X37925428Y16339671D02*
X37925428Y17839671D01*
X37925428Y17839671D02*
X38782571Y16339671D01*
X38782571Y16339671D02*
X38782571Y17839671D01*
X39496857Y16339671D02*
X39496857Y17839671D01*
X39496857Y17839671D02*
X39854000Y17839671D01*
X39854000Y17839671D02*
X40068286Y17768242D01*
X40068286Y17768242D02*
X40211143Y17625385D01*
X40211143Y17625385D02*
X40282572Y17482528D01*
X40282572Y17482528D02*
X40354000Y17196814D01*
X40354000Y17196814D02*
X40354000Y16982528D01*
X40354000Y16982528D02*
X40282572Y16696814D01*
X40282572Y16696814D02*
X40211143Y16553957D01*
X40211143Y16553957D02*
X40068286Y16411100D01*
X40068286Y16411100D02*
X39854000Y16339671D01*
X39854000Y16339671D02*
X39496857Y16339671D01*
D11*
X22605999Y3374818D02*
X22605999Y2286247D01*
X22605999Y2286247D02*
X22533428Y2068532D01*
X22533428Y2068532D02*
X22388285Y1923390D01*
X22388285Y1923390D02*
X22170571Y1850818D01*
X22170571Y1850818D02*
X22025428Y1850818D01*
X24129999Y1850818D02*
X23259142Y1850818D01*
X23694571Y1850818D02*
X23694571Y3374818D01*
X23694571Y3374818D02*
X23549428Y3157104D01*
X23549428Y3157104D02*
X23404285Y3011961D01*
X23404285Y3011961D02*
X23259142Y2939390D01*
X17525999Y3374818D02*
X17525999Y2286247D01*
X17525999Y2286247D02*
X17453428Y2068532D01*
X17453428Y2068532D02*
X17308285Y1923390D01*
X17308285Y1923390D02*
X17090571Y1850818D01*
X17090571Y1850818D02*
X16945428Y1850818D01*
X18179142Y3229675D02*
X18251714Y3302247D01*
X18251714Y3302247D02*
X18396857Y3374818D01*
X18396857Y3374818D02*
X18759714Y3374818D01*
X18759714Y3374818D02*
X18904857Y3302247D01*
X18904857Y3302247D02*
X18977428Y3229675D01*
X18977428Y3229675D02*
X19049999Y3084532D01*
X19049999Y3084532D02*
X19049999Y2939390D01*
X19049999Y2939390D02*
X18977428Y2721675D01*
X18977428Y2721675D02*
X18106571Y1850818D01*
X18106571Y1850818D02*
X19049999Y1850818D01*
X1070181Y20356285D02*
X2158752Y20356285D01*
X2158752Y20356285D02*
X2376467Y20283714D01*
X2376467Y20283714D02*
X2521610Y20138571D01*
X2521610Y20138571D02*
X2594181Y19920857D01*
X2594181Y19920857D02*
X2594181Y19775714D01*
X2594181Y21880285D02*
X2594181Y21009428D01*
X2594181Y21444857D02*
X1070181Y21444857D01*
X1070181Y21444857D02*
X1287895Y21299714D01*
X1287895Y21299714D02*
X1433038Y21154571D01*
X1433038Y21154571D02*
X1505610Y21009428D01*
X1215324Y22460857D02*
X1142752Y22533429D01*
X1142752Y22533429D02*
X1070181Y22678572D01*
X1070181Y22678572D02*
X1070181Y23041429D01*
X1070181Y23041429D02*
X1142752Y23186572D01*
X1142752Y23186572D02*
X1215324Y23259143D01*
X1215324Y23259143D02*
X1360467Y23331714D01*
X1360467Y23331714D02*
X1505610Y23331714D01*
X1505610Y23331714D02*
X1723324Y23259143D01*
X1723324Y23259143D02*
X2594181Y22388286D01*
X2594181Y22388286D02*
X2594181Y23331714D01*
X1070181Y25309285D02*
X2158752Y25309285D01*
X2158752Y25309285D02*
X2376467Y25236714D01*
X2376467Y25236714D02*
X2521610Y25091571D01*
X2521610Y25091571D02*
X2594181Y24873857D01*
X2594181Y24873857D02*
X2594181Y24728714D01*
X2594181Y26833285D02*
X2594181Y25962428D01*
X2594181Y26397857D02*
X1070181Y26397857D01*
X1070181Y26397857D02*
X1287895Y26252714D01*
X1287895Y26252714D02*
X1433038Y26107571D01*
X1433038Y26107571D02*
X1505610Y25962428D01*
X1070181Y27341286D02*
X1070181Y28284714D01*
X1070181Y28284714D02*
X1650752Y27776714D01*
X1650752Y27776714D02*
X1650752Y27994429D01*
X1650752Y27994429D02*
X1723324Y28139572D01*
X1723324Y28139572D02*
X1795895Y28212143D01*
X1795895Y28212143D02*
X1941038Y28284714D01*
X1941038Y28284714D02*
X2303895Y28284714D01*
X2303895Y28284714D02*
X2449038Y28212143D01*
X2449038Y28212143D02*
X2521610Y28139572D01*
X2521610Y28139572D02*
X2594181Y27994429D01*
X2594181Y27994429D02*
X2594181Y27559000D01*
X2594181Y27559000D02*
X2521610Y27413857D01*
X2521610Y27413857D02*
X2449038Y27341286D01*
X47933181Y25309285D02*
X49021752Y25309285D01*
X49021752Y25309285D02*
X49239467Y25236714D01*
X49239467Y25236714D02*
X49384610Y25091571D01*
X49384610Y25091571D02*
X49457181Y24873857D01*
X49457181Y24873857D02*
X49457181Y24728714D01*
X49457181Y26833285D02*
X49457181Y25962428D01*
X49457181Y26397857D02*
X47933181Y26397857D01*
X47933181Y26397857D02*
X48150895Y26252714D01*
X48150895Y26252714D02*
X48296038Y26107571D01*
X48296038Y26107571D02*
X48368610Y25962428D01*
X48441181Y28139572D02*
X49457181Y28139572D01*
X47860610Y27776714D02*
X48949181Y27413857D01*
X48949181Y27413857D02*
X48949181Y28357286D01*
X47933181Y20356285D02*
X49021752Y20356285D01*
X49021752Y20356285D02*
X49239467Y20283714D01*
X49239467Y20283714D02*
X49384610Y20138571D01*
X49384610Y20138571D02*
X49457181Y19920857D01*
X49457181Y19920857D02*
X49457181Y19775714D01*
X49457181Y21880285D02*
X49457181Y21009428D01*
X49457181Y21444857D02*
X47933181Y21444857D01*
X47933181Y21444857D02*
X48150895Y21299714D01*
X48150895Y21299714D02*
X48296038Y21154571D01*
X48296038Y21154571D02*
X48368610Y21009428D01*
X47933181Y23259143D02*
X47933181Y22533429D01*
X47933181Y22533429D02*
X48658895Y22460857D01*
X48658895Y22460857D02*
X48586324Y22533429D01*
X48586324Y22533429D02*
X48513752Y22678572D01*
X48513752Y22678572D02*
X48513752Y23041429D01*
X48513752Y23041429D02*
X48586324Y23186572D01*
X48586324Y23186572D02*
X48658895Y23259143D01*
X48658895Y23259143D02*
X48804038Y23331714D01*
X48804038Y23331714D02*
X49166895Y23331714D01*
X49166895Y23331714D02*
X49312038Y23259143D01*
X49312038Y23259143D02*
X49384610Y23186572D01*
X49384610Y23186572D02*
X49457181Y23041429D01*
X49457181Y23041429D02*
X49457181Y22678572D01*
X49457181Y22678572D02*
X49384610Y22533429D01*
X49384610Y22533429D02*
X49312038Y22460857D01*
X11847285Y3374818D02*
X11847285Y2286247D01*
X11847285Y2286247D02*
X11774714Y2068532D01*
X11774714Y2068532D02*
X11629571Y1923390D01*
X11629571Y1923390D02*
X11411857Y1850818D01*
X11411857Y1850818D02*
X11266714Y1850818D01*
X13371285Y1850818D02*
X12500428Y1850818D01*
X12935857Y1850818D02*
X12935857Y3374818D01*
X12935857Y3374818D02*
X12790714Y3157104D01*
X12790714Y3157104D02*
X12645571Y3011961D01*
X12645571Y3011961D02*
X12500428Y2939390D01*
X14677572Y3374818D02*
X14387286Y3374818D01*
X14387286Y3374818D02*
X14242143Y3302247D01*
X14242143Y3302247D02*
X14169572Y3229675D01*
X14169572Y3229675D02*
X14024429Y3011961D01*
X14024429Y3011961D02*
X13951857Y2721675D01*
X13951857Y2721675D02*
X13951857Y2141104D01*
X13951857Y2141104D02*
X14024429Y1995961D01*
X14024429Y1995961D02*
X14097000Y1923390D01*
X14097000Y1923390D02*
X14242143Y1850818D01*
X14242143Y1850818D02*
X14532429Y1850818D01*
X14532429Y1850818D02*
X14677572Y1923390D01*
X14677572Y1923390D02*
X14750143Y1995961D01*
X14750143Y1995961D02*
X14822714Y2141104D01*
X14822714Y2141104D02*
X14822714Y2503961D01*
X14822714Y2503961D02*
X14750143Y2649104D01*
X14750143Y2649104D02*
X14677572Y2721675D01*
X14677572Y2721675D02*
X14532429Y2794247D01*
X14532429Y2794247D02*
X14242143Y2794247D01*
X14242143Y2794247D02*
X14097000Y2721675D01*
X14097000Y2721675D02*
X14024429Y2649104D01*
X14024429Y2649104D02*
X13951857Y2503961D01*
X26960285Y3374818D02*
X26960285Y2286247D01*
X26960285Y2286247D02*
X26887714Y2068532D01*
X26887714Y2068532D02*
X26742571Y1923390D01*
X26742571Y1923390D02*
X26524857Y1850818D01*
X26524857Y1850818D02*
X26379714Y1850818D01*
X28484285Y1850818D02*
X27613428Y1850818D01*
X28048857Y1850818D02*
X28048857Y3374818D01*
X28048857Y3374818D02*
X27903714Y3157104D01*
X27903714Y3157104D02*
X27758571Y3011961D01*
X27758571Y3011961D02*
X27613428Y2939390D01*
X28992286Y3374818D02*
X30008286Y3374818D01*
X30008286Y3374818D02*
X29355143Y1850818D01*
X32040285Y3374818D02*
X32040285Y2286247D01*
X32040285Y2286247D02*
X31967714Y2068532D01*
X31967714Y2068532D02*
X31822571Y1923390D01*
X31822571Y1923390D02*
X31604857Y1850818D01*
X31604857Y1850818D02*
X31459714Y1850818D01*
X33564285Y1850818D02*
X32693428Y1850818D01*
X33128857Y1850818D02*
X33128857Y3374818D01*
X33128857Y3374818D02*
X32983714Y3157104D01*
X32983714Y3157104D02*
X32838571Y3011961D01*
X32838571Y3011961D02*
X32693428Y2939390D01*
X34435143Y2721675D02*
X34290000Y2794247D01*
X34290000Y2794247D02*
X34217429Y2866818D01*
X34217429Y2866818D02*
X34144857Y3011961D01*
X34144857Y3011961D02*
X34144857Y3084532D01*
X34144857Y3084532D02*
X34217429Y3229675D01*
X34217429Y3229675D02*
X34290000Y3302247D01*
X34290000Y3302247D02*
X34435143Y3374818D01*
X34435143Y3374818D02*
X34725429Y3374818D01*
X34725429Y3374818D02*
X34870572Y3302247D01*
X34870572Y3302247D02*
X34943143Y3229675D01*
X34943143Y3229675D02*
X35015714Y3084532D01*
X35015714Y3084532D02*
X35015714Y3011961D01*
X35015714Y3011961D02*
X34943143Y2866818D01*
X34943143Y2866818D02*
X34870572Y2794247D01*
X34870572Y2794247D02*
X34725429Y2721675D01*
X34725429Y2721675D02*
X34435143Y2721675D01*
X34435143Y2721675D02*
X34290000Y2649104D01*
X34290000Y2649104D02*
X34217429Y2576532D01*
X34217429Y2576532D02*
X34144857Y2431390D01*
X34144857Y2431390D02*
X34144857Y2141104D01*
X34144857Y2141104D02*
X34217429Y1995961D01*
X34217429Y1995961D02*
X34290000Y1923390D01*
X34290000Y1923390D02*
X34435143Y1850818D01*
X34435143Y1850818D02*
X34725429Y1850818D01*
X34725429Y1850818D02*
X34870572Y1923390D01*
X34870572Y1923390D02*
X34943143Y1995961D01*
X34943143Y1995961D02*
X35015714Y2141104D01*
X35015714Y2141104D02*
X35015714Y2431390D01*
X35015714Y2431390D02*
X34943143Y2576532D01*
X34943143Y2576532D02*
X34870572Y2649104D01*
X34870572Y2649104D02*
X34725429Y2721675D01*
X37120285Y3374818D02*
X37120285Y2286247D01*
X37120285Y2286247D02*
X37047714Y2068532D01*
X37047714Y2068532D02*
X36902571Y1923390D01*
X36902571Y1923390D02*
X36684857Y1850818D01*
X36684857Y1850818D02*
X36539714Y1850818D01*
X38644285Y1850818D02*
X37773428Y1850818D01*
X38208857Y1850818D02*
X38208857Y3374818D01*
X38208857Y3374818D02*
X38063714Y3157104D01*
X38063714Y3157104D02*
X37918571Y3011961D01*
X37918571Y3011961D02*
X37773428Y2939390D01*
X39370000Y1850818D02*
X39660286Y1850818D01*
X39660286Y1850818D02*
X39805429Y1923390D01*
X39805429Y1923390D02*
X39878000Y1995961D01*
X39878000Y1995961D02*
X40023143Y2213675D01*
X40023143Y2213675D02*
X40095714Y2503961D01*
X40095714Y2503961D02*
X40095714Y3084532D01*
X40095714Y3084532D02*
X40023143Y3229675D01*
X40023143Y3229675D02*
X39950572Y3302247D01*
X39950572Y3302247D02*
X39805429Y3374818D01*
X39805429Y3374818D02*
X39515143Y3374818D01*
X39515143Y3374818D02*
X39370000Y3302247D01*
X39370000Y3302247D02*
X39297429Y3229675D01*
X39297429Y3229675D02*
X39224857Y3084532D01*
X39224857Y3084532D02*
X39224857Y2721675D01*
X39224857Y2721675D02*
X39297429Y2576532D01*
X39297429Y2576532D02*
X39370000Y2503961D01*
X39370000Y2503961D02*
X39515143Y2431390D01*
X39515143Y2431390D02*
X39805429Y2431390D01*
X39805429Y2431390D02*
X39950572Y2503961D01*
X39950572Y2503961D02*
X40023143Y2576532D01*
X40023143Y2576532D02*
X40095714Y2721675D01*
D12*
%TO.C,J3*%
X29464000Y33147000D02*
X29464000Y38227000D01*
X32004000Y33147000D02*
X29464000Y33147000D01*
X29464000Y38227000D02*
X32004000Y38227000D01*
X32004000Y38227000D02*
X32004000Y33147000D01*
%TO.C,J4*%
X16764000Y33147000D02*
X16764000Y38227000D01*
X19304000Y33147000D02*
X16764000Y33147000D01*
X16764000Y38227000D02*
X19304000Y38227000D01*
X19304000Y38227000D02*
X19304000Y33147000D01*
%TO.C,J5*%
X21844000Y33147000D02*
X21844000Y38227000D01*
X24384000Y33147000D02*
X21844000Y33147000D01*
X21844000Y38227000D02*
X24384000Y38227000D01*
X24384000Y38227000D02*
X24384000Y33147000D01*
%TO.C,J6*%
X34544000Y33147000D02*
X34544000Y38227000D01*
X37084000Y33147000D02*
X34544000Y33147000D01*
X34544000Y38227000D02*
X37084000Y38227000D01*
X37084000Y38227000D02*
X37084000Y33147000D01*
%TO.C,J7*%
X26924000Y33147000D02*
X26924000Y38227000D01*
X29464000Y33147000D02*
X26924000Y33147000D01*
X26924000Y38227000D02*
X29464000Y38227000D01*
X29464000Y38227000D02*
X29464000Y33147000D01*
%TO.C,J8*%
X32004000Y33147000D02*
X32004000Y38227000D01*
X34544000Y33147000D02*
X32004000Y33147000D01*
X32004000Y38227000D02*
X34544000Y38227000D01*
X34544000Y38227000D02*
X34544000Y33147000D01*
%TO.C,J9*%
X24384000Y33147000D02*
X24384000Y38227000D01*
X26924000Y33147000D02*
X24384000Y33147000D01*
X24384000Y38227000D02*
X26924000Y38227000D01*
X26924000Y38227000D02*
X26924000Y33147000D01*
%TO.C,J10*%
X14097000Y33147000D02*
X14097000Y38227000D01*
X16637000Y33147000D02*
X14097000Y33147000D01*
X14097000Y38227000D02*
X16637000Y38227000D01*
X16637000Y38227000D02*
X16637000Y33147000D01*
%TO.C,J11*%
X19304000Y33147000D02*
X19304000Y38227000D01*
X21844000Y33147000D02*
X19304000Y33147000D01*
X19304000Y38227000D02*
X21844000Y38227000D01*
X21844000Y38227000D02*
X21844000Y33147000D01*
%TO.C,J20*%
X1905000Y10160000D02*
X1905000Y15240000D01*
X4445000Y10160000D02*
X1905000Y10160000D01*
X1905000Y15240000D02*
X4445000Y15240000D01*
X4445000Y15240000D02*
X4445000Y10160000D01*
%TO.C,J1*%
X20614000Y922000D02*
X20614000Y9922000D01*
X25614100Y922000D02*
X20613900Y922000D01*
X21114000Y1421900D02*
X21114000Y9421900D01*
X25114000Y1421900D02*
X21114000Y1421900D01*
X25114000Y1421900D02*
X25114000Y9421900D01*
X21114000Y9421900D02*
X25114000Y9421900D01*
X22114000Y9421900D02*
X22114000Y9922000D01*
X24114000Y9421900D02*
X24114000Y9922000D01*
X20614000Y9922000D02*
X20614000Y15922000D01*
X25614000Y9922000D02*
X25614000Y922000D01*
X25614000Y9922000D02*
X25614000Y15922000D01*
X25614100Y9922000D02*
X20613900Y9922000D01*
X21614000Y11922000D02*
X21614000Y14922000D01*
X24614000Y11922000D02*
X24614000Y14922000D01*
X24614100Y11922000D02*
X21613900Y11922000D01*
X21114000Y14922000D02*
X25114000Y14922000D01*
X21114000Y14922000D02*
X21114000Y15922000D01*
X25114000Y14922000D02*
X25114000Y15922000D01*
X21114000Y15922000D02*
X20614000Y15922000D01*
X25614000Y15922000D02*
X25114000Y15922000D01*
%TO.C,J2*%
X15534000Y922000D02*
X15534000Y9922000D01*
X20534100Y922000D02*
X15533900Y922000D01*
X16034000Y1421900D02*
X16034000Y9421900D01*
X20034000Y1421900D02*
X16034000Y1421900D01*
X20034000Y1421900D02*
X20034000Y9421900D01*
X16034000Y9421900D02*
X20034000Y9421900D01*
X17034000Y9421900D02*
X17034000Y9922000D01*
X19034000Y9421900D02*
X19034000Y9922000D01*
X15534000Y9922000D02*
X15534000Y15922000D01*
X20534000Y9922000D02*
X20534000Y922000D01*
X20534000Y9922000D02*
X20534000Y15922000D01*
X20534100Y9922000D02*
X15533900Y9922000D01*
X16534000Y11922000D02*
X16534000Y14922000D01*
X19534000Y11922000D02*
X19534000Y14922000D01*
X19534100Y11922000D02*
X16533900Y11922000D01*
X16034000Y14922000D02*
X20034000Y14922000D01*
X16034000Y14922000D02*
X16034000Y15922000D01*
X20034000Y14922000D02*
X20034000Y15922000D01*
X16034000Y15922000D02*
X15534000Y15922000D01*
X20534000Y15922000D02*
X20034000Y15922000D01*
%TO.C,J12*%
X287000Y24090000D02*
X9287000Y24090000D01*
X287000Y19089900D02*
X287000Y24090100D01*
X786900Y23590000D02*
X8786900Y23590000D01*
X786900Y19590000D02*
X786900Y23590000D01*
X786900Y19590000D02*
X8786900Y19590000D01*
X8786900Y23590000D02*
X8786900Y19590000D01*
X8786900Y22590000D02*
X9287000Y22590000D01*
X8786900Y20590000D02*
X9287000Y20590000D01*
X9287000Y24090000D02*
X15287000Y24090000D01*
X9287000Y19090000D02*
X287000Y19090000D01*
X9287000Y19090000D02*
X15287000Y19090000D01*
X9287000Y19089900D02*
X9287000Y24090100D01*
X11287000Y23090000D02*
X14287000Y23090000D01*
X11287000Y20090000D02*
X14287000Y20090000D01*
X11287000Y20089900D02*
X11287000Y23090100D01*
X14287000Y23590000D02*
X14287000Y19590000D01*
X14287000Y23590000D02*
X15287000Y23590000D01*
X14287000Y19590000D02*
X15287000Y19590000D01*
X15287000Y23590000D02*
X15287000Y24090000D01*
X15287000Y19090000D02*
X15287000Y19590000D01*
%TO.C,J13*%
X287000Y29043000D02*
X9287000Y29043000D01*
X287000Y24042900D02*
X287000Y29043100D01*
X786900Y28543000D02*
X8786900Y28543000D01*
X786900Y24543000D02*
X786900Y28543000D01*
X786900Y24543000D02*
X8786900Y24543000D01*
X8786900Y28543000D02*
X8786900Y24543000D01*
X8786900Y27543000D02*
X9287000Y27543000D01*
X8786900Y25543000D02*
X9287000Y25543000D01*
X9287000Y29043000D02*
X15287000Y29043000D01*
X9287000Y24043000D02*
X287000Y24043000D01*
X9287000Y24043000D02*
X15287000Y24043000D01*
X9287000Y24042900D02*
X9287000Y29043100D01*
X11287000Y28043000D02*
X14287000Y28043000D01*
X11287000Y25043000D02*
X14287000Y25043000D01*
X11287000Y25042900D02*
X11287000Y28043100D01*
X14287000Y28543000D02*
X14287000Y24543000D01*
X14287000Y28543000D02*
X15287000Y28543000D01*
X14287000Y24543000D02*
X15287000Y24543000D01*
X15287000Y28543000D02*
X15287000Y29043000D01*
X15287000Y24043000D02*
X15287000Y24543000D01*
%TO.C,J14*%
X50386000Y24043000D02*
X41386000Y24043000D01*
X50386000Y29043100D02*
X50386000Y24042900D01*
X49886100Y24543000D02*
X41886100Y24543000D01*
X49886100Y28543000D02*
X49886100Y24543000D01*
X49886100Y28543000D02*
X41886100Y28543000D01*
X41886100Y24543000D02*
X41886100Y28543000D01*
X41886100Y25543000D02*
X41386000Y25543000D01*
X41886100Y27543000D02*
X41386000Y27543000D01*
X41386000Y24043000D02*
X35386000Y24043000D01*
X41386000Y29043000D02*
X50386000Y29043000D01*
X41386000Y29043000D02*
X35386000Y29043000D01*
X41386000Y29043100D02*
X41386000Y24042900D01*
X39386000Y25043000D02*
X36386000Y25043000D01*
X39386000Y28043000D02*
X36386000Y28043000D01*
X39386000Y28043100D02*
X39386000Y25042900D01*
X36386000Y24543000D02*
X36386000Y28543000D01*
X36386000Y24543000D02*
X35386000Y24543000D01*
X36386000Y28543000D02*
X35386000Y28543000D01*
X35386000Y24543000D02*
X35386000Y24043000D01*
X35386000Y29043000D02*
X35386000Y28543000D01*
%TO.C,J15*%
X50386000Y19090000D02*
X41386000Y19090000D01*
X50386000Y24090100D02*
X50386000Y19089900D01*
X49886100Y19590000D02*
X41886100Y19590000D01*
X49886100Y23590000D02*
X49886100Y19590000D01*
X49886100Y23590000D02*
X41886100Y23590000D01*
X41886100Y19590000D02*
X41886100Y23590000D01*
X41886100Y20590000D02*
X41386000Y20590000D01*
X41886100Y22590000D02*
X41386000Y22590000D01*
X41386000Y19090000D02*
X35386000Y19090000D01*
X41386000Y24090000D02*
X50386000Y24090000D01*
X41386000Y24090000D02*
X35386000Y24090000D01*
X41386000Y24090100D02*
X41386000Y19089900D01*
X39386000Y20090000D02*
X36386000Y20090000D01*
X39386000Y23090000D02*
X36386000Y23090000D01*
X39386000Y23090100D02*
X39386000Y20089900D01*
X36386000Y19590000D02*
X36386000Y23590000D01*
X36386000Y19590000D02*
X35386000Y19590000D01*
X36386000Y23590000D02*
X35386000Y23590000D01*
X35386000Y19590000D02*
X35386000Y19090000D01*
X35386000Y24090000D02*
X35386000Y23590000D01*
%TO.C,J16*%
X10581000Y922000D02*
X10581000Y9922000D01*
X15581100Y922000D02*
X10580900Y922000D01*
X11081000Y1421900D02*
X11081000Y9421900D01*
X15081000Y1421900D02*
X11081000Y1421900D01*
X15081000Y1421900D02*
X15081000Y9421900D01*
X11081000Y9421900D02*
X15081000Y9421900D01*
X12081000Y9421900D02*
X12081000Y9922000D01*
X14081000Y9421900D02*
X14081000Y9922000D01*
X10581000Y9922000D02*
X10581000Y15922000D01*
X15581000Y9922000D02*
X15581000Y922000D01*
X15581000Y9922000D02*
X15581000Y15922000D01*
X15581100Y9922000D02*
X10580900Y9922000D01*
X11581000Y11922000D02*
X11581000Y14922000D01*
X14581000Y11922000D02*
X14581000Y14922000D01*
X14581100Y11922000D02*
X11580900Y11922000D01*
X11081000Y14922000D02*
X15081000Y14922000D01*
X11081000Y14922000D02*
X11081000Y15922000D01*
X15081000Y14922000D02*
X15081000Y15922000D01*
X11081000Y15922000D02*
X10581000Y15922000D01*
X15581000Y15922000D02*
X15081000Y15922000D01*
%TO.C,J17*%
X25694000Y922000D02*
X25694000Y9922000D01*
X30694100Y922000D02*
X25693900Y922000D01*
X26194000Y1421900D02*
X26194000Y9421900D01*
X30194000Y1421900D02*
X26194000Y1421900D01*
X30194000Y1421900D02*
X30194000Y9421900D01*
X26194000Y9421900D02*
X30194000Y9421900D01*
X27194000Y9421900D02*
X27194000Y9922000D01*
X29194000Y9421900D02*
X29194000Y9922000D01*
X25694000Y9922000D02*
X25694000Y15922000D01*
X30694000Y9922000D02*
X30694000Y922000D01*
X30694000Y9922000D02*
X30694000Y15922000D01*
X30694100Y9922000D02*
X25693900Y9922000D01*
X26694000Y11922000D02*
X26694000Y14922000D01*
X29694000Y11922000D02*
X29694000Y14922000D01*
X29694100Y11922000D02*
X26693900Y11922000D01*
X26194000Y14922000D02*
X30194000Y14922000D01*
X26194000Y14922000D02*
X26194000Y15922000D01*
X30194000Y14922000D02*
X30194000Y15922000D01*
X26194000Y15922000D02*
X25694000Y15922000D01*
X30694000Y15922000D02*
X30194000Y15922000D01*
%TO.C,J18*%
X30774000Y922000D02*
X30774000Y9922000D01*
X35774100Y922000D02*
X30773900Y922000D01*
X31274000Y1421900D02*
X31274000Y9421900D01*
X35274000Y1421900D02*
X31274000Y1421900D01*
X35274000Y1421900D02*
X35274000Y9421900D01*
X31274000Y9421900D02*
X35274000Y9421900D01*
X32274000Y9421900D02*
X32274000Y9922000D01*
X34274000Y9421900D02*
X34274000Y9922000D01*
X30774000Y9922000D02*
X30774000Y15922000D01*
X35774000Y9922000D02*
X35774000Y922000D01*
X35774000Y9922000D02*
X35774000Y15922000D01*
X35774100Y9922000D02*
X30773900Y9922000D01*
X31774000Y11922000D02*
X31774000Y14922000D01*
X34774000Y11922000D02*
X34774000Y14922000D01*
X34774100Y11922000D02*
X31773900Y11922000D01*
X31274000Y14922000D02*
X35274000Y14922000D01*
X31274000Y14922000D02*
X31274000Y15922000D01*
X35274000Y14922000D02*
X35274000Y15922000D01*
X31274000Y15922000D02*
X30774000Y15922000D01*
X35774000Y15922000D02*
X35274000Y15922000D01*
%TO.C,J19*%
X35854000Y922000D02*
X35854000Y9922000D01*
X40854100Y922000D02*
X35853900Y922000D01*
X36354000Y1421900D02*
X36354000Y9421900D01*
X40354000Y1421900D02*
X36354000Y1421900D01*
X40354000Y1421900D02*
X40354000Y9421900D01*
X36354000Y9421900D02*
X40354000Y9421900D01*
X37354000Y9421900D02*
X37354000Y9922000D01*
X39354000Y9421900D02*
X39354000Y9922000D01*
X35854000Y9922000D02*
X35854000Y15922000D01*
X40854000Y9922000D02*
X40854000Y922000D01*
X40854000Y9922000D02*
X40854000Y15922000D01*
X40854100Y9922000D02*
X35853900Y9922000D01*
X36854000Y11922000D02*
X36854000Y14922000D01*
X39854000Y11922000D02*
X39854000Y14922000D01*
X39854100Y11922000D02*
X36853900Y11922000D01*
X36354000Y14922000D02*
X40354000Y14922000D01*
X36354000Y14922000D02*
X36354000Y15922000D01*
X40354000Y14922000D02*
X40354000Y15922000D01*
X36354000Y15922000D02*
X35854000Y15922000D01*
X40854000Y15922000D02*
X40354000Y15922000D01*
%TD*%
D13*
%TO.C,J3*%
X30734000Y34417000D03*
X30734000Y36957000D03*
%TD*%
%TO.C,J4*%
X18034000Y34417000D03*
X18034000Y36957000D03*
%TD*%
%TO.C,J5*%
X23114000Y34417000D03*
X23114000Y36957000D03*
%TD*%
%TO.C,J6*%
X35814000Y34417000D03*
X35814000Y36957000D03*
%TD*%
%TO.C,J7*%
X28194000Y34417000D03*
X28194000Y36957000D03*
%TD*%
%TO.C,J8*%
X33274000Y34417000D03*
X33274000Y36957000D03*
%TD*%
%TO.C,J9*%
X25654000Y34417000D03*
X25654000Y36957000D03*
%TD*%
%TO.C,J10*%
X15367000Y34417000D03*
X15367000Y36957000D03*
%TD*%
%TO.C,J11*%
X20574000Y34417000D03*
X20574000Y36957000D03*
%TD*%
%TO.C,J20*%
X3175000Y11430000D03*
X3175000Y13970000D03*
%TD*%
D14*
%TO.C,J1*%
X23114000Y5922000D03*
X23114000Y10922000D03*
%TD*%
%TO.C,J2*%
X18034000Y5922000D03*
X18034000Y10922000D03*
%TD*%
%TO.C,J12*%
X5287000Y21590000D03*
X10287000Y21590000D03*
%TD*%
%TO.C,J13*%
X5287000Y26543000D03*
X10287000Y26543000D03*
%TD*%
%TO.C,J14*%
X45386000Y26543000D03*
X40386000Y26543000D03*
%TD*%
%TO.C,J15*%
X45386000Y21590000D03*
X40386000Y21590000D03*
%TD*%
%TO.C,J16*%
X13081000Y5922000D03*
X13081000Y10922000D03*
%TD*%
%TO.C,J17*%
X28194000Y5922000D03*
X28194000Y10922000D03*
%TD*%
%TO.C,J18*%
X33274000Y5922000D03*
X33274000Y10922000D03*
%TD*%
%TO.C,J19*%
X38354000Y5922000D03*
X38354000Y10922000D03*
%TD*%
M02*
