%TF.GenerationSoftware,KiCad,Pcbnew,7.0.11+1*%
%TF.CreationDate,2024-05-31T01:00:11+00:00*%
%TF.ProjectId,DIG4SWHI01,44494734-5357-4484-9930-312e6b696361,rev?*%
%TF.SameCoordinates,Original*%
%TF.FileFunction,Legend,Bot*%
%TF.FilePolarity,Positive*%
%FSLAX46Y46*%
G04 Gerber Fmt 4.6, Leading zero omitted, Abs format (unit mm)*
G04 Created by KiCad (PCBNEW 7.0.11+1) date 2024-05-31 01:00:11*
%MOMM*%
%LPD*%
G01*
G04 APERTURE LIST*
%ADD10C,0.304800*%
%ADD11C,0.109220*%
%ADD12C,0.099060*%
%ADD13C,0.150000*%
G04 APERTURE END LIST*
D10*
X19799299Y16435861D02*
X19871871Y16363290D01*
X19871871Y16363290D02*
X20089585Y16290718D01*
X20089585Y16290718D02*
X20234728Y16290718D01*
X20234728Y16290718D02*
X20452442Y16363290D01*
X20452442Y16363290D02*
X20597585Y16508432D01*
X20597585Y16508432D02*
X20670156Y16653575D01*
X20670156Y16653575D02*
X20742728Y16943861D01*
X20742728Y16943861D02*
X20742728Y17161575D01*
X20742728Y17161575D02*
X20670156Y17451861D01*
X20670156Y17451861D02*
X20597585Y17597004D01*
X20597585Y17597004D02*
X20452442Y17742147D01*
X20452442Y17742147D02*
X20234728Y17814718D01*
X20234728Y17814718D02*
X20089585Y17814718D01*
X20089585Y17814718D02*
X19871871Y17742147D01*
X19871871Y17742147D02*
X19799299Y17669575D01*
X18347871Y16290718D02*
X19218728Y16290718D01*
X18783299Y16290718D02*
X18783299Y17814718D01*
X18783299Y17814718D02*
X18928442Y17597004D01*
X18928442Y17597004D02*
X19073585Y17451861D01*
X19073585Y17451861D02*
X19218728Y17379290D01*
X25137290Y19459550D02*
X23976148Y19459550D01*
X24556719Y18878978D02*
X24556719Y20040121D01*
D11*
X26880396Y19697349D02*
X26904224Y19673522D01*
X26904224Y19673522D02*
X26975706Y19649694D01*
X26975706Y19649694D02*
X27023362Y19649694D01*
X27023362Y19649694D02*
X27094845Y19673522D01*
X27094845Y19673522D02*
X27142500Y19721177D01*
X27142500Y19721177D02*
X27166327Y19768832D01*
X27166327Y19768832D02*
X27190155Y19864142D01*
X27190155Y19864142D02*
X27190155Y19935625D01*
X27190155Y19935625D02*
X27166327Y20030936D01*
X27166327Y20030936D02*
X27142500Y20078591D01*
X27142500Y20078591D02*
X27094845Y20126246D01*
X27094845Y20126246D02*
X27023362Y20150074D01*
X27023362Y20150074D02*
X26975706Y20150074D01*
X26975706Y20150074D02*
X26904224Y20126246D01*
X26904224Y20126246D02*
X26880396Y20102419D01*
X26689775Y20102419D02*
X26665947Y20126246D01*
X26665947Y20126246D02*
X26618292Y20150074D01*
X26618292Y20150074D02*
X26499154Y20150074D01*
X26499154Y20150074D02*
X26451499Y20126246D01*
X26451499Y20126246D02*
X26427671Y20102419D01*
X26427671Y20102419D02*
X26403844Y20054763D01*
X26403844Y20054763D02*
X26403844Y20007108D01*
X26403844Y20007108D02*
X26427671Y19935625D01*
X26427671Y19935625D02*
X26713603Y19649694D01*
X26713603Y19649694D02*
X26403844Y19649694D01*
X27698397Y20348194D02*
X27984328Y20348194D01*
X27841362Y20348194D02*
X27841362Y20848574D01*
X27841362Y20848574D02*
X27889018Y20777091D01*
X27889018Y20777091D02*
X27936673Y20729436D01*
X27936673Y20729436D02*
X27984328Y20705608D01*
X27388638Y20848574D02*
X27340983Y20848574D01*
X27340983Y20848574D02*
X27293327Y20824746D01*
X27293327Y20824746D02*
X27269500Y20800919D01*
X27269500Y20800919D02*
X27245672Y20753263D01*
X27245672Y20753263D02*
X27221845Y20657953D01*
X27221845Y20657953D02*
X27221845Y20538815D01*
X27221845Y20538815D02*
X27245672Y20443504D01*
X27245672Y20443504D02*
X27269500Y20395849D01*
X27269500Y20395849D02*
X27293327Y20372022D01*
X27293327Y20372022D02*
X27340983Y20348194D01*
X27340983Y20348194D02*
X27388638Y20348194D01*
X27388638Y20348194D02*
X27436293Y20372022D01*
X27436293Y20372022D02*
X27460121Y20395849D01*
X27460121Y20395849D02*
X27483948Y20443504D01*
X27483948Y20443504D02*
X27507776Y20538815D01*
X27507776Y20538815D02*
X27507776Y20657953D01*
X27507776Y20657953D02*
X27483948Y20753263D01*
X27483948Y20753263D02*
X27460121Y20800919D01*
X27460121Y20800919D02*
X27436293Y20824746D01*
X27436293Y20824746D02*
X27388638Y20848574D01*
X26912086Y20848574D02*
X26864431Y20848574D01*
X26864431Y20848574D02*
X26816775Y20824746D01*
X26816775Y20824746D02*
X26792948Y20800919D01*
X26792948Y20800919D02*
X26769120Y20753263D01*
X26769120Y20753263D02*
X26745293Y20657953D01*
X26745293Y20657953D02*
X26745293Y20538815D01*
X26745293Y20538815D02*
X26769120Y20443504D01*
X26769120Y20443504D02*
X26792948Y20395849D01*
X26792948Y20395849D02*
X26816775Y20372022D01*
X26816775Y20372022D02*
X26864431Y20348194D01*
X26864431Y20348194D02*
X26912086Y20348194D01*
X26912086Y20348194D02*
X26959741Y20372022D01*
X26959741Y20372022D02*
X26983569Y20395849D01*
X26983569Y20395849D02*
X27007396Y20443504D01*
X27007396Y20443504D02*
X27031224Y20538815D01*
X27031224Y20538815D02*
X27031224Y20657953D01*
X27031224Y20657953D02*
X27007396Y20753263D01*
X27007396Y20753263D02*
X26983569Y20800919D01*
X26983569Y20800919D02*
X26959741Y20824746D01*
X26959741Y20824746D02*
X26912086Y20848574D01*
X26530844Y20681781D02*
X26530844Y20348194D01*
X26530844Y20634125D02*
X26507017Y20657953D01*
X26507017Y20657953D02*
X26459362Y20681781D01*
X26459362Y20681781D02*
X26387879Y20681781D01*
X26387879Y20681781D02*
X26340223Y20657953D01*
X26340223Y20657953D02*
X26316396Y20610298D01*
X26316396Y20610298D02*
X26316396Y20348194D01*
X25911326Y20610298D02*
X26078119Y20610298D01*
X26078119Y20348194D02*
X26078119Y20848574D01*
X26078119Y20848574D02*
X25839843Y20848574D01*
X39516896Y37477349D02*
X39540724Y37453522D01*
X39540724Y37453522D02*
X39612206Y37429694D01*
X39612206Y37429694D02*
X39659862Y37429694D01*
X39659862Y37429694D02*
X39731345Y37453522D01*
X39731345Y37453522D02*
X39779000Y37501177D01*
X39779000Y37501177D02*
X39802827Y37548832D01*
X39802827Y37548832D02*
X39826655Y37644142D01*
X39826655Y37644142D02*
X39826655Y37715625D01*
X39826655Y37715625D02*
X39802827Y37810936D01*
X39802827Y37810936D02*
X39779000Y37858591D01*
X39779000Y37858591D02*
X39731345Y37906246D01*
X39731345Y37906246D02*
X39659862Y37930074D01*
X39659862Y37930074D02*
X39612206Y37930074D01*
X39612206Y37930074D02*
X39540724Y37906246D01*
X39540724Y37906246D02*
X39516896Y37882419D01*
X39350103Y37930074D02*
X39040344Y37930074D01*
X39040344Y37930074D02*
X39207137Y37739453D01*
X39207137Y37739453D02*
X39135654Y37739453D01*
X39135654Y37739453D02*
X39087999Y37715625D01*
X39087999Y37715625D02*
X39064171Y37691798D01*
X39064171Y37691798D02*
X39040344Y37644142D01*
X39040344Y37644142D02*
X39040344Y37525004D01*
X39040344Y37525004D02*
X39064171Y37477349D01*
X39064171Y37477349D02*
X39087999Y37453522D01*
X39087999Y37453522D02*
X39135654Y37429694D01*
X39135654Y37429694D02*
X39278620Y37429694D01*
X39278620Y37429694D02*
X39326275Y37453522D01*
X39326275Y37453522D02*
X39350103Y37477349D01*
X40334897Y38128194D02*
X40620828Y38128194D01*
X40477862Y38128194D02*
X40477862Y38628574D01*
X40477862Y38628574D02*
X40525518Y38557091D01*
X40525518Y38557091D02*
X40573173Y38509436D01*
X40573173Y38509436D02*
X40620828Y38485608D01*
X40025138Y38628574D02*
X39977483Y38628574D01*
X39977483Y38628574D02*
X39929827Y38604746D01*
X39929827Y38604746D02*
X39906000Y38580919D01*
X39906000Y38580919D02*
X39882172Y38533263D01*
X39882172Y38533263D02*
X39858345Y38437953D01*
X39858345Y38437953D02*
X39858345Y38318815D01*
X39858345Y38318815D02*
X39882172Y38223504D01*
X39882172Y38223504D02*
X39906000Y38175849D01*
X39906000Y38175849D02*
X39929827Y38152022D01*
X39929827Y38152022D02*
X39977483Y38128194D01*
X39977483Y38128194D02*
X40025138Y38128194D01*
X40025138Y38128194D02*
X40072793Y38152022D01*
X40072793Y38152022D02*
X40096621Y38175849D01*
X40096621Y38175849D02*
X40120448Y38223504D01*
X40120448Y38223504D02*
X40144276Y38318815D01*
X40144276Y38318815D02*
X40144276Y38437953D01*
X40144276Y38437953D02*
X40120448Y38533263D01*
X40120448Y38533263D02*
X40096621Y38580919D01*
X40096621Y38580919D02*
X40072793Y38604746D01*
X40072793Y38604746D02*
X40025138Y38628574D01*
X39548586Y38628574D02*
X39500931Y38628574D01*
X39500931Y38628574D02*
X39453275Y38604746D01*
X39453275Y38604746D02*
X39429448Y38580919D01*
X39429448Y38580919D02*
X39405620Y38533263D01*
X39405620Y38533263D02*
X39381793Y38437953D01*
X39381793Y38437953D02*
X39381793Y38318815D01*
X39381793Y38318815D02*
X39405620Y38223504D01*
X39405620Y38223504D02*
X39429448Y38175849D01*
X39429448Y38175849D02*
X39453275Y38152022D01*
X39453275Y38152022D02*
X39500931Y38128194D01*
X39500931Y38128194D02*
X39548586Y38128194D01*
X39548586Y38128194D02*
X39596241Y38152022D01*
X39596241Y38152022D02*
X39620069Y38175849D01*
X39620069Y38175849D02*
X39643896Y38223504D01*
X39643896Y38223504D02*
X39667724Y38318815D01*
X39667724Y38318815D02*
X39667724Y38437953D01*
X39667724Y38437953D02*
X39643896Y38533263D01*
X39643896Y38533263D02*
X39620069Y38580919D01*
X39620069Y38580919D02*
X39596241Y38604746D01*
X39596241Y38604746D02*
X39548586Y38628574D01*
X39167344Y38461781D02*
X39167344Y37961401D01*
X39167344Y38437953D02*
X39119689Y38461781D01*
X39119689Y38461781D02*
X39024379Y38461781D01*
X39024379Y38461781D02*
X38976723Y38437953D01*
X38976723Y38437953D02*
X38952896Y38414125D01*
X38952896Y38414125D02*
X38929068Y38366470D01*
X38929068Y38366470D02*
X38929068Y38223504D01*
X38929068Y38223504D02*
X38952896Y38175849D01*
X38952896Y38175849D02*
X38976723Y38152022D01*
X38976723Y38152022D02*
X39024379Y38128194D01*
X39024379Y38128194D02*
X39119689Y38128194D01*
X39119689Y38128194D02*
X39167344Y38152022D01*
X38547826Y38390298D02*
X38714619Y38390298D01*
X38714619Y38128194D02*
X38714619Y38628574D01*
X38714619Y38628574D02*
X38476343Y38628574D01*
X3956896Y17284349D02*
X3980724Y17260522D01*
X3980724Y17260522D02*
X4052206Y17236694D01*
X4052206Y17236694D02*
X4099862Y17236694D01*
X4099862Y17236694D02*
X4171345Y17260522D01*
X4171345Y17260522D02*
X4219000Y17308177D01*
X4219000Y17308177D02*
X4242827Y17355832D01*
X4242827Y17355832D02*
X4266655Y17451142D01*
X4266655Y17451142D02*
X4266655Y17522625D01*
X4266655Y17522625D02*
X4242827Y17617936D01*
X4242827Y17617936D02*
X4219000Y17665591D01*
X4219000Y17665591D02*
X4171345Y17713246D01*
X4171345Y17713246D02*
X4099862Y17737074D01*
X4099862Y17737074D02*
X4052206Y17737074D01*
X4052206Y17737074D02*
X3980724Y17713246D01*
X3980724Y17713246D02*
X3956896Y17689419D01*
X3527999Y17570281D02*
X3527999Y17236694D01*
X3647137Y17760902D02*
X3766275Y17403487D01*
X3766275Y17403487D02*
X3456516Y17403487D01*
X4282621Y16538194D02*
X4568552Y16538194D01*
X4425586Y16538194D02*
X4425586Y17038574D01*
X4425586Y17038574D02*
X4473242Y16967091D01*
X4473242Y16967091D02*
X4520897Y16919436D01*
X4520897Y16919436D02*
X4568552Y16895608D01*
X3972862Y17038574D02*
X3925207Y17038574D01*
X3925207Y17038574D02*
X3877551Y17014746D01*
X3877551Y17014746D02*
X3853724Y16990919D01*
X3853724Y16990919D02*
X3829896Y16943263D01*
X3829896Y16943263D02*
X3806069Y16847953D01*
X3806069Y16847953D02*
X3806069Y16728815D01*
X3806069Y16728815D02*
X3829896Y16633504D01*
X3829896Y16633504D02*
X3853724Y16585849D01*
X3853724Y16585849D02*
X3877551Y16562022D01*
X3877551Y16562022D02*
X3925207Y16538194D01*
X3925207Y16538194D02*
X3972862Y16538194D01*
X3972862Y16538194D02*
X4020517Y16562022D01*
X4020517Y16562022D02*
X4044345Y16585849D01*
X4044345Y16585849D02*
X4068172Y16633504D01*
X4068172Y16633504D02*
X4092000Y16728815D01*
X4092000Y16728815D02*
X4092000Y16847953D01*
X4092000Y16847953D02*
X4068172Y16943263D01*
X4068172Y16943263D02*
X4044345Y16990919D01*
X4044345Y16990919D02*
X4020517Y17014746D01*
X4020517Y17014746D02*
X3972862Y17038574D01*
X3591620Y16871781D02*
X3591620Y16538194D01*
X3591620Y16824125D02*
X3567793Y16847953D01*
X3567793Y16847953D02*
X3520138Y16871781D01*
X3520138Y16871781D02*
X3448655Y16871781D01*
X3448655Y16871781D02*
X3400999Y16847953D01*
X3400999Y16847953D02*
X3377172Y16800298D01*
X3377172Y16800298D02*
X3377172Y16538194D01*
X2972102Y16800298D02*
X3138895Y16800298D01*
X3138895Y16538194D02*
X3138895Y17038574D01*
X3138895Y17038574D02*
X2900619Y17038574D01*
X3448896Y30365349D02*
X3472724Y30341522D01*
X3472724Y30341522D02*
X3544206Y30317694D01*
X3544206Y30317694D02*
X3591862Y30317694D01*
X3591862Y30317694D02*
X3663345Y30341522D01*
X3663345Y30341522D02*
X3711000Y30389177D01*
X3711000Y30389177D02*
X3734827Y30436832D01*
X3734827Y30436832D02*
X3758655Y30532142D01*
X3758655Y30532142D02*
X3758655Y30603625D01*
X3758655Y30603625D02*
X3734827Y30698936D01*
X3734827Y30698936D02*
X3711000Y30746591D01*
X3711000Y30746591D02*
X3663345Y30794246D01*
X3663345Y30794246D02*
X3591862Y30818074D01*
X3591862Y30818074D02*
X3544206Y30818074D01*
X3544206Y30818074D02*
X3472724Y30794246D01*
X3472724Y30794246D02*
X3448896Y30770419D01*
X2996171Y30818074D02*
X3234447Y30818074D01*
X3234447Y30818074D02*
X3258275Y30579798D01*
X3258275Y30579798D02*
X3234447Y30603625D01*
X3234447Y30603625D02*
X3186792Y30627453D01*
X3186792Y30627453D02*
X3067654Y30627453D01*
X3067654Y30627453D02*
X3019999Y30603625D01*
X3019999Y30603625D02*
X2996171Y30579798D01*
X2996171Y30579798D02*
X2972344Y30532142D01*
X2972344Y30532142D02*
X2972344Y30413004D01*
X2972344Y30413004D02*
X2996171Y30365349D01*
X2996171Y30365349D02*
X3019999Y30341522D01*
X3019999Y30341522D02*
X3067654Y30317694D01*
X3067654Y30317694D02*
X3186792Y30317694D01*
X3186792Y30317694D02*
X3234447Y30341522D01*
X3234447Y30341522D02*
X3258275Y30365349D01*
X3774621Y29619194D02*
X4060552Y29619194D01*
X3917586Y29619194D02*
X3917586Y30119574D01*
X3917586Y30119574D02*
X3965242Y30048091D01*
X3965242Y30048091D02*
X4012897Y30000436D01*
X4012897Y30000436D02*
X4060552Y29976608D01*
X3464862Y30119574D02*
X3417207Y30119574D01*
X3417207Y30119574D02*
X3369551Y30095746D01*
X3369551Y30095746D02*
X3345724Y30071919D01*
X3345724Y30071919D02*
X3321896Y30024263D01*
X3321896Y30024263D02*
X3298069Y29928953D01*
X3298069Y29928953D02*
X3298069Y29809815D01*
X3298069Y29809815D02*
X3321896Y29714504D01*
X3321896Y29714504D02*
X3345724Y29666849D01*
X3345724Y29666849D02*
X3369551Y29643022D01*
X3369551Y29643022D02*
X3417207Y29619194D01*
X3417207Y29619194D02*
X3464862Y29619194D01*
X3464862Y29619194D02*
X3512517Y29643022D01*
X3512517Y29643022D02*
X3536345Y29666849D01*
X3536345Y29666849D02*
X3560172Y29714504D01*
X3560172Y29714504D02*
X3584000Y29809815D01*
X3584000Y29809815D02*
X3584000Y29928953D01*
X3584000Y29928953D02*
X3560172Y30024263D01*
X3560172Y30024263D02*
X3536345Y30071919D01*
X3536345Y30071919D02*
X3512517Y30095746D01*
X3512517Y30095746D02*
X3464862Y30119574D01*
X3083620Y29952781D02*
X3083620Y29619194D01*
X3083620Y29905125D02*
X3059793Y29928953D01*
X3059793Y29928953D02*
X3012138Y29952781D01*
X3012138Y29952781D02*
X2940655Y29952781D01*
X2940655Y29952781D02*
X2892999Y29928953D01*
X2892999Y29928953D02*
X2869172Y29881298D01*
X2869172Y29881298D02*
X2869172Y29619194D01*
X2464102Y29881298D02*
X2630895Y29881298D01*
X2630895Y29619194D02*
X2630895Y30119574D01*
X2630895Y30119574D02*
X2392619Y30119574D01*
X43580896Y30492349D02*
X43604724Y30468522D01*
X43604724Y30468522D02*
X43676206Y30444694D01*
X43676206Y30444694D02*
X43723862Y30444694D01*
X43723862Y30444694D02*
X43795345Y30468522D01*
X43795345Y30468522D02*
X43843000Y30516177D01*
X43843000Y30516177D02*
X43866827Y30563832D01*
X43866827Y30563832D02*
X43890655Y30659142D01*
X43890655Y30659142D02*
X43890655Y30730625D01*
X43890655Y30730625D02*
X43866827Y30825936D01*
X43866827Y30825936D02*
X43843000Y30873591D01*
X43843000Y30873591D02*
X43795345Y30921246D01*
X43795345Y30921246D02*
X43723862Y30945074D01*
X43723862Y30945074D02*
X43676206Y30945074D01*
X43676206Y30945074D02*
X43604724Y30921246D01*
X43604724Y30921246D02*
X43580896Y30897419D01*
X43151999Y30945074D02*
X43247309Y30945074D01*
X43247309Y30945074D02*
X43294965Y30921246D01*
X43294965Y30921246D02*
X43318792Y30897419D01*
X43318792Y30897419D02*
X43366447Y30825936D01*
X43366447Y30825936D02*
X43390275Y30730625D01*
X43390275Y30730625D02*
X43390275Y30540004D01*
X43390275Y30540004D02*
X43366447Y30492349D01*
X43366447Y30492349D02*
X43342620Y30468522D01*
X43342620Y30468522D02*
X43294965Y30444694D01*
X43294965Y30444694D02*
X43199654Y30444694D01*
X43199654Y30444694D02*
X43151999Y30468522D01*
X43151999Y30468522D02*
X43128171Y30492349D01*
X43128171Y30492349D02*
X43104344Y30540004D01*
X43104344Y30540004D02*
X43104344Y30659142D01*
X43104344Y30659142D02*
X43128171Y30706798D01*
X43128171Y30706798D02*
X43151999Y30730625D01*
X43151999Y30730625D02*
X43199654Y30754453D01*
X43199654Y30754453D02*
X43294965Y30754453D01*
X43294965Y30754453D02*
X43342620Y30730625D01*
X43342620Y30730625D02*
X43366447Y30706798D01*
X43366447Y30706798D02*
X43390275Y30659142D01*
X43906621Y29746194D02*
X44192552Y29746194D01*
X44049586Y29746194D02*
X44049586Y30246574D01*
X44049586Y30246574D02*
X44097242Y30175091D01*
X44097242Y30175091D02*
X44144897Y30127436D01*
X44144897Y30127436D02*
X44192552Y30103608D01*
X43596862Y30246574D02*
X43549207Y30246574D01*
X43549207Y30246574D02*
X43501551Y30222746D01*
X43501551Y30222746D02*
X43477724Y30198919D01*
X43477724Y30198919D02*
X43453896Y30151263D01*
X43453896Y30151263D02*
X43430069Y30055953D01*
X43430069Y30055953D02*
X43430069Y29936815D01*
X43430069Y29936815D02*
X43453896Y29841504D01*
X43453896Y29841504D02*
X43477724Y29793849D01*
X43477724Y29793849D02*
X43501551Y29770022D01*
X43501551Y29770022D02*
X43549207Y29746194D01*
X43549207Y29746194D02*
X43596862Y29746194D01*
X43596862Y29746194D02*
X43644517Y29770022D01*
X43644517Y29770022D02*
X43668345Y29793849D01*
X43668345Y29793849D02*
X43692172Y29841504D01*
X43692172Y29841504D02*
X43716000Y29936815D01*
X43716000Y29936815D02*
X43716000Y30055953D01*
X43716000Y30055953D02*
X43692172Y30151263D01*
X43692172Y30151263D02*
X43668345Y30198919D01*
X43668345Y30198919D02*
X43644517Y30222746D01*
X43644517Y30222746D02*
X43596862Y30246574D01*
X43215620Y30079781D02*
X43215620Y29746194D01*
X43215620Y30032125D02*
X43191793Y30055953D01*
X43191793Y30055953D02*
X43144138Y30079781D01*
X43144138Y30079781D02*
X43072655Y30079781D01*
X43072655Y30079781D02*
X43024999Y30055953D01*
X43024999Y30055953D02*
X43001172Y30008298D01*
X43001172Y30008298D02*
X43001172Y29746194D01*
X42596102Y30008298D02*
X42762895Y30008298D01*
X42762895Y29746194D02*
X42762895Y30246574D01*
X42762895Y30246574D02*
X42524619Y30246574D01*
X40088396Y17347849D02*
X40112224Y17324022D01*
X40112224Y17324022D02*
X40183706Y17300194D01*
X40183706Y17300194D02*
X40231362Y17300194D01*
X40231362Y17300194D02*
X40302845Y17324022D01*
X40302845Y17324022D02*
X40350500Y17371677D01*
X40350500Y17371677D02*
X40374327Y17419332D01*
X40374327Y17419332D02*
X40398155Y17514642D01*
X40398155Y17514642D02*
X40398155Y17586125D01*
X40398155Y17586125D02*
X40374327Y17681436D01*
X40374327Y17681436D02*
X40350500Y17729091D01*
X40350500Y17729091D02*
X40302845Y17776746D01*
X40302845Y17776746D02*
X40231362Y17800574D01*
X40231362Y17800574D02*
X40183706Y17800574D01*
X40183706Y17800574D02*
X40112224Y17776746D01*
X40112224Y17776746D02*
X40088396Y17752919D01*
X39921603Y17800574D02*
X39588016Y17800574D01*
X39588016Y17800574D02*
X39802465Y17300194D01*
X40414121Y16601694D02*
X40700052Y16601694D01*
X40557086Y16601694D02*
X40557086Y17102074D01*
X40557086Y17102074D02*
X40604742Y17030591D01*
X40604742Y17030591D02*
X40652397Y16982936D01*
X40652397Y16982936D02*
X40700052Y16959108D01*
X40104362Y17102074D02*
X40056707Y17102074D01*
X40056707Y17102074D02*
X40009051Y17078246D01*
X40009051Y17078246D02*
X39985224Y17054419D01*
X39985224Y17054419D02*
X39961396Y17006763D01*
X39961396Y17006763D02*
X39937569Y16911453D01*
X39937569Y16911453D02*
X39937569Y16792315D01*
X39937569Y16792315D02*
X39961396Y16697004D01*
X39961396Y16697004D02*
X39985224Y16649349D01*
X39985224Y16649349D02*
X40009051Y16625522D01*
X40009051Y16625522D02*
X40056707Y16601694D01*
X40056707Y16601694D02*
X40104362Y16601694D01*
X40104362Y16601694D02*
X40152017Y16625522D01*
X40152017Y16625522D02*
X40175845Y16649349D01*
X40175845Y16649349D02*
X40199672Y16697004D01*
X40199672Y16697004D02*
X40223500Y16792315D01*
X40223500Y16792315D02*
X40223500Y16911453D01*
X40223500Y16911453D02*
X40199672Y17006763D01*
X40199672Y17006763D02*
X40175845Y17054419D01*
X40175845Y17054419D02*
X40152017Y17078246D01*
X40152017Y17078246D02*
X40104362Y17102074D01*
X39723120Y16935281D02*
X39723120Y16601694D01*
X39723120Y16887625D02*
X39699293Y16911453D01*
X39699293Y16911453D02*
X39651638Y16935281D01*
X39651638Y16935281D02*
X39580155Y16935281D01*
X39580155Y16935281D02*
X39532499Y16911453D01*
X39532499Y16911453D02*
X39508672Y16863798D01*
X39508672Y16863798D02*
X39508672Y16601694D01*
X39103602Y16863798D02*
X39270395Y16863798D01*
X39270395Y16601694D02*
X39270395Y17102074D01*
X39270395Y17102074D02*
X39032119Y17102074D01*
D10*
X29191856Y15947818D02*
X29191856Y17471818D01*
X29191856Y17471818D02*
X28828999Y17471818D01*
X28828999Y17471818D02*
X28611285Y17399247D01*
X28611285Y17399247D02*
X28466142Y17254104D01*
X28466142Y17254104D02*
X28393571Y17108961D01*
X28393571Y17108961D02*
X28320999Y16818675D01*
X28320999Y16818675D02*
X28320999Y16600961D01*
X28320999Y16600961D02*
X28393571Y16310675D01*
X28393571Y16310675D02*
X28466142Y16165532D01*
X28466142Y16165532D02*
X28611285Y16020390D01*
X28611285Y16020390D02*
X28828999Y15947818D01*
X28828999Y15947818D02*
X29191856Y15947818D01*
X26869571Y15947818D02*
X27740428Y15947818D01*
X27304999Y15947818D02*
X27304999Y17471818D01*
X27304999Y17471818D02*
X27450142Y17254104D01*
X27450142Y17254104D02*
X27595285Y17108961D01*
X27595285Y17108961D02*
X27740428Y17036390D01*
D12*
X25198311Y14459946D02*
X25198311Y14960326D01*
X24912380Y14459946D02*
X25126829Y14745877D01*
X24912380Y14960326D02*
X25198311Y14674394D01*
X31386537Y14602912D02*
X31148261Y14602912D01*
X31434192Y14459946D02*
X31267399Y14960326D01*
X31267399Y14960326D02*
X31100606Y14459946D01*
D10*
X8055181Y14713856D02*
X6531181Y14713856D01*
X6531181Y14713856D02*
X6531181Y14350999D01*
X6531181Y14350999D02*
X6603752Y14133285D01*
X6603752Y14133285D02*
X6748895Y13988142D01*
X6748895Y13988142D02*
X6894038Y13915571D01*
X6894038Y13915571D02*
X7184324Y13842999D01*
X7184324Y13842999D02*
X7402038Y13842999D01*
X7402038Y13842999D02*
X7692324Y13915571D01*
X7692324Y13915571D02*
X7837467Y13988142D01*
X7837467Y13988142D02*
X7982610Y14133285D01*
X7982610Y14133285D02*
X8055181Y14350999D01*
X8055181Y14350999D02*
X8055181Y14713856D01*
X6676324Y13262428D02*
X6603752Y13189856D01*
X6603752Y13189856D02*
X6531181Y13044714D01*
X6531181Y13044714D02*
X6531181Y12681856D01*
X6531181Y12681856D02*
X6603752Y12536714D01*
X6603752Y12536714D02*
X6676324Y12464142D01*
X6676324Y12464142D02*
X6821467Y12391571D01*
X6821467Y12391571D02*
X6966610Y12391571D01*
X6966610Y12391571D02*
X7184324Y12464142D01*
X7184324Y12464142D02*
X8055181Y13334999D01*
X8055181Y13334999D02*
X8055181Y12391571D01*
D12*
X5641613Y16729951D02*
X5141233Y16729951D01*
X5641613Y16444020D02*
X5355682Y16658469D01*
X5141233Y16444020D02*
X5427165Y16729951D01*
X5498647Y10517897D02*
X5498647Y10279621D01*
X5641613Y10565552D02*
X5141233Y10398759D01*
X5141233Y10398759D02*
X5641613Y10231966D01*
D10*
X12373181Y35033856D02*
X10849181Y35033856D01*
X10849181Y35033856D02*
X10849181Y34670999D01*
X10849181Y34670999D02*
X10921752Y34453285D01*
X10921752Y34453285D02*
X11066895Y34308142D01*
X11066895Y34308142D02*
X11212038Y34235571D01*
X11212038Y34235571D02*
X11502324Y34162999D01*
X11502324Y34162999D02*
X11720038Y34162999D01*
X11720038Y34162999D02*
X12010324Y34235571D01*
X12010324Y34235571D02*
X12155467Y34308142D01*
X12155467Y34308142D02*
X12300610Y34453285D01*
X12300610Y34453285D02*
X12373181Y34670999D01*
X12373181Y34670999D02*
X12373181Y35033856D01*
X10849181Y33654999D02*
X10849181Y32711571D01*
X10849181Y32711571D02*
X11429752Y33219571D01*
X11429752Y33219571D02*
X11429752Y33001856D01*
X11429752Y33001856D02*
X11502324Y32856714D01*
X11502324Y32856714D02*
X11574895Y32784142D01*
X11574895Y32784142D02*
X11720038Y32711571D01*
X11720038Y32711571D02*
X12082895Y32711571D01*
X12082895Y32711571D02*
X12228038Y32784142D01*
X12228038Y32784142D02*
X12300610Y32856714D01*
X12300610Y32856714D02*
X12373181Y33001856D01*
X12373181Y33001856D02*
X12373181Y33437285D01*
X12373181Y33437285D02*
X12300610Y33582428D01*
X12300610Y33582428D02*
X12228038Y33654999D01*
D12*
X13591087Y37218377D02*
X13591087Y36980101D01*
X13734053Y37266032D02*
X13233673Y37099239D01*
X13233673Y37099239D02*
X13734053Y36932446D01*
X13734053Y31030151D02*
X13233673Y31030151D01*
X13734053Y30744220D02*
X13448122Y30958669D01*
X13233673Y30744220D02*
X13519605Y31030151D01*
D10*
X40440181Y34398856D02*
X38916181Y34398856D01*
X38916181Y34398856D02*
X38916181Y34035999D01*
X38916181Y34035999D02*
X38988752Y33818285D01*
X38988752Y33818285D02*
X39133895Y33673142D01*
X39133895Y33673142D02*
X39279038Y33600571D01*
X39279038Y33600571D02*
X39569324Y33527999D01*
X39569324Y33527999D02*
X39787038Y33527999D01*
X39787038Y33527999D02*
X40077324Y33600571D01*
X40077324Y33600571D02*
X40222467Y33673142D01*
X40222467Y33673142D02*
X40367610Y33818285D01*
X40367610Y33818285D02*
X40440181Y34035999D01*
X40440181Y34035999D02*
X40440181Y34398856D01*
X39424181Y32221714D02*
X40440181Y32221714D01*
X38843610Y32584571D02*
X39932181Y32947428D01*
X39932181Y32947428D02*
X39932181Y32003999D01*
D12*
X41658087Y36603697D02*
X41658087Y36365421D01*
X41801053Y36651352D02*
X41300673Y36484559D01*
X41300673Y36484559D02*
X41801053Y36317766D01*
X41801053Y30415471D02*
X41300673Y30415471D01*
X41801053Y30129540D02*
X41515122Y30343989D01*
X41300673Y30129540D02*
X41586605Y30415471D01*
D10*
X44758181Y15348856D02*
X43234181Y15348856D01*
X43234181Y15348856D02*
X43234181Y14985999D01*
X43234181Y14985999D02*
X43306752Y14768285D01*
X43306752Y14768285D02*
X43451895Y14623142D01*
X43451895Y14623142D02*
X43597038Y14550571D01*
X43597038Y14550571D02*
X43887324Y14477999D01*
X43887324Y14477999D02*
X44105038Y14477999D01*
X44105038Y14477999D02*
X44395324Y14550571D01*
X44395324Y14550571D02*
X44540467Y14623142D01*
X44540467Y14623142D02*
X44685610Y14768285D01*
X44685610Y14768285D02*
X44758181Y14985999D01*
X44758181Y14985999D02*
X44758181Y15348856D01*
X43234181Y13099142D02*
X43234181Y13824856D01*
X43234181Y13824856D02*
X43959895Y13897428D01*
X43959895Y13897428D02*
X43887324Y13824856D01*
X43887324Y13824856D02*
X43814752Y13679714D01*
X43814752Y13679714D02*
X43814752Y13316856D01*
X43814752Y13316856D02*
X43887324Y13171714D01*
X43887324Y13171714D02*
X43959895Y13099142D01*
X43959895Y13099142D02*
X44105038Y13026571D01*
X44105038Y13026571D02*
X44467895Y13026571D01*
X44467895Y13026571D02*
X44613038Y13099142D01*
X44613038Y13099142D02*
X44685610Y13171714D01*
X44685610Y13171714D02*
X44758181Y13316856D01*
X44758181Y13316856D02*
X44758181Y13679714D01*
X44758181Y13679714D02*
X44685610Y13824856D01*
X44685610Y13824856D02*
X44613038Y13897428D01*
D12*
X42344613Y17364951D02*
X41844233Y17364951D01*
X42344613Y17079020D02*
X42058682Y17293469D01*
X41844233Y17079020D02*
X42130165Y17364951D01*
X42201647Y11152897D02*
X42201647Y10914621D01*
X42344613Y11200552D02*
X41844233Y11033759D01*
X41844233Y11033759D02*
X42344613Y10866966D01*
D11*
X31277305Y31261896D02*
X31039029Y31428689D01*
X31277305Y31547827D02*
X30776925Y31547827D01*
X30776925Y31547827D02*
X30776925Y31357206D01*
X30776925Y31357206D02*
X30800753Y31309551D01*
X30800753Y31309551D02*
X30824580Y31285724D01*
X30824580Y31285724D02*
X30872236Y31261896D01*
X30872236Y31261896D02*
X30943718Y31261896D01*
X30943718Y31261896D02*
X30991374Y31285724D01*
X30991374Y31285724D02*
X31015201Y31309551D01*
X31015201Y31309551D02*
X31039029Y31357206D01*
X31039029Y31357206D02*
X31039029Y31547827D01*
X31277305Y30785344D02*
X31277305Y31071275D01*
X31277305Y30928309D02*
X30776925Y30928309D01*
X30776925Y30928309D02*
X30848408Y30975965D01*
X30848408Y30975965D02*
X30896063Y31023620D01*
X30896063Y31023620D02*
X30919891Y31071275D01*
X30578805Y31603345D02*
X30578805Y31889276D01*
X30578805Y31746310D02*
X30078425Y31746310D01*
X30078425Y31746310D02*
X30149908Y31793966D01*
X30149908Y31793966D02*
X30197563Y31841621D01*
X30197563Y31841621D02*
X30221391Y31889276D01*
X30078425Y31293586D02*
X30078425Y31245931D01*
X30078425Y31245931D02*
X30102253Y31198275D01*
X30102253Y31198275D02*
X30126080Y31174448D01*
X30126080Y31174448D02*
X30173736Y31150620D01*
X30173736Y31150620D02*
X30269046Y31126793D01*
X30269046Y31126793D02*
X30388184Y31126793D01*
X30388184Y31126793D02*
X30483495Y31150620D01*
X30483495Y31150620D02*
X30531150Y31174448D01*
X30531150Y31174448D02*
X30554978Y31198275D01*
X30554978Y31198275D02*
X30578805Y31245931D01*
X30578805Y31245931D02*
X30578805Y31293586D01*
X30578805Y31293586D02*
X30554978Y31341241D01*
X30554978Y31341241D02*
X30531150Y31365069D01*
X30531150Y31365069D02*
X30483495Y31388896D01*
X30483495Y31388896D02*
X30388184Y31412724D01*
X30388184Y31412724D02*
X30269046Y31412724D01*
X30269046Y31412724D02*
X30173736Y31388896D01*
X30173736Y31388896D02*
X30126080Y31365069D01*
X30126080Y31365069D02*
X30102253Y31341241D01*
X30102253Y31341241D02*
X30078425Y31293586D01*
X30578805Y30912344D02*
X30078425Y30912344D01*
X30388184Y30864689D02*
X30578805Y30721723D01*
X30245218Y30721723D02*
X30435839Y30912344D01*
X33944305Y16847396D02*
X33706029Y17014189D01*
X33944305Y17133327D02*
X33443925Y17133327D01*
X33443925Y17133327D02*
X33443925Y16942706D01*
X33443925Y16942706D02*
X33467753Y16895051D01*
X33467753Y16895051D02*
X33491580Y16871224D01*
X33491580Y16871224D02*
X33539236Y16847396D01*
X33539236Y16847396D02*
X33610718Y16847396D01*
X33610718Y16847396D02*
X33658374Y16871224D01*
X33658374Y16871224D02*
X33682201Y16895051D01*
X33682201Y16895051D02*
X33706029Y16942706D01*
X33706029Y16942706D02*
X33706029Y17133327D01*
X33491580Y16656775D02*
X33467753Y16632947D01*
X33467753Y16632947D02*
X33443925Y16585292D01*
X33443925Y16585292D02*
X33443925Y16466154D01*
X33443925Y16466154D02*
X33467753Y16418499D01*
X33467753Y16418499D02*
X33491580Y16394671D01*
X33491580Y16394671D02*
X33539236Y16370844D01*
X33539236Y16370844D02*
X33586891Y16370844D01*
X33586891Y16370844D02*
X33658374Y16394671D01*
X33658374Y16394671D02*
X33944305Y16680603D01*
X33944305Y16680603D02*
X33944305Y16370844D01*
X32745425Y17248413D02*
X32745425Y17486689D01*
X32745425Y17486689D02*
X32983701Y17510517D01*
X32983701Y17510517D02*
X32959874Y17486689D01*
X32959874Y17486689D02*
X32936046Y17439034D01*
X32936046Y17439034D02*
X32936046Y17319896D01*
X32936046Y17319896D02*
X32959874Y17272241D01*
X32959874Y17272241D02*
X32983701Y17248413D01*
X32983701Y17248413D02*
X33031357Y17224586D01*
X33031357Y17224586D02*
X33150495Y17224586D01*
X33150495Y17224586D02*
X33198150Y17248413D01*
X33198150Y17248413D02*
X33221978Y17272241D01*
X33221978Y17272241D02*
X33245805Y17319896D01*
X33245805Y17319896D02*
X33245805Y17439034D01*
X33245805Y17439034D02*
X33221978Y17486689D01*
X33221978Y17486689D02*
X33198150Y17510517D01*
X33245805Y16748034D02*
X33245805Y17033965D01*
X33245805Y16890999D02*
X32745425Y16890999D01*
X32745425Y16890999D02*
X32816908Y16938655D01*
X32816908Y16938655D02*
X32864563Y16986310D01*
X32864563Y16986310D02*
X32888391Y17033965D01*
X32745425Y16438275D02*
X32745425Y16390620D01*
X32745425Y16390620D02*
X32769253Y16342964D01*
X32769253Y16342964D02*
X32793080Y16319137D01*
X32793080Y16319137D02*
X32840736Y16295309D01*
X32840736Y16295309D02*
X32936046Y16271482D01*
X32936046Y16271482D02*
X33055184Y16271482D01*
X33055184Y16271482D02*
X33150495Y16295309D01*
X33150495Y16295309D02*
X33198150Y16319137D01*
X33198150Y16319137D02*
X33221978Y16342964D01*
X33221978Y16342964D02*
X33245805Y16390620D01*
X33245805Y16390620D02*
X33245805Y16438275D01*
X33245805Y16438275D02*
X33221978Y16485930D01*
X33221978Y16485930D02*
X33198150Y16509758D01*
X33198150Y16509758D02*
X33150495Y16533585D01*
X33150495Y16533585D02*
X33055184Y16557413D01*
X33055184Y16557413D02*
X32936046Y16557413D01*
X32936046Y16557413D02*
X32840736Y16533585D01*
X32840736Y16533585D02*
X32793080Y16509758D01*
X32793080Y16509758D02*
X32769253Y16485930D01*
X32769253Y16485930D02*
X32745425Y16438275D01*
X18577305Y31325396D02*
X18339029Y31492189D01*
X18577305Y31611327D02*
X18076925Y31611327D01*
X18076925Y31611327D02*
X18076925Y31420706D01*
X18076925Y31420706D02*
X18100753Y31373051D01*
X18100753Y31373051D02*
X18124580Y31349224D01*
X18124580Y31349224D02*
X18172236Y31325396D01*
X18172236Y31325396D02*
X18243718Y31325396D01*
X18243718Y31325396D02*
X18291374Y31349224D01*
X18291374Y31349224D02*
X18315201Y31373051D01*
X18315201Y31373051D02*
X18339029Y31420706D01*
X18339029Y31420706D02*
X18339029Y31611327D01*
X18076925Y31158603D02*
X18076925Y30848844D01*
X18076925Y30848844D02*
X18267546Y31015637D01*
X18267546Y31015637D02*
X18267546Y30944154D01*
X18267546Y30944154D02*
X18291374Y30896499D01*
X18291374Y30896499D02*
X18315201Y30872671D01*
X18315201Y30872671D02*
X18362857Y30848844D01*
X18362857Y30848844D02*
X18481995Y30848844D01*
X18481995Y30848844D02*
X18529650Y30872671D01*
X18529650Y30872671D02*
X18553478Y30896499D01*
X18553478Y30896499D02*
X18577305Y30944154D01*
X18577305Y30944154D02*
X18577305Y31087120D01*
X18577305Y31087120D02*
X18553478Y31134775D01*
X18553478Y31134775D02*
X18529650Y31158603D01*
X17878805Y31666845D02*
X17878805Y31952776D01*
X17878805Y31809810D02*
X17378425Y31809810D01*
X17378425Y31809810D02*
X17449908Y31857466D01*
X17449908Y31857466D02*
X17497563Y31905121D01*
X17497563Y31905121D02*
X17521391Y31952776D01*
X17378425Y31357086D02*
X17378425Y31309431D01*
X17378425Y31309431D02*
X17402253Y31261775D01*
X17402253Y31261775D02*
X17426080Y31237948D01*
X17426080Y31237948D02*
X17473736Y31214120D01*
X17473736Y31214120D02*
X17569046Y31190293D01*
X17569046Y31190293D02*
X17688184Y31190293D01*
X17688184Y31190293D02*
X17783495Y31214120D01*
X17783495Y31214120D02*
X17831150Y31237948D01*
X17831150Y31237948D02*
X17854978Y31261775D01*
X17854978Y31261775D02*
X17878805Y31309431D01*
X17878805Y31309431D02*
X17878805Y31357086D01*
X17878805Y31357086D02*
X17854978Y31404741D01*
X17854978Y31404741D02*
X17831150Y31428569D01*
X17831150Y31428569D02*
X17783495Y31452396D01*
X17783495Y31452396D02*
X17688184Y31476224D01*
X17688184Y31476224D02*
X17569046Y31476224D01*
X17569046Y31476224D02*
X17473736Y31452396D01*
X17473736Y31452396D02*
X17426080Y31428569D01*
X17426080Y31428569D02*
X17402253Y31404741D01*
X17402253Y31404741D02*
X17378425Y31357086D01*
X17878805Y30975844D02*
X17378425Y30975844D01*
X17688184Y30928189D02*
X17878805Y30785223D01*
X17545218Y30785223D02*
X17735839Y30975844D01*
X23657305Y31325396D02*
X23419029Y31492189D01*
X23657305Y31611327D02*
X23156925Y31611327D01*
X23156925Y31611327D02*
X23156925Y31420706D01*
X23156925Y31420706D02*
X23180753Y31373051D01*
X23180753Y31373051D02*
X23204580Y31349224D01*
X23204580Y31349224D02*
X23252236Y31325396D01*
X23252236Y31325396D02*
X23323718Y31325396D01*
X23323718Y31325396D02*
X23371374Y31349224D01*
X23371374Y31349224D02*
X23395201Y31373051D01*
X23395201Y31373051D02*
X23419029Y31420706D01*
X23419029Y31420706D02*
X23419029Y31611327D01*
X23323718Y30896499D02*
X23657305Y30896499D01*
X23133098Y31015637D02*
X23490512Y31134775D01*
X23490512Y31134775D02*
X23490512Y30825016D01*
X22958805Y31666845D02*
X22958805Y31952776D01*
X22958805Y31809810D02*
X22458425Y31809810D01*
X22458425Y31809810D02*
X22529908Y31857466D01*
X22529908Y31857466D02*
X22577563Y31905121D01*
X22577563Y31905121D02*
X22601391Y31952776D01*
X22458425Y31357086D02*
X22458425Y31309431D01*
X22458425Y31309431D02*
X22482253Y31261775D01*
X22482253Y31261775D02*
X22506080Y31237948D01*
X22506080Y31237948D02*
X22553736Y31214120D01*
X22553736Y31214120D02*
X22649046Y31190293D01*
X22649046Y31190293D02*
X22768184Y31190293D01*
X22768184Y31190293D02*
X22863495Y31214120D01*
X22863495Y31214120D02*
X22911150Y31237948D01*
X22911150Y31237948D02*
X22934978Y31261775D01*
X22934978Y31261775D02*
X22958805Y31309431D01*
X22958805Y31309431D02*
X22958805Y31357086D01*
X22958805Y31357086D02*
X22934978Y31404741D01*
X22934978Y31404741D02*
X22911150Y31428569D01*
X22911150Y31428569D02*
X22863495Y31452396D01*
X22863495Y31452396D02*
X22768184Y31476224D01*
X22768184Y31476224D02*
X22649046Y31476224D01*
X22649046Y31476224D02*
X22553736Y31452396D01*
X22553736Y31452396D02*
X22506080Y31428569D01*
X22506080Y31428569D02*
X22482253Y31404741D01*
X22482253Y31404741D02*
X22458425Y31357086D01*
X22958805Y30975844D02*
X22458425Y30975844D01*
X22768184Y30928189D02*
X22958805Y30785223D01*
X22625218Y30785223D02*
X22815839Y30975844D01*
X36357305Y31261896D02*
X36119029Y31428689D01*
X36357305Y31547827D02*
X35856925Y31547827D01*
X35856925Y31547827D02*
X35856925Y31357206D01*
X35856925Y31357206D02*
X35880753Y31309551D01*
X35880753Y31309551D02*
X35904580Y31285724D01*
X35904580Y31285724D02*
X35952236Y31261896D01*
X35952236Y31261896D02*
X36023718Y31261896D01*
X36023718Y31261896D02*
X36071374Y31285724D01*
X36071374Y31285724D02*
X36095201Y31309551D01*
X36095201Y31309551D02*
X36119029Y31357206D01*
X36119029Y31357206D02*
X36119029Y31547827D01*
X35856925Y30809171D02*
X35856925Y31047447D01*
X35856925Y31047447D02*
X36095201Y31071275D01*
X36095201Y31071275D02*
X36071374Y31047447D01*
X36071374Y31047447D02*
X36047546Y30999792D01*
X36047546Y30999792D02*
X36047546Y30880654D01*
X36047546Y30880654D02*
X36071374Y30832999D01*
X36071374Y30832999D02*
X36095201Y30809171D01*
X36095201Y30809171D02*
X36142857Y30785344D01*
X36142857Y30785344D02*
X36261995Y30785344D01*
X36261995Y30785344D02*
X36309650Y30809171D01*
X36309650Y30809171D02*
X36333478Y30832999D01*
X36333478Y30832999D02*
X36357305Y30880654D01*
X36357305Y30880654D02*
X36357305Y30999792D01*
X36357305Y30999792D02*
X36333478Y31047447D01*
X36333478Y31047447D02*
X36309650Y31071275D01*
X35658805Y31603345D02*
X35658805Y31889276D01*
X35658805Y31746310D02*
X35158425Y31746310D01*
X35158425Y31746310D02*
X35229908Y31793966D01*
X35229908Y31793966D02*
X35277563Y31841621D01*
X35277563Y31841621D02*
X35301391Y31889276D01*
X35158425Y31293586D02*
X35158425Y31245931D01*
X35158425Y31245931D02*
X35182253Y31198275D01*
X35182253Y31198275D02*
X35206080Y31174448D01*
X35206080Y31174448D02*
X35253736Y31150620D01*
X35253736Y31150620D02*
X35349046Y31126793D01*
X35349046Y31126793D02*
X35468184Y31126793D01*
X35468184Y31126793D02*
X35563495Y31150620D01*
X35563495Y31150620D02*
X35611150Y31174448D01*
X35611150Y31174448D02*
X35634978Y31198275D01*
X35634978Y31198275D02*
X35658805Y31245931D01*
X35658805Y31245931D02*
X35658805Y31293586D01*
X35658805Y31293586D02*
X35634978Y31341241D01*
X35634978Y31341241D02*
X35611150Y31365069D01*
X35611150Y31365069D02*
X35563495Y31388896D01*
X35563495Y31388896D02*
X35468184Y31412724D01*
X35468184Y31412724D02*
X35349046Y31412724D01*
X35349046Y31412724D02*
X35253736Y31388896D01*
X35253736Y31388896D02*
X35206080Y31365069D01*
X35206080Y31365069D02*
X35182253Y31341241D01*
X35182253Y31341241D02*
X35158425Y31293586D01*
X35658805Y30912344D02*
X35158425Y30912344D01*
X35468184Y30864689D02*
X35658805Y30721723D01*
X35325218Y30721723D02*
X35515839Y30912344D01*
X28737305Y31325396D02*
X28499029Y31492189D01*
X28737305Y31611327D02*
X28236925Y31611327D01*
X28236925Y31611327D02*
X28236925Y31420706D01*
X28236925Y31420706D02*
X28260753Y31373051D01*
X28260753Y31373051D02*
X28284580Y31349224D01*
X28284580Y31349224D02*
X28332236Y31325396D01*
X28332236Y31325396D02*
X28403718Y31325396D01*
X28403718Y31325396D02*
X28451374Y31349224D01*
X28451374Y31349224D02*
X28475201Y31373051D01*
X28475201Y31373051D02*
X28499029Y31420706D01*
X28499029Y31420706D02*
X28499029Y31611327D01*
X28236925Y30896499D02*
X28236925Y30991809D01*
X28236925Y30991809D02*
X28260753Y31039465D01*
X28260753Y31039465D02*
X28284580Y31063292D01*
X28284580Y31063292D02*
X28356063Y31110947D01*
X28356063Y31110947D02*
X28451374Y31134775D01*
X28451374Y31134775D02*
X28641995Y31134775D01*
X28641995Y31134775D02*
X28689650Y31110947D01*
X28689650Y31110947D02*
X28713478Y31087120D01*
X28713478Y31087120D02*
X28737305Y31039465D01*
X28737305Y31039465D02*
X28737305Y30944154D01*
X28737305Y30944154D02*
X28713478Y30896499D01*
X28713478Y30896499D02*
X28689650Y30872671D01*
X28689650Y30872671D02*
X28641995Y30848844D01*
X28641995Y30848844D02*
X28522857Y30848844D01*
X28522857Y30848844D02*
X28475201Y30872671D01*
X28475201Y30872671D02*
X28451374Y30896499D01*
X28451374Y30896499D02*
X28427546Y30944154D01*
X28427546Y30944154D02*
X28427546Y31039465D01*
X28427546Y31039465D02*
X28451374Y31087120D01*
X28451374Y31087120D02*
X28475201Y31110947D01*
X28475201Y31110947D02*
X28522857Y31134775D01*
X28038805Y31666845D02*
X28038805Y31952776D01*
X28038805Y31809810D02*
X27538425Y31809810D01*
X27538425Y31809810D02*
X27609908Y31857466D01*
X27609908Y31857466D02*
X27657563Y31905121D01*
X27657563Y31905121D02*
X27681391Y31952776D01*
X27538425Y31357086D02*
X27538425Y31309431D01*
X27538425Y31309431D02*
X27562253Y31261775D01*
X27562253Y31261775D02*
X27586080Y31237948D01*
X27586080Y31237948D02*
X27633736Y31214120D01*
X27633736Y31214120D02*
X27729046Y31190293D01*
X27729046Y31190293D02*
X27848184Y31190293D01*
X27848184Y31190293D02*
X27943495Y31214120D01*
X27943495Y31214120D02*
X27991150Y31237948D01*
X27991150Y31237948D02*
X28014978Y31261775D01*
X28014978Y31261775D02*
X28038805Y31309431D01*
X28038805Y31309431D02*
X28038805Y31357086D01*
X28038805Y31357086D02*
X28014978Y31404741D01*
X28014978Y31404741D02*
X27991150Y31428569D01*
X27991150Y31428569D02*
X27943495Y31452396D01*
X27943495Y31452396D02*
X27848184Y31476224D01*
X27848184Y31476224D02*
X27729046Y31476224D01*
X27729046Y31476224D02*
X27633736Y31452396D01*
X27633736Y31452396D02*
X27586080Y31428569D01*
X27586080Y31428569D02*
X27562253Y31404741D01*
X27562253Y31404741D02*
X27538425Y31357086D01*
X28038805Y30975844D02*
X27538425Y30975844D01*
X27848184Y30928189D02*
X28038805Y30785223D01*
X27705218Y30785223D02*
X27895839Y30975844D01*
X33817305Y31261896D02*
X33579029Y31428689D01*
X33817305Y31547827D02*
X33316925Y31547827D01*
X33316925Y31547827D02*
X33316925Y31357206D01*
X33316925Y31357206D02*
X33340753Y31309551D01*
X33340753Y31309551D02*
X33364580Y31285724D01*
X33364580Y31285724D02*
X33412236Y31261896D01*
X33412236Y31261896D02*
X33483718Y31261896D01*
X33483718Y31261896D02*
X33531374Y31285724D01*
X33531374Y31285724D02*
X33555201Y31309551D01*
X33555201Y31309551D02*
X33579029Y31357206D01*
X33579029Y31357206D02*
X33579029Y31547827D01*
X33316925Y31095103D02*
X33316925Y30761516D01*
X33316925Y30761516D02*
X33817305Y30975965D01*
X33118805Y31603345D02*
X33118805Y31889276D01*
X33118805Y31746310D02*
X32618425Y31746310D01*
X32618425Y31746310D02*
X32689908Y31793966D01*
X32689908Y31793966D02*
X32737563Y31841621D01*
X32737563Y31841621D02*
X32761391Y31889276D01*
X32618425Y31293586D02*
X32618425Y31245931D01*
X32618425Y31245931D02*
X32642253Y31198275D01*
X32642253Y31198275D02*
X32666080Y31174448D01*
X32666080Y31174448D02*
X32713736Y31150620D01*
X32713736Y31150620D02*
X32809046Y31126793D01*
X32809046Y31126793D02*
X32928184Y31126793D01*
X32928184Y31126793D02*
X33023495Y31150620D01*
X33023495Y31150620D02*
X33071150Y31174448D01*
X33071150Y31174448D02*
X33094978Y31198275D01*
X33094978Y31198275D02*
X33118805Y31245931D01*
X33118805Y31245931D02*
X33118805Y31293586D01*
X33118805Y31293586D02*
X33094978Y31341241D01*
X33094978Y31341241D02*
X33071150Y31365069D01*
X33071150Y31365069D02*
X33023495Y31388896D01*
X33023495Y31388896D02*
X32928184Y31412724D01*
X32928184Y31412724D02*
X32809046Y31412724D01*
X32809046Y31412724D02*
X32713736Y31388896D01*
X32713736Y31388896D02*
X32666080Y31365069D01*
X32666080Y31365069D02*
X32642253Y31341241D01*
X32642253Y31341241D02*
X32618425Y31293586D01*
X33118805Y30912344D02*
X32618425Y30912344D01*
X32928184Y30864689D02*
X33118805Y30721723D01*
X32785218Y30721723D02*
X32975839Y30912344D01*
X26197305Y31325396D02*
X25959029Y31492189D01*
X26197305Y31611327D02*
X25696925Y31611327D01*
X25696925Y31611327D02*
X25696925Y31420706D01*
X25696925Y31420706D02*
X25720753Y31373051D01*
X25720753Y31373051D02*
X25744580Y31349224D01*
X25744580Y31349224D02*
X25792236Y31325396D01*
X25792236Y31325396D02*
X25863718Y31325396D01*
X25863718Y31325396D02*
X25911374Y31349224D01*
X25911374Y31349224D02*
X25935201Y31373051D01*
X25935201Y31373051D02*
X25959029Y31420706D01*
X25959029Y31420706D02*
X25959029Y31611327D01*
X25911374Y31039465D02*
X25887546Y31087120D01*
X25887546Y31087120D02*
X25863718Y31110947D01*
X25863718Y31110947D02*
X25816063Y31134775D01*
X25816063Y31134775D02*
X25792236Y31134775D01*
X25792236Y31134775D02*
X25744580Y31110947D01*
X25744580Y31110947D02*
X25720753Y31087120D01*
X25720753Y31087120D02*
X25696925Y31039465D01*
X25696925Y31039465D02*
X25696925Y30944154D01*
X25696925Y30944154D02*
X25720753Y30896499D01*
X25720753Y30896499D02*
X25744580Y30872671D01*
X25744580Y30872671D02*
X25792236Y30848844D01*
X25792236Y30848844D02*
X25816063Y30848844D01*
X25816063Y30848844D02*
X25863718Y30872671D01*
X25863718Y30872671D02*
X25887546Y30896499D01*
X25887546Y30896499D02*
X25911374Y30944154D01*
X25911374Y30944154D02*
X25911374Y31039465D01*
X25911374Y31039465D02*
X25935201Y31087120D01*
X25935201Y31087120D02*
X25959029Y31110947D01*
X25959029Y31110947D02*
X26006684Y31134775D01*
X26006684Y31134775D02*
X26101995Y31134775D01*
X26101995Y31134775D02*
X26149650Y31110947D01*
X26149650Y31110947D02*
X26173478Y31087120D01*
X26173478Y31087120D02*
X26197305Y31039465D01*
X26197305Y31039465D02*
X26197305Y30944154D01*
X26197305Y30944154D02*
X26173478Y30896499D01*
X26173478Y30896499D02*
X26149650Y30872671D01*
X26149650Y30872671D02*
X26101995Y30848844D01*
X26101995Y30848844D02*
X26006684Y30848844D01*
X26006684Y30848844D02*
X25959029Y30872671D01*
X25959029Y30872671D02*
X25935201Y30896499D01*
X25935201Y30896499D02*
X25911374Y30944154D01*
X25498805Y31666845D02*
X25498805Y31952776D01*
X25498805Y31809810D02*
X24998425Y31809810D01*
X24998425Y31809810D02*
X25069908Y31857466D01*
X25069908Y31857466D02*
X25117563Y31905121D01*
X25117563Y31905121D02*
X25141391Y31952776D01*
X24998425Y31357086D02*
X24998425Y31309431D01*
X24998425Y31309431D02*
X25022253Y31261775D01*
X25022253Y31261775D02*
X25046080Y31237948D01*
X25046080Y31237948D02*
X25093736Y31214120D01*
X25093736Y31214120D02*
X25189046Y31190293D01*
X25189046Y31190293D02*
X25308184Y31190293D01*
X25308184Y31190293D02*
X25403495Y31214120D01*
X25403495Y31214120D02*
X25451150Y31237948D01*
X25451150Y31237948D02*
X25474978Y31261775D01*
X25474978Y31261775D02*
X25498805Y31309431D01*
X25498805Y31309431D02*
X25498805Y31357086D01*
X25498805Y31357086D02*
X25474978Y31404741D01*
X25474978Y31404741D02*
X25451150Y31428569D01*
X25451150Y31428569D02*
X25403495Y31452396D01*
X25403495Y31452396D02*
X25308184Y31476224D01*
X25308184Y31476224D02*
X25189046Y31476224D01*
X25189046Y31476224D02*
X25093736Y31452396D01*
X25093736Y31452396D02*
X25046080Y31428569D01*
X25046080Y31428569D02*
X25022253Y31404741D01*
X25022253Y31404741D02*
X24998425Y31357086D01*
X25498805Y30975844D02*
X24998425Y30975844D01*
X25308184Y30928189D02*
X25498805Y30785223D01*
X25165218Y30785223D02*
X25355839Y30975844D01*
X15910305Y31325396D02*
X15672029Y31492189D01*
X15910305Y31611327D02*
X15409925Y31611327D01*
X15409925Y31611327D02*
X15409925Y31420706D01*
X15409925Y31420706D02*
X15433753Y31373051D01*
X15433753Y31373051D02*
X15457580Y31349224D01*
X15457580Y31349224D02*
X15505236Y31325396D01*
X15505236Y31325396D02*
X15576718Y31325396D01*
X15576718Y31325396D02*
X15624374Y31349224D01*
X15624374Y31349224D02*
X15648201Y31373051D01*
X15648201Y31373051D02*
X15672029Y31420706D01*
X15672029Y31420706D02*
X15672029Y31611327D01*
X15910305Y31087120D02*
X15910305Y30991809D01*
X15910305Y30991809D02*
X15886478Y30944154D01*
X15886478Y30944154D02*
X15862650Y30920326D01*
X15862650Y30920326D02*
X15791167Y30872671D01*
X15791167Y30872671D02*
X15695857Y30848844D01*
X15695857Y30848844D02*
X15505236Y30848844D01*
X15505236Y30848844D02*
X15457580Y30872671D01*
X15457580Y30872671D02*
X15433753Y30896499D01*
X15433753Y30896499D02*
X15409925Y30944154D01*
X15409925Y30944154D02*
X15409925Y31039465D01*
X15409925Y31039465D02*
X15433753Y31087120D01*
X15433753Y31087120D02*
X15457580Y31110947D01*
X15457580Y31110947D02*
X15505236Y31134775D01*
X15505236Y31134775D02*
X15624374Y31134775D01*
X15624374Y31134775D02*
X15672029Y31110947D01*
X15672029Y31110947D02*
X15695857Y31087120D01*
X15695857Y31087120D02*
X15719684Y31039465D01*
X15719684Y31039465D02*
X15719684Y30944154D01*
X15719684Y30944154D02*
X15695857Y30896499D01*
X15695857Y30896499D02*
X15672029Y30872671D01*
X15672029Y30872671D02*
X15624374Y30848844D01*
X15211805Y31666845D02*
X15211805Y31952776D01*
X15211805Y31809810D02*
X14711425Y31809810D01*
X14711425Y31809810D02*
X14782908Y31857466D01*
X14782908Y31857466D02*
X14830563Y31905121D01*
X14830563Y31905121D02*
X14854391Y31952776D01*
X14711425Y31357086D02*
X14711425Y31309431D01*
X14711425Y31309431D02*
X14735253Y31261775D01*
X14735253Y31261775D02*
X14759080Y31237948D01*
X14759080Y31237948D02*
X14806736Y31214120D01*
X14806736Y31214120D02*
X14902046Y31190293D01*
X14902046Y31190293D02*
X15021184Y31190293D01*
X15021184Y31190293D02*
X15116495Y31214120D01*
X15116495Y31214120D02*
X15164150Y31237948D01*
X15164150Y31237948D02*
X15187978Y31261775D01*
X15187978Y31261775D02*
X15211805Y31309431D01*
X15211805Y31309431D02*
X15211805Y31357086D01*
X15211805Y31357086D02*
X15187978Y31404741D01*
X15187978Y31404741D02*
X15164150Y31428569D01*
X15164150Y31428569D02*
X15116495Y31452396D01*
X15116495Y31452396D02*
X15021184Y31476224D01*
X15021184Y31476224D02*
X14902046Y31476224D01*
X14902046Y31476224D02*
X14806736Y31452396D01*
X14806736Y31452396D02*
X14759080Y31428569D01*
X14759080Y31428569D02*
X14735253Y31404741D01*
X14735253Y31404741D02*
X14711425Y31357086D01*
X15211805Y30975844D02*
X14711425Y30975844D01*
X15021184Y30928189D02*
X15211805Y30785223D01*
X14878218Y30785223D02*
X15068839Y30975844D01*
X20990305Y31563672D02*
X20752029Y31730465D01*
X20990305Y31849603D02*
X20489925Y31849603D01*
X20489925Y31849603D02*
X20489925Y31658982D01*
X20489925Y31658982D02*
X20513753Y31611327D01*
X20513753Y31611327D02*
X20537580Y31587500D01*
X20537580Y31587500D02*
X20585236Y31563672D01*
X20585236Y31563672D02*
X20656718Y31563672D01*
X20656718Y31563672D02*
X20704374Y31587500D01*
X20704374Y31587500D02*
X20728201Y31611327D01*
X20728201Y31611327D02*
X20752029Y31658982D01*
X20752029Y31658982D02*
X20752029Y31849603D01*
X20990305Y31087120D02*
X20990305Y31373051D01*
X20990305Y31230085D02*
X20489925Y31230085D01*
X20489925Y31230085D02*
X20561408Y31277741D01*
X20561408Y31277741D02*
X20609063Y31325396D01*
X20609063Y31325396D02*
X20632891Y31373051D01*
X20489925Y30777361D02*
X20489925Y30729706D01*
X20489925Y30729706D02*
X20513753Y30682050D01*
X20513753Y30682050D02*
X20537580Y30658223D01*
X20537580Y30658223D02*
X20585236Y30634395D01*
X20585236Y30634395D02*
X20680546Y30610568D01*
X20680546Y30610568D02*
X20799684Y30610568D01*
X20799684Y30610568D02*
X20894995Y30634395D01*
X20894995Y30634395D02*
X20942650Y30658223D01*
X20942650Y30658223D02*
X20966478Y30682050D01*
X20966478Y30682050D02*
X20990305Y30729706D01*
X20990305Y30729706D02*
X20990305Y30777361D01*
X20990305Y30777361D02*
X20966478Y30825016D01*
X20966478Y30825016D02*
X20942650Y30848844D01*
X20942650Y30848844D02*
X20894995Y30872671D01*
X20894995Y30872671D02*
X20799684Y30896499D01*
X20799684Y30896499D02*
X20680546Y30896499D01*
X20680546Y30896499D02*
X20585236Y30872671D01*
X20585236Y30872671D02*
X20537580Y30848844D01*
X20537580Y30848844D02*
X20513753Y30825016D01*
X20513753Y30825016D02*
X20489925Y30777361D01*
X20291805Y31666845D02*
X20291805Y31952776D01*
X20291805Y31809810D02*
X19791425Y31809810D01*
X19791425Y31809810D02*
X19862908Y31857466D01*
X19862908Y31857466D02*
X19910563Y31905121D01*
X19910563Y31905121D02*
X19934391Y31952776D01*
X19791425Y31357086D02*
X19791425Y31309431D01*
X19791425Y31309431D02*
X19815253Y31261775D01*
X19815253Y31261775D02*
X19839080Y31237948D01*
X19839080Y31237948D02*
X19886736Y31214120D01*
X19886736Y31214120D02*
X19982046Y31190293D01*
X19982046Y31190293D02*
X20101184Y31190293D01*
X20101184Y31190293D02*
X20196495Y31214120D01*
X20196495Y31214120D02*
X20244150Y31237948D01*
X20244150Y31237948D02*
X20267978Y31261775D01*
X20267978Y31261775D02*
X20291805Y31309431D01*
X20291805Y31309431D02*
X20291805Y31357086D01*
X20291805Y31357086D02*
X20267978Y31404741D01*
X20267978Y31404741D02*
X20244150Y31428569D01*
X20244150Y31428569D02*
X20196495Y31452396D01*
X20196495Y31452396D02*
X20101184Y31476224D01*
X20101184Y31476224D02*
X19982046Y31476224D01*
X19982046Y31476224D02*
X19886736Y31452396D01*
X19886736Y31452396D02*
X19839080Y31428569D01*
X19839080Y31428569D02*
X19815253Y31404741D01*
X19815253Y31404741D02*
X19791425Y31357086D01*
X20291805Y30975844D02*
X19791425Y30975844D01*
X20101184Y30928189D02*
X20291805Y30785223D01*
X19958218Y30785223D02*
X20148839Y30975844D01*
X11307172Y16601694D02*
X11473965Y16839970D01*
X11593103Y16601694D02*
X11593103Y17102074D01*
X11593103Y17102074D02*
X11402482Y17102074D01*
X11402482Y17102074D02*
X11354827Y17078246D01*
X11354827Y17078246D02*
X11331000Y17054419D01*
X11331000Y17054419D02*
X11307172Y17006763D01*
X11307172Y17006763D02*
X11307172Y16935281D01*
X11307172Y16935281D02*
X11331000Y16887625D01*
X11331000Y16887625D02*
X11354827Y16863798D01*
X11354827Y16863798D02*
X11402482Y16839970D01*
X11402482Y16839970D02*
X11593103Y16839970D01*
X10830620Y16601694D02*
X11116551Y16601694D01*
X10973585Y16601694D02*
X10973585Y17102074D01*
X10973585Y17102074D02*
X11021241Y17030591D01*
X11021241Y17030591D02*
X11068896Y16982936D01*
X11068896Y16982936D02*
X11116551Y16959108D01*
X10354068Y16601694D02*
X10639999Y16601694D01*
X10497033Y16601694D02*
X10497033Y17102074D01*
X10497033Y17102074D02*
X10544689Y17030591D01*
X10544689Y17030591D02*
X10592344Y16982936D01*
X10592344Y16982936D02*
X10639999Y16959108D01*
X11696276Y17752919D02*
X11672448Y17776746D01*
X11672448Y17776746D02*
X11624793Y17800574D01*
X11624793Y17800574D02*
X11505655Y17800574D01*
X11505655Y17800574D02*
X11458000Y17776746D01*
X11458000Y17776746D02*
X11434172Y17752919D01*
X11434172Y17752919D02*
X11410345Y17705263D01*
X11410345Y17705263D02*
X11410345Y17657608D01*
X11410345Y17657608D02*
X11434172Y17586125D01*
X11434172Y17586125D02*
X11720104Y17300194D01*
X11720104Y17300194D02*
X11410345Y17300194D01*
X11100586Y17800574D02*
X11052931Y17800574D01*
X11052931Y17800574D02*
X11005275Y17776746D01*
X11005275Y17776746D02*
X10981448Y17752919D01*
X10981448Y17752919D02*
X10957620Y17705263D01*
X10957620Y17705263D02*
X10933793Y17609953D01*
X10933793Y17609953D02*
X10933793Y17490815D01*
X10933793Y17490815D02*
X10957620Y17395504D01*
X10957620Y17395504D02*
X10981448Y17347849D01*
X10981448Y17347849D02*
X11005275Y17324022D01*
X11005275Y17324022D02*
X11052931Y17300194D01*
X11052931Y17300194D02*
X11100586Y17300194D01*
X11100586Y17300194D02*
X11148241Y17324022D01*
X11148241Y17324022D02*
X11172069Y17347849D01*
X11172069Y17347849D02*
X11195896Y17395504D01*
X11195896Y17395504D02*
X11219724Y17490815D01*
X11219724Y17490815D02*
X11219724Y17609953D01*
X11219724Y17609953D02*
X11195896Y17705263D01*
X11195896Y17705263D02*
X11172069Y17752919D01*
X11172069Y17752919D02*
X11148241Y17776746D01*
X11148241Y17776746D02*
X11100586Y17800574D01*
X10719344Y17300194D02*
X10719344Y17800574D01*
X10671689Y17490815D02*
X10528723Y17300194D01*
X10528723Y17633781D02*
X10719344Y17443160D01*
X7243172Y29682694D02*
X7409965Y29920970D01*
X7529103Y29682694D02*
X7529103Y30183074D01*
X7529103Y30183074D02*
X7338482Y30183074D01*
X7338482Y30183074D02*
X7290827Y30159246D01*
X7290827Y30159246D02*
X7267000Y30135419D01*
X7267000Y30135419D02*
X7243172Y30087763D01*
X7243172Y30087763D02*
X7243172Y30016281D01*
X7243172Y30016281D02*
X7267000Y29968625D01*
X7267000Y29968625D02*
X7290827Y29944798D01*
X7290827Y29944798D02*
X7338482Y29920970D01*
X7338482Y29920970D02*
X7529103Y29920970D01*
X6766620Y29682694D02*
X7052551Y29682694D01*
X6909585Y29682694D02*
X6909585Y30183074D01*
X6909585Y30183074D02*
X6957241Y30111591D01*
X6957241Y30111591D02*
X7004896Y30063936D01*
X7004896Y30063936D02*
X7052551Y30040108D01*
X6575999Y30135419D02*
X6552171Y30159246D01*
X6552171Y30159246D02*
X6504516Y30183074D01*
X6504516Y30183074D02*
X6385378Y30183074D01*
X6385378Y30183074D02*
X6337723Y30159246D01*
X6337723Y30159246D02*
X6313895Y30135419D01*
X6313895Y30135419D02*
X6290068Y30087763D01*
X6290068Y30087763D02*
X6290068Y30040108D01*
X6290068Y30040108D02*
X6313895Y29968625D01*
X6313895Y29968625D02*
X6599827Y29682694D01*
X6599827Y29682694D02*
X6290068Y29682694D01*
X7632276Y30833919D02*
X7608448Y30857746D01*
X7608448Y30857746D02*
X7560793Y30881574D01*
X7560793Y30881574D02*
X7441655Y30881574D01*
X7441655Y30881574D02*
X7394000Y30857746D01*
X7394000Y30857746D02*
X7370172Y30833919D01*
X7370172Y30833919D02*
X7346345Y30786263D01*
X7346345Y30786263D02*
X7346345Y30738608D01*
X7346345Y30738608D02*
X7370172Y30667125D01*
X7370172Y30667125D02*
X7656104Y30381194D01*
X7656104Y30381194D02*
X7346345Y30381194D01*
X7036586Y30881574D02*
X6988931Y30881574D01*
X6988931Y30881574D02*
X6941275Y30857746D01*
X6941275Y30857746D02*
X6917448Y30833919D01*
X6917448Y30833919D02*
X6893620Y30786263D01*
X6893620Y30786263D02*
X6869793Y30690953D01*
X6869793Y30690953D02*
X6869793Y30571815D01*
X6869793Y30571815D02*
X6893620Y30476504D01*
X6893620Y30476504D02*
X6917448Y30428849D01*
X6917448Y30428849D02*
X6941275Y30405022D01*
X6941275Y30405022D02*
X6988931Y30381194D01*
X6988931Y30381194D02*
X7036586Y30381194D01*
X7036586Y30381194D02*
X7084241Y30405022D01*
X7084241Y30405022D02*
X7108069Y30428849D01*
X7108069Y30428849D02*
X7131896Y30476504D01*
X7131896Y30476504D02*
X7155724Y30571815D01*
X7155724Y30571815D02*
X7155724Y30690953D01*
X7155724Y30690953D02*
X7131896Y30786263D01*
X7131896Y30786263D02*
X7108069Y30833919D01*
X7108069Y30833919D02*
X7084241Y30857746D01*
X7084241Y30857746D02*
X7036586Y30881574D01*
X6655344Y30381194D02*
X6655344Y30881574D01*
X6607689Y30571815D02*
X6464723Y30381194D01*
X6464723Y30714781D02*
X6655344Y30524160D01*
X47311672Y29873194D02*
X47478465Y30111470D01*
X47597603Y29873194D02*
X47597603Y30373574D01*
X47597603Y30373574D02*
X47406982Y30373574D01*
X47406982Y30373574D02*
X47359327Y30349746D01*
X47359327Y30349746D02*
X47335500Y30325919D01*
X47335500Y30325919D02*
X47311672Y30278263D01*
X47311672Y30278263D02*
X47311672Y30206781D01*
X47311672Y30206781D02*
X47335500Y30159125D01*
X47335500Y30159125D02*
X47359327Y30135298D01*
X47359327Y30135298D02*
X47406982Y30111470D01*
X47406982Y30111470D02*
X47597603Y30111470D01*
X46835120Y29873194D02*
X47121051Y29873194D01*
X46978085Y29873194D02*
X46978085Y30373574D01*
X46978085Y30373574D02*
X47025741Y30302091D01*
X47025741Y30302091D02*
X47073396Y30254436D01*
X47073396Y30254436D02*
X47121051Y30230608D01*
X46668327Y30373574D02*
X46358568Y30373574D01*
X46358568Y30373574D02*
X46525361Y30182953D01*
X46525361Y30182953D02*
X46453878Y30182953D01*
X46453878Y30182953D02*
X46406223Y30159125D01*
X46406223Y30159125D02*
X46382395Y30135298D01*
X46382395Y30135298D02*
X46358568Y30087642D01*
X46358568Y30087642D02*
X46358568Y29968504D01*
X46358568Y29968504D02*
X46382395Y29920849D01*
X46382395Y29920849D02*
X46406223Y29897022D01*
X46406223Y29897022D02*
X46453878Y29873194D01*
X46453878Y29873194D02*
X46596844Y29873194D01*
X46596844Y29873194D02*
X46644499Y29897022D01*
X46644499Y29897022D02*
X46668327Y29920849D01*
X47700776Y31024419D02*
X47676948Y31048246D01*
X47676948Y31048246D02*
X47629293Y31072074D01*
X47629293Y31072074D02*
X47510155Y31072074D01*
X47510155Y31072074D02*
X47462500Y31048246D01*
X47462500Y31048246D02*
X47438672Y31024419D01*
X47438672Y31024419D02*
X47414845Y30976763D01*
X47414845Y30976763D02*
X47414845Y30929108D01*
X47414845Y30929108D02*
X47438672Y30857625D01*
X47438672Y30857625D02*
X47724604Y30571694D01*
X47724604Y30571694D02*
X47414845Y30571694D01*
X47105086Y31072074D02*
X47057431Y31072074D01*
X47057431Y31072074D02*
X47009775Y31048246D01*
X47009775Y31048246D02*
X46985948Y31024419D01*
X46985948Y31024419D02*
X46962120Y30976763D01*
X46962120Y30976763D02*
X46938293Y30881453D01*
X46938293Y30881453D02*
X46938293Y30762315D01*
X46938293Y30762315D02*
X46962120Y30667004D01*
X46962120Y30667004D02*
X46985948Y30619349D01*
X46985948Y30619349D02*
X47009775Y30595522D01*
X47009775Y30595522D02*
X47057431Y30571694D01*
X47057431Y30571694D02*
X47105086Y30571694D01*
X47105086Y30571694D02*
X47152741Y30595522D01*
X47152741Y30595522D02*
X47176569Y30619349D01*
X47176569Y30619349D02*
X47200396Y30667004D01*
X47200396Y30667004D02*
X47224224Y30762315D01*
X47224224Y30762315D02*
X47224224Y30881453D01*
X47224224Y30881453D02*
X47200396Y30976763D01*
X47200396Y30976763D02*
X47176569Y31024419D01*
X47176569Y31024419D02*
X47152741Y31048246D01*
X47152741Y31048246D02*
X47105086Y31072074D01*
X46723844Y30571694D02*
X46723844Y31072074D01*
X46676189Y30762315D02*
X46533223Y30571694D01*
X46533223Y30905281D02*
X46723844Y30714660D01*
X47883172Y16601694D02*
X48049965Y16839970D01*
X48169103Y16601694D02*
X48169103Y17102074D01*
X48169103Y17102074D02*
X47978482Y17102074D01*
X47978482Y17102074D02*
X47930827Y17078246D01*
X47930827Y17078246D02*
X47907000Y17054419D01*
X47907000Y17054419D02*
X47883172Y17006763D01*
X47883172Y17006763D02*
X47883172Y16935281D01*
X47883172Y16935281D02*
X47907000Y16887625D01*
X47907000Y16887625D02*
X47930827Y16863798D01*
X47930827Y16863798D02*
X47978482Y16839970D01*
X47978482Y16839970D02*
X48169103Y16839970D01*
X47406620Y16601694D02*
X47692551Y16601694D01*
X47549585Y16601694D02*
X47549585Y17102074D01*
X47549585Y17102074D02*
X47597241Y17030591D01*
X47597241Y17030591D02*
X47644896Y16982936D01*
X47644896Y16982936D02*
X47692551Y16959108D01*
X46977723Y16935281D02*
X46977723Y16601694D01*
X47096861Y17125902D02*
X47215999Y16768487D01*
X47215999Y16768487D02*
X46906240Y16768487D01*
X48272276Y17752919D02*
X48248448Y17776746D01*
X48248448Y17776746D02*
X48200793Y17800574D01*
X48200793Y17800574D02*
X48081655Y17800574D01*
X48081655Y17800574D02*
X48034000Y17776746D01*
X48034000Y17776746D02*
X48010172Y17752919D01*
X48010172Y17752919D02*
X47986345Y17705263D01*
X47986345Y17705263D02*
X47986345Y17657608D01*
X47986345Y17657608D02*
X48010172Y17586125D01*
X48010172Y17586125D02*
X48296104Y17300194D01*
X48296104Y17300194D02*
X47986345Y17300194D01*
X47676586Y17800574D02*
X47628931Y17800574D01*
X47628931Y17800574D02*
X47581275Y17776746D01*
X47581275Y17776746D02*
X47557448Y17752919D01*
X47557448Y17752919D02*
X47533620Y17705263D01*
X47533620Y17705263D02*
X47509793Y17609953D01*
X47509793Y17609953D02*
X47509793Y17490815D01*
X47509793Y17490815D02*
X47533620Y17395504D01*
X47533620Y17395504D02*
X47557448Y17347849D01*
X47557448Y17347849D02*
X47581275Y17324022D01*
X47581275Y17324022D02*
X47628931Y17300194D01*
X47628931Y17300194D02*
X47676586Y17300194D01*
X47676586Y17300194D02*
X47724241Y17324022D01*
X47724241Y17324022D02*
X47748069Y17347849D01*
X47748069Y17347849D02*
X47771896Y17395504D01*
X47771896Y17395504D02*
X47795724Y17490815D01*
X47795724Y17490815D02*
X47795724Y17609953D01*
X47795724Y17609953D02*
X47771896Y17705263D01*
X47771896Y17705263D02*
X47748069Y17752919D01*
X47748069Y17752919D02*
X47724241Y17776746D01*
X47724241Y17776746D02*
X47676586Y17800574D01*
X47295344Y17300194D02*
X47295344Y17800574D01*
X47247689Y17490815D02*
X47104723Y17300194D01*
X47104723Y17633781D02*
X47295344Y17443160D01*
D13*
X24481819Y24891904D02*
X25291342Y24891904D01*
X25291342Y24891904D02*
X25386580Y24844285D01*
X25386580Y24844285D02*
X25434200Y24796666D01*
X25434200Y24796666D02*
X25481819Y24701428D01*
X25481819Y24701428D02*
X25481819Y24510952D01*
X25481819Y24510952D02*
X25434200Y24415714D01*
X25434200Y24415714D02*
X25386580Y24368095D01*
X25386580Y24368095D02*
X25291342Y24320476D01*
X25291342Y24320476D02*
X24481819Y24320476D01*
X25481819Y23320476D02*
X25481819Y23891904D01*
X25481819Y23606190D02*
X24481819Y23606190D01*
X24481819Y23606190D02*
X24624676Y23701428D01*
X24624676Y23701428D02*
X24719914Y23796666D01*
X24719914Y23796666D02*
X24767533Y23891904D01*
X24092819Y22351999D02*
X24330914Y22351999D01*
X24235676Y22590094D02*
X24330914Y22351999D01*
X24330914Y22351999D02*
X24235676Y22113904D01*
X24521390Y22494856D02*
X24330914Y22351999D01*
X24330914Y22351999D02*
X24521390Y22209142D01*
%TO.C,C1*%
X25158700Y19570700D02*
X23959820Y19570700D01*
X24559260Y20071080D02*
X24559260Y18971260D01*
X23858220Y18717260D02*
X23858220Y15318740D01*
X16558260Y15318740D02*
X22557740Y15318740D01*
X16558260Y18717260D02*
X22557740Y18717260D01*
%TO.C,C2*%
X25273000Y20955000D02*
X25273000Y19431000D01*
X25273000Y19431000D02*
X26289000Y19431000D01*
X26289000Y20955000D02*
X25273000Y20955000D01*
X27305000Y19431000D02*
X28321000Y19431000D01*
X28321000Y20955000D02*
X27305000Y20955000D01*
X28321000Y19431000D02*
X28321000Y20955000D01*
X25273000Y20955000D02*
G75*
G03*
X25019000Y20955000I-127000J0D01*
G01*
X25019000Y20955000D02*
G75*
G03*
X25273000Y20955000I127000J0D01*
G01*
%TO.C,C3*%
X37909500Y38735000D02*
X37909500Y37211000D01*
X37909500Y37211000D02*
X38925500Y37211000D01*
X38925500Y38735000D02*
X37909500Y38735000D01*
X39941500Y37211000D02*
X40957500Y37211000D01*
X40957500Y38735000D02*
X39941500Y38735000D01*
X40957500Y37211000D02*
X40957500Y38735000D01*
X37909500Y38735000D02*
G75*
G03*
X37655500Y38735000I-127000J0D01*
G01*
X37655500Y38735000D02*
G75*
G03*
X37909500Y38735000I127000J0D01*
G01*
%TO.C,C4*%
X5397500Y16383000D02*
X5397500Y17907000D01*
X5397500Y17907000D02*
X4381500Y17907000D01*
X4381500Y16383000D02*
X5397500Y16383000D01*
X3365500Y17907000D02*
X2349500Y17907000D01*
X2349500Y16383000D02*
X3365500Y16383000D01*
X2349500Y17907000D02*
X2349500Y16383000D01*
X5651500Y16383000D02*
G75*
G03*
X5397500Y16383000I-127000J0D01*
G01*
X5397500Y16383000D02*
G75*
G03*
X5651500Y16383000I127000J0D01*
G01*
%TO.C,C5*%
X4889500Y29464000D02*
X4889500Y30988000D01*
X4889500Y30988000D02*
X3873500Y30988000D01*
X3873500Y29464000D02*
X4889500Y29464000D01*
X2857500Y30988000D02*
X1841500Y30988000D01*
X1841500Y29464000D02*
X2857500Y29464000D01*
X1841500Y30988000D02*
X1841500Y29464000D01*
X5143500Y29464000D02*
G75*
G03*
X4889500Y29464000I-127000J0D01*
G01*
X4889500Y29464000D02*
G75*
G03*
X5143500Y29464000I127000J0D01*
G01*
%TO.C,C6*%
X45021500Y29591000D02*
X45021500Y31115000D01*
X45021500Y31115000D02*
X44005500Y31115000D01*
X44005500Y29591000D02*
X45021500Y29591000D01*
X42989500Y31115000D02*
X41973500Y31115000D01*
X41973500Y29591000D02*
X42989500Y29591000D01*
X41973500Y31115000D02*
X41973500Y29591000D01*
X45275500Y29591000D02*
G75*
G03*
X45021500Y29591000I-127000J0D01*
G01*
X45021500Y29591000D02*
G75*
G03*
X45275500Y29591000I127000J0D01*
G01*
%TO.C,C7*%
X41529000Y16446500D02*
X41529000Y17970500D01*
X41529000Y17970500D02*
X40513000Y17970500D01*
X40513000Y16446500D02*
X41529000Y16446500D01*
X39497000Y17970500D02*
X38481000Y17970500D01*
X38481000Y16446500D02*
X39497000Y16446500D01*
X38481000Y17970500D02*
X38481000Y16446500D01*
X41783000Y16446500D02*
G75*
G03*
X41529000Y16446500I-127000J0D01*
G01*
X41529000Y16446500D02*
G75*
G03*
X41783000Y16446500I127000J0D01*
G01*
%TO.C,D1*%
X30373320Y14640560D02*
X30373320Y14838680D01*
X30373320Y14640560D02*
X25770840Y14640560D01*
X30368240Y14886940D02*
X30368240Y15036800D01*
X30368240Y18387060D02*
X30368240Y18288000D01*
X30368240Y18635980D02*
X30368240Y18437860D01*
X30368240Y18635980D02*
X25765760Y18635980D01*
X26116280Y14638020D02*
X26116280Y14836140D01*
X26116280Y14886940D02*
X26116280Y14986000D01*
X26116280Y18387060D02*
X26116280Y18288000D01*
X26116280Y18635980D02*
X26116280Y18437860D01*
X25770840Y14640560D02*
X25770840Y14838680D01*
X25765760Y14886940D02*
X25765760Y14986000D01*
X25765760Y18387060D02*
X25765760Y18288000D01*
X25765760Y18635980D02*
X25765760Y18437860D01*
%TO.C,D2*%
X5369560Y11292840D02*
X5567680Y11292840D01*
X5369560Y11292840D02*
X5369560Y15895320D01*
X5615940Y11297920D02*
X5765800Y11297920D01*
X9116060Y11297920D02*
X9017000Y11297920D01*
X9364980Y11297920D02*
X9166860Y11297920D01*
X9364980Y11297920D02*
X9364980Y15900400D01*
X5367020Y15549880D02*
X5565140Y15549880D01*
X5615940Y15549880D02*
X5715000Y15549880D01*
X9116060Y15549880D02*
X9017000Y15549880D01*
X9364980Y15549880D02*
X9166860Y15549880D01*
X5369560Y15895320D02*
X5567680Y15895320D01*
X5615940Y15900400D02*
X5715000Y15900400D01*
X9116060Y15900400D02*
X9017000Y15900400D01*
X9364980Y15900400D02*
X9166860Y15900400D01*
%TO.C,D3*%
X13553440Y36205160D02*
X13355320Y36205160D01*
X13553440Y36205160D02*
X13553440Y31602680D01*
X13307060Y36200080D02*
X13157200Y36200080D01*
X9806940Y36200080D02*
X9906000Y36200080D01*
X9558020Y36200080D02*
X9756140Y36200080D01*
X9558020Y36200080D02*
X9558020Y31597600D01*
X13555980Y31948120D02*
X13357860Y31948120D01*
X13307060Y31948120D02*
X13208000Y31948120D01*
X9806940Y31948120D02*
X9906000Y31948120D01*
X9558020Y31948120D02*
X9756140Y31948120D01*
X13553440Y31602680D02*
X13355320Y31602680D01*
X13307060Y31597600D02*
X13208000Y31597600D01*
X9806940Y31597600D02*
X9906000Y31597600D01*
X9558020Y31597600D02*
X9756140Y31597600D01*
%TO.C,D4*%
X41620440Y35590480D02*
X41422320Y35590480D01*
X41620440Y35590480D02*
X41620440Y30988000D01*
X41374060Y35585400D02*
X41224200Y35585400D01*
X37873940Y35585400D02*
X37973000Y35585400D01*
X37625020Y35585400D02*
X37823140Y35585400D01*
X37625020Y35585400D02*
X37625020Y30982920D01*
X41622980Y31333440D02*
X41424860Y31333440D01*
X41374060Y31333440D02*
X41275000Y31333440D01*
X37873940Y31333440D02*
X37973000Y31333440D01*
X37625020Y31333440D02*
X37823140Y31333440D01*
X41620440Y30988000D02*
X41422320Y30988000D01*
X41374060Y30982920D02*
X41275000Y30982920D01*
X37873940Y30982920D02*
X37973000Y30982920D01*
X37625020Y30982920D02*
X37823140Y30982920D01*
%TO.C,D5*%
X42072560Y11927840D02*
X42270680Y11927840D01*
X42072560Y11927840D02*
X42072560Y16530320D01*
X42318940Y11932920D02*
X42468800Y11932920D01*
X45819060Y11932920D02*
X45720000Y11932920D01*
X46067980Y11932920D02*
X45869860Y11932920D01*
X46067980Y11932920D02*
X46067980Y16535400D01*
X42070020Y16184880D02*
X42268140Y16184880D01*
X42318940Y16184880D02*
X42418000Y16184880D01*
X45819060Y16184880D02*
X45720000Y16184880D01*
X46067980Y16184880D02*
X45869860Y16184880D01*
X42072560Y16530320D02*
X42270680Y16530320D01*
X42318940Y16535400D02*
X42418000Y16535400D01*
X45819060Y16535400D02*
X45720000Y16535400D01*
X46067980Y16535400D02*
X45869860Y16535400D01*
%TO.C,R1*%
X29972000Y29654500D02*
X31496000Y29654500D01*
X31496000Y29654500D02*
X31496000Y30670500D01*
X29972000Y30670500D02*
X29972000Y29654500D01*
X31496000Y31686500D02*
X31496000Y32702500D01*
X29972000Y32702500D02*
X29972000Y31686500D01*
X31496000Y32702500D02*
X29972000Y32702500D01*
X30099000Y29527500D02*
G75*
G03*
X29845000Y29527500I-127000J0D01*
G01*
X29845000Y29527500D02*
G75*
G03*
X30099000Y29527500I127000J0D01*
G01*
%TO.C,R2*%
X32639000Y15240000D02*
X34163000Y15240000D01*
X34163000Y15240000D02*
X34163000Y16256000D01*
X32639000Y16256000D02*
X32639000Y15240000D01*
X34163000Y17272000D02*
X34163000Y18288000D01*
X32639000Y18288000D02*
X32639000Y17272000D01*
X34163000Y18288000D02*
X32639000Y18288000D01*
X32766000Y15113000D02*
G75*
G03*
X32512000Y15113000I-127000J0D01*
G01*
X32512000Y15113000D02*
G75*
G03*
X32766000Y15113000I127000J0D01*
G01*
%TO.C,R3*%
X17272000Y29718000D02*
X18796000Y29718000D01*
X18796000Y29718000D02*
X18796000Y30734000D01*
X17272000Y30734000D02*
X17272000Y29718000D01*
X18796000Y31750000D02*
X18796000Y32766000D01*
X17272000Y32766000D02*
X17272000Y31750000D01*
X18796000Y32766000D02*
X17272000Y32766000D01*
X17399000Y29591000D02*
G75*
G03*
X17145000Y29591000I-127000J0D01*
G01*
X17145000Y29591000D02*
G75*
G03*
X17399000Y29591000I127000J0D01*
G01*
%TO.C,R4*%
X22352000Y29718000D02*
X23876000Y29718000D01*
X23876000Y29718000D02*
X23876000Y30734000D01*
X22352000Y30734000D02*
X22352000Y29718000D01*
X23876000Y31750000D02*
X23876000Y32766000D01*
X22352000Y32766000D02*
X22352000Y31750000D01*
X23876000Y32766000D02*
X22352000Y32766000D01*
X22479000Y29591000D02*
G75*
G03*
X22225000Y29591000I-127000J0D01*
G01*
X22225000Y29591000D02*
G75*
G03*
X22479000Y29591000I127000J0D01*
G01*
%TO.C,R5*%
X35052000Y29654500D02*
X36576000Y29654500D01*
X36576000Y29654500D02*
X36576000Y30670500D01*
X35052000Y30670500D02*
X35052000Y29654500D01*
X36576000Y31686500D02*
X36576000Y32702500D01*
X35052000Y32702500D02*
X35052000Y31686500D01*
X36576000Y32702500D02*
X35052000Y32702500D01*
X35179000Y29527500D02*
G75*
G03*
X34925000Y29527500I-127000J0D01*
G01*
X34925000Y29527500D02*
G75*
G03*
X35179000Y29527500I127000J0D01*
G01*
%TO.C,R6*%
X27432000Y29718000D02*
X28956000Y29718000D01*
X28956000Y29718000D02*
X28956000Y30734000D01*
X27432000Y30734000D02*
X27432000Y29718000D01*
X28956000Y31750000D02*
X28956000Y32766000D01*
X27432000Y32766000D02*
X27432000Y31750000D01*
X28956000Y32766000D02*
X27432000Y32766000D01*
X27559000Y29591000D02*
G75*
G03*
X27305000Y29591000I-127000J0D01*
G01*
X27305000Y29591000D02*
G75*
G03*
X27559000Y29591000I127000J0D01*
G01*
%TO.C,R7*%
X32512000Y29654500D02*
X34036000Y29654500D01*
X34036000Y29654500D02*
X34036000Y30670500D01*
X32512000Y30670500D02*
X32512000Y29654500D01*
X34036000Y31686500D02*
X34036000Y32702500D01*
X32512000Y32702500D02*
X32512000Y31686500D01*
X34036000Y32702500D02*
X32512000Y32702500D01*
X32639000Y29527500D02*
G75*
G03*
X32385000Y29527500I-127000J0D01*
G01*
X32385000Y29527500D02*
G75*
G03*
X32639000Y29527500I127000J0D01*
G01*
%TO.C,R8*%
X24892000Y29718000D02*
X26416000Y29718000D01*
X26416000Y29718000D02*
X26416000Y30734000D01*
X24892000Y30734000D02*
X24892000Y29718000D01*
X26416000Y31750000D02*
X26416000Y32766000D01*
X24892000Y32766000D02*
X24892000Y31750000D01*
X26416000Y32766000D02*
X24892000Y32766000D01*
X25019000Y29591000D02*
G75*
G03*
X24765000Y29591000I-127000J0D01*
G01*
X24765000Y29591000D02*
G75*
G03*
X25019000Y29591000I127000J0D01*
G01*
%TO.C,R9*%
X14605000Y29718000D02*
X16129000Y29718000D01*
X16129000Y29718000D02*
X16129000Y30734000D01*
X14605000Y30734000D02*
X14605000Y29718000D01*
X16129000Y31750000D02*
X16129000Y32766000D01*
X14605000Y32766000D02*
X14605000Y31750000D01*
X16129000Y32766000D02*
X14605000Y32766000D01*
X14732000Y29591000D02*
G75*
G03*
X14478000Y29591000I-127000J0D01*
G01*
X14478000Y29591000D02*
G75*
G03*
X14732000Y29591000I127000J0D01*
G01*
%TO.C,R10*%
X19685000Y29718000D02*
X21209000Y29718000D01*
X21209000Y29718000D02*
X21209000Y30734000D01*
X19685000Y30734000D02*
X19685000Y29718000D01*
X21209000Y31750000D02*
X21209000Y32766000D01*
X19685000Y32766000D02*
X19685000Y31750000D01*
X21209000Y32766000D02*
X19685000Y32766000D01*
X19812000Y29591000D02*
G75*
G03*
X19558000Y29591000I-127000J0D01*
G01*
X19558000Y29591000D02*
G75*
G03*
X19812000Y29591000I127000J0D01*
G01*
%TO.C,R11*%
X9461500Y17907000D02*
X9461500Y16383000D01*
X9461500Y16383000D02*
X10477500Y16383000D01*
X10477500Y17907000D02*
X9461500Y17907000D01*
X11493500Y16383000D02*
X12509500Y16383000D01*
X12509500Y17907000D02*
X11493500Y17907000D01*
X12509500Y16383000D02*
X12509500Y17907000D01*
X9461500Y17907000D02*
G75*
G03*
X9207500Y17907000I-127000J0D01*
G01*
X9207500Y17907000D02*
G75*
G03*
X9461500Y17907000I127000J0D01*
G01*
%TO.C,R12*%
X5397500Y30988000D02*
X5397500Y29464000D01*
X5397500Y29464000D02*
X6413500Y29464000D01*
X6413500Y30988000D02*
X5397500Y30988000D01*
X7429500Y29464000D02*
X8445500Y29464000D01*
X8445500Y30988000D02*
X7429500Y30988000D01*
X8445500Y29464000D02*
X8445500Y30988000D01*
X5397500Y30988000D02*
G75*
G03*
X5143500Y30988000I-127000J0D01*
G01*
X5143500Y30988000D02*
G75*
G03*
X5397500Y30988000I127000J0D01*
G01*
%TO.C,R13*%
X45466000Y31178500D02*
X45466000Y29654500D01*
X45466000Y29654500D02*
X46482000Y29654500D01*
X46482000Y31178500D02*
X45466000Y31178500D01*
X47498000Y29654500D02*
X48514000Y29654500D01*
X48514000Y31178500D02*
X47498000Y31178500D01*
X48514000Y29654500D02*
X48514000Y31178500D01*
X45466000Y31178500D02*
G75*
G03*
X45212000Y31178500I-127000J0D01*
G01*
X45212000Y31178500D02*
G75*
G03*
X45466000Y31178500I127000J0D01*
G01*
%TO.C,R14*%
X46037500Y17907000D02*
X46037500Y16383000D01*
X46037500Y16383000D02*
X47053500Y16383000D01*
X47053500Y17907000D02*
X46037500Y17907000D01*
X48069500Y16383000D02*
X49085500Y16383000D01*
X49085500Y17907000D02*
X48069500Y17907000D01*
X49085500Y16383000D02*
X49085500Y17907000D01*
X46037500Y17907000D02*
G75*
G03*
X45783500Y17907000I-127000J0D01*
G01*
X45783500Y17907000D02*
G75*
G03*
X46037500Y17907000I127000J0D01*
G01*
%TO.C,U1*%
X23577000Y21680000D02*
X27477000Y21680000D01*
X27477000Y21680000D02*
X27477000Y26580000D01*
X23577000Y26580000D02*
X23577000Y21680000D01*
X27477000Y26580000D02*
X23577000Y26580000D01*
%TD*%
M02*
